<svg version="1.1" viewBox="0.0 0.0 390.54068241469815 196.1942257217848" fill="none" stroke="none" stroke-linecap="square" stroke-miterlimit="10" xmlns:xlink="http://www.w3.org/1999/xlink" xmlns="http://www.w3.org/2000/svg"><clipPath id="p.0"><path d="m0 0l390.54068 0l0 196.19423l-390.54068 0l0 -196.19423z" clip-rule="nonzero"/></clipPath><g clip-path="url(#p.0)"><path fill="#000000" fill-opacity="0.0" d="m0 0l390.54068 0l0 196.19423l-390.54068 0z" fill-rule="evenodd"/><path fill="#fff2cc" d="m108.30251 21.358267l248.53543 0l0 152.03151l-248.53543 0z" fill-rule="evenodd"/><path stroke="#000000" stroke-width="1.0" stroke-linejoin="round" stroke-linecap="butt" d="m108.30251 21.358267l248.53543 0l0 152.03151l-248.53543 0z" fill-rule="evenodd"/><path fill="#cfe2f3" d="m125.376 78.06153l161.6063 0l0 36.34645l-161.6063 0z" fill-rule="evenodd"/><path stroke="#073763" stroke-width="1.0" stroke-linejoin="round" stroke-linecap="butt" d="m125.376 78.06153l161.6063 0l0 36.34645l-161.6063 0z" fill-rule="evenodd"/><path fill="#073763" d="m180.69868 102.21976q0 0.78125 -0.125 1.25q-0.109375 0.484375 -0.359375 0.8125q-0.25 0.328125 -0.640625 0.5q-0.390625 0.171875 -0.953125 0.171875q-0.25 0 -0.4375 -0.03125q-0.171875 -0.03125 -0.265625 -0.078125q-0.09375 -0.03125 -0.125 -0.09375q-0.03125 -0.046875 -0.046875 -0.109375q-0.015625 -0.0625 -0.015625 -0.140625q-0.015625 -0.0625 -0.015625 -0.171875q0 -0.140625 0.015625 -0.25q0.015625 -0.09375 0.046875 -0.15625q0.015625 -0.0625 0.0625 -0.09375q0.03125 -0.015625 0.078125 -0.015625q0.046875 0 0.1875 0.015625q0.140625 0.015625 0.328125 0.015625q0.25 0 0.4375 -0.078125q0.1875 -0.078125 0.296875 -0.25q0.125 -0.171875 0.171875 -0.453125q0.0625 -0.28125 0.0625 -0.859375l0 -7.34375q0 -0.046875 0.03125 -0.09375q0.03125 -0.046875 0.09375 -0.078125q0.078125 -0.03125 0.203125 -0.046875q0.125 -0.015625 0.3125 -0.015625q0.1875 0 0.3125 0.015625q0.125 0.015625 0.203125 0.046875q0.078125 0.03125 0.109375 0.078125q0.03125 0.046875 0.03125 0.09375l0 7.359375zm0.140625 -9.734375q0 0.453125 -0.171875 0.625q-0.171875 0.15625 -0.625 0.15625q-0.453125 0 -0.625 -0.15625q-0.15625 -0.15625 -0.15625 -0.609375q0 -0.453125 0.15625 -0.609375q0.171875 -0.171875 0.640625 -0.171875q0.453125 0 0.609375 0.171875q0.171875 0.15625 0.171875 0.59375zm8.71875 5.78125q0 0.921875 -0.203125 1.65625q-0.203125 0.734375 -0.59375 1.25q-0.375 0.515625 -0.953125 0.796875q-0.5625 0.28125 -1.296875 0.28125q-0.3125 0 -0.578125 -0.0625q-0.265625 -0.0625 -0.53125 -0.203125q-0.25 -0.140625 -0.5 -0.34375q-0.25 -0.203125 -0.53125 -0.46875l0 3.515625q0 0.0625 -0.03125 0.109375q-0.03125 0.046875 -0.109375 0.078125q-0.0625 0.03125 -0.1875 0.046875q-0.125 0.015625 -0.3125 0.015625q-0.1875 0 -0.3125 -0.015625q-0.125 -0.015625 -0.203125 -0.046875q-0.078125 -0.03125 -0.109375 -0.078125q-0.015625 -0.046875 -0.015625 -0.109375l0 -9.828125q0 -0.0625 0.015625 -0.109375q0.03125 -0.046875 0.09375 -0.078125q0.078125 -0.03125 0.1875 -0.03125q0.109375 -0.015625 0.265625 -0.015625q0.15625 0 0.265625 0.015625q0.109375 0 0.171875 0.03125q0.078125 0.03125 0.09375 0.078125q0.03125 0.046875 0.03125 0.109375l0 0.953125q0.328125 -0.328125 0.625 -0.5625q0.296875 -0.25 0.59375 -0.40625q0.296875 -0.171875 0.609375 -0.25q0.328125 -0.078125 0.671875 -0.078125q0.765625 0 1.296875 0.296875q0.546875 0.296875 0.890625 0.8125q0.34375 0.515625 0.5 1.203125q0.15625 0.671875 0.15625 1.4375zm-1.359375 0.15625q0 -0.546875 -0.09375 -1.046875q-0.078125 -0.5 -0.28125 -0.890625q-0.1875 -0.390625 -0.53125 -0.625q-0.328125 -0.234375 -0.828125 -0.234375q-0.25 0 -0.5 0.078125q-0.234375 0.0625 -0.484375 0.234375q-0.25 0.15625 -0.53125 0.421875q-0.265625 0.25 -0.578125 0.640625l0 2.796875q0.53125 0.640625 1.0 0.984375q0.484375 0.34375 1.015625 0.34375q0.484375 0 0.828125 -0.234375q0.34375 -0.234375 0.5625 -0.625q0.21875 -0.390625 0.3125 -0.875q0.109375 -0.484375 0.109375 -0.96875zm6.453125 -0.28125q0 0.3125 -0.078125 0.4375q-0.0625 0.109375 -0.1875 0.109375l-3.265625 0q-0.140625 0 -0.21875 -0.125q-0.0625 -0.125 -0.0625 -0.421875q0 -0.296875 0.0625 -0.40625q0.078125 -0.125 0.21875 -0.125l3.265625 0q0.0625 0 0.109375 0.03125q0.046875 0.015625 0.078125 0.09375q0.046875 0.0625 0.0625 0.171875q0.015625 0.09375 0.015625 0.234375zm11.5703125 -3.296875q0 0.0625 -0.015625 0.140625q-0.015625 0.078125 -0.046875 0.1875l-2.078125 6.6875q-0.015625 0.078125 -0.078125 0.140625q-0.046875 0.046875 -0.140625 0.09375q-0.078125 0.03125 -0.234375 0.03125q-0.15625 0.015625 -0.390625 0.015625q-0.25 0 -0.421875 -0.015625q-0.15625 -0.015625 -0.25 -0.046875q-0.09375 -0.03125 -0.140625 -0.078125q-0.046875 -0.0625 -0.078125 -0.140625l-1.46875 -5.109375l-0.015625 -0.0625l-0.015625 0.0625l-1.375 5.109375q-0.015625 0.078125 -0.078125 0.140625q-0.046875 0.046875 -0.15625 0.09375q-0.09375 0.03125 -0.25 0.03125q-0.15625 0.015625 -0.390625 0.015625q-0.25 0 -0.40625 -0.015625q-0.140625 -0.015625 -0.25 -0.046875q-0.09375 -0.03125 -0.140625 -0.078125q-0.046875 -0.0625 -0.0625 -0.140625l-2.0625 -6.6875q-0.03125 -0.109375 -0.046875 -0.1875q-0.015625 -0.078125 -0.015625 -0.140625q0 -0.0625 0.03125 -0.109375q0.03125 -0.046875 0.09375 -0.0625q0.078125 -0.03125 0.203125 -0.03125q0.125 -0.015625 0.3125 -0.015625q0.21875 0 0.34375 0.015625q0.140625 0 0.203125 0.03125q0.078125 0.03125 0.109375 0.078125q0.03125 0.046875 0.046875 0.125l1.703125 5.796875l0.015625 0.0625l0.015625 -0.0625l1.546875 -5.796875q0.015625 -0.078125 0.046875 -0.125q0.046875 -0.046875 0.109375 -0.078125q0.078125 -0.03125 0.1875 -0.03125q0.125 -0.015625 0.328125 -0.015625q0.1875 0 0.296875 0.015625q0.125 0 0.1875 0.03125q0.078125 0.03125 0.109375 0.078125q0.03125 0.046875 0.046875 0.109375l1.6875 5.8125l0.015625 0.0625l0 -0.0625l1.671875 -5.796875q0.015625 -0.078125 0.046875 -0.125q0.046875 -0.046875 0.109375 -0.078125q0.078125 -0.03125 0.203125 -0.03125q0.140625 -0.015625 0.34375 -0.015625q0.1875 0 0.296875 0.015625q0.109375 0 0.171875 0.03125q0.078125 0.03125 0.09375 0.078125q0.03125 0.03125 0.03125 0.09375zm6.7265625 7.0625q0 0.09375 -0.0625 0.140625q-0.0625 0.046875 -0.171875 0.0625q-0.109375 0.03125 -0.328125 0.03125q-0.203125 0 -0.328125 -0.03125q-0.109375 -0.015625 -0.171875 -0.0625q-0.046875 -0.046875 -0.046875 -0.140625l0 -0.703125q-0.46875 0.484375 -1.03125 0.765625q-0.5625 0.28125 -1.203125 0.28125q-0.546875 0 -1.0 -0.15625q-0.453125 -0.140625 -0.765625 -0.40625q-0.3125 -0.28125 -0.5 -0.671875q-0.171875 -0.40625 -0.171875 -0.921875q0 -0.59375 0.234375 -1.03125q0.25 -0.4375 0.703125 -0.71875q0.453125 -0.296875 1.109375 -0.4375q0.65625 -0.140625 1.484375 -0.140625l0.96875 0l0 -0.546875q0 -0.40625 -0.09375 -0.71875q-0.078125 -0.3125 -0.28125 -0.515625q-0.1875 -0.21875 -0.5 -0.3125q-0.296875 -0.109375 -0.734375 -0.109375q-0.484375 0 -0.859375 0.109375q-0.375 0.109375 -0.671875 0.25q-0.28125 0.140625 -0.46875 0.25q-0.1875 0.109375 -0.28125 0.109375q-0.0625 0 -0.109375 -0.03125q-0.046875 -0.03125 -0.09375 -0.09375q-0.03125 -0.0625 -0.046875 -0.15625q-0.015625 -0.09375 -0.015625 -0.21875q0 -0.1875 0.03125 -0.296875q0.03125 -0.125 0.125 -0.21875q0.109375 -0.109375 0.359375 -0.234375q0.265625 -0.140625 0.59375 -0.25q0.34375 -0.125 0.734375 -0.1875q0.40625 -0.078125 0.8125 -0.078125q0.765625 0 1.296875 0.171875q0.53125 0.171875 0.859375 0.5q0.328125 0.328125 0.46875 0.828125q0.15625 0.484375 0.15625 1.140625l0 4.75zm-1.28125 -3.21875l-1.109375 0q-0.53125 0 -0.921875 0.09375q-0.390625 0.09375 -0.65625 0.265625q-0.25 0.171875 -0.375 0.421875q-0.109375 0.25 -0.109375 0.5625q0 0.546875 0.34375 0.875q0.34375 0.328125 0.96875 0.328125q0.515625 0 0.9375 -0.25q0.4375 -0.265625 0.921875 -0.796875l0 -1.5zm7.15625 2.6875q0 0.234375 -0.03125 0.375q-0.03125 0.125 -0.09375 0.1875q-0.0625 0.0625 -0.1875 0.125q-0.125 0.046875 -0.296875 0.078125q-0.15625 0.046875 -0.34375 0.0625q-0.171875 0.03125 -0.34375 0.03125q-0.546875 0 -0.9375 -0.140625q-0.390625 -0.15625 -0.640625 -0.453125q-0.25 -0.296875 -0.375 -0.734375q-0.109375 -0.453125 -0.109375 -1.0625l0 -4.109375l-0.984375 0q-0.109375 0 -0.1875 -0.125q-0.0625 -0.125 -0.0625 -0.40625q0 -0.15625 0.015625 -0.25q0.015625 -0.109375 0.046875 -0.171875q0.03125 -0.0625 0.078125 -0.09375q0.0625 -0.03125 0.125 -0.03125l0.96875 0l0 -1.671875q0 -0.046875 0.03125 -0.09375q0.03125 -0.046875 0.09375 -0.078125q0.078125 -0.046875 0.203125 -0.0625q0.125 -0.015625 0.3125 -0.015625q0.203125 0 0.328125 0.015625q0.125 0.015625 0.1875 0.0625q0.078125 0.03125 0.109375 0.078125q0.03125 0.046875 0.03125 0.09375l0 1.671875l1.796875 0q0.0625 0 0.109375 0.03125q0.046875 0.03125 0.078125 0.09375q0.046875 0.0625 0.0625 0.171875q0.015625 0.09375 0.015625 0.25q0 0.28125 -0.078125 0.40625q-0.0625 0.125 -0.1875 0.125l-1.796875 0l0 3.921875q0 0.71875 0.203125 1.09375q0.21875 0.375 0.78125 0.375q0.171875 0 0.3125 -0.03125q0.140625 -0.046875 0.25 -0.078125q0.109375 -0.046875 0.1875 -0.078125q0.078125 -0.03125 0.140625 -0.03125q0.046875 0 0.078125 0.015625q0.03125 0.015625 0.046875 0.078125q0.03125 0.046875 0.046875 0.140625q0.015625 0.09375 0.015625 0.234375zm6.5546875 -0.546875q0 0.125 -0.015625 0.234375q0 0.09375 -0.015625 0.15625q-0.015625 0.0625 -0.046875 0.125q-0.03125 0.046875 -0.125 0.140625q-0.09375 0.09375 -0.328125 0.25q-0.234375 0.140625 -0.53125 0.265625q-0.296875 0.109375 -0.640625 0.171875q-0.34375 0.078125 -0.703125 0.078125q-0.765625 0 -1.359375 -0.25q-0.578125 -0.265625 -0.96875 -0.734375q-0.390625 -0.484375 -0.609375 -1.1875q-0.203125 -0.703125 -0.203125 -1.609375q0 -1.046875 0.25 -1.78125q0.265625 -0.75 0.703125 -1.21875q0.4375 -0.484375 1.03125 -0.71875q0.609375 -0.234375 1.296875 -0.234375q0.34375 0 0.65625 0.0625q0.3125 0.0625 0.578125 0.171875q0.265625 0.09375 0.46875 0.234375q0.21875 0.125 0.3125 0.21875q0.09375 0.09375 0.125 0.15625q0.03125 0.046875 0.046875 0.125q0.03125 0.078125 0.03125 0.171875q0.015625 0.09375 0.015625 0.234375q0 0.296875 -0.078125 0.421875q-0.0625 0.125 -0.15625 0.125q-0.125 0 -0.28125 -0.125q-0.140625 -0.140625 -0.375 -0.296875q-0.234375 -0.15625 -0.578125 -0.28125q-0.328125 -0.125 -0.78125 -0.125q-0.921875 0 -1.421875 0.71875q-0.5 0.703125 -0.5 2.0625q0 0.6875 0.125 1.203125q0.140625 0.5 0.390625 0.84375q0.25 0.34375 0.609375 0.515625q0.359375 0.171875 0.828125 0.171875q0.453125 0 0.78125 -0.140625q0.34375 -0.140625 0.578125 -0.3125q0.25 -0.171875 0.421875 -0.296875q0.171875 -0.140625 0.265625 -0.140625q0.046875 0 0.078125 0.03125q0.046875 0.03125 0.078125 0.109375q0.03125 0.0625 0.03125 0.1875q0.015625 0.109375 0.015625 0.265625zm7.765625 1.0625q0 0.0625 -0.03125 0.109375q-0.03125 0.046875 -0.109375 0.078125q-0.0625 0.03125 -0.1875 0.046875q-0.125 0.015625 -0.3125 0.015625q-0.1875 0 -0.3125 -0.015625q-0.125 -0.015625 -0.203125 -0.046875q-0.0625 -0.03125 -0.09375 -0.078125q-0.03125 -0.046875 -0.03125 -0.109375l0 -4.109375q0 -0.609375 -0.09375 -0.96875q-0.09375 -0.375 -0.28125 -0.640625q-0.171875 -0.265625 -0.46875 -0.40625q-0.28125 -0.140625 -0.65625 -0.140625q-0.484375 0 -0.96875 0.34375q-0.484375 0.34375 -1.015625 1.015625l0 4.90625q0 0.0625 -0.03125 0.109375q-0.03125 0.046875 -0.109375 0.078125q-0.0625 0.03125 -0.1875 0.046875q-0.125 0.015625 -0.3125 0.015625q-0.1875 0 -0.3125 -0.015625q-0.125 -0.015625 -0.203125 -0.046875q-0.078125 -0.03125 -0.109375 -0.078125q-0.015625 -0.046875 -0.015625 -0.109375l0 -10.4375q0 -0.0625 0.015625 -0.109375q0.03125 -0.046875 0.109375 -0.078125q0.078125 -0.03125 0.203125 -0.046875q0.125 -0.015625 0.3125 -0.015625q0.1875 0 0.3125 0.015625q0.125 0.015625 0.1875 0.046875q0.078125 0.03125 0.109375 0.078125q0.03125 0.046875 0.03125 0.109375l0 4.21875q0.5625 -0.59375 1.125 -0.875q0.5625 -0.28125 1.125 -0.28125q0.703125 0 1.1875 0.234375q0.484375 0.234375 0.78125 0.640625q0.296875 0.390625 0.421875 0.9375q0.125 0.53125 0.125 1.28125l0 4.28125z" fill-rule="nonzero"/><path fill="#d9ead3" d="m125.376 41.717846l161.6063 0l0 36.346462l-161.6063 0z" fill-rule="evenodd"/><path stroke="#274e13" stroke-width="1.0" stroke-linejoin="round" stroke-linecap="butt" d="m125.376 41.717846l161.6063 0l0 36.346462l-161.6063 0z" fill-rule="evenodd"/><path fill="#274e13" d="m186.06197 65.876076q0 0.78125 -0.125 1.25q-0.109375 0.484375 -0.359375 0.8125q-0.25 0.328125 -0.640625 0.5q-0.390625 0.171875 -0.953125 0.171875q-0.25 0 -0.4375 -0.03125q-0.171875 -0.03125 -0.265625 -0.078125q-0.09375 -0.03125 -0.125 -0.09375q-0.03125 -0.046875 -0.046875 -0.109375q-0.015625 -0.0625 -0.015625 -0.140625q-0.015625 -0.0625 -0.015625 -0.171875q0 -0.140625 0.015625 -0.25q0.015625 -0.09375 0.046875 -0.15625q0.015625 -0.0625 0.0625 -0.09375q0.03125 -0.015625 0.078125 -0.015625q0.046875 0 0.1875 0.015625q0.140625 0.015625 0.328125 0.015625q0.25 0 0.4375 -0.078125q0.1875 -0.078125 0.296875 -0.25q0.125 -0.171875 0.171875 -0.453125q0.0625 -0.28125 0.0625 -0.859375l0 -7.34375q0 -0.046875 0.03125 -0.09375q0.03125 -0.046875 0.09375 -0.078125q0.078125 -0.03125 0.203125 -0.046875q0.125 -0.015625 0.3125 -0.015625q0.1875 0 0.3125 0.015625q0.125 0.015625 0.203125 0.046875q0.078125 0.03125 0.109375 0.078125q0.03125 0.046875 0.03125 0.09375l0 7.359375zm0.140625 -9.734375q0 0.453125 -0.171875 0.625q-0.171875 0.15625 -0.625 0.15625q-0.453125 0 -0.625 -0.15625q-0.15625 -0.15625 -0.15625 -0.609375q0 -0.453125 0.15625 -0.609375q0.171875 -0.171875 0.640625 -0.171875q0.453125 0 0.609375 0.171875q0.171875 0.15625 0.171875 0.59375zm8.71875 5.78125q0 0.921875 -0.203125 1.65625q-0.203125 0.734375 -0.59375 1.25q-0.375 0.515625 -0.953125 0.796875q-0.5625 0.28125 -1.296875 0.28125q-0.3125 0 -0.578125 -0.0625q-0.265625 -0.0625 -0.53125 -0.203125q-0.25 -0.140625 -0.5 -0.34375q-0.25 -0.203125 -0.53125 -0.46875l0 3.515625q0 0.0625 -0.03125 0.109375q-0.03125 0.046875 -0.109375 0.078125q-0.0625 0.03125 -0.1875 0.046875q-0.125 0.015625 -0.3125 0.015625q-0.1875 0 -0.3125 -0.015625q-0.125 -0.015625 -0.203125 -0.046875q-0.078125 -0.03125 -0.109375 -0.078125q-0.015625 -0.046875 -0.015625 -0.109375l0 -9.828125q0 -0.0625 0.015625 -0.109375q0.03125 -0.046875 0.09375 -0.078125q0.078125 -0.03125 0.1875 -0.03125q0.109375 -0.015625 0.265625 -0.015625q0.15625 0 0.265625 0.015625q0.109375 0 0.171875 0.03125q0.078125 0.03125 0.09375 0.078125q0.03125 0.046875 0.03125 0.109375l0 0.953125q0.328125 -0.328125 0.625 -0.5625q0.296875 -0.25 0.59375 -0.40625q0.296875 -0.171875 0.609375 -0.25q0.328125 -0.078125 0.671875 -0.078125q0.765625 0 1.296875 0.296875q0.546875 0.296875 0.890625 0.8125q0.34375 0.515625 0.5 1.203125q0.15625 0.671875 0.15625 1.4375zm-1.359375 0.15625q0 -0.546875 -0.09375 -1.046875q-0.078125 -0.5 -0.28125 -0.890625q-0.1875 -0.390625 -0.53125 -0.625q-0.328125 -0.234375 -0.828125 -0.234375q-0.25 0 -0.5 0.078125q-0.234375 0.0625 -0.484375 0.234375q-0.25 0.15625 -0.53125 0.421875q-0.265625 0.25 -0.578125 0.640625l0 2.796875q0.53125 0.640625 1.0 0.984375q0.484375 0.34375 1.015625 0.34375q0.484375 0 0.828125 -0.234375q0.34375 -0.234375 0.5625 -0.625q0.21875 -0.390625 0.3125 -0.875q0.109375 -0.484375 0.109375 -0.96875zm6.453125 -0.28125q0 0.3125 -0.078125 0.4375q-0.0625 0.109375 -0.1875 0.109375l-3.265625 0q-0.140625 0 -0.21875 -0.125q-0.0625 -0.125 -0.0625 -0.421875q0 -0.296875 0.0625 -0.40625q0.078125 -0.125 0.21875 -0.125l3.265625 0q0.0625 0 0.109375 0.03125q0.046875 0.015625 0.078125 0.09375q0.046875 0.0625 0.0625 0.171875q0.015625 0.09375 0.015625 0.234375zm6.1484375 1.84375q0 0.53125 -0.203125 0.953125q-0.1875 0.421875 -0.5625 0.71875q-0.359375 0.28125 -0.875 0.4375q-0.5 0.15625 -1.109375 0.15625q-0.375 0 -0.71875 -0.0625q-0.34375 -0.0625 -0.609375 -0.15625q-0.265625 -0.09375 -0.453125 -0.1875q-0.1875 -0.09375 -0.28125 -0.171875q-0.078125 -0.078125 -0.125 -0.21875q-0.03125 -0.140625 -0.03125 -0.390625q0 -0.140625 0.015625 -0.234375q0.015625 -0.109375 0.03125 -0.171875q0.03125 -0.0625 0.0625 -0.09375q0.046875 -0.03125 0.109375 -0.03125q0.078125 0 0.25 0.109375q0.171875 0.109375 0.40625 0.234375q0.25 0.125 0.578125 0.234375q0.34375 0.09375 0.78125 0.09375q0.328125 0 0.59375 -0.0625q0.265625 -0.078125 0.453125 -0.203125q0.203125 -0.140625 0.3125 -0.34375q0.109375 -0.21875 0.109375 -0.515625q0 -0.296875 -0.15625 -0.5q-0.15625 -0.203125 -0.40625 -0.359375q-0.25 -0.15625 -0.5625 -0.265625q-0.3125 -0.125 -0.640625 -0.25q-0.328125 -0.140625 -0.65625 -0.3125q-0.3125 -0.171875 -0.5625 -0.40625q-0.25 -0.25 -0.40625 -0.578125q-0.140625 -0.34375 -0.140625 -0.8125q0 -0.40625 0.15625 -0.78125q0.15625 -0.390625 0.46875 -0.671875q0.328125 -0.28125 0.8125 -0.453125q0.484375 -0.171875 1.125 -0.171875q0.28125 0 0.5625 0.046875q0.28125 0.046875 0.5 0.125q0.234375 0.0625 0.390625 0.140625q0.15625 0.078125 0.234375 0.140625q0.09375 0.0625 0.109375 0.109375q0.03125 0.046875 0.046875 0.109375q0.015625 0.0625 0.015625 0.15625q0.015625 0.078125 0.015625 0.203125q0 0.125 -0.015625 0.234375q0 0.09375 -0.03125 0.15625q-0.03125 0.0625 -0.078125 0.09375q-0.03125 0.015625 -0.078125 0.015625q-0.0625 0 -0.203125 -0.078125q-0.125 -0.09375 -0.34375 -0.1875q-0.203125 -0.09375 -0.5 -0.171875q-0.28125 -0.09375 -0.640625 -0.09375q-0.328125 0 -0.578125 0.078125q-0.25 0.0625 -0.421875 0.203125q-0.15625 0.140625 -0.234375 0.328125q-0.078125 0.1875 -0.078125 0.40625q0 0.296875 0.15625 0.515625q0.15625 0.203125 0.40625 0.359375q0.25 0.15625 0.5625 0.28125q0.328125 0.125 0.65625 0.265625q0.328125 0.125 0.65625 0.296875q0.328125 0.15625 0.578125 0.390625q0.25 0.234375 0.390625 0.5625q0.15625 0.328125 0.15625 0.78125zm4.765625 2.109375l-0.9375 2.59375q-0.046875 0.125 -0.25 0.1875q-0.1875 0.0625 -0.578125 0.0625q-0.203125 0 -0.328125 -0.015625q-0.125 -0.015625 -0.1875 -0.0625q-0.0625 -0.046875 -0.078125 -0.125q0 -0.078125 0.046875 -0.1875l0.96875 -2.453125q-0.078125 -0.03125 -0.140625 -0.09375q-0.0625 -0.078125 -0.078125 -0.15625l-2.515625 -6.71875q-0.0625 -0.171875 -0.0625 -0.265625q0 -0.09375 0.0625 -0.140625q0.0625 -0.0625 0.203125 -0.078125q0.140625 -0.015625 0.375 -0.015625q0.234375 0 0.359375 0.015625q0.140625 0 0.21875 0.03125q0.078125 0.03125 0.109375 0.09375q0.046875 0.0625 0.078125 0.15625l2.015625 5.640625l0.015625 0l1.9375 -5.671875q0.046875 -0.140625 0.109375 -0.1875q0.078125 -0.046875 0.203125 -0.0625q0.140625 -0.015625 0.390625 -0.015625q0.21875 0 0.359375 0.015625q0.140625 0.015625 0.203125 0.078125q0.0625 0.046875 0.0625 0.140625q0 0.09375 -0.046875 0.234375l-2.515625 7.0zm10.0859375 -0.203125q0 0.0625 -0.03125 0.109375q-0.03125 0.046875 -0.109375 0.078125q-0.0625 0.03125 -0.1875 0.046875q-0.125 0.015625 -0.3125 0.015625q-0.1875 0 -0.3125 -0.015625q-0.125 -0.015625 -0.203125 -0.046875q-0.0625 -0.03125 -0.09375 -0.078125q-0.03125 -0.046875 -0.03125 -0.109375l0 -4.109375q0 -0.609375 -0.09375 -0.96875q-0.09375 -0.375 -0.28125 -0.640625q-0.171875 -0.265625 -0.46875 -0.40625q-0.28125 -0.140625 -0.65625 -0.140625q-0.484375 0 -0.96875 0.34375q-0.484375 0.34375 -1.015625 1.015625l0 4.90625q0 0.0625 -0.03125 0.109375q-0.03125 0.046875 -0.109375 0.078125q-0.0625 0.03125 -0.1875 0.046875q-0.125 0.015625 -0.3125 0.015625q-0.1875 0 -0.3125 -0.015625q-0.125 -0.015625 -0.203125 -0.046875q-0.078125 -0.03125 -0.109375 -0.078125q-0.015625 -0.046875 -0.015625 -0.109375l0 -7.03125q0 -0.0625 0.015625 -0.09375q0.03125 -0.046875 0.09375 -0.078125q0.078125 -0.046875 0.1875 -0.046875q0.109375 -0.015625 0.28125 -0.015625q0.171875 0 0.28125 0.015625q0.125 0 0.1875 0.046875q0.0625 0.03125 0.078125 0.078125q0.03125 0.03125 0.03125 0.09375l0 0.9375q0.59375 -0.671875 1.1875 -0.96875q0.59375 -0.3125 1.1875 -0.3125q0.703125 0 1.1875 0.234375q0.484375 0.234375 0.78125 0.640625q0.296875 0.390625 0.421875 0.9375q0.125 0.53125 0.125 1.28125l0 4.28125zm7.40625 -1.0625q0 0.125 -0.015625 0.234375q0 0.09375 -0.015625 0.15625q-0.015625 0.0625 -0.046875 0.125q-0.03125 0.046875 -0.125 0.140625q-0.09375 0.09375 -0.328125 0.25q-0.234375 0.140625 -0.53125 0.265625q-0.296875 0.109375 -0.640625 0.171875q-0.34375 0.078125 -0.703125 0.078125q-0.765625 0 -1.359375 -0.25q-0.578125 -0.265625 -0.96875 -0.734375q-0.390625 -0.484375 -0.609375 -1.1875q-0.203125 -0.703125 -0.203125 -1.609375q0 -1.046875 0.25 -1.78125q0.265625 -0.75 0.703125 -1.21875q0.4375 -0.484375 1.03125 -0.71875q0.609375 -0.234375 1.296875 -0.234375q0.34375 0 0.65625 0.0625q0.3125 0.0625 0.578125 0.171875q0.265625 0.09375 0.46875 0.234375q0.21875 0.125 0.3125 0.21875q0.09375 0.09375 0.125 0.15625q0.03125 0.046875 0.046875 0.125q0.03125 0.078125 0.03125 0.171875q0.015625 0.09375 0.015625 0.234375q0 0.296875 -0.078125 0.421875q-0.0625 0.125 -0.15625 0.125q-0.125 0 -0.28125 -0.125q-0.140625 -0.140625 -0.375 -0.296875q-0.234375 -0.15625 -0.578125 -0.28125q-0.328125 -0.125 -0.78125 -0.125q-0.921875 0 -1.421875 0.71875q-0.5 0.703125 -0.5 2.0625q0 0.6875 0.125 1.203125q0.140625 0.5 0.390625 0.84375q0.25 0.34375 0.609375 0.515625q0.359375 0.171875 0.828125 0.171875q0.453125 0 0.78125 -0.140625q0.34375 -0.140625 0.578125 -0.3125q0.25 -0.171875 0.421875 -0.296875q0.171875 -0.140625 0.265625 -0.140625q0.046875 0 0.078125 0.03125q0.046875 0.03125 0.078125 0.109375q0.03125 0.0625 0.03125 0.1875q0.015625 0.109375 0.015625 0.265625z" fill-rule="nonzero"/><path fill="#fce5cd" d="m125.376 114.40798l161.6063 0l0 36.34646l-161.6063 0z" fill-rule="evenodd"/><path stroke="#783f04" stroke-width="1.0" stroke-linejoin="round" stroke-linecap="butt" d="m125.376 114.40798l161.6063 0l0 36.34646l-161.6063 0z" fill-rule="evenodd"/><path fill="#783f04" d="m158.7065 133.26933q0 1.21875 -0.296875 2.203125q-0.28125 0.984375 -0.859375 1.6875q-0.5625 0.6875 -1.4375 1.0625q-0.859375 0.375 -2.015625 0.375q-1.140625 0 -1.984375 -0.34375q-0.828125 -0.34375 -1.375 -0.984375q-0.53125 -0.65625 -0.796875 -1.609375q-0.265625 -0.96875 -0.265625 -2.21875q0 -1.203125 0.28125 -2.171875q0.296875 -0.984375 0.875 -1.65625q0.578125 -0.6875 1.4375 -1.0625q0.875 -0.375 2.03125 -0.375q1.109375 0 1.9375 0.34375q0.828125 0.328125 1.375 0.984375q0.5625 0.640625 0.828125 1.59375q0.265625 0.9375 0.265625 2.171875zm-1.40625 0.09375q0 -0.859375 -0.15625 -1.59375q-0.15625 -0.75 -0.515625 -1.28125q-0.34375 -0.546875 -0.9375 -0.84375q-0.59375 -0.3125 -1.46875 -0.3125q-0.875 0 -1.46875 0.328125q-0.59375 0.328125 -0.96875 0.875q-0.375 0.546875 -0.53125 1.28125q-0.15625 0.71875 -0.15625 1.53125q0 0.890625 0.140625 1.640625q0.15625 0.75 0.5 1.296875q0.359375 0.53125 0.9375 0.84375q0.59375 0.296875 1.484375 0.296875q0.890625 0 1.484375 -0.328125q0.609375 -0.328125 0.96875 -0.890625q0.375 -0.5625 0.53125 -1.296875q0.15625 -0.734375 0.15625 -1.546875zm9.859375 1.25q0 0.921875 -0.203125 1.65625q-0.203125 0.734375 -0.59375 1.25q-0.375 0.515625 -0.953125 0.796875q-0.5625 0.28125 -1.296875 0.28125q-0.3125 0 -0.578125 -0.0625q-0.265625 -0.0625 -0.53125 -0.203125q-0.25 -0.140625 -0.5 -0.34375q-0.25 -0.203125 -0.53125 -0.46875l0 3.515625q0 0.0625 -0.03125 0.109375q-0.03125 0.046875 -0.109375 0.078125q-0.0625 0.03125 -0.1875 0.046875q-0.125 0.015625 -0.3125 0.015625q-0.1875 0 -0.3125 -0.015625q-0.125 -0.015625 -0.203125 -0.046875q-0.078125 -0.03125 -0.109375 -0.078125q-0.015625 -0.046875 -0.015625 -0.109375l0 -9.828125q0 -0.0625 0.015625 -0.109375q0.03125 -0.046875 0.09375 -0.078125q0.078125 -0.03125 0.1875 -0.03125q0.109375 -0.015625 0.265625 -0.015625q0.15625 0 0.265625 0.015625q0.109375 0 0.171875 0.03125q0.078125 0.03125 0.09375 0.078125q0.03125 0.046875 0.03125 0.109375l0 0.953125q0.328125 -0.328125 0.625 -0.5625q0.296875 -0.25 0.59375 -0.40625q0.296875 -0.171875 0.609375 -0.25q0.328125 -0.078125 0.671875 -0.078125q0.765625 0 1.296875 0.296875q0.546875 0.296875 0.890625 0.8125q0.34375 0.515625 0.5 1.203125q0.15625 0.671875 0.15625 1.4375zm-1.359375 0.15625q0 -0.546875 -0.09375 -1.046875q-0.078125 -0.5 -0.28125 -0.890625q-0.1875 -0.390625 -0.53125 -0.625q-0.328125 -0.234375 -0.828125 -0.234375q-0.25 0 -0.5 0.078125q-0.234375 0.0625 -0.484375 0.234375q-0.25 0.15625 -0.53125 0.421875q-0.265625 0.25 -0.578125 0.640625l0 2.796875q0.53125 0.640625 1.0 0.984375q0.484375 0.34375 1.015625 0.34375q0.484375 0 0.828125 -0.234375q0.34375 -0.234375 0.5625 -0.625q0.21875 -0.390625 0.3125 -0.875q0.109375 -0.484375 0.109375 -0.96875zm9.296875 -0.34375q0 0.296875 -0.15625 0.4375q-0.15625 0.125 -0.34375 0.125l-4.609375 0q0 0.578125 0.109375 1.046875q0.125 0.46875 0.390625 0.8125q0.28125 0.328125 0.71875 0.515625q0.4375 0.171875 1.0625 0.171875q0.5 0 0.890625 -0.078125q0.390625 -0.078125 0.671875 -0.171875q0.296875 -0.109375 0.46875 -0.1875q0.1875 -0.09375 0.28125 -0.09375q0.0625 0 0.09375 0.03125q0.046875 0.03125 0.0625 0.09375q0.03125 0.046875 0.046875 0.140625q0.015625 0.09375 0.015625 0.234375q0 0.109375 -0.015625 0.1875q0 0.0625 -0.015625 0.125q-0.015625 0.0625 -0.046875 0.109375q-0.015625 0.046875 -0.0625 0.09375q-0.046875 0.03125 -0.265625 0.140625q-0.203125 0.09375 -0.546875 0.1875q-0.328125 0.09375 -0.765625 0.171875q-0.4375 0.078125 -0.9375 0.078125q-0.875 0 -1.53125 -0.25q-0.640625 -0.25 -1.09375 -0.71875q-0.4375 -0.484375 -0.671875 -1.203125q-0.21875 -0.71875 -0.21875 -1.671875q0 -0.90625 0.234375 -1.625q0.234375 -0.71875 0.671875 -1.21875q0.4375 -0.515625 1.0625 -0.78125q0.625 -0.265625 1.40625 -0.265625q0.828125 0 1.40625 0.265625q0.578125 0.265625 0.953125 0.71875q0.375 0.4375 0.546875 1.046875q0.1875 0.609375 0.1875 1.296875l0 0.234375zm-1.296875 -0.390625q0.015625 -1.015625 -0.453125 -1.59375q-0.46875 -0.578125 -1.40625 -0.578125q-0.46875 0 -0.828125 0.1875q-0.359375 0.171875 -0.609375 0.46875q-0.234375 0.296875 -0.375 0.703125q-0.125 0.390625 -0.140625 0.8125l3.8125 0zm7.3671875 -2.359375q0 0.171875 -0.015625 0.296875q0 0.109375 -0.03125 0.171875q-0.015625 0.0625 -0.0625 0.109375q-0.03125 0.03125 -0.09375 0.03125q-0.0625 0 -0.15625 -0.03125q-0.078125 -0.046875 -0.203125 -0.078125q-0.109375 -0.03125 -0.25 -0.0625q-0.140625 -0.03125 -0.296875 -0.03125q-0.203125 0 -0.390625 0.078125q-0.1875 0.078125 -0.390625 0.265625q-0.203125 0.171875 -0.4375 0.46875q-0.21875 0.296875 -0.5 0.71875l0 4.625q0 0.0625 -0.03125 0.109375q-0.03125 0.046875 -0.109375 0.078125q-0.0625 0.03125 -0.1875 0.046875q-0.125 0.015625 -0.3125 0.015625q-0.1875 0 -0.3125 -0.015625q-0.125 -0.015625 -0.203125 -0.046875q-0.078125 -0.03125 -0.109375 -0.078125q-0.015625 -0.046875 -0.015625 -0.109375l0 -7.03125q0 -0.0625 0.015625 -0.09375q0.03125 -0.046875 0.09375 -0.078125q0.078125 -0.046875 0.1875 -0.046875q0.109375 -0.015625 0.28125 -0.015625q0.171875 0 0.28125 0.015625q0.125 0 0.1875 0.046875q0.0625 0.03125 0.078125 0.078125q0.03125 0.03125 0.03125 0.09375l0 1.03125q0.296875 -0.421875 0.546875 -0.6875q0.25 -0.265625 0.46875 -0.421875q0.234375 -0.15625 0.453125 -0.203125q0.234375 -0.0625 0.453125 -0.0625q0.109375 0 0.234375 0.015625q0.125 0 0.265625 0.03125q0.140625 0.03125 0.25 0.078125q0.125 0.03125 0.171875 0.078125q0.046875 0.03125 0.0625 0.078125q0.015625 0.03125 0.015625 0.09375q0.015625 0.046875 0.015625 0.15625q0.015625 0.09375 0.015625 0.28125zm6.4375 6.578125q0 0.09375 -0.0625 0.140625q-0.0625 0.046875 -0.171875 0.0625q-0.109375 0.03125 -0.328125 0.03125q-0.203125 0 -0.328125 -0.03125q-0.109375 -0.015625 -0.171875 -0.0625q-0.046875 -0.046875 -0.046875 -0.140625l0 -0.703125q-0.46875 0.484375 -1.03125 0.765625q-0.5625 0.28125 -1.203125 0.28125q-0.546875 0 -1.0 -0.15625q-0.453125 -0.140625 -0.765625 -0.40625q-0.3125 -0.28125 -0.5 -0.671875q-0.171875 -0.40625 -0.171875 -0.921875q0 -0.59375 0.234375 -1.03125q0.25 -0.4375 0.703125 -0.71875q0.453125 -0.296875 1.109375 -0.4375q0.65625 -0.140625 1.484375 -0.140625l0.96875 0l0 -0.546875q0 -0.40625 -0.09375 -0.71875q-0.078125 -0.3125 -0.28125 -0.515625q-0.1875 -0.21875 -0.5 -0.3125q-0.296875 -0.109375 -0.734375 -0.109375q-0.484375 0 -0.859375 0.109375q-0.375 0.109375 -0.671875 0.25q-0.28125 0.140625 -0.46875 0.25q-0.1875 0.109375 -0.28125 0.109375q-0.0625 0 -0.109375 -0.03125q-0.046875 -0.03125 -0.09375 -0.09375q-0.03125 -0.0625 -0.046875 -0.15625q-0.015625 -0.09375 -0.015625 -0.21875q0 -0.1875 0.03125 -0.296875q0.03125 -0.125 0.125 -0.21875q0.109375 -0.109375 0.359375 -0.234375q0.265625 -0.140625 0.59375 -0.25q0.34375 -0.125 0.734375 -0.1875q0.40625 -0.078125 0.8125 -0.078125q0.765625 0 1.296875 0.171875q0.53125 0.171875 0.859375 0.5q0.328125 0.328125 0.46875 0.828125q0.15625 0.484375 0.15625 1.140625l0 4.75zm-1.28125 -3.21875l-1.109375 0q-0.53125 0 -0.921875 0.09375q-0.390625 0.09375 -0.65625 0.265625q-0.25 0.171875 -0.375 0.421875q-0.109375 0.25 -0.109375 0.5625q0 0.546875 0.34375 0.875q0.34375 0.328125 0.96875 0.328125q0.515625 0 0.9375 -0.25q0.4375 -0.265625 0.921875 -0.796875l0 -1.5zm7.15625 2.6875q0 0.234375 -0.03125 0.375q-0.03125 0.125 -0.09375 0.1875q-0.0625 0.0625 -0.1875 0.125q-0.125 0.046875 -0.296875 0.078125q-0.15625 0.046875 -0.34375 0.0625q-0.171875 0.03125 -0.34375 0.03125q-0.546875 0 -0.9375 -0.140625q-0.390625 -0.15625 -0.640625 -0.453125q-0.25 -0.296875 -0.375 -0.734375q-0.109375 -0.453125 -0.109375 -1.0625l0 -4.109375l-0.984375 0q-0.109375 0 -0.1875 -0.125q-0.0625 -0.125 -0.0625 -0.40625q0 -0.15625 0.015625 -0.25q0.015625 -0.109375 0.046875 -0.171875q0.03125 -0.0625 0.078125 -0.09375q0.0625 -0.03125 0.125 -0.03125l0.96875 0l0 -1.671875q0 -0.046875 0.03125 -0.09375q0.03125 -0.046875 0.09375 -0.078125q0.078125 -0.046875 0.203125 -0.0625q0.125 -0.015625 0.3125 -0.015625q0.203125 0 0.328125 0.015625q0.125 0.015625 0.1875 0.0625q0.078125 0.03125 0.109375 0.078125q0.03125 0.046875 0.03125 0.09375l0 1.671875l1.796875 0q0.0625 0 0.109375 0.03125q0.046875 0.03125 0.078125 0.09375q0.046875 0.0625 0.0625 0.171875q0.015625 0.09375 0.015625 0.25q0 0.28125 -0.078125 0.40625q-0.0625 0.125 -0.1875 0.125l-1.796875 0l0 3.921875q0 0.71875 0.203125 1.09375q0.21875 0.375 0.78125 0.375q0.171875 0 0.3125 -0.03125q0.140625 -0.046875 0.25 -0.078125q0.109375 -0.046875 0.1875 -0.078125q0.078125 -0.03125 0.140625 -0.03125q0.046875 0 0.078125 0.015625q0.03125 0.015625 0.046875 0.078125q0.03125 0.046875 0.046875 0.140625q0.015625 0.09375 0.015625 0.234375zm2.984375 0.515625q0 0.0625 -0.03125 0.109375q-0.03125 0.046875 -0.109375 0.078125q-0.0625 0.03125 -0.1875 0.046875q-0.125 0.015625 -0.3125 0.015625q-0.1875 0 -0.3125 -0.015625q-0.125 -0.015625 -0.203125 -0.046875q-0.078125 -0.03125 -0.109375 -0.078125q-0.015625 -0.046875 -0.015625 -0.109375l0 -7.03125q0 -0.046875 0.015625 -0.09375q0.03125 -0.046875 0.109375 -0.078125q0.078125 -0.03125 0.203125 -0.046875q0.125 -0.015625 0.3125 -0.015625q0.1875 0 0.3125 0.015625q0.125 0.015625 0.1875 0.046875q0.078125 0.03125 0.109375 0.078125q0.03125 0.046875 0.03125 0.09375l0 7.03125zm0.15625 -9.40625q0 0.453125 -0.171875 0.625q-0.171875 0.15625 -0.640625 0.15625q-0.453125 0 -0.625 -0.15625q-0.15625 -0.15625 -0.15625 -0.609375q0 -0.453125 0.171875 -0.609375q0.171875 -0.171875 0.625 -0.171875q0.453125 0 0.625 0.171875q0.171875 0.15625 0.171875 0.59375zm8.28125 9.40625q0 0.0625 -0.03125 0.109375q-0.03125 0.046875 -0.109375 0.078125q-0.0625 0.03125 -0.1875 0.046875q-0.125 0.015625 -0.3125 0.015625q-0.1875 0 -0.3125 -0.015625q-0.125 -0.015625 -0.203125 -0.046875q-0.0625 -0.03125 -0.09375 -0.078125q-0.03125 -0.046875 -0.03125 -0.109375l0 -4.109375q0 -0.609375 -0.09375 -0.96875q-0.09375 -0.375 -0.28125 -0.640625q-0.171875 -0.265625 -0.46875 -0.40625q-0.28125 -0.140625 -0.65625 -0.140625q-0.484375 0 -0.96875 0.34375q-0.484375 0.34375 -1.015625 1.015625l0 4.90625q0 0.0625 -0.03125 0.109375q-0.03125 0.046875 -0.109375 0.078125q-0.0625 0.03125 -0.1875 0.046875q-0.125 0.015625 -0.3125 0.015625q-0.1875 0 -0.3125 -0.015625q-0.125 -0.015625 -0.203125 -0.046875q-0.078125 -0.03125 -0.109375 -0.078125q-0.015625 -0.046875 -0.015625 -0.109375l0 -7.03125q0 -0.0625 0.015625 -0.09375q0.03125 -0.046875 0.09375 -0.078125q0.078125 -0.046875 0.1875 -0.046875q0.109375 -0.015625 0.28125 -0.015625q0.171875 0 0.28125 0.015625q0.125 0 0.1875 0.046875q0.0625 0.03125 0.078125 0.078125q0.03125 0.03125 0.03125 0.09375l0 0.9375q0.59375 -0.671875 1.1875 -0.96875q0.59375 -0.3125 1.1875 -0.3125q0.703125 0 1.1875 0.234375q0.484375 0.234375 0.78125 0.640625q0.296875 0.390625 0.421875 0.9375q0.125 0.53125 0.125 1.28125l0 4.28125zm8.234375 -6.703125q0 0.265625 -0.078125 0.390625q-0.078125 0.125 -0.1875 0.125l-1.015625 0q0.28125 0.28125 0.390625 0.625q0.109375 0.328125 0.109375 0.703125q0 0.609375 -0.203125 1.078125q-0.1875 0.46875 -0.5625 0.796875q-0.359375 0.3125 -0.859375 0.484375q-0.5 0.171875 -1.109375 0.171875q-0.421875 0 -0.8125 -0.109375q-0.390625 -0.109375 -0.59375 -0.28125q-0.140625 0.140625 -0.234375 0.328125q-0.09375 0.171875 -0.09375 0.40625q0 0.265625 0.25 0.453125q0.265625 0.171875 0.6875 0.1875l1.828125 0.078125q0.53125 0.015625 0.96875 0.15625q0.4375 0.125 0.75 0.359375q0.328125 0.234375 0.5 0.59375q0.1875 0.34375 0.1875 0.8125q0 0.484375 -0.203125 0.921875q-0.203125 0.4375 -0.625 0.765625q-0.421875 0.328125 -1.078125 0.515625q-0.640625 0.203125 -1.515625 0.203125q-0.859375 0 -1.453125 -0.15625q-0.59375 -0.140625 -0.984375 -0.390625q-0.375 -0.25 -0.546875 -0.59375q-0.171875 -0.34375 -0.171875 -0.75q0 -0.265625 0.0625 -0.515625q0.0625 -0.234375 0.1875 -0.453125q0.125 -0.21875 0.3125 -0.421875q0.203125 -0.203125 0.453125 -0.390625q-0.390625 -0.203125 -0.578125 -0.5q-0.171875 -0.296875 -0.171875 -0.640625q0 -0.46875 0.1875 -0.84375q0.203125 -0.375 0.484375 -0.671875q-0.234375 -0.296875 -0.375 -0.65625q-0.140625 -0.359375 -0.140625 -0.875q0 -0.609375 0.203125 -1.078125q0.203125 -0.484375 0.5625 -0.8125q0.359375 -0.328125 0.859375 -0.5q0.5 -0.171875 1.09375 -0.171875q0.328125 0 0.59375 0.03125q0.28125 0.03125 0.53125 0.09375l2.125 0q0.125 0 0.1875 0.140625q0.078125 0.125 0.078125 0.390625zm-2.015625 1.84375q0 -0.71875 -0.40625 -1.109375q-0.390625 -0.40625 -1.109375 -0.40625q-0.375 0 -0.65625 0.125q-0.28125 0.125 -0.46875 0.34375q-0.171875 0.21875 -0.265625 0.5q-0.09375 0.28125 -0.09375 0.59375q0 0.703125 0.390625 1.109375q0.40625 0.390625 1.109375 0.390625q0.390625 0 0.671875 -0.125q0.28125 -0.125 0.453125 -0.328125q0.1875 -0.21875 0.28125 -0.5q0.09375 -0.28125 0.09375 -0.59375zm0.640625 5.578125q0 -0.453125 -0.375 -0.703125q-0.359375 -0.25 -1.0 -0.265625l-1.8125 -0.0625q-0.25 0.203125 -0.421875 0.390625q-0.15625 0.171875 -0.25 0.328125q-0.09375 0.15625 -0.125 0.3125q-0.03125 0.15625 -0.03125 0.328125q0 0.5 0.515625 0.765625q0.515625 0.265625 1.4375 0.265625q0.578125 0 0.96875 -0.125q0.40625 -0.109375 0.640625 -0.296875q0.25 -0.1875 0.34375 -0.4375q0.109375 -0.234375 0.109375 -0.5zm12.2265625 -3.359375q0 0.71875 -0.265625 1.28125q-0.265625 0.546875 -0.734375 0.9375q-0.453125 0.375 -1.09375 0.578125q-0.625 0.203125 -1.34375 0.203125q-0.515625 0 -0.953125 -0.09375q-0.421875 -0.09375 -0.765625 -0.21875q-0.34375 -0.125 -0.578125 -0.25q-0.21875 -0.140625 -0.3125 -0.234375q-0.09375 -0.09375 -0.140625 -0.234375q-0.03125 -0.140625 -0.03125 -0.390625q0 -0.171875 0.015625 -0.28125q0.015625 -0.109375 0.046875 -0.171875q0.03125 -0.078125 0.078125 -0.109375q0.046875 -0.03125 0.109375 -0.03125q0.109375 0 0.296875 0.140625q0.203125 0.125 0.515625 0.28125q0.3125 0.15625 0.75 0.296875q0.453125 0.140625 1.03125 0.140625q0.4375 0 0.796875 -0.109375q0.359375 -0.125 0.625 -0.34375q0.265625 -0.21875 0.40625 -0.53125q0.140625 -0.3125 0.140625 -0.703125q0 -0.4375 -0.203125 -0.734375q-0.1875 -0.3125 -0.515625 -0.53125q-0.3125 -0.234375 -0.734375 -0.421875q-0.40625 -0.203125 -0.84375 -0.390625q-0.421875 -0.203125 -0.828125 -0.4375q-0.40625 -0.25 -0.734375 -0.578125q-0.3125 -0.328125 -0.515625 -0.765625q-0.1875 -0.453125 -0.1875 -1.0625q0 -0.640625 0.21875 -1.125q0.234375 -0.5 0.640625 -0.828125q0.421875 -0.34375 0.984375 -0.515625q0.5625 -0.1875 1.21875 -0.1875q0.34375 0 0.671875 0.0625q0.34375 0.0625 0.640625 0.15625q0.3125 0.09375 0.546875 0.21875q0.234375 0.125 0.296875 0.203125q0.078125 0.0625 0.09375 0.109375q0.03125 0.046875 0.046875 0.109375q0.015625 0.0625 0.015625 0.15625q0.015625 0.09375 0.015625 0.25q0 0.140625 -0.015625 0.25q0 0.109375 -0.03125 0.1875q-0.015625 0.0625 -0.0625 0.109375q-0.046875 0.03125 -0.09375 0.03125q-0.09375 0 -0.28125 -0.109375q-0.171875 -0.109375 -0.4375 -0.25q-0.265625 -0.140625 -0.640625 -0.25q-0.359375 -0.109375 -0.8125 -0.109375q-0.421875 0 -0.734375 0.109375q-0.3125 0.109375 -0.515625 0.296875q-0.203125 0.1875 -0.3125 0.453125q-0.09375 0.25 -0.09375 0.546875q0 0.421875 0.1875 0.734375q0.203125 0.296875 0.53125 0.53125q0.328125 0.234375 0.734375 0.4375q0.421875 0.1875 0.84375 0.390625q0.4375 0.1875 0.84375 0.4375q0.421875 0.234375 0.734375 0.5625q0.328125 0.3125 0.53125 0.765625q0.203125 0.4375 0.203125 1.03125zm4.78125 2.84375l-0.9375 2.59375q-0.046875 0.125 -0.25 0.1875q-0.1875 0.0625 -0.578125 0.0625q-0.203125 0 -0.328125 -0.015625q-0.125 -0.015625 -0.1875 -0.0625q-0.0625 -0.046875 -0.078125 -0.125q0 -0.078125 0.046875 -0.1875l0.96875 -2.453125q-0.078125 -0.03125 -0.140625 -0.09375q-0.0625 -0.078125 -0.078125 -0.15625l-2.515625 -6.71875q-0.0625 -0.171875 -0.0625 -0.265625q0 -0.09375 0.0625 -0.140625q0.0625 -0.0625 0.203125 -0.078125q0.140625 -0.015625 0.375 -0.015625q0.234375 0 0.359375 0.015625q0.140625 0 0.21875 0.03125q0.078125 0.03125 0.109375 0.09375q0.046875 0.0625 0.078125 0.15625l2.015625 5.640625l0.015625 0l1.9375 -5.671875q0.046875 -0.140625 0.109375 -0.1875q0.078125 -0.046875 0.203125 -0.0625q0.140625 -0.015625 0.390625 -0.015625q0.21875 0 0.359375 0.015625q0.140625 0.015625 0.203125 0.078125q0.0625 0.046875 0.0625 0.140625q0 0.09375 -0.046875 0.234375l-2.515625 7.0zm8.296875 -2.109375q0 0.53125 -0.203125 0.953125q-0.1875 0.421875 -0.5625 0.71875q-0.359375 0.28125 -0.875 0.4375q-0.5 0.15625 -1.109375 0.15625q-0.375 0 -0.71875 -0.0625q-0.34375 -0.0625 -0.609375 -0.15625q-0.265625 -0.09375 -0.453125 -0.1875q-0.1875 -0.09375 -0.28125 -0.171875q-0.078125 -0.078125 -0.125 -0.21875q-0.03125 -0.140625 -0.03125 -0.390625q0 -0.140625 0.015625 -0.234375q0.015625 -0.109375 0.03125 -0.171875q0.03125 -0.0625 0.0625 -0.09375q0.046875 -0.03125 0.109375 -0.03125q0.078125 0 0.25 0.109375q0.171875 0.109375 0.40625 0.234375q0.25 0.125 0.578125 0.234375q0.34375 0.09375 0.78125 0.09375q0.328125 0 0.59375 -0.0625q0.265625 -0.078125 0.453125 -0.203125q0.203125 -0.140625 0.3125 -0.34375q0.109375 -0.21875 0.109375 -0.515625q0 -0.296875 -0.15625 -0.5q-0.15625 -0.203125 -0.40625 -0.359375q-0.25 -0.15625 -0.5625 -0.265625q-0.3125 -0.125 -0.640625 -0.25q-0.328125 -0.140625 -0.65625 -0.3125q-0.3125 -0.171875 -0.5625 -0.40625q-0.25 -0.25 -0.40625 -0.578125q-0.140625 -0.34375 -0.140625 -0.8125q0 -0.40625 0.15625 -0.78125q0.15625 -0.390625 0.46875 -0.671875q0.328125 -0.28125 0.8125 -0.453125q0.484375 -0.171875 1.125 -0.171875q0.28125 0 0.5625 0.046875q0.28125 0.046875 0.5 0.125q0.234375 0.0625 0.390625 0.140625q0.15625 0.078125 0.234375 0.140625q0.09375 0.0625 0.109375 0.109375q0.03125 0.046875 0.046875 0.109375q0.015625 0.0625 0.015625 0.15625q0.015625 0.078125 0.015625 0.203125q0 0.125 -0.015625 0.234375q0 0.09375 -0.03125 0.15625q-0.03125 0.0625 -0.078125 0.09375q-0.03125 0.015625 -0.078125 0.015625q-0.0625 0 -0.203125 -0.078125q-0.125 -0.09375 -0.34375 -0.1875q-0.203125 -0.09375 -0.5 -0.171875q-0.28125 -0.09375 -0.640625 -0.09375q-0.328125 0 -0.578125 0.078125q-0.25 0.0625 -0.421875 0.203125q-0.15625 0.140625 -0.234375 0.328125q-0.078125 0.1875 -0.078125 0.40625q0 0.296875 0.15625 0.515625q0.15625 0.203125 0.40625 0.359375q0.25 0.15625 0.5625 0.28125q0.328125 0.125 0.65625 0.265625q0.328125 0.125 0.65625 0.296875q0.328125 0.15625 0.578125 0.390625q0.25 0.234375 0.390625 0.5625q0.15625 0.328125 0.15625 0.78125zm5.328125 1.390625q0 0.234375 -0.03125 0.375q-0.03125 0.125 -0.09375 0.1875q-0.0625 0.0625 -0.1875 0.125q-0.125 0.046875 -0.296875 0.078125q-0.15625 0.046875 -0.34375 0.0625q-0.171875 0.03125 -0.34375 0.03125q-0.546875 0 -0.9375 -0.140625q-0.390625 -0.15625 -0.640625 -0.453125q-0.25 -0.296875 -0.375 -0.734375q-0.109375 -0.453125 -0.109375 -1.0625l0 -4.109375l-0.984375 0q-0.109375 0 -0.1875 -0.125q-0.0625 -0.125 -0.0625 -0.40625q0 -0.15625 0.015625 -0.25q0.015625 -0.109375 0.046875 -0.171875q0.03125 -0.0625 0.078125 -0.09375q0.0625 -0.03125 0.125 -0.03125l0.96875 0l0 -1.671875q0 -0.046875 0.03125 -0.09375q0.03125 -0.046875 0.09375 -0.078125q0.078125 -0.046875 0.203125 -0.0625q0.125 -0.015625 0.3125 -0.015625q0.203125 0 0.328125 0.015625q0.125 0.015625 0.1875 0.0625q0.078125 0.03125 0.109375 0.078125q0.03125 0.046875 0.03125 0.09375l0 1.671875l1.796875 0q0.0625 0 0.109375 0.03125q0.046875 0.03125 0.078125 0.09375q0.046875 0.0625 0.0625 0.171875q0.015625 0.09375 0.015625 0.25q0 0.28125 -0.078125 0.40625q-0.0625 0.125 -0.1875 0.125l-1.796875 0l0 3.921875q0 0.71875 0.203125 1.09375q0.21875 0.375 0.78125 0.375q0.171875 0 0.3125 -0.03125q0.140625 -0.046875 0.25 -0.078125q0.109375 -0.046875 0.1875 -0.078125q0.078125 -0.03125 0.140625 -0.03125q0.046875 0 0.078125 0.015625q0.03125 0.015625 0.046875 0.078125q0.03125 0.046875 0.046875 0.140625q0.015625 0.09375 0.015625 0.234375zm7.53125 -3.296875q0 0.296875 -0.15625 0.4375q-0.15625 0.125 -0.34375 0.125l-4.609375 0q0 0.578125 0.109375 1.046875q0.125 0.46875 0.390625 0.8125q0.28125 0.328125 0.71875 0.515625q0.4375 0.171875 1.0625 0.171875q0.5 0 0.890625 -0.078125q0.390625 -0.078125 0.671875 -0.171875q0.296875 -0.109375 0.46875 -0.1875q0.1875 -0.09375 0.28125 -0.09375q0.0625 0 0.09375 0.03125q0.046875 0.03125 0.0625 0.09375q0.03125 0.046875 0.046875 0.140625q0.015625 0.09375 0.015625 0.234375q0 0.109375 -0.015625 0.1875q0 0.0625 -0.015625 0.125q-0.015625 0.0625 -0.046875 0.109375q-0.015625 0.046875 -0.0625 0.09375q-0.046875 0.03125 -0.265625 0.140625q-0.203125 0.09375 -0.546875 0.1875q-0.328125 0.09375 -0.765625 0.171875q-0.4375 0.078125 -0.9375 0.078125q-0.875 0 -1.53125 -0.25q-0.640625 -0.25 -1.09375 -0.71875q-0.4375 -0.484375 -0.671875 -1.203125q-0.21875 -0.71875 -0.21875 -1.671875q0 -0.90625 0.234375 -1.625q0.234375 -0.71875 0.671875 -1.21875q0.4375 -0.515625 1.0625 -0.78125q0.625 -0.265625 1.40625 -0.265625q0.828125 0 1.40625 0.265625q0.578125 0.265625 0.953125 0.71875q0.375 0.4375 0.546875 1.046875q0.1875 0.609375 0.1875 1.296875l0 0.234375zm-1.296875 -0.390625q0.015625 -1.015625 -0.453125 -1.59375q-0.46875 -0.578125 -1.40625 -0.578125q-0.46875 0 -0.828125 0.1875q-0.359375 0.171875 -0.609375 0.46875q-0.234375 0.296875 -0.375 0.703125q-0.125 0.390625 -0.140625 0.8125l3.8125 0zm13.679672 4.203125q0 0.0625 -0.03125 0.109375q-0.03125 0.046875 -0.109375 0.078125q-0.0625 0.03125 -0.1875 0.046875q-0.125 0.015625 -0.3125 0.015625q-0.1875 0 -0.3125 -0.015625q-0.125 -0.015625 -0.203125 -0.046875q-0.078125 -0.03125 -0.109375 -0.078125q-0.03125 -0.046875 -0.03125 -0.109375l0 -4.265625q0 -0.453125 -0.078125 -0.8125q-0.078125 -0.375 -0.25 -0.640625q-0.171875 -0.265625 -0.4375 -0.40625q-0.265625 -0.140625 -0.625 -0.140625q-0.4375 0 -0.890625 0.34375q-0.453125 0.34375 -0.984375 1.015625l0 4.90625q0 0.0625 -0.03125 0.109375q-0.03125 0.046875 -0.109375 0.078125q-0.078125 0.03125 -0.203125 0.046875q-0.125 0.015625 -0.3125 0.015625q-0.171875 0 -0.3125 -0.015625q-0.125 -0.015625 -0.203125 -0.046875q-0.0625 -0.03125 -0.09375 -0.078125q-0.03125 -0.046875 -0.03125 -0.109375l0 -4.265625q0 -0.453125 -0.09375 -0.8125q-0.078125 -0.375 -0.25 -0.640625q-0.17185974 -0.265625 -0.43748474 -0.40625q-0.25 -0.140625 -0.609375 -0.140625q-0.453125 0 -0.90625 0.34375q-0.453125 0.34375 -0.984375 1.015625l0 4.90625q0 0.0625 -0.03125 0.109375q-0.03125 0.046875 -0.109375 0.078125q-0.0625 0.03125 -0.1875 0.046875q-0.125 0.015625 -0.3125 0.015625q-0.1875 0 -0.3125 -0.015625q-0.125 -0.015625 -0.203125 -0.046875q-0.078125 -0.03125 -0.109375 -0.078125q-0.015625 -0.046875 -0.015625 -0.109375l0 -7.03125q0 -0.0625 0.015625 -0.09375q0.03125 -0.046875 0.09375 -0.078125q0.078125 -0.046875 0.1875 -0.046875q0.109375 -0.015625 0.28125 -0.015625q0.171875 0 0.28125 0.015625q0.125 0 0.1875 0.046875q0.0625 0.03125 0.078125 0.078125q0.03125 0.03125 0.03125 0.09375l0 0.9375q0.59375 -0.671875 1.15625 -0.96875q0.5625 -0.3125 1.125 -0.3125q0.4375 0 0.78123474 0.109375q0.359375 0.09375 0.625 0.28125q0.265625 0.171875 0.453125 0.4375q0.1875 0.25 0.3125 0.5625q0.34375 -0.390625 0.65625 -0.65625q0.328125 -0.265625 0.609375 -0.421875q0.296875 -0.171875 0.578125 -0.234375q0.28125 -0.078125 0.5625 -0.078125q0.671875 0 1.125 0.234375q0.46875 0.234375 0.75 0.640625q0.296875 0.390625 0.40625 0.9375q0.125 0.53125 0.125 1.125l0 4.4375z" fill-rule="nonzero"/><path fill="#000000" fill-opacity="0.0" d="m286.9823 41.717846l94.078735 0l0 38.771656l-94.078735 0z" fill-rule="evenodd"/><path fill="#274e13" d="m304.96667 65.51535q0 0.15625 -0.046875 0.265625q-0.046875 0.109375 -0.140625 0.1875q-0.078125 0.0625 -0.1875 0.109375q-0.09375 0.03125 -0.1875 0.03125l-0.4375 0q-0.203125 0 -0.359375 -0.046875q-0.140625 -0.046875 -0.28125 -0.15625q-0.140625 -0.125 -0.28125 -0.3125q-0.125 -0.203125 -0.296875 -0.5l-3.1875 -5.750004q-0.25 -0.453125 -0.5 -0.9375q-0.25 -0.484375 -0.46875 -0.953125l-0.015625 0q0.015625 0.5625 0.015625 1.15625q0.015625 0.578125 0.015625 1.15625l0 6.109379q0 0.046875 -0.03125 0.109375q-0.03125 0.046875 -0.109375 0.078125q-0.078125 0.03125 -0.203125 0.046875q-0.109375 0.015625 -0.296875 0.015625q-0.1875 0 -0.3125 -0.015625q-0.125 -0.015625 -0.203125 -0.046875q-0.0625 -0.03125 -0.09375 -0.078125q-0.03125 -0.0625 -0.03125 -0.109375l0 -9.328129q0 -0.3125 0.171875 -0.4375q0.171875 -0.140625 0.375 -0.140625l0.640625 0q0.234375 0 0.375 0.046875q0.15625 0.03125 0.28125 0.125q0.125 0.078125 0.234375 0.25q0.109375 0.15625 0.25 0.390625l2.453125 4.4375q0.21875 0.40625 0.421875 0.796875q0.21875 0.390625 0.40625 0.765625q0.203125 0.375 0.390625 0.734375q0.203125 0.359375 0.390625 0.7343788l0 0q-0.015625 -0.6250038 -0.015625 -1.2812538q0 -0.671875 0 -1.296875l0 -5.484375q0 -0.046875 0.03125 -0.09375q0.03125 -0.046875 0.09375 -0.078125q0.078125 -0.046875 0.203125 -0.0625q0.125 -0.015625 0.3125 -0.015625q0.171875 0 0.296875 0.015625q0.125 0.015625 0.1875 0.0625q0.078125 0.03125 0.109375 0.078125q0.03125 0.046875 0.03125 0.09375l0 9.328129zm9.078125 -3.2343788q0 0.859375 -0.234375 1.59375q-0.21875 0.7187538 -0.671875 1.2500038q-0.4375 0.515625 -1.125 0.8125q-0.671875 0.296875 -1.5625 0.296875q-0.859375 0 -1.515625 -0.265625q-0.640625 -0.265625 -1.078125 -0.75q-0.421875 -0.5 -0.640625 -1.203125q-0.203125 -0.7031288 -0.203125 -1.5937538q0 -0.859375 0.21875 -1.578125q0.234375 -0.71875 0.671875 -1.234375q0.453125 -0.53125 1.125 -0.8125q0.671875 -0.296875 1.578125 -0.296875q0.859375 0 1.5 0.265625q0.65625 0.25 1.078125 0.75q0.4375 0.484375 0.640625 1.1875q0.21875 0.703125 0.21875 1.578125zm-1.359375 0.09375q0 -0.578125 -0.109375 -1.078125q-0.09375 -0.515625 -0.34375 -0.890625q-0.234375 -0.390625 -0.65625 -0.609375q-0.40625 -0.21875 -1.03125 -0.21875q-0.5625 0 -0.984375 0.203125q-0.40625 0.203125 -0.671875 0.578125q-0.265625 0.359375 -0.390625 0.875q-0.125 0.5 -0.125 1.109375q0 0.578125 0.09375 1.09375q0.109375 0.5 0.359375 0.8750038q0.25 0.375 0.65625 0.609375q0.421875 0.21875 1.03125 0.21875q0.5625 0 0.96875 -0.203125q0.421875 -0.203125 0.6875 -0.5625q0.265625 -0.3750038 0.390625 -0.8750038q0.125 -0.515625 0.125 -1.125zm9.28125 3.5000038q0 0.0625 -0.03125 0.109375q-0.015625 0.046875 -0.09375 0.078125q-0.0625 0.03125 -0.171875 0.046875q-0.109375 0.015625 -0.265625 0.015625q-0.15625 0 -0.265625 -0.015625q-0.109375 -0.015625 -0.1875 -0.046875q-0.0625 -0.03125 -0.09375 -0.078125q-0.03125 -0.046875 -0.03125 -0.109375l0 -0.921875q-0.5625 0.59375 -1.15625 0.9375q-0.59375 0.34375 -1.3125 0.34375q-0.765625 0 -1.3125 -0.296875q-0.546875 -0.3125 -0.890625 -0.828125q-0.34375 -0.515625 -0.5 -1.2031288q-0.15625 -0.6875 -0.15625 -1.453125q0 -0.90625 0.1875 -1.640625q0.203125 -0.734375 0.578125 -1.25q0.390625 -0.515625 0.953125 -0.78125q0.578125 -0.28125 1.3125 -0.28125q0.625 0 1.125 0.265625q0.515625 0.265625 1.015625 0.796875l0 -4.09375q0 -0.046875 0.03125 -0.09375q0.03125 -0.0625 0.109375 -0.078125q0.078125 -0.03125 0.1875 -0.046875q0.125 -0.03125 0.3125 -0.03125q0.203125 0 0.328125 0.03125q0.125 0.015625 0.1875 0.046875q0.078125 0.015625 0.109375 0.078125q0.03125 0.046875 0.03125 0.09375l0 10.406254zm-1.296875 -4.937504q-0.515625 -0.65625 -1.015625 -0.984375q-0.484375 -0.34375 -1.015625 -0.34375q-0.484375 0 -0.828125 0.234375q-0.34375 0.234375 -0.5625 0.625q-0.21875 0.375 -0.3125 0.859375q-0.09375 0.484375 -0.09375 0.984375q0 0.53125 0.078125 1.046875q0.078125 0.5 0.28125 0.8906288q0.203125 0.390625 0.53125 0.640625q0.34375 0.234375 0.859375 0.234375q0.25 0 0.484375 -0.0625q0.25 -0.078125 0.5 -0.234375q0.25 -0.171875 0.515625 -0.4375q0.28125 -0.265625 0.578125 -0.6406288l0 -2.8125zm9.6875 1.125q0 0.296875 -0.15625 0.4375q-0.15625 0.125 -0.34375 0.125l-4.609375 0q0 0.578125 0.109375 1.046875q0.125 0.4687538 0.390625 0.8125038q0.28125 0.328125 0.71875 0.515625q0.4375 0.171875 1.0625 0.171875q0.5 0 0.890625 -0.078125q0.390625 -0.078125 0.671875 -0.171875q0.296875 -0.109375 0.46875 -0.1875q0.1875 -0.09375 0.28125 -0.09375q0.0625 0 0.09375 0.03125q0.046875 0.03125 0.0625 0.09375q0.03125 0.046875 0.046875 0.140625q0.015625 0.09375 0.015625 0.234375q0 0.109375 -0.015625 0.1875q0 0.0625 -0.015625 0.125q-0.015625 0.0625 -0.046875 0.109375q-0.015625 0.046875 -0.0625 0.09375q-0.046875 0.03125 -0.265625 0.140625q-0.203125 0.09375 -0.546875 0.1875q-0.328125 0.09375 -0.765625 0.171875q-0.4375 0.078125 -0.9375 0.078125q-0.875 0 -1.53125 -0.25q-0.640625 -0.25 -1.09375 -0.71875q-0.4375 -0.484375 -0.671875 -1.203125q-0.21875 -0.7187538 -0.21875 -1.6718788q0 -0.90625 0.234375 -1.625q0.234375 -0.71875 0.671875 -1.21875q0.4375 -0.515625 1.0625 -0.78125q0.625 -0.265625 1.40625 -0.265625q0.828125 0 1.40625 0.265625q0.578125 0.265625 0.953125 0.71875q0.375 0.4375 0.546875 1.046875q0.1875 0.609375 0.1875 1.296875l0 0.234375zm-1.296875 -0.390625q0.015625 -1.015625 -0.453125 -1.59375q-0.46875 -0.578125 -1.40625 -0.578125q-0.46875 0 -0.828125 0.1875q-0.359375 0.171875 -0.609375 0.46875q-0.234375 0.296875 -0.375 0.703125q-0.125 0.390625 -0.140625 0.8125l3.8125 0zm4.9140625 3.5468788q0 0.5625 -0.1875 0.75q-0.171875 0.1875 -0.65625 0.1875q-0.46875 0 -0.65625 -0.1875q-0.171875 -0.1875 -0.171875 -0.71875q0 -0.5625 0.171875 -0.734375q0.1875 -0.1875 0.671875 -0.1875q0.46875 0 0.640625 0.1875q0.1875 0.171875 0.1875 0.703125zm3.8203125 0.984375q0 0.78125 -0.125 1.25q-0.109375 0.484375 -0.359375 0.8125q-0.25 0.328125 -0.640625 0.5q-0.390625 0.171875 -0.953125 0.171875q-0.25 0 -0.4375 -0.03125q-0.171875 -0.03125 -0.265625 -0.078125q-0.09375 -0.03125 -0.125 -0.09375q-0.03125 -0.046875 -0.046875 -0.109375q-0.015625 -0.0625 -0.015625 -0.140625q-0.015625 -0.0625 -0.015625 -0.171875q0 -0.140625 0.015625 -0.25q0.015625 -0.09375 0.046875 -0.15625q0.015625 -0.0625 0.0625 -0.09375q0.03125 -0.015625 0.078125 -0.015625q0.046875 0 0.1875 0.015625q0.140625 0.015625 0.328125 0.015625q0.25 0 0.4375 -0.078125q0.1875 -0.078125 0.296875 -0.25q0.125 -0.171875 0.171875 -0.453125q0.0625 -0.28125 0.0625 -0.859375l0 -7.343754q0 -0.046875 0.03125 -0.09375q0.03125 -0.046875 0.09375 -0.078125q0.078125 -0.03125 0.203125 -0.046875q0.125 -0.015625 0.3125 -0.015625q0.1875 0 0.3125 0.015625q0.125 0.015625 0.203125 0.046875q0.078125 0.03125 0.109375 0.078125q0.03125 0.046875 0.03125 0.09375l0 7.359379zm0.140625 -9.734379q0 0.453125 -0.171875 0.625q-0.171875 0.15625 -0.625 0.15625q-0.453125 0 -0.625 -0.15625q-0.15625 -0.15625 -0.15625 -0.609375q0 -0.453125 0.15625 -0.609375q0.171875 -0.171875 0.640625 -0.171875q0.453125 0 0.609375 0.171875q0.171875 0.15625 0.171875 0.59375zm6.65625 7.5q0 0.5312538 -0.203125 0.9531288q-0.1875 0.421875 -0.5625 0.71875q-0.359375 0.28125 -0.875 0.4375q-0.5 0.15625 -1.109375 0.15625q-0.375 0 -0.71875 -0.0625q-0.34375 -0.0625 -0.609375 -0.15625q-0.265625 -0.09375 -0.453125 -0.1875q-0.1875 -0.09375 -0.28125 -0.171875q-0.078125 -0.078125 -0.125 -0.21875q-0.03125 -0.140625 -0.03125 -0.390625q0 -0.140625 0.015625 -0.234375q0.015625 -0.109375 0.03125 -0.171875q0.03125 -0.0625 0.0625 -0.09375q0.046875 -0.03125 0.109375 -0.03125q0.078125 0 0.25 0.109375q0.171875 0.109375 0.40625 0.234375q0.25 0.125 0.578125 0.234375q0.34375 0.09375 0.78125 0.09375q0.328125 0 0.59375 -0.0625q0.265625 -0.078125 0.453125 -0.203125q0.203125 -0.140625 0.3125 -0.34375q0.109375 -0.21875 0.109375 -0.515625q0 -0.2968788 -0.15625 -0.5000038q-0.15625 -0.203125 -0.40625 -0.359375q-0.25 -0.15625 -0.5625 -0.265625q-0.3125 -0.125 -0.640625 -0.25q-0.328125 -0.140625 -0.65625 -0.3125q-0.3125 -0.171875 -0.5625 -0.40625q-0.25 -0.25 -0.40625 -0.578125q-0.140625 -0.34375 -0.140625 -0.8125q0 -0.40625 0.15625 -0.78125q0.15625 -0.390625 0.46875 -0.671875q0.328125 -0.28125 0.8125 -0.453125q0.484375 -0.171875 1.125 -0.171875q0.28125 0 0.5625 0.046875q0.28125 0.046875 0.5 0.125q0.234375 0.0625 0.390625 0.140625q0.15625 0.078125 0.234375 0.140625q0.09375 0.0625 0.109375 0.109375q0.03125 0.046875 0.046875 0.109375q0.015625 0.0625 0.015625 0.15625q0.015625 0.078125 0.015625 0.203125q0 0.125 -0.015625 0.234375q0 0.09375 -0.03125 0.15625q-0.03125 0.0625 -0.078125 0.09375q-0.03125 0.015625 -0.078125 0.015625q-0.0625 0 -0.203125 -0.078125q-0.125 -0.09375 -0.34375 -0.1875q-0.203125 -0.09375 -0.5 -0.171875q-0.28125 -0.09375 -0.640625 -0.09375q-0.328125 0 -0.578125 0.078125q-0.25 0.0625 -0.421875 0.203125q-0.15625 0.140625 -0.234375 0.328125q-0.078125 0.1875 -0.078125 0.40625q0 0.296875 0.15625 0.515625q0.15625 0.203125 0.40625 0.359375q0.25 0.15625 0.5625 0.28125q0.328125 0.125 0.65625 0.265625q0.328125 0.125 0.65625 0.296875q0.328125 0.15625 0.578125 0.390625q0.25 0.234375 0.390625 0.5625q0.15625 0.328125 0.15625 0.78125z" fill-rule="nonzero"/><path fill="#000000" fill-opacity="0.0" d="m286.9823 76.84908l94.078735 0l0 38.771652l-94.078735 0z" fill-rule="evenodd"/><path fill="#1c4587" d="m304.07605 99.77158q0 0.125 -0.015625 0.21875q0 0.09375 -0.015625 0.171875q-0.015625 0.0625 -0.046875 0.125q-0.03125 0.046875 -0.109375 0.125q-0.078125 0.078125 -0.328125 0.25q-0.25 0.15625 -0.625 0.3125q-0.375 0.140625 -0.859375 0.25q-0.46875 0.109375 -1.046875 0.109375q-0.984375 0 -1.78125 -0.328125q-0.78125 -0.328125 -1.34375 -0.96875q-0.5625 -0.640625 -0.859375 -1.578125q-0.296875 -0.953125 -0.296875 -2.171875q0 -1.265625 0.3125 -2.25q0.328125 -0.984375 0.90625 -1.65625q0.59375 -0.6875 1.40625 -1.046875q0.828125 -0.359375 1.8125 -0.359375q0.4375 0 0.84375 0.078125q0.421875 0.078125 0.765625 0.203125q0.359375 0.125 0.625 0.296875q0.28125 0.15625 0.390625 0.265625q0.109375 0.109375 0.140625 0.171875q0.03125 0.046875 0.046875 0.125q0.015625 0.0625 0.03125 0.171875q0.015625 0.09375 0.015625 0.234375q0 0.15625 -0.015625 0.265625q-0.015625 0.109375 -0.046875 0.1875q-0.03125 0.078125 -0.078125 0.109375q-0.046875 0.03125 -0.109375 0.03125q-0.109375 0 -0.3125 -0.140625q-0.1875 -0.15625 -0.5 -0.34375q-0.296875 -0.1875 -0.75 -0.328125q-0.4375 -0.15625 -1.046875 -0.15625q-0.671875 0 -1.234375 0.265625q-0.546875 0.265625 -0.9375 0.796875q-0.390625 0.515625 -0.609375 1.28125q-0.203125 0.75 -0.203125 1.71875q0 0.953125 0.203125 1.703125q0.203125 0.734375 0.59375 1.234375q0.390625 0.484375 0.953125 0.75q0.5625 0.25 1.265625 0.25q0.609375 0 1.046875 -0.140625q0.453125 -0.15625 0.765625 -0.34375q0.328125 -0.1875 0.53125 -0.328125q0.203125 -0.15625 0.3125 -0.15625q0.0625 0 0.09375 0.03125q0.046875 0.015625 0.0625 0.09375q0.03125 0.0625 0.03125 0.1875q0.015625 0.109375 0.015625 0.28125z" fill-rule="nonzero"/><path fill="#000000" fill-opacity="0.0" d="m80.96655 59.891075l44.409447 0" fill-rule="evenodd"/><path stroke="#000000" stroke-width="2.0" stroke-linejoin="round" stroke-linecap="butt" d="m92.966545 59.891075l20.409462 0" fill-rule="evenodd"/><path fill="#000000" stroke="#000000" stroke-width="2.0" stroke-linecap="butt" d="m92.96655 56.587612l-9.076195 3.303463l9.076195 3.3034668z" fill-rule="evenodd"/><path fill="#000000" stroke="#000000" stroke-width="2.0" stroke-linecap="butt" d="m113.37601 63.194542l9.076195 -3.3034668l-9.076195 -3.303463z" fill-rule="evenodd"/><path fill="#ffffff" d="m25.398766 52.65073l0 0c-0.49248123 -3.7902145 1.1244354 -7.5422974 4.1646347 -9.664101c3.0401993 -2.1218033 6.970497 -2.241211 10.123119 -0.30754852l0 0c1.1167564 -2.2037888 3.1607437 -3.7253532 5.5136986 -4.10445c2.3529549 -0.37909317 4.73851 0.4288025 6.4350853 2.1793213l0 0c0.9513321 -1.9980927 2.8192902 -3.340561 4.941025 -3.5510178c2.1217308 -0.21045685 4.1969643 0.74087524 5.489296 2.5164185l0 0c1.7187195 -2.1179733 4.453251 -3.0097313 7.020336 -2.2893982c2.567093 0.7203331 4.5056686 2.9233742 4.976898 5.655857l0 0c2.1057281 0.6015129 3.8597488 2.130642 4.8088913 4.1923103c0.94914246 2.0616646 1.0002899 4.453621 0.14022827 6.557865l0 0c2.0735245 2.826233 2.5585709 6.592148 1.2741394 9.89238c-1.2844391 3.3002357 -4.1453934 5.638958 -7.5151978 6.1433983c-0.023750305 3.0973892 -1.6458054 5.939514 -4.240944 7.430893c-2.5951385 1.4913864 -5.758129 1.3991394 -8.269814 -0.24117279l0 0c-1.0698433 3.7096558 -4.0811005 6.439186 -7.732792 7.0093307c-3.6516914 0.57014465 -7.2891808 -1.1212997 -9.340942 -4.3435745l0 0c-2.515026 1.5882645 -5.532852 2.0457993 -8.372711 1.2693787c-2.8398628 -0.7764206 -5.2625427 -2.7213821 -6.7215366 -5.3961487l0 0c-2.5700436 0.31495667 -5.05492 -1.0795135 -6.2213936 -3.4913406c-1.1664753 -2.411827 -0.76623344 -5.3275986 1.0020866 -7.3002243l0 0c-2.2925453 -1.4130898 -3.4623394 -4.2171364 -2.8993816 -6.949932c0.56295776 -2.7327995 2.7310982 -4.7750893 5.373823 -5.0618935z" fill-rule="evenodd"/><path fill="#000000" fill-opacity="0.0" d="m22.873522 64.80864l0 0c1.0818596 0.6668396 2.3316593 0.96933746 3.5815964 0.86686707m1.6371479 9.924934c0.53751945 -0.06587219 1.0643902 -0.20536804 1.5670242 -0.41488647m13.526474 4.541481c-0.37805557 -0.5937271 -0.6945839 -1.2281876 -0.944191 -1.8925552m18.018578 -0.7733078l0 0c0.19504929 -0.67632294 0.32142258 -1.372406 0.37701416 -2.076645m12.133266 -5.112816c0.025291443 -3.2976456 -1.7631836 -6.3169975 -4.5972137 -7.7611656m10.838219 -8.274261c-0.4589615 1.1229095 -1.1596222 2.1190262 -2.0470352 2.9102516m-2.901657 -13.660725l0 0c0.078201294 0.45345688 0.11439514 0.9137306 0.108078 1.3744354m-12.105106 -4.740757l0 0c-0.42873764 0.52833176 -0.78195953 1.1187325 -1.0486679 1.7528229m-9.381752 -0.71845245l0 0c-0.2284813 0.47987747 -0.39909363 0.9876709 -0.5079117 1.5116806m-11.441048 0.41348648l0 0c0.66709137 0.4091606 1.2842445 0.9016266 1.8378944 1.4665871m-16.125465 8.5051155l0 0c0.067876816 0.52238846 0.17512703 1.0383377 0.32074356 1.5430183" fill-rule="evenodd"/><path stroke="#000000" stroke-width="1.0" stroke-linejoin="round" stroke-linecap="butt" d="m25.398766 52.65073l0 0c-0.49248123 -3.7902145 1.1244354 -7.5422974 4.1646347 -9.664101c3.0401993 -2.1218033 6.970497 -2.241211 10.123119 -0.30754852l0 0c1.1167564 -2.2037888 3.1607437 -3.7253532 5.5136986 -4.10445c2.3529549 -0.37909317 4.73851 0.4288025 6.4350853 2.1793213l0 0c0.9513321 -1.9980927 2.8192902 -3.340561 4.941025 -3.5510178c2.1217308 -0.21045685 4.1969643 0.74087524 5.489296 2.5164185l0 0c1.7187195 -2.1179733 4.453251 -3.0097313 7.020336 -2.2893982c2.567093 0.7203331 4.5056686 2.9233742 4.976898 5.655857l0 0c2.1057281 0.6015129 3.8597488 2.130642 4.8088913 4.1923103c0.94914246 2.0616646 1.0002899 4.453621 0.14022827 6.557865l0 0c2.0735245 2.826233 2.5585709 6.592148 1.2741394 9.89238c-1.2844391 3.3002357 -4.1453934 5.638958 -7.5151978 6.1433983c-0.023750305 3.0973892 -1.6458054 5.939514 -4.240944 7.430893c-2.5951385 1.4913864 -5.758129 1.3991394 -8.269814 -0.24117279l0 0c-1.0698433 3.7096558 -4.0811005 6.439186 -7.732792 7.0093307c-3.6516914 0.57014465 -7.2891808 -1.1212997 -9.340942 -4.3435745l0 0c-2.515026 1.5882645 -5.532852 2.0457993 -8.372711 1.2693787c-2.8398628 -0.7764206 -5.2625427 -2.7213821 -6.7215366 -5.3961487l0 0c-2.5700436 0.31495667 -5.05492 -1.0795135 -6.2213936 -3.4913406c-1.1664753 -2.411827 -0.76623344 -5.3275986 1.0020866 -7.3002243l0 0c-2.2925453 -1.4130898 -3.4623394 -4.2171364 -2.8993816 -6.949932c0.56295776 -2.7327995 2.7310982 -4.7750893 5.373823 -5.0618935z" fill-rule="evenodd"/><path stroke="#000000" stroke-width="1.0" stroke-linejoin="round" stroke-linecap="butt" d="m22.873522 64.80864l0 0c1.0818596 0.6668396 2.3316593 0.96933746 3.5815964 0.86686707m1.6371479 9.924934c0.53751945 -0.06587219 1.0643902 -0.20536804 1.5670242 -0.41488647m13.526474 4.541481c-0.37805557 -0.5937271 -0.6945839 -1.2281876 -0.944191 -1.8925552m18.018578 -0.7733078l0 0c0.19504929 -0.67632294 0.32142258 -1.372406 0.37701416 -2.076645m12.133266 -5.112816c0.025291443 -3.2976456 -1.7631836 -6.3169975 -4.5972137 -7.7611656m10.838219 -8.274261c-0.4589615 1.1229095 -1.1596222 2.1190262 -2.0470352 2.9102516m-2.901657 -13.660725l0 0c0.078201294 0.45345688 0.11439514 0.9137306 0.108078 1.3744354m-12.105106 -4.740757l0 0c-0.42873764 0.52833176 -0.78195953 1.1187325 -1.0486679 1.7528229m-9.381752 -0.71845245l0 0c-0.2284813 0.47987747 -0.39909363 0.9876709 -0.5079117 1.5116806m-11.441048 0.41348648l0 0c0.66709137 0.4091606 1.2842445 0.9016266 1.8378944 1.4665871m-16.125465 8.5051155l0 0c0.067876816 0.52238846 0.17512703 1.0383377 0.32074356 1.5430183" fill-rule="evenodd"/></g></svg>