<svg version="1.1" viewBox="0.0 0.0 761.5433070866142 180.04461942257217" fill="none" stroke="none" stroke-linecap="square" stroke-miterlimit="10" xmlns:xlink="http://www.w3.org/1999/xlink" xmlns="http://www.w3.org/2000/svg"><clipPath id="p.0"><path d="m0 0l761.54333 0l0 180.04462l-761.54333 0l0 -180.04462z" clip-rule="nonzero"/></clipPath><g clip-path="url(#p.0)"><path fill="#000000" fill-opacity="0.0" d="m0 0l761.54333 0l0 180.04462l-761.54333 0z" fill-rule="evenodd"/><path fill="#000000" fill-opacity="0.0" d="m42.244625 79.448784l272.50394 0l0 16.472443l-272.50394 0z" fill-rule="evenodd"/><path fill="#000000" d="m128.7068 83.01626l3.09375 7.71875l3.09375 -7.71875l1.625 0l0 9.46875l-1.25 0l0 -3.6875l0.109375 -3.984375l-3.109375 7.671875l-0.953125 0l-3.109375 -7.65625l0.125 3.96875l0 3.6875l-1.2500076 0l0 -9.46875l1.6250076 0zm14.182953 8.765625q-0.703125 0.828125 -2.0625 0.828125q-1.140625 0 -1.734375 -0.640625q-0.578125 -0.65625 -0.578125 -1.9375l0 -4.59375l1.203125 0l0 4.546875q0 1.609375 1.296875 1.609375q1.375 0 1.828125 -1.03125l0 -5.125l1.21875 0l0 7.046875l-1.15625 0l-0.015625 -0.703125zm7.097397 -1.171875q0 -0.484375 -0.375 -0.75q-0.359375 -0.265625 -1.28125 -0.453125q-0.90625 -0.203125 -1.453125 -0.46875q-0.53125 -0.28125 -0.796875 -0.65625q-0.25 -0.390625 -0.25 -0.90625q0 -0.859375 0.734375 -1.453125q0.734375 -0.609375 1.875 -0.609375q1.1875 0 1.9375 0.625q0.75 0.609375 0.75 1.578125l-1.21875 0q0 -0.5 -0.421875 -0.859375q-0.421875 -0.359375 -1.046875 -0.359375q-0.65625 0 -1.03125 0.296875q-0.375 0.28125 -0.375 0.75q0 0.421875 0.34375 0.65625q0.34375 0.21875 1.25 0.421875q0.90625 0.203125 1.453125 0.484375q0.5625 0.265625 0.828125 0.671875q0.28125 0.390625 0.28125 0.953125q0 0.9375 -0.765625 1.515625q-0.75 0.5625 -1.953125 0.5625q-0.84375 0 -1.5 -0.296875q-0.640625 -0.296875 -1.015625 -0.828125q-0.359375 -0.546875 -0.359375 -1.171875l1.203125 0q0.03125 0.609375 0.484375 0.96875q0.453125 0.34375 1.1875 0.34375q0.6875 0 1.09375 -0.265625q0.421875 -0.28125 0.421875 -0.75zm4.4035645 -6.875l0 1.703125l1.3125 0l0 0.9375l-1.3125 0l0 4.359375q0 0.421875 0.171875 0.640625q0.171875 0.21875 0.59375 0.21875q0.21875 0 0.578125 -0.078125l0 0.96875q-0.46875 0.125 -0.921875 0.125q-0.8125 0 -1.21875 -0.484375q-0.40625 -0.484375 -0.40625 -1.390625l0 -4.359375l-1.28125 0l0 -0.9375l1.28125 0l0 -1.703125l1.203125 0zm10.372025 8.046875q-0.703125 0.828125 -2.0625 0.828125q-1.140625 0 -1.734375 -0.640625q-0.578125 -0.65625 -0.578125 -1.9375l0 -4.59375l1.203125 0l0 4.546875q0 1.609375 1.296875 1.609375q1.375 0 1.828125 -1.03125l0 -5.125l1.21875 0l0 7.046875l-1.15625 0l-0.015625 -0.703125zm7.097397 -1.171875q0 -0.484375 -0.375 -0.75q-0.359375 -0.265625 -1.28125 -0.453125q-0.90625 -0.203125 -1.453125 -0.46875q-0.53125 -0.28125 -0.796875 -0.65625q-0.25 -0.390625 -0.25 -0.90625q0 -0.859375 0.734375 -1.453125q0.734375 -0.609375 1.875 -0.609375q1.1875 0 1.9375 0.625q0.75 0.609375 0.75 1.578125l-1.21875 0q0 -0.5 -0.421875 -0.859375q-0.421875 -0.359375 -1.046875 -0.359375q-0.65625 0 -1.03125 0.296875q-0.375 0.28125 -0.375 0.75q0 0.421875 0.34375 0.65625q0.34375 0.21875 1.25 0.421875q0.90625 0.203125 1.453125 0.484375q0.5625 0.265625 0.828125 0.671875q0.28125 0.390625 0.28125 0.953125q0 0.9375 -0.765625 1.515625q-0.75 0.5625 -1.953125 0.5625q-0.84375 0 -1.5 -0.296875q-0.640625 -0.296875 -1.015625 -0.828125q-0.359375 -0.546875 -0.359375 -1.171875l1.203125 0q0.03125 0.609375 0.484375 0.96875q0.453125 0.34375 1.1875 0.34375q0.6875 0 1.09375 -0.265625q0.421875 -0.28125 0.421875 -0.75zm5.6848145 2.0q-1.421875 0 -2.328125 -0.9375q-0.890625 -0.9375 -0.890625 -2.515625l0 -0.21875q0 -1.046875 0.390625 -1.859375q0.40625 -0.828125 1.125 -1.296875q0.71875 -0.46875 1.5625 -0.46875q1.375 0 2.125 0.90625q0.765625 0.90625 0.765625 2.59375l0 0.5l-4.765625 0q0.015625 1.03125 0.59375 1.671875q0.59375 0.640625 1.484375 0.640625q0.640625 0 1.078125 -0.25q0.453125 -0.265625 0.78125 -0.6875l0.734375 0.5625q-0.875 1.359375 -2.65625 1.359375zm-0.140625 -6.3125q-0.734375 0 -1.234375 0.53125q-0.484375 0.53125 -0.609375 1.484375l3.53125 0l0 -0.078125q-0.046875 -0.921875 -0.5 -1.421875q-0.4375 -0.515625 -1.1875 -0.515625zm9.219925 -2.5625l0 1.703125l1.3125 0l0 0.9375l-1.3125 0l0 4.359375q0 0.421875 0.171875 0.640625q0.171875 0.21875 0.59375 0.21875q0.21875 0 0.578125 -0.078125l0 0.96875q-0.46875 0.125 -0.921875 0.125q-0.8125 0 -1.21875 -0.484375q-0.40625 -0.484375 -0.40625 -1.390625l0 -4.359375l-1.28125 0l0 -0.9375l1.28125 0l0 -1.703125l1.203125 0zm3.916275 2.5625q0.8125 -0.984375 2.09375 -0.984375q2.234375 0 2.25 2.515625l0 4.65625l-1.203125 0l0 -4.65625q-0.015625 -0.765625 -0.359375 -1.125q-0.328125 -0.375 -1.0625 -0.375q-0.578125 0 -1.03125 0.3125q-0.4375 0.3125 -0.6875 0.828125l0 5.015625l-1.203125 0l0 -10.0l1.203125 0l0 3.8125zm9.059631 6.3125q-1.421875 0 -2.328125 -0.9375q-0.890625 -0.9375 -0.890625 -2.515625l0 -0.21875q0 -1.046875 0.390625 -1.859375q0.40625 -0.828125 1.125 -1.296875q0.71875 -0.46875 1.5625 -0.46875q1.375 0 2.125 0.90625q0.765625 0.90625 0.765625 2.59375l0 0.5l-4.765625 0q0.015625 1.03125 0.59375 1.671875q0.59375 0.640625 1.484375 0.640625q0.640625 0 1.078125 -0.25q0.453125 -0.265625 0.78125 -0.6875l0.734375 0.5625q-0.875 1.359375 -2.65625 1.359375zm-0.140625 -6.3125q-0.734375 0 -1.234375 0.53125q-0.484375 0.53125 -0.609375 1.484375l3.53125 0l0 -0.078125q-0.046875 -0.921875 -0.5 -1.421875q-0.4375 -0.515625 -1.1875 -0.515625zm11.688675 4.3125q0 -0.484375 -0.375 -0.75q-0.359375 -0.265625 -1.28125 -0.453125q-0.90625 -0.203125 -1.453125 -0.46875q-0.53125 -0.28125 -0.796875 -0.65625q-0.25 -0.390625 -0.25 -0.90625q0 -0.859375 0.734375 -1.453125q0.734375 -0.609375 1.875 -0.609375q1.1875 0 1.9375 0.625q0.75 0.609375 0.75 1.578125l-1.21875 0q0 -0.5 -0.421875 -0.859375q-0.421875 -0.359375 -1.046875 -0.359375q-0.65625 0 -1.03125 0.296875q-0.375 0.28125 -0.375 0.75q0 0.421875 0.34375 0.65625q0.34375 0.21875 1.25 0.421875q0.90625 0.203125 1.453125 0.484375q0.5625 0.265625 0.828125 0.671875q0.28125 0.390625 0.28125 0.953125q0 0.9375 -0.765625 1.515625q-0.75 0.5625 -1.953125 0.5625q-0.84375 0 -1.5 -0.296875q-0.640625 -0.296875 -1.015625 -0.828125q-0.359375 -0.546875 -0.359375 -1.171875l1.203125 0q0.03125 0.609375 0.484375 0.96875q0.453125 0.34375 1.1875 0.34375q0.6875 0 1.09375 -0.265625q0.421875 -0.28125 0.421875 -0.75zm7.1223145 1.875q-0.109375 -0.203125 -0.171875 -0.734375q-0.84375 0.859375 -2.015625 0.859375q-1.03125 0 -1.703125 -0.578125q-0.671875 -0.59375 -0.671875 -1.5q0 -1.09375 0.828125 -1.703125q0.84375 -0.609375 2.359375 -0.609375l1.171875 0l0 -0.5625q0 -0.625 -0.375 -1.0q-0.375 -0.375 -1.109375 -0.375q-0.640625 0 -1.078125 0.328125q-0.4375 0.328125 -0.4375 0.78125l-1.203125 0q0 -0.515625 0.359375 -1.0q0.375 -0.5 1.015625 -0.78125q0.65625 -0.296875 1.421875 -0.296875q1.21875 0 1.90625 0.609375q0.6875 0.609375 0.71875 1.671875l0 3.25q0 0.96875 0.234375 1.53125l0 0.109375l-1.25 0zm-2.0 -0.921875q0.5625 0 1.0625 -0.28125q0.515625 -0.296875 0.734375 -0.765625l0 -1.453125l-0.9375 0q-2.21875 0 -2.21875 1.296875q0 0.5625 0.375 0.890625q0.390625 0.3125 0.984375 0.3125zm6.031021 -6.125l0.03125 0.78125q0.765625 -0.90625 2.09375 -0.90625q1.46875 0 2.0 1.125q0.359375 -0.5 0.921875 -0.8125q0.5625 -0.3125 1.328125 -0.3125q2.3125 0 2.359375 2.453125l0 4.71875l-1.203125 0l0 -4.640625q0 -0.765625 -0.34375 -1.140625q-0.34375 -0.375 -1.171875 -0.375q-0.65625 0 -1.109375 0.40625q-0.4375 0.40625 -0.515625 1.078125l0 4.671875l-1.203125 0l0 -4.609375q0 -1.546875 -1.5 -1.546875q-1.1875 0 -1.625 1.015625l0 5.140625l-1.203125 0l0 -7.046875l1.140625 0zm13.462891 7.171875q-1.421875 0 -2.328125 -0.9375q-0.890625 -0.9375 -0.890625 -2.515625l0 -0.21875q0 -1.046875 0.390625 -1.859375q0.40625 -0.828125 1.125 -1.296875q0.71875 -0.46875 1.5625 -0.46875q1.375 0 2.125 0.90625q0.765625 0.90625 0.765625 2.59375l0 0.5l-4.765625 0q0.015625 1.03125 0.59375 1.671875q0.59375 0.640625 1.484375 0.640625q0.640625 0 1.078125 -0.25q0.453125 -0.265625 0.78125 -0.6875l0.734375 0.5625q-0.875 1.359375 -2.65625 1.359375zm-0.140625 -6.3125q-0.734375 0 -1.234375 0.53125q-0.484375 0.53125 -0.609375 1.484375l3.53125 0l0 -0.078125q-0.046875 -0.921875 -0.5 -1.421875q-0.4375 -0.515625 -1.1875 -0.515625zm13.532425 2.75q0 1.609375 -0.734375 2.59375q-0.734375 0.96875 -2.0 0.96875q-1.28125 0 -2.015625 -0.8125l0 3.390625l-1.203125 0l0 -9.75l1.109375 0l0.046875 0.78125q0.75 -0.90625 2.046875 -0.90625q1.265625 0 2.0 0.953125q0.75 0.953125 0.75 2.671875l0 0.109375zm-1.203125 -0.140625q0 -1.1875 -0.515625 -1.875q-0.5 -0.703125 -1.390625 -0.703125q-1.09375 0 -1.640625 0.96875l0 3.375q0.546875 0.953125 1.65625 0.953125q0.875 0 1.375 -0.671875q0.515625 -0.6875 0.515625 -2.046875zm6.1338043 -2.390625q-0.265625 -0.03125 -0.59375 -0.03125q-1.1875 0 -1.609375 1.0l0 5.0l-1.203125 0l0 -7.046875l1.171875 0l0.03125 0.8125q0.578125 -0.9375 1.671875 -0.9375q0.34375 0 0.53125 0.09375l0 1.109375zm2.4161987 5.96875l-1.2031097 0l0 -7.046875l1.2031097 0l0 7.046875zm-1.2968597 -8.90625q0 -0.296875 0.171875 -0.5q0.1875 -0.203125 0.53125 -0.203125q0.35935974 0 0.53123474 0.203125q0.1875 0.203125 0.1875 0.5q0 0.296875 -0.1875 0.5q-0.171875 0.1875 -0.53123474 0.1875q-0.34375 0 -0.53125 -0.1875q-0.171875 -0.203125 -0.171875 -0.5zm5.546921 7.265625l1.75 -5.40625l1.21875 0l-2.515625 7.046875l-0.921875 0l-2.546875 -7.046875l1.21875 0l1.796875 5.40625zm8.389404 1.640625q-0.109375 -0.203125 -0.171875 -0.734375q-0.84375 0.859375 -2.015625 0.859375q-1.03125 0 -1.703125 -0.578125q-0.671875 -0.59375 -0.671875 -1.5q0 -1.09375 0.828125 -1.703125q0.84375 -0.609375 2.359375 -0.609375l1.171875 0l0 -0.5625q0 -0.625 -0.375 -1.0q-0.375 -0.375 -1.109375 -0.375q-0.640625 0 -1.078125 0.328125q-0.4375 0.328125 -0.4375 0.78125l-1.203125 0q0 -0.515625 0.359375 -1.0q0.375 -0.5 1.015625 -0.78125q0.65625 -0.296875 1.421875 -0.296875q1.21875 0 1.90625 0.609375q0.6875 0.609375 0.71875 1.671875l0 3.25q0 0.96875 0.234375 1.53125l0 0.109375l-1.25 0zm-2.0 -0.921875q0.5625 0 1.0625 -0.28125q0.515625 -0.296875 0.734375 -0.765625l0 -1.453125l-0.9375 0q-2.21875 0 -2.21875 1.296875q0 0.5625 0.375 0.890625q0.390625 0.3125 0.984375 0.3125zm6.531006 -7.828125l0 1.703125l1.3125 0l0 0.9375l-1.3125 0l0 4.359375q0 0.421875 0.171875 0.640625q0.171875 0.21875 0.59375 0.21875q0.21875 0 0.578125 -0.078125l0 0.96875q-0.46875 0.125 -0.921875 0.125q-0.8125 0 -1.21875 -0.484375q-0.40625 -0.484375 -0.40625 -1.390625l0 -4.359375l-1.28125 0l0 -0.9375l1.28125 0l0 -1.703125l1.203125 0zm5.6350403 8.875q-1.421875 0 -2.328125 -0.9375q-0.890625 -0.9375 -0.890625 -2.515625l0 -0.21875q0 -1.046875 0.390625 -1.859375q0.40625 -0.828125 1.125 -1.296875q0.71875 -0.46875 1.5625 -0.46875q1.375 0 2.125 0.90625q0.765625 0.90625 0.765625 2.59375l0 0.5l-4.765625 0q0.015625 1.03125 0.59375 1.671875q0.59375 0.640625 1.484375 0.640625q0.640625 0 1.078125 -0.25q0.453125 -0.265625 0.78125 -0.6875l0.734375 0.5625q-0.875 1.359375 -2.65625 1.359375zm-0.140625 -6.3125q-0.734375 0 -1.234375 0.53125q-0.484375 0.53125 -0.609375 1.484375l3.53125 0l0 -0.078125q-0.046875 -0.921875 -0.5 -1.421875q-0.4375 -0.515625 -1.1875 -0.515625zm9.548035 2.921875l-0.75 0.796875l0 2.46875l-1.203125 0l0 -10.0l1.203125 0l0 6.046875l0.640625 -0.765625l2.1875 -2.328125l1.46875 0l-2.734375 2.953125l3.046875 4.09375l-1.40625 0l-2.453125 -3.265625zm7.5780945 3.390625q-1.421875 0 -2.328125 -0.9375q-0.890625 -0.9375 -0.890625 -2.515625l0 -0.21875q0 -1.046875 0.390625 -1.859375q0.40625 -0.828125 1.125 -1.296875q0.71875 -0.46875 1.5625 -0.46875q1.375 0 2.125 0.90625q0.765625 0.90625 0.765625 2.59375l0 0.5l-4.765625 0q0.015625 1.03125 0.59375 1.671875q0.59375 0.640625 1.484375 0.640625q0.640625 0 1.078125 -0.25q0.453125 -0.265625 0.78125 -0.6875l0.734375 0.5625q-0.875 1.359375 -2.65625 1.359375zm-0.140625 -6.3125q-0.734375 0 -1.234375 0.53125q-0.484375 0.53125 -0.609375 1.484375l3.53125 0l0 -0.078125q-0.046875 -0.921875 -0.5 -1.421875q-0.4375 -0.515625 -1.1875 -0.515625zm6.5076904 4.421875l1.640625 -5.28125l1.28125 0l-2.828125 8.140625q-0.65625 1.75 -2.09375 1.75l-0.21875 -0.015625l-0.453125 -0.09375l0 -0.96875l0.328125 0.03125q0.609375 0 0.953125 -0.25q0.34375 -0.25 0.5625 -0.90625l0.265625 -0.71875l-2.515625 -6.96875l1.3125 0l1.765625 5.28125z" fill-rule="nonzero"/><path fill="#000000" fill-opacity="0.0" d="m303.0373 138.87463l144.50394 0l0 38.771652l-144.50394 0z" fill-rule="evenodd"/><path fill="#000000" d="m313.36542 163.23463l0 -11.375l3.203125 0q1.484375 0 2.625 0.65625q1.140625 0.65625 1.765625 1.875q0.625 1.203125 0.625 2.765625l0 0.734375q0 1.609375 -0.625 2.828125q-0.609375 1.203125 -1.765625 1.859375q-1.15625 0.640625 -2.6875 0.65625l-3.140625 0zm1.5 -10.140625l0 8.90625l1.578125 0q1.734375 0 2.6875 -1.078125q0.96875 -1.078125 0.96875 -3.0625l0 -0.671875q0 -1.9375 -0.90625 -3.0q-0.90625 -1.078125 -2.578125 -1.09375l-1.75 0zm12.2734375 10.296875q-1.71875 0 -2.796875 -1.125q-1.078125 -1.140625 -1.078125 -3.03125l0 -0.265625q0 -1.25 0.46875 -2.234375q0.484375 -1.0 1.34375 -1.546875q0.875 -0.5625 1.875 -0.5625q1.65625 0 2.5625 1.09375q0.921875 1.078125 0.921875 3.09375l0 0.609375l-5.734375 0q0.03125 1.25 0.734375 2.015625q0.703125 0.765625 1.78125 0.765625q0.765625 0 1.296875 -0.3125q0.53125 -0.3125 0.921875 -0.828125l0.890625 0.6875q-1.0625 1.640625 -3.1875 1.640625zm-0.1875 -7.578125q-0.875 0 -1.46875 0.640625q-0.59375 0.625 -0.734375 1.78125l4.234375 0l0 -0.109375q-0.0625 -1.109375 -0.59375 -1.703125q-0.53125 -0.609375 -1.4375 -0.609375zm8.5390625 6.390625q0.78125 0 1.359375 -0.46875q0.578125 -0.46875 0.640625 -1.171875l1.359375 0q-0.03125 0.734375 -0.5 1.390625q-0.453125 0.65625 -1.234375 1.046875q-0.765625 0.390625 -1.625 0.390625q-1.71875 0 -2.75 -1.15625q-1.015625 -1.15625 -1.015625 -3.15625l0 -0.234375q0 -1.234375 0.453125 -2.1875q0.453125 -0.96875 1.296875 -1.5q0.859375 -0.53125 2.015625 -0.53125q1.421875 0 2.359375 0.859375q0.9375 0.84375 1.0 2.203125l-1.359375 0q-0.0625 -0.828125 -0.625 -1.34375q-0.5625 -0.53125 -1.375 -0.53125q-1.109375 0 -1.71875 0.796875q-0.59375 0.78125 -0.59375 2.28125l0 0.28125q0 1.453125 0.59375 2.25q0.609375 0.78125 1.71875 0.78125zm9.078125 -6.125q-0.328125 -0.0625 -0.71875 -0.0625q-1.421875 0 -1.921875 1.21875l0 6.0l-1.453125 0l0 -8.453125l1.40625 0l0.03125 0.96875q0.703125 -1.125 2.015625 -1.125q0.421875 0 0.640625 0.109375l0 1.34375zm4.2265625 5.03125l1.96875 -6.328125l1.546875 0l-3.390625 9.765625q-0.796875 2.109375 -2.515625 2.109375l-0.265625 -0.03125l-0.546875 -0.09375l0 -1.171875l0.390625 0.03125q0.734375 0 1.140625 -0.296875q0.421875 -0.296875 0.6875 -1.09375l0.3125 -0.859375l-3.015625 -8.359375l1.578125 0l2.109375 6.328125zm11.9453125 -2.015625q0 1.9375 -0.890625 3.125q-0.875 1.171875 -2.375 1.171875q-1.546875 0 -2.421875 -0.984375l0 4.078125l-1.453125 0l0 -11.703125l1.328125 0l0.0625 0.9375q0.890625 -1.09375 2.453125 -1.09375q1.53125 0 2.40625 1.15625q0.890625 1.140625 0.890625 3.1875l0 0.125zm-1.4375 -0.15625q0 -1.4375 -0.609375 -2.265625q-0.609375 -0.828125 -1.671875 -0.828125q-1.3125 0 -1.96875 1.171875l0 4.03125q0.640625 1.15625 1.984375 1.15625q1.03125 0 1.640625 -0.8125q0.625 -0.828125 0.625 -2.453125zm5.2421875 -6.203125l0 2.046875l1.578125 0l0 1.109375l-1.578125 0l0 5.25q0 0.5 0.203125 0.765625q0.21875 0.25 0.71875 0.25q0.25 0 0.6875 -0.09375l0 1.171875q-0.5625 0.15625 -1.109375 0.15625q-0.96875 0 -1.46875 -0.578125q-0.484375 -0.59375 -0.484375 -1.671875l0 -5.25l-1.53125 0l0 -1.109375l1.53125 0l0 -2.046875l1.453125 0z" fill-rule="nonzero"/><path fill="#000000" fill-opacity="0.0" d="m303.0373 -0.09973753l144.50394 0l0 38.771656l-144.50394 0z" fill-rule="evenodd"/><path fill="#000000" d="m319.7873 18.994638l-4.921875 0l0 4.03125l5.71875 0l0 1.234375l-7.21875 0l0 -11.375l7.140625 0l0 1.234375l-5.640625 0l0 3.65625l4.921875 0l0 1.21875zm5.6796875 4.234375q0.78125 0 1.359375 -0.46875q0.578125 -0.46875 0.640625 -1.171875l1.359375 0q-0.03125 0.734375 -0.5 1.390625q-0.453125 0.65625 -1.234375 1.046875q-0.765625 0.390625 -1.625 0.390625q-1.71875 0 -2.75 -1.15625q-1.015625 -1.15625 -1.015625 -3.15625l0 -0.234375q0 -1.234375 0.453125 -2.1875q0.453125 -0.96875 1.296875 -1.5q0.859375 -0.53125 2.015625 -0.53125q1.421875 0 2.359375 0.859375q0.9375 0.84375 1.0 2.203125l-1.359375 0q-0.0625 -0.828125 -0.625 -1.34375q-0.5625 -0.53125 -1.375 -0.53125q-1.109375 0 -1.71875 0.796875q-0.59375 0.78125 -0.59375 2.28125l0 0.28125q0 1.453125 0.59375 2.25q0.609375 0.78125 1.71875 0.78125zm9.078125 -6.125q-0.328125 -0.0625 -0.71875 -0.0625q-1.421875 0 -1.921875 1.21875l0 6.0l-1.453125 0l0 -8.453125l1.40625 0l0.03125 0.96875q0.703125 -1.125 2.015625 -1.125q0.421875 0 0.640625 0.109375l0 1.34375zm4.2265625 5.03125l1.96875 -6.328125l1.546875 0l-3.390625 9.765625q-0.796875 2.109375 -2.515625 2.109375l-0.265625 -0.03125l-0.546875 -0.09375l0 -1.171875l0.390625 0.03125q0.734375 0 1.140625 -0.296875q0.421875 -0.296875 0.6875 -1.09375l0.3125 -0.859375l-3.015625 -8.359375l1.578125 0l2.109375 6.328125zm11.9453125 -2.015625q0 1.9375 -0.890625 3.125q-0.875 1.171875 -2.375 1.171875q-1.546875 0 -2.421875 -0.984375l0 4.078125l-1.453125 0l0 -11.703125l1.328125 0l0.0625 0.9375q0.890625 -1.09375 2.453125 -1.09375q1.53125 0 2.40625 1.15625q0.890625 1.140625 0.890625 3.1875l0 0.125zm-1.4375 -0.15625q0 -1.4375 -0.609375 -2.265625q-0.609375 -0.828125 -1.671875 -0.828125q-1.3125 0 -1.96875 1.171875l0 4.03125q0.640625 1.15625 1.984375 1.15625q1.03125 0 1.640625 -0.8125q0.625 -0.828125 0.625 -2.453125zm5.2421875 -6.203125l0 2.046875l1.578125 0l0 1.109375l-1.578125 0l0 5.25q0 0.5 0.203125 0.765625q0.21875 0.25 0.71875 0.25q0.25 0 0.6875 -0.09375l0 1.171875q-0.5625 0.15625 -1.109375 0.15625q-0.96875 0 -1.46875 -0.578125q-0.484375 -0.59375 -0.484375 -1.671875l0 -5.25l-1.53125 0l0 -1.109375l1.53125 0l0 -2.046875l1.453125 0z" fill-rule="nonzero"/><path fill="#efefef" d="m69.43099 14.010499l233.6063 0l0 32.692913l-233.6063 0z" fill-rule="evenodd"/><path stroke="#666666" stroke-width="1.0" stroke-linejoin="round" stroke-linecap="butt" d="m69.43099 14.010499l233.6063 0l0 32.692913l-233.6063 0z" fill-rule="evenodd"/><path fill="#666666" d="m155.84009 38.343204l0 -10.5l1.171875 0l0 0.984375q0.421875 -0.578125 0.9375 -0.859375q0.515625 -0.296875 1.265625 -0.296875q0.96875 0 1.71875 0.5q0.75 0.5 1.125 1.421875q0.375 0.90625 0.375 1.984375q0 1.171875 -0.421875 2.109375q-0.40625 0.921875 -1.21875 1.421875q-0.796875 0.5 -1.671875 0.5q-0.640625 0 -1.15625 -0.265625q-0.515625 -0.28125 -0.84375 -0.6875l0 3.6875l-1.28125 0zm1.15625 -6.65625q0 1.453125 0.59375 2.15625q0.609375 0.703125 1.453125 0.703125q0.859375 0 1.46875 -0.71875q0.609375 -0.734375 0.609375 -2.25q0 -1.453125 -0.609375 -2.171875q-0.59375 -0.734375 -1.421875 -0.734375q-0.8125 0 -1.453125 0.78125q-0.640625 0.765625 -0.640625 2.234375zm11.947983 2.8125q-0.71875 0.609375 -1.375 0.859375q-0.65625 0.25 -1.421875 0.25q-1.25 0 -1.921875 -0.609375q-0.671875 -0.609375 -0.671875 -1.5625q0 -0.5625 0.25 -1.015625q0.25 -0.46875 0.65625 -0.75q0.421875 -0.28125 0.9375 -0.421875q0.375 -0.09375 1.140625 -0.1875q1.5625 -0.1875 2.296875 -0.453125q0.015625 -0.265625 0.015625 -0.328125q0 -0.796875 -0.375 -1.109375q-0.484375 -0.4375 -1.453125 -0.4375q-0.921875 0 -1.359375 0.328125q-0.421875 0.3125 -0.625 1.109375l-1.265625 -0.171875q0.171875 -0.796875 0.5625 -1.296875q0.390625 -0.5 1.140625 -0.765625q0.75 -0.265625 1.71875 -0.265625q0.984375 0 1.59375 0.234375q0.609375 0.21875 0.890625 0.5625q0.28125 0.34375 0.40625 0.875q0.0625 0.328125 0.0625 1.1875l0 1.71875q0 1.796875 0.078125 2.28125q0.078125 0.46875 0.328125 0.90625l-1.34375 0q-0.203125 -0.40625 -0.265625 -0.9375zm-0.109375 -2.875q-0.703125 0.28125 -2.09375 0.484375q-0.796875 0.109375 -1.125 0.265625q-0.328125 0.140625 -0.515625 0.421875q-0.171875 0.265625 -0.171875 0.59375q0 0.515625 0.390625 0.859375q0.390625 0.34375 1.140625 0.34375q0.734375 0 1.3125 -0.3125q0.59375 -0.328125 0.859375 -0.890625q0.203125 -0.4375 0.203125 -1.296875l0 -0.46875zm2.7917328 1.546875l1.265625 -0.203125q0.109375 0.765625 0.59375 1.171875q0.5 0.40625 1.375 0.40625q0.890625 0 1.3125 -0.359375q0.4375 -0.359375 0.4375 -0.84375q0 -0.4375 -0.375 -0.6875q-0.265625 -0.171875 -1.3125 -0.4375q-1.421875 -0.359375 -1.96875 -0.609375q-0.546875 -0.265625 -0.828125 -0.734375q-0.28125 -0.46875 -0.28125 -1.015625q0 -0.515625 0.21875 -0.9375q0.234375 -0.4375 0.640625 -0.734375q0.296875 -0.21875 0.8125 -0.359375q0.53125 -0.15625 1.125 -0.15625q0.890625 0 1.5625 0.265625q0.671875 0.25 1.0 0.6875q0.328125 0.4375 0.4375 1.171875l-1.25 0.171875q-0.09375 -0.578125 -0.5 -0.90625q-0.40625 -0.34375 -1.15625 -0.34375q-0.890625 0 -1.28125 0.296875q-0.375 0.296875 -0.375 0.6875q0 0.25 0.15625 0.453125q0.15625 0.203125 0.5 0.34375q0.1875 0.078125 1.140625 0.328125q1.359375 0.359375 1.890625 0.59375q0.546875 0.234375 0.859375 0.6875q0.3125 0.4375 0.3125 1.09375q0 0.640625 -0.375 1.21875q-0.375 0.5625 -1.09375 0.875q-0.703125 0.3125 -1.59375 0.3125q-1.484375 0 -2.265625 -0.609375q-0.765625 -0.625 -0.984375 -1.828125zm7.328125 0l1.265625 -0.203125q0.109375 0.765625 0.59375 1.171875q0.5 0.40625 1.375 0.40625q0.890625 0 1.3125 -0.359375q0.4375 -0.359375 0.4375 -0.84375q0 -0.4375 -0.375 -0.6875q-0.265625 -0.171875 -1.3125 -0.4375q-1.421875 -0.359375 -1.96875 -0.609375q-0.546875 -0.265625 -0.828125 -0.734375q-0.28125 -0.46875 -0.28125 -1.015625q0 -0.515625 0.21875 -0.9375q0.234375 -0.4375 0.640625 -0.734375q0.296875 -0.21875 0.8125 -0.359375q0.53125 -0.15625 1.125 -0.15625q0.890625 0 1.5625 0.265625q0.671875 0.25 1.0 0.6875q0.328125 0.4375 0.4375 1.171875l-1.25 0.171875q-0.09375 -0.578125 -0.5 -0.90625q-0.40625 -0.34375 -1.15625 -0.34375q-0.890625 0 -1.28125 0.296875q-0.375 0.296875 -0.375 0.6875q0 0.25 0.15625 0.453125q0.15625 0.203125 0.5 0.34375q0.1875 0.078125 1.140625 0.328125q1.359375 0.359375 1.890625 0.59375q0.546875 0.234375 0.859375 0.6875q0.3125 0.4375 0.3125 1.09375q0 0.640625 -0.375 1.21875q-0.375 0.5625 -1.09375 0.875q-0.703125 0.3125 -1.59375 0.3125q-1.484375 0 -2.265625 -0.609375q-0.765625 -0.625 -0.984375 -1.828125zm9.25 2.265625l-2.328125 -7.59375l1.328125 0l1.203125 4.375l0.453125 1.640625q0.03125 -0.125 0.390625 -1.578125l1.21875 -4.4375l1.328125 0l1.125 4.40625l0.390625 1.453125l0.4375 -1.46875l1.296875 -4.390625l1.25 0l-2.375 7.59375l-1.34375 0l-1.203125 -4.546875l-0.296875 -1.296875l-1.53125 5.84375l-1.34375 0zm8.693649 -3.796875q0 -2.109375 1.171875 -3.125q0.984375 -0.84375 2.390625 -0.84375q1.578125 0 2.5625 1.03125q1.0 1.015625 1.0 2.828125q0 1.46875 -0.4375 2.3125q-0.4375 0.828125 -1.28125 1.296875q-0.84375 0.46875 -1.84375 0.46875q-1.59375 0 -2.578125 -1.015625q-0.984375 -1.03125 -0.984375 -2.953125zm1.328125 0q0 1.453125 0.625 2.1875q0.640625 0.71875 1.609375 0.71875q0.96875 0 1.59375 -0.71875q0.640625 -0.734375 0.640625 -2.234375q0 -1.40625 -0.640625 -2.125q-0.640625 -0.734375 -1.59375 -0.734375q-0.96875 0 -1.609375 0.71875q-0.625 0.71875 -0.625 2.1875zm7.2917175 3.796875l0 -7.59375l1.15625 0l0 1.140625q0.453125 -0.796875 0.828125 -1.046875q0.375 -0.265625 0.8125 -0.265625q0.65625 0 1.328125 0.40625l-0.4375 1.203125q-0.46875 -0.28125 -0.953125 -0.28125q-0.421875 0 -0.765625 0.25q-0.328125 0.25 -0.46875 0.703125q-0.21875 0.6875 -0.21875 1.5l0 3.984375l-1.28125 0zm9.818146 0l0 -0.953125q-0.71875 1.125 -2.125 1.125q-0.90625 0 -1.671875 -0.5q-0.75 -0.5 -1.171875 -1.390625q-0.421875 -0.90625 -0.421875 -2.078125q0 -1.140625 0.375 -2.0625q0.390625 -0.921875 1.140625 -1.40625q0.765625 -0.5 1.703125 -0.5q0.6875 0 1.21875 0.296875q0.53125 0.28125 0.875 0.734375l0 -3.75l1.28125 0l0 10.484375l-1.203125 0zm-4.0625 -3.796875q0 1.46875 0.609375 2.1875q0.625 0.71875 1.453125 0.71875q0.84375 0 1.4375 -0.6875q0.59375 -0.6875 0.59375 -2.109375q0 -1.5625 -0.609375 -2.28125q-0.59375 -0.734375 -1.484375 -0.734375q-0.84375 0 -1.421875 0.703125q-0.578125 0.703125 -0.578125 2.203125z" fill-rule="nonzero"/><path fill="#efefef" d="m69.43099 128.95801l233.6063 0l0 32.692917l-233.6063 0z" fill-rule="evenodd"/><path stroke="#666666" stroke-width="1.0" stroke-linejoin="round" stroke-linecap="butt" d="m69.43099 128.95801l233.6063 0l0 32.692917l-233.6063 0z" fill-rule="evenodd"/><path fill="#666666" d="m155.84009 153.29071l0 -10.5l1.171875 0l0 0.984375q0.421875 -0.578125 0.9375 -0.859375q0.515625 -0.296875 1.265625 -0.296875q0.96875 0 1.71875 0.5q0.75 0.5 1.125 1.421875q0.375 0.90625 0.375 1.984375q0 1.171875 -0.421875 2.109375q-0.40625 0.921875 -1.21875 1.421875q-0.796875 0.5 -1.671875 0.5q-0.640625 0 -1.15625 -0.265625q-0.515625 -0.28125 -0.84375 -0.6875l0 3.6875l-1.28125 0zm1.15625 -6.65625q0 1.453125 0.59375 2.15625q0.609375 0.703125 1.453125 0.703125q0.859375 0 1.46875 -0.71875q0.609375 -0.734375 0.609375 -2.25q0 -1.453125 -0.609375 -2.171875q-0.59375 -0.734375 -1.421875 -0.734375q-0.8125 0 -1.453125 0.78125q-0.640625 0.765625 -0.640625 2.234375zm11.947983 2.8125q-0.71875 0.609375 -1.375 0.859375q-0.65625 0.25 -1.421875 0.25q-1.25 0 -1.921875 -0.609375q-0.671875 -0.609375 -0.671875 -1.5625q0 -0.5625 0.25 -1.015625q0.25 -0.46875 0.65625 -0.75q0.421875 -0.28125 0.9375 -0.421875q0.375 -0.09375 1.140625 -0.1875q1.5625 -0.1875 2.296875 -0.453125q0.015625 -0.265625 0.015625 -0.328125q0 -0.796875 -0.375 -1.109375q-0.484375 -0.4375 -1.453125 -0.4375q-0.921875 0 -1.359375 0.328125q-0.421875 0.3125 -0.625 1.109375l-1.265625 -0.171875q0.171875 -0.796875 0.5625 -1.296875q0.390625 -0.5 1.140625 -0.765625q0.75 -0.265625 1.71875 -0.265625q0.984375 0 1.59375 0.234375q0.609375 0.21875 0.890625 0.5625q0.28125 0.34375 0.40625 0.875q0.0625 0.328125 0.0625 1.1875l0 1.71875q0 1.796875 0.078125 2.28125q0.078125 0.46875 0.328125 0.90625l-1.34375 0q-0.203125 -0.40625 -0.265625 -0.9375zm-0.109375 -2.875q-0.703125 0.28125 -2.09375 0.484375q-0.796875 0.109375 -1.125 0.265625q-0.328125 0.140625 -0.515625 0.421875q-0.171875 0.265625 -0.171875 0.59375q0 0.515625 0.390625 0.859375q0.390625 0.34375 1.140625 0.34375q0.734375 0 1.3125 -0.3125q0.59375 -0.328125 0.859375 -0.890625q0.203125 -0.4375 0.203125 -1.296875l0 -0.46875zm2.7917328 1.546875l1.265625 -0.203125q0.109375 0.765625 0.59375 1.171875q0.5 0.40625 1.375 0.40625q0.890625 0 1.3125 -0.359375q0.4375 -0.359375 0.4375 -0.84375q0 -0.4375 -0.375 -0.6875q-0.265625 -0.171875 -1.3125 -0.4375q-1.421875 -0.359375 -1.96875 -0.609375q-0.546875 -0.265625 -0.828125 -0.734375q-0.28125 -0.46875 -0.28125 -1.015625q0 -0.515625 0.21875 -0.9375q0.234375 -0.4375 0.640625 -0.734375q0.296875 -0.21875 0.8125 -0.359375q0.53125 -0.15625 1.125 -0.15625q0.890625 0 1.5625 0.265625q0.671875 0.25 1.0 0.6875q0.328125 0.4375 0.4375 1.171875l-1.25 0.171875q-0.09375 -0.578125 -0.5 -0.90625q-0.40625 -0.34375 -1.15625 -0.34375q-0.890625 0 -1.28125 0.296875q-0.375 0.296875 -0.375 0.6875q0 0.25 0.15625 0.453125q0.15625 0.203125 0.5 0.34375q0.1875 0.078125 1.140625 0.328125q1.359375 0.359375 1.890625 0.59375q0.546875 0.234375 0.859375 0.6875q0.3125 0.4375 0.3125 1.09375q0 0.640625 -0.375 1.21875q-0.375 0.5625 -1.09375 0.875q-0.703125 0.3125 -1.59375 0.3125q-1.484375 0 -2.265625 -0.609375q-0.765625 -0.625 -0.984375 -1.828125zm7.328125 0l1.265625 -0.203125q0.109375 0.765625 0.59375 1.171875q0.5 0.40625 1.375 0.40625q0.890625 0 1.3125 -0.359375q0.4375 -0.359375 0.4375 -0.84375q0 -0.4375 -0.375 -0.6875q-0.265625 -0.171875 -1.3125 -0.4375q-1.421875 -0.359375 -1.96875 -0.609375q-0.546875 -0.265625 -0.828125 -0.734375q-0.28125 -0.46875 -0.28125 -1.015625q0 -0.515625 0.21875 -0.9375q0.234375 -0.4375 0.640625 -0.734375q0.296875 -0.21875 0.8125 -0.359375q0.53125 -0.15625 1.125 -0.15625q0.890625 0 1.5625 0.265625q0.671875 0.25 1.0 0.6875q0.328125 0.4375 0.4375 1.171875l-1.25 0.171875q-0.09375 -0.578125 -0.5 -0.90625q-0.40625 -0.34375 -1.15625 -0.34375q-0.890625 0 -1.28125 0.296875q-0.375 0.296875 -0.375 0.6875q0 0.25 0.15625 0.453125q0.15625 0.203125 0.5 0.34375q0.1875 0.078125 1.140625 0.328125q1.359375 0.359375 1.890625 0.59375q0.546875 0.234375 0.859375 0.6875q0.3125 0.4375 0.3125 1.09375q0 0.640625 -0.375 1.21875q-0.375 0.5625 -1.09375 0.875q-0.703125 0.3125 -1.59375 0.3125q-1.484375 0 -2.265625 -0.609375q-0.765625 -0.625 -0.984375 -1.828125zm9.25 2.265625l-2.328125 -7.59375l1.328125 0l1.203125 4.375l0.453125 1.640625q0.03125 -0.125 0.390625 -1.578125l1.21875 -4.4375l1.328125 0l1.125 4.40625l0.390625 1.453125l0.4375 -1.46875l1.296875 -4.390625l1.25 0l-2.375 7.59375l-1.34375 0l-1.203125 -4.546875l-0.296875 -1.296875l-1.53125 5.84375l-1.34375 0zm8.693649 -3.796875q0 -2.109375 1.171875 -3.125q0.984375 -0.84375 2.390625 -0.84375q1.578125 0 2.5625 1.03125q1.0 1.015625 1.0 2.828125q0 1.46875 -0.4375 2.3125q-0.4375 0.828125 -1.28125 1.296875q-0.84375 0.46875 -1.84375 0.46875q-1.59375 0 -2.578125 -1.015625q-0.984375 -1.03125 -0.984375 -2.953125zm1.328125 0q0 1.453125 0.625 2.1875q0.640625 0.71875 1.609375 0.71875q0.96875 0 1.59375 -0.71875q0.640625 -0.734375 0.640625 -2.234375q0 -1.40625 -0.640625 -2.125q-0.640625 -0.734375 -1.59375 -0.734375q-0.96875 0 -1.609375 0.71875q-0.625 0.71875 -0.625 2.1875zm7.2917175 3.796875l0 -7.59375l1.15625 0l0 1.140625q0.453125 -0.796875 0.828125 -1.046875q0.375 -0.265625 0.8125 -0.265625q0.65625 0 1.328125 0.40625l-0.4375 1.203125q-0.46875 -0.28125 -0.953125 -0.28125q-0.421875 0 -0.765625 0.25q-0.328125 0.25 -0.46875 0.703125q-0.21875 0.6875 -0.21875 1.5l0 3.984375l-1.28125 0zm9.818146 0l0 -0.953125q-0.71875 1.125 -2.125 1.125q-0.90625 0 -1.671875 -0.5q-0.75 -0.5 -1.171875 -1.390625q-0.421875 -0.90625 -0.421875 -2.078125q0 -1.140625 0.375 -2.0625q0.390625 -0.921875 1.140625 -1.40625q0.765625 -0.5 1.703125 -0.5q0.6875 0 1.21875 0.296875q0.53125 0.28125 0.875 0.734375l0 -3.75l1.28125 0l0 10.484375l-1.203125 0zm-4.0625 -3.796875q0 1.46875 0.609375 2.1875q0.625 0.71875 1.453125 0.71875q0.84375 0 1.4375 -0.6875q0.59375 -0.6875 0.59375 -2.109375q0 -1.5625 -0.609375 -2.28125q-0.59375 -0.734375 -1.484375 -0.734375q-0.84375 0 -1.421875 0.703125q-0.578125 0.703125 -0.578125 2.203125z" fill-rule="nonzero"/><path fill="#fce5cd" d="m447.52548 72.95801l233.6063 0l0 32.69291l-233.6063 0z" fill-rule="evenodd"/><path stroke="#e69138" stroke-width="1.0" stroke-linejoin="round" stroke-linecap="butt" d="m447.52548 72.95801l233.6063 0l0 32.69291l-233.6063 0z" fill-rule="evenodd"/><path fill="#7f6000" d="m504.9195 91.931335l1.328125 0.171875q-0.3125 1.171875 -1.171875 1.8125q-0.84375 0.640625 -2.171875 0.640625q-1.671875 0 -2.65625 -1.015625q-0.96875 -1.03125 -0.96875 -2.890625q0 -1.921875 0.984375 -2.96875q1.0 -1.0625 2.578125 -1.0625q1.515625 0 2.484375 1.03125q0.96875 1.03125 0.96875 2.921875q0 0.109375 -0.015625 0.34375l-5.65625 0q0.0625 1.25 0.703125 1.921875q0.640625 0.65625 1.59375 0.65625q0.703125 0 1.203125 -0.359375q0.5 -0.375 0.796875 -1.203125zm-4.234375 -2.078125l4.25 0q-0.09375 -0.953125 -0.484375 -1.4375q-0.625 -0.75 -1.609375 -0.75q-0.875 0 -1.484375 0.59375q-0.609375 0.59375 -0.671875 1.59375zm7.182373 4.53125l0 -7.59375l1.15625 0l0 1.078125q0.84375 -1.25 2.421875 -1.25q0.6875 0 1.265625 0.25q0.578125 0.234375 0.859375 0.640625q0.28125 0.40625 0.40625 0.953125q0.0625 0.359375 0.0625 1.25l0 4.671875l-1.28125 0l0 -4.625q0 -0.78125 -0.15625 -1.171875q-0.15625 -0.390625 -0.546875 -0.625q-0.375 -0.234375 -0.890625 -0.234375q-0.8125 0 -1.421875 0.53125q-0.59375 0.515625 -0.59375 1.96875l0 4.15625l-1.28125 0zm13.104248 -2.78125l1.265625 0.15625q-0.203125 1.3125 -1.0625 2.0625q-0.84375 0.734375 -2.09375 0.734375q-1.5625 0 -2.515625 -1.015625q-0.9375 -1.03125 -0.9375 -2.921875q0 -1.234375 0.40625 -2.15625q0.40625 -0.921875 1.234375 -1.375q0.84375 -0.46875 1.8125 -0.46875q1.25 0 2.03125 0.625q0.78125 0.625 1.015625 1.765625l-1.265625 0.203125q-0.171875 -0.765625 -0.625 -1.15625q-0.453125 -0.390625 -1.09375 -0.390625q-0.984375 0 -1.59375 0.703125q-0.609375 0.703125 -0.609375 2.203125q0 1.53125 0.578125 2.234375q0.59375 0.6875 1.546875 0.6875q0.75 0 1.265625 -0.453125q0.515625 -0.46875 0.640625 -1.4375zm2.359375 2.78125l0 -7.59375l1.15625 0l0 1.140625q0.453125 -0.796875 0.828125 -1.046875q0.375 -0.265625 0.8125 -0.265625q0.65625 0 1.328125 0.40625l-0.4375 1.203125q-0.46875 -0.28125 -0.953125 -0.28125q-0.421875 0 -0.765625 0.25q-0.328125 0.25 -0.46875 0.703125q-0.21875 0.6875 -0.21875 1.5l0 3.984375l-1.28125 0zm4.83374 2.921875l-0.140625 -1.203125q0.421875 0.109375 0.734375 0.109375q0.4375 0 0.6875 -0.140625q0.265625 -0.140625 0.421875 -0.40625q0.125 -0.1875 0.390625 -0.953125q0.046875 -0.109375 0.125 -0.3125l-2.890625 -7.609375l1.390625 0l1.578125 4.390625q0.3125 0.84375 0.546875 1.765625q0.234375 -0.890625 0.53125 -1.734375l1.625 -4.421875l1.296875 0l-2.890625 7.71875q-0.46875 1.25 -0.734375 1.734375q-0.34375 0.625 -0.78125 0.921875q-0.4375 0.296875 -1.0625 0.296875q-0.375 0 -0.828125 -0.15625zm7.390625 -0.015625l0 -10.5l1.171875 0l0 0.984375q0.421875 -0.578125 0.9375 -0.859375q0.515625 -0.296875 1.265625 -0.296875q0.96875 0 1.71875 0.5q0.75 0.5 1.125 1.421875q0.375 0.90625 0.375 1.984375q0 1.171875 -0.421875 2.109375q-0.40625 0.921875 -1.21875 1.421875q-0.796875 0.5 -1.671875 0.5q-0.640625 0 -1.15625 -0.265625q-0.515625 -0.28125 -0.84375 -0.6875l0 3.6875l-1.28125 0zm1.15625 -6.65625q0 1.453125 0.59375 2.15625q0.609375 0.703125 1.453125 0.703125q0.859375 0 1.46875 -0.71875q0.609375 -0.734375 0.609375 -2.25q0 -1.453125 -0.609375 -2.171875q-0.59375 -0.734375 -1.421875 -0.734375q-0.8125 0 -1.453125 0.78125q-0.640625 0.765625 -0.640625 2.234375zm9.807373 2.59375l0.1875 1.140625q-0.546875 0.109375 -0.984375 0.109375q-0.6875 0 -1.078125 -0.21875q-0.390625 -0.21875 -0.546875 -0.578125q-0.15625 -0.359375 -0.15625 -1.515625l0 -4.375l-0.953125 0l0 -1.0l0.953125 0l0 -1.890625l1.28125 -0.765625l0 2.65625l1.296875 0l0 1.0l-1.296875 0l0 4.4375q0 0.546875 0.0625 0.71875q0.078125 0.15625 0.21875 0.25q0.15625 0.078125 0.453125 0.078125q0.203125 0 0.5625 -0.046875zm6.4625854 -1.296875l1.328125 0.171875q-0.3125 1.171875 -1.171875 1.8125q-0.84375 0.640625 -2.171875 0.640625q-1.671875 0 -2.65625 -1.015625q-0.96875 -1.03125 -0.96875 -2.890625q0 -1.921875 0.984375 -2.96875q1.0 -1.0625 2.578125 -1.0625q1.515625 0 2.484375 1.03125q0.96875 1.03125 0.96875 2.921875q0 0.109375 -0.015625 0.34375l-5.65625 0q0.0625 1.25 0.703125 1.921875q0.640625 0.65625 1.59375 0.65625q0.703125 0 1.203125 -0.359375q0.5 -0.375 0.796875 -1.203125zm-4.234375 -2.078125l4.25 0q-0.09375 -0.953125 -0.484375 -1.4375q-0.625 -0.75 -1.609375 -0.75q-0.875 0 -1.484375 0.59375q-0.609375 0.59375 -0.671875 1.59375zm12.104248 4.53125l0 -0.953125q-0.71875 1.125 -2.125 1.125q-0.90625 0 -1.671875 -0.5q-0.75 -0.5 -1.171875 -1.390625q-0.421875 -0.90625 -0.421875 -2.078125q0 -1.140625 0.375 -2.0625q0.390625 -0.921875 1.140625 -1.40625q0.765625 -0.5 1.703125 -0.5q0.6875 0 1.21875 0.296875q0.53125 0.28125 0.875 0.734375l0 -3.75l1.28125 0l0 10.484375l-1.203125 0zm-4.0625 -3.796875q0 1.46875 0.609375 2.1875q0.625 0.71875 1.453125 0.71875q0.84375 0 1.4375 -0.6875q0.59375 -0.6875 0.59375 -2.109375q0 -1.5625 -0.609375 -2.28125q-0.59375 -0.734375 -1.484375 -0.734375q-0.84375 0 -1.421875 0.703125q-0.578125 0.703125 -0.578125 2.203125zm11.3637085 6.703125l0 -10.5l1.171875 0l0 0.984375q0.421875 -0.578125 0.9375 -0.859375q0.515625 -0.296875 1.265625 -0.296875q0.96875 0 1.71875 0.5q0.75 0.5 1.125 1.421875q0.375 0.90625 0.375 1.984375q0 1.171875 -0.421875 2.109375q-0.40625 0.921875 -1.21875 1.421875q-0.796875 0.5 -1.671875 0.5q-0.640625 0 -1.15625 -0.265625q-0.515625 -0.28125 -0.84375 -0.6875l0 3.6875l-1.28125 0zm1.15625 -6.65625q0 1.453125 0.59375 2.15625q0.609375 0.703125 1.453125 0.703125q0.859375 0 1.46875 -0.71875q0.609375 -0.734375 0.609375 -2.25q0 -1.453125 -0.609375 -2.171875q-0.59375 -0.734375 -1.421875 -0.734375q-0.8125 0 -1.453125 0.78125q-0.640625 0.765625 -0.640625 2.234375zm11.947998 2.8125q-0.71875 0.609375 -1.375 0.859375q-0.65625 0.25 -1.421875 0.25q-1.25 0 -1.921875 -0.609375q-0.671875 -0.609375 -0.671875 -1.5625q0 -0.5625 0.25 -1.015625q0.25 -0.46875 0.65625 -0.75q0.421875 -0.28125 0.9375 -0.421875q0.375 -0.09375 1.140625 -0.1875q1.5625 -0.1875 2.296875 -0.453125q0.015625 -0.265625 0.015625 -0.328125q0 -0.796875 -0.375 -1.109375q-0.484375 -0.4375 -1.453125 -0.4375q-0.921875 0 -1.359375 0.328125q-0.421875 0.3125 -0.625 1.109375l-1.265625 -0.171875q0.171875 -0.796875 0.5625 -1.296875q0.390625 -0.5 1.140625 -0.765625q0.75 -0.265625 1.71875 -0.265625q0.984375 0 1.59375 0.234375q0.609375 0.21875 0.890625 0.5625q0.28125 0.34375 0.40625 0.875q0.0625 0.328125 0.0625 1.1875l0 1.71875q0 1.796875 0.078125 2.28125q0.078125 0.46875 0.328125 0.90625l-1.34375 0q-0.203125 -0.40625 -0.265625 -0.9375zm-0.109375 -2.875q-0.703125 0.28125 -2.09375 0.484375q-0.796875 0.109375 -1.125 0.265625q-0.328125 0.140625 -0.515625 0.421875q-0.171875 0.265625 -0.171875 0.59375q0 0.515625 0.390625 0.859375q0.390625 0.34375 1.140625 0.34375q0.734375 0 1.3125 -0.3125q0.59375 -0.328125 0.859375 -0.890625q0.203125 -0.4375 0.203125 -1.296875l0 -0.46875zm2.791687 1.546875l1.265625 -0.203125q0.109375 0.765625 0.59375 1.171875q0.5 0.40625 1.375 0.40625q0.890625 0 1.3125 -0.359375q0.4375 -0.359375 0.4375 -0.84375q0 -0.4375 -0.375 -0.6875q-0.265625 -0.171875 -1.3125 -0.4375q-1.421875 -0.359375 -1.96875 -0.609375q-0.546875 -0.265625 -0.828125 -0.734375q-0.28125 -0.46875 -0.28125 -1.015625q0 -0.515625 0.21875 -0.9375q0.234375 -0.4375 0.640625 -0.734375q0.296875 -0.21875 0.8125 -0.359375q0.53125 -0.15625 1.125 -0.15625q0.890625 0 1.5625 0.265625q0.671875 0.25 1.0 0.6875q0.328125 0.4375 0.4375 1.171875l-1.25 0.171875q-0.09375 -0.578125 -0.5 -0.90625q-0.40625 -0.34375 -1.15625 -0.34375q-0.890625 0 -1.28125 0.296875q-0.375 0.296875 -0.375 0.6875q0 0.25 0.15625 0.453125q0.15625 0.203125 0.5 0.34375q0.1875 0.078125 1.140625 0.328125q1.359375 0.359375 1.890625 0.59375q0.546875 0.234375 0.859375 0.6875q0.3125 0.4375 0.3125 1.09375q0 0.640625 -0.375 1.21875q-0.375 0.5625 -1.09375 0.875q-0.703125 0.3125 -1.59375 0.3125q-1.484375 0 -2.265625 -0.609375q-0.765625 -0.625 -0.984375 -1.828125zm7.328125 0l1.265625 -0.203125q0.109375 0.765625 0.59375 1.171875q0.5 0.40625 1.375 0.40625q0.890625 0 1.3125 -0.359375q0.4375 -0.359375 0.4375 -0.84375q0 -0.4375 -0.375 -0.6875q-0.265625 -0.171875 -1.3125 -0.4375q-1.421875 -0.359375 -1.96875 -0.609375q-0.546875 -0.265625 -0.828125 -0.734375q-0.28125 -0.46875 -0.28125 -1.015625q0 -0.515625 0.21875 -0.9375q0.234375 -0.4375 0.640625 -0.734375q0.296875 -0.21875 0.8125 -0.359375q0.53125 -0.15625 1.125 -0.15625q0.890625 0 1.5625 0.265625q0.671875 0.25 1.0 0.6875q0.328125 0.4375 0.4375 1.171875l-1.25 0.171875q-0.09375 -0.578125 -0.5 -0.90625q-0.40625 -0.34375 -1.15625 -0.34375q-0.890625 0 -1.28125 0.296875q-0.375 0.296875 -0.375 0.6875q0 0.25 0.15625 0.453125q0.15625 0.203125 0.5 0.34375q0.1875 0.078125 1.140625 0.328125q1.359375 0.359375 1.890625 0.59375q0.546875 0.234375 0.859375 0.6875q0.3125 0.4375 0.3125 1.09375q0 0.640625 -0.375 1.21875q-0.375 0.5625 -1.09375 0.875q-0.703125 0.3125 -1.59375 0.3125q-1.484375 0 -2.265625 -0.609375q-0.765625 -0.625 -0.984375 -1.828125zm9.25 2.265625l-2.328125 -7.59375l1.328125 0l1.203125 4.375l0.453125 1.640625q0.03125 -0.125 0.390625 -1.578125l1.21875 -4.4375l1.328125 0l1.125 4.40625l0.390625 1.453125l0.4375 -1.46875l1.296875 -4.390625l1.25 0l-2.375 7.59375l-1.34375 0l-1.203125 -4.546875l-0.296875 -1.296875l-1.53125 5.84375l-1.34375 0zm8.693665 -3.796875q0 -2.109375 1.171875 -3.125q0.984375 -0.84375 2.390625 -0.84375q1.578125 0 2.5625 1.03125q1.0 1.015625 1.0 2.828125q0 1.46875 -0.4375 2.3125q-0.4375 0.828125 -1.28125 1.296875q-0.84375 0.46875 -1.84375 0.46875q-1.59375 0 -2.578125 -1.015625q-0.984375 -1.03125 -0.984375 -2.953125zm1.328125 0q0 1.453125 0.625 2.1875q0.640625 0.71875 1.609375 0.71875q0.96875 0 1.59375 -0.71875q0.640625 -0.734375 0.640625 -2.234375q0 -1.40625 -0.640625 -2.125q-0.640625 -0.734375 -1.59375 -0.734375q-0.96875 0 -1.609375 0.71875q-0.625 0.71875 -0.625 2.1875zm7.291748 3.796875l0 -7.59375l1.15625 0l0 1.140625q0.453125 -0.796875 0.828125 -1.046875q0.375 -0.265625 0.8125 -0.265625q0.65625 0 1.328125 0.40625l-0.4375 1.203125q-0.46875 -0.28125 -0.953125 -0.28125q-0.421875 0 -0.765625 0.25q-0.328125 0.25 -0.46875 0.703125q-0.21875 0.6875 -0.21875 1.5l0 3.984375l-1.28125 0zm9.818115 0l0 -0.953125q-0.71875 1.125 -2.125 1.125q-0.90625 0 -1.671875 -0.5q-0.75 -0.5 -1.171875 -1.390625q-0.421875 -0.90625 -0.421875 -2.078125q0 -1.140625 0.375 -2.0625q0.390625 -0.921875 1.140625 -1.40625q0.765625 -0.5 1.703125 -0.5q0.6875 0 1.21875 0.296875q0.53125 0.28125 0.875 0.734375l0 -3.75l1.28125 0l0 10.484375l-1.203125 0zm-4.0625 -3.796875q0 1.46875 0.609375 2.1875q0.625 0.71875 1.453125 0.71875q0.84375 0 1.4375 -0.6875q0.59375 -0.6875 0.59375 -2.109375q0 -1.5625 -0.609375 -2.28125q-0.59375 -0.734375 -1.484375 -0.734375q-0.84375 0 -1.421875 0.703125q-0.578125 0.703125 -0.578125 2.203125z" fill-rule="nonzero"/><path fill="#000000" fill-opacity="0.0" d="m303.0373 30.356955l144.50394 58.960632" fill-rule="evenodd"/><path stroke="#000000" stroke-width="2.0" stroke-linejoin="round" stroke-linecap="butt" d="m303.0373 30.356955l133.39319 54.427223" fill-rule="evenodd"/><path fill="#000000" stroke="#000000" stroke-width="2.0" stroke-linecap="butt" d="m435.1825 87.842834l9.651581 0.37018585l-7.1555786 -6.487503z" fill-rule="evenodd"/><path fill="#000000" fill-opacity="0.0" d="m447.52548 89.30446l-144.50394 56.0" fill-rule="evenodd"/><path stroke="#000000" stroke-width="2.0" stroke-linejoin="round" stroke-linecap="butt" d="m447.52548 89.30446l-133.31476 51.663834" fill-rule="evenodd"/><path fill="#000000" stroke="#000000" stroke-width="2.0" stroke-linecap="butt" d="m313.01703 137.88803l-7.269226 6.3599243l9.656616 -0.19941711z" fill-rule="evenodd"/><path fill="#000000" fill-opacity="0.0" d="m351.8824 50.18107l-11.905518 23.181099" fill-rule="evenodd"/><path stroke="#3d85c6" stroke-width="1.0" stroke-linejoin="round" stroke-linecap="butt" d="m349.14124 55.51831l-9.164337 17.843857" fill-rule="evenodd"/><path fill="#3d85c6" stroke="#3d85c6" stroke-width="1.0" stroke-linecap="butt" d="m350.61053 56.272915l0.6039734 -4.7914276l-3.5425415 3.282219z" fill-rule="evenodd"/><path fill="#cfe2f3" d="m310.68555 73.36217l58.582672 0l0 32.692917l-58.582672 0z" fill-rule="evenodd"/><path stroke="#6fa8dc" stroke-width="1.0" stroke-linejoin="round" stroke-linecap="butt" d="m310.68555 73.36217l58.582672 0l0 32.692917l-58.582672 0z" fill-rule="evenodd"/><g filter="url(#shadowFilter-p.1)"><use xlink:href="#p.1" transform=""/></g><defs><filter id="shadowFilter-p.1" filterUnits="userSpaceOnUse"><feGaussianBlur in="SourceAlpha" stdDeviation="0.5" result="blur"/><feComponentTransfer in="blur" color-interpolation-filters="sRGB"><feFuncR type="linear" slope="0" intercept="0.43529412"/><feFuncG type="linear" slope="0" intercept="0.65882355"/><feFuncB type="linear" slope="0" intercept="0.8627451"/><feFuncA type="linear" slope="1.0" intercept="0"/></feComponentTransfer></filter></defs><g id="p.1"><path fill="#000000" fill-opacity="0.0" d="m324.41983 88.18208l0 6.0076523" fill-rule="evenodd"/><path stroke="#ffff00" stroke-width="4.0" stroke-linejoin="round" stroke-linecap="butt" d="m324.41983 88.18208l0 6.0076523" fill-rule="evenodd"/></g><g filter="url(#shadowFilter-p.2)"><use xlink:href="#p.2" transform=""/></g><defs><filter id="shadowFilter-p.2" filterUnits="userSpaceOnUse"><feGaussianBlur in="SourceAlpha" stdDeviation="0.5" result="blur"/><feComponentTransfer in="blur" color-interpolation-filters="sRGB"><feFuncR type="linear" slope="0" intercept="0.43529412"/><feFuncG type="linear" slope="0" intercept="0.65882355"/><feFuncB type="linear" slope="0" intercept="0.8627451"/><feFuncA type="linear" slope="1.0" intercept="0"/></feComponentTransfer></filter></defs><g id="p.2"><path fill="#000000" fill-opacity="0.0" d="m331.74887 88.18208l0 6.0076523" fill-rule="evenodd"/><path stroke="#ffff00" stroke-width="4.0" stroke-linejoin="round" stroke-linecap="butt" d="m331.74887 88.18208l0 6.0076523" fill-rule="evenodd"/></g><path fill="#999999" d="m310.68457 61.28382l0 0c0 -0.8723297 0.7071533 -1.5794868 1.5794983 -1.5794868l7.836914 0c0.4189148 0 0.8206787 0.16640854 1.1168823 0.46261978c0.2962036 0.29621124 0.46261597 0.6979599 0.46261597 1.1168671l0 6.3177567c0 0.8723297 -0.7071533 1.5794907 -1.5794983 1.5794907l-7.836914 0c-0.872345 0 -1.5794983 -0.70716095 -1.5794983 -1.5794907z" fill-rule="evenodd"/><path stroke="#000000" stroke-width="1.0" stroke-linejoin="round" stroke-linecap="butt" d="m310.68457 61.28382l0 0c0 -0.8723297 0.7071533 -1.5794868 1.5794983 -1.5794868l7.836914 0c0.4189148 0 0.8206787 0.16640854 1.1168823 0.46261978c0.2962036 0.29621124 0.46261597 0.6979599 0.46261597 1.1168671l0 6.3177567c0 0.8723297 -0.7071533 1.5794907 -1.5794983 1.5794907l-7.836914 0c-0.872345 0 -1.5794983 -0.70716095 -1.5794983 -1.5794907z" fill-rule="evenodd"/><path fill="#000000" fill-opacity="0.0" d="m316.2312 55.55223l0 0c0.86395264 0 1.6925354 0.42531586 2.3034363 1.1823807c0.6109009 0.7570648 0.95410156 1.7838631 0.95410156 2.854515l-3.2575378 0z" fill-rule="evenodd"/><path fill="#000000" fill-opacity="0.0" d="m316.2312 55.55223l0 0c0.86395264 0 1.6925354 0.42531586 2.3034363 1.1823807c0.6109009 0.7570648 0.95410156 1.7838631 0.95410156 2.854515" fill-rule="evenodd"/><path stroke="#000000" stroke-width="3.0" stroke-linejoin="round" stroke-linecap="butt" d="m316.2312 55.55223l0 0c0.86395264 0 1.6925354 0.42531586 2.3034363 1.1823807c0.6109009 0.7570648 0.95410156 1.7838631 0.95410156 2.854515" fill-rule="evenodd"/><path fill="#000000" fill-opacity="0.0" d="m316.22662 55.55223l0 0c-0.86395264 0 -1.6925049 0.42531586 -2.3034363 1.1823807c-0.6109009 0.7570648 -0.95410156 1.7838631 -0.95410156 2.854515l3.2575378 0z" fill-rule="evenodd"/><path fill="#000000" fill-opacity="0.0" d="m316.22662 55.55223l0 0c-0.86395264 0 -1.6925049 0.42531586 -2.3034363 1.1823807c-0.6109009 0.7570648 -0.95410156 1.7838631 -0.95410156 2.854515" fill-rule="evenodd"/><path stroke="#000000" stroke-width="3.0" stroke-linejoin="round" stroke-linecap="butt" d="m316.22662 55.55223l0 0c-0.86395264 0 -1.6925049 0.42531586 -2.3034363 1.1823807c-0.6109009 0.7570648 -0.95410156 1.7838631 -0.95410156 2.854515" fill-rule="evenodd"/><path fill="#000000" fill-opacity="0.0" d="m339.97687 106.055084l11.086639 20.346458" fill-rule="evenodd"/><path stroke="#3d85c6" stroke-width="1.0" stroke-linejoin="round" stroke-linecap="butt" d="m339.9769 106.055084l8.215759 15.077843" fill-rule="evenodd"/><path fill="#3d85c6" stroke="#3d85c6" stroke-width="1.0" stroke-linecap="butt" d="m346.74228 121.923225l3.6217346 3.1946182l-0.72094727 -4.775223z" fill-rule="evenodd"/><g filter="url(#shadowFilter-p.3)"><use xlink:href="#p.3" transform=""/></g><defs><filter id="shadowFilter-p.3" filterUnits="userSpaceOnUse"><feGaussianBlur in="SourceAlpha" stdDeviation="0.5" result="blur"/><feComponentTransfer in="blur" color-interpolation-filters="sRGB"><feFuncR type="linear" slope="0" intercept="0.43529412"/><feFuncG type="linear" slope="0" intercept="0.65882355"/><feFuncB type="linear" slope="0" intercept="0.8627451"/><feFuncA type="linear" slope="1.0" intercept="0"/></feComponentTransfer></filter></defs><g id="p.3"><path fill="#000000" fill-opacity="0.0" d="m342.97684 88.64951l-19.181122 0" fill-rule="evenodd"/><path stroke="#ffff00" stroke-width="4.0" stroke-linejoin="round" stroke-linecap="butt" d="m342.97684 88.64951l-19.181122 0" fill-rule="evenodd"/></g><g filter="url(#shadowFilter-p.4)"><use xlink:href="#p.4" transform=""/></g><defs><filter id="shadowFilter-p.4" filterUnits="userSpaceOnUse"><feGaussianBlur in="SourceAlpha" stdDeviation="0.5" result="blur"/><feComponentTransfer in="blur" color-interpolation-filters="sRGB"><feFuncR type="linear" slope="0" intercept="0.43529412"/><feFuncG type="linear" slope="0" intercept="0.65882355"/><feFuncB type="linear" slope="0" intercept="0.8627451"/><feFuncA type="linear" slope="1.0" intercept="0"/></feComponentTransfer></filter></defs><g id="p.4"><path fill="#000000" fill-opacity="0.0" d="m342.97684 88.64951l0 0c0 -3.2758865 2.654419 -5.9315186 5.9288025 -5.9315186l0 0c1.5724487 0 3.0804443 0.62493134 4.192322 1.7373047c1.1118774 1.1123734 1.7365112 2.6210785 1.7365112 4.194214l0 0c0 3.2758942 -2.654419 5.9315186 -5.928833 5.9315186l0 0c-3.2743835 0 -5.9288025 -2.6556244 -5.9288025 -5.9315186z" fill-rule="evenodd"/><path stroke="#ffff00" stroke-width="4.0" stroke-linejoin="round" stroke-linecap="butt" d="m342.97684 88.64951l0 0c0 -3.2758865 2.654419 -5.9315186 5.9288025 -5.9315186l0 0c1.5724487 0 3.0804443 0.62493134 4.192322 1.7373047c1.1118774 1.1123734 1.7365112 2.6210785 1.7365112 4.194214l0 0c0 3.2758942 -2.654419 5.9315186 -5.928833 5.9315186l0 0c-3.2743835 0 -5.9288025 -2.6556244 -5.9288025 -5.9315186z" fill-rule="evenodd"/></g></g></svg>