<svg version="1.1" viewBox="0.0 0.0 759.1102362204724 209.9317585301837" fill="none" stroke="none" stroke-linecap="square" stroke-miterlimit="10" xmlns:xlink="http://www.w3.org/1999/xlink" xmlns="http://www.w3.org/2000/svg"><clipPath id="p.0"><path d="m0 0l759.1102 0l0 209.93176l-759.1102 0l0 -209.93176z" clip-rule="nonzero"/></clipPath><g clip-path="url(#p.0)"><path fill="#000000" fill-opacity="0.0" d="m0 0l759.1102 0l0 209.93176l-759.1102 0z" fill-rule="evenodd"/><path fill="#000000" fill-opacity="0.0" d="m303.0373 137.25261l144.50394 0l0 38.771652l-144.50394 0z" fill-rule="evenodd"/><path fill="#000000" d="m313.36542 161.61261l0 -11.375l3.203125 0q1.484375 0 2.625 0.65625q1.140625 0.65625 1.765625 1.875q0.625 1.203125 0.625 2.765625l0 0.734375q0 1.609375 -0.625 2.828125q-0.609375 1.203125 -1.765625 1.859375q-1.15625 0.640625 -2.6875 0.65625l-3.140625 0zm1.5 -10.140625l0 8.90625l1.578125 0q1.734375 0 2.6875 -1.078125q0.96875 -1.078125 0.96875 -3.0625l0 -0.671875q0 -1.9375 -0.90625 -3.0q-0.90625 -1.078125 -2.578125 -1.09375l-1.75 0zm12.2734375 10.296875q-1.71875 0 -2.796875 -1.125q-1.078125 -1.140625 -1.078125 -3.03125l0 -0.265625q0 -1.25 0.46875 -2.234375q0.484375 -1.0 1.34375 -1.546875q0.875 -0.5625 1.875 -0.5625q1.65625 0 2.5625 1.09375q0.921875 1.078125 0.921875 3.09375l0 0.609375l-5.734375 0q0.03125 1.25 0.734375 2.015625q0.703125 0.765625 1.78125 0.765625q0.765625 0 1.296875 -0.3125q0.53125 -0.3125 0.921875 -0.828125l0.890625 0.6875q-1.0625 1.640625 -3.1875 1.640625zm-0.1875 -7.578125q-0.875 0 -1.46875 0.640625q-0.59375 0.625 -0.734375 1.78125l4.234375 0l0 -0.109375q-0.0625 -1.109375 -0.59375 -1.703125q-0.53125 -0.609375 -1.4375 -0.609375zm8.5390625 6.390625q0.78125 0 1.359375 -0.46875q0.578125 -0.46875 0.640625 -1.171875l1.359375 0q-0.03125 0.734375 -0.5 1.390625q-0.453125 0.65625 -1.234375 1.046875q-0.765625 0.390625 -1.625 0.390625q-1.71875 0 -2.75 -1.15625q-1.015625 -1.15625 -1.015625 -3.15625l0 -0.234375q0 -1.234375 0.453125 -2.1875q0.453125 -0.96875 1.296875 -1.5q0.859375 -0.53125 2.015625 -0.53125q1.421875 0 2.359375 0.859375q0.9375 0.84375 1.0 2.203125l-1.359375 0q-0.0625 -0.828125 -0.625 -1.34375q-0.5625 -0.53125 -1.375 -0.53125q-1.109375 0 -1.71875 0.796875q-0.59375 0.78125 -0.59375 2.28125l0 0.28125q0 1.453125 0.59375 2.25q0.609375 0.78125 1.71875 0.78125zm9.078125 -6.125q-0.328125 -0.0625 -0.71875 -0.0625q-1.421875 0 -1.921875 1.21875l0 6.0l-1.453125 0l0 -8.453125l1.40625 0l0.03125 0.96875q0.703125 -1.125 2.015625 -1.125q0.421875 0 0.640625 0.109375l0 1.34375zm4.2265625 5.03125l1.96875 -6.328125l1.546875 0l-3.390625 9.765625q-0.796875 2.109375 -2.515625 2.109375l-0.265625 -0.03125l-0.546875 -0.09375l0 -1.171875l0.390625 0.03125q0.734375 0 1.140625 -0.296875q0.421875 -0.296875 0.6875 -1.09375l0.3125 -0.859375l-3.015625 -8.359375l1.578125 0l2.109375 6.328125zm11.9453125 -2.015625q0 1.9375 -0.890625 3.125q-0.875 1.171875 -2.375 1.171875q-1.546875 0 -2.421875 -0.984375l0 4.078125l-1.453125 0l0 -11.703125l1.328125 0l0.0625 0.9375q0.890625 -1.09375 2.453125 -1.09375q1.53125 0 2.40625 1.15625q0.890625 1.140625 0.890625 3.1875l0 0.125zm-1.4375 -0.15625q0 -1.4375 -0.609375 -2.265625q-0.609375 -0.828125 -1.671875 -0.828125q-1.3125 0 -1.96875 1.171875l0 4.03125q0.640625 1.15625 1.984375 1.15625q1.03125 0 1.640625 -0.8125q0.625 -0.828125 0.625 -2.453125zm5.2421875 -6.203125l0 2.046875l1.578125 0l0 1.109375l-1.578125 0l0 5.25q0 0.5 0.203125 0.765625q0.21875 0.25 0.71875 0.25q0.25 0 0.6875 -0.09375l0 1.171875q-0.5625 0.15625 -1.109375 0.15625q-0.96875 0 -1.46875 -0.578125q-0.484375 -0.59375 -0.484375 -1.671875l0 -5.25l-1.53125 0l0 -1.109375l1.53125 0l0 -2.046875l1.453125 0z" fill-rule="nonzero"/><path fill="#000000" fill-opacity="0.0" d="m303.0373 39.90026l144.50394 0l0 38.771652l-144.50394 0z" fill-rule="evenodd"/><path fill="#000000" d="m319.7873 58.994637l-4.921875 0l0 4.03125l5.71875 0l0 1.234375l-7.21875 0l0 -11.375l7.140625 0l0 1.234375l-5.640625 0l0 3.65625l4.921875 0l0 1.21875zm5.6796875 4.234375q0.78125 0 1.359375 -0.46875q0.578125 -0.46875 0.640625 -1.171875l1.359375 0q-0.03125 0.734375 -0.5 1.390625q-0.453125 0.65625 -1.234375 1.046875q-0.765625 0.390625 -1.625 0.390625q-1.71875 0 -2.75 -1.15625q-1.015625 -1.15625 -1.015625 -3.15625l0 -0.234375q0 -1.234375 0.453125 -2.1875q0.453125 -0.96875 1.296875 -1.5q0.859375 -0.53125 2.015625 -0.53125q1.421875 0 2.359375 0.859375q0.9375 0.84375 1.0 2.203125l-1.359375 0q-0.0625 -0.828125 -0.625 -1.34375q-0.5625 -0.53125 -1.375 -0.53125q-1.109375 0 -1.71875 0.796875q-0.59375 0.78125 -0.59375 2.28125l0 0.28125q0 1.453125 0.59375 2.25q0.609375 0.78125 1.71875 0.78125zm9.078125 -6.125q-0.328125 -0.0625 -0.71875 -0.0625q-1.421875 0 -1.921875 1.21875l0 6.0l-1.453125 0l0 -8.453125l1.40625 0l0.03125 0.96875q0.703125 -1.125 2.015625 -1.125q0.421875 0 0.640625 0.109375l0 1.34375zm4.2265625 5.03125l1.96875 -6.328125l1.546875 0l-3.390625 9.765625q-0.796875 2.109375 -2.515625 2.109375l-0.265625 -0.03125l-0.546875 -0.09375l0 -1.171875l0.390625 0.03125q0.734375 0 1.140625 -0.296875q0.421875 -0.296875 0.6875 -1.09375l0.3125 -0.859375l-3.015625 -8.359375l1.578125 0l2.109375 6.328125zm11.9453125 -2.015625q0 1.9375 -0.890625 3.125q-0.875 1.171875 -2.375 1.171875q-1.546875 0 -2.421875 -0.984375l0 4.078125l-1.453125 0l0 -11.703125l1.328125 0l0.0625 0.9375q0.890625 -1.09375 2.453125 -1.09375q1.53125 0 2.40625 1.15625q0.890625 1.140625 0.890625 3.1875l0 0.125zm-1.4375 -0.15625q0 -1.4375 -0.609375 -2.265625q-0.609375 -0.828125 -1.671875 -0.828125q-1.3125 0 -1.96875 1.171875l0 4.03125q0.640625 1.15625 1.984375 1.15625q1.03125 0 1.640625 -0.8125q0.625 -0.828125 0.625 -2.453125zm5.2421875 -6.203125l0 2.046875l1.578125 0l0 1.109375l-1.578125 0l0 5.25q0 0.5 0.203125 0.765625q0.21875 0.25 0.71875 0.25q0.25 0 0.6875 -0.09375l0 1.171875q-0.5625 0.15625 -1.109375 0.15625q-0.96875 0 -1.46875 -0.578125q-0.484375 -0.59375 -0.484375 -1.671875l0 -5.25l-1.53125 0l0 -1.109375l1.53125 0l0 -2.046875l1.453125 0z" fill-rule="nonzero"/><path fill="#efefef" d="m69.43099 54.010498l233.6063 0l0 32.692917l-233.6063 0z" fill-rule="evenodd"/><path stroke="#000000" stroke-width="1.0" stroke-linejoin="round" stroke-linecap="butt" d="m69.43099 54.010498l233.6063 0l0 32.692917l-233.6063 0z" fill-rule="evenodd"/><path fill="#000000" d="m155.84009 78.34321l0 -10.5l1.171875 0l0 0.984375q0.421875 -0.578125 0.9375 -0.859375q0.515625 -0.296875 1.265625 -0.296875q0.96875 0 1.71875 0.5q0.75 0.5 1.125 1.421875q0.375 0.90625 0.375 1.984375q0 1.171875 -0.421875 2.109375q-0.40625 0.921875 -1.21875 1.421875q-0.796875 0.5 -1.671875 0.5q-0.640625 0 -1.15625 -0.265625q-0.515625 -0.28125 -0.84375 -0.6875l0 3.6875l-1.28125 0zm1.15625 -6.65625q0 1.453125 0.59375 2.15625q0.609375 0.703125 1.453125 0.703125q0.859375 0 1.46875 -0.71875q0.609375 -0.734375 0.609375 -2.25q0 -1.453125 -0.609375 -2.171875q-0.59375 -0.734375 -1.421875 -0.734375q-0.8125 0 -1.453125 0.78125q-0.640625 0.765625 -0.640625 2.234375zm11.947983 2.8125q-0.71875 0.609375 -1.375 0.859375q-0.65625 0.25 -1.421875 0.25q-1.25 0 -1.921875 -0.609375q-0.671875 -0.609375 -0.671875 -1.5625q0 -0.5625 0.25 -1.015625q0.25 -0.46875 0.65625 -0.75q0.421875 -0.28125 0.9375 -0.421875q0.375 -0.09375 1.140625 -0.1875q1.5625 -0.1875 2.296875 -0.453125q0.015625 -0.265625 0.015625 -0.328125q0 -0.796875 -0.375 -1.109375q-0.484375 -0.4375 -1.453125 -0.4375q-0.921875 0 -1.359375 0.328125q-0.421875 0.3125 -0.625 1.109375l-1.265625 -0.171875q0.171875 -0.796875 0.5625 -1.296875q0.390625 -0.5 1.140625 -0.765625q0.75 -0.265625 1.71875 -0.265625q0.984375 0 1.59375 0.234375q0.609375 0.21875 0.890625 0.5625q0.28125 0.34375 0.40625 0.875q0.0625 0.328125 0.0625 1.1875l0 1.71875q0 1.796875 0.078125 2.28125q0.078125 0.46875 0.328125 0.90625l-1.34375 0q-0.203125 -0.40625 -0.265625 -0.9375zm-0.109375 -2.875q-0.703125 0.28125 -2.09375 0.484375q-0.796875 0.109375 -1.125 0.265625q-0.328125 0.140625 -0.515625 0.421875q-0.171875 0.265625 -0.171875 0.59375q0 0.515625 0.390625 0.859375q0.390625 0.34375 1.140625 0.34375q0.734375 0 1.3125 -0.3125q0.59375 -0.328125 0.859375 -0.890625q0.203125 -0.4375 0.203125 -1.296875l0 -0.46875zm2.7917328 1.546875l1.265625 -0.203125q0.109375 0.765625 0.59375 1.171875q0.5 0.40625 1.375 0.40625q0.890625 0 1.3125 -0.359375q0.4375 -0.359375 0.4375 -0.84375q0 -0.4375 -0.375 -0.6875q-0.265625 -0.171875 -1.3125 -0.4375q-1.421875 -0.359375 -1.96875 -0.609375q-0.546875 -0.265625 -0.828125 -0.734375q-0.28125 -0.46875 -0.28125 -1.015625q0 -0.515625 0.21875 -0.9375q0.234375 -0.4375 0.640625 -0.734375q0.296875 -0.21875 0.8125 -0.359375q0.53125 -0.15625 1.125 -0.15625q0.890625 0 1.5625 0.265625q0.671875 0.25 1.0 0.6875q0.328125 0.4375 0.4375 1.171875l-1.25 0.171875q-0.09375 -0.578125 -0.5 -0.90625q-0.40625 -0.34375 -1.15625 -0.34375q-0.890625 0 -1.28125 0.296875q-0.375 0.296875 -0.375 0.6875q0 0.25 0.15625 0.453125q0.15625 0.203125 0.5 0.34375q0.1875 0.078125 1.140625 0.328125q1.359375 0.359375 1.890625 0.59375q0.546875 0.234375 0.859375 0.6875q0.3125 0.4375 0.3125 1.09375q0 0.640625 -0.375 1.21875q-0.375 0.5625 -1.09375 0.875q-0.703125 0.3125 -1.59375 0.3125q-1.484375 0 -2.265625 -0.609375q-0.765625 -0.625 -0.984375 -1.828125zm7.328125 0l1.265625 -0.203125q0.109375 0.765625 0.59375 1.171875q0.5 0.40625 1.375 0.40625q0.890625 0 1.3125 -0.359375q0.4375 -0.359375 0.4375 -0.84375q0 -0.4375 -0.375 -0.6875q-0.265625 -0.171875 -1.3125 -0.4375q-1.421875 -0.359375 -1.96875 -0.609375q-0.546875 -0.265625 -0.828125 -0.734375q-0.28125 -0.46875 -0.28125 -1.015625q0 -0.515625 0.21875 -0.9375q0.234375 -0.4375 0.640625 -0.734375q0.296875 -0.21875 0.8125 -0.359375q0.53125 -0.15625 1.125 -0.15625q0.890625 0 1.5625 0.265625q0.671875 0.25 1.0 0.6875q0.328125 0.4375 0.4375 1.171875l-1.25 0.171875q-0.09375 -0.578125 -0.5 -0.90625q-0.40625 -0.34375 -1.15625 -0.34375q-0.890625 0 -1.28125 0.296875q-0.375 0.296875 -0.375 0.6875q0 0.25 0.15625 0.453125q0.15625 0.203125 0.5 0.34375q0.1875 0.078125 1.140625 0.328125q1.359375 0.359375 1.890625 0.59375q0.546875 0.234375 0.859375 0.6875q0.3125 0.4375 0.3125 1.09375q0 0.640625 -0.375 1.21875q-0.375 0.5625 -1.09375 0.875q-0.703125 0.3125 -1.59375 0.3125q-1.484375 0 -2.265625 -0.609375q-0.765625 -0.625 -0.984375 -1.828125zm9.25 2.265625l-2.328125 -7.59375l1.328125 0l1.203125 4.375l0.453125 1.640625q0.03125 -0.125 0.390625 -1.578125l1.21875 -4.4375l1.328125 0l1.125 4.40625l0.390625 1.453125l0.4375 -1.46875l1.296875 -4.390625l1.25 0l-2.375 7.59375l-1.34375 0l-1.203125 -4.546875l-0.296875 -1.296875l-1.53125 5.84375l-1.34375 0zm8.693649 -3.796875q0 -2.109375 1.171875 -3.125q0.984375 -0.84375 2.390625 -0.84375q1.578125 0 2.5625 1.03125q1.0 1.015625 1.0 2.828125q0 1.46875 -0.4375 2.3125q-0.4375 0.828125 -1.28125 1.296875q-0.84375 0.46875 -1.84375 0.46875q-1.59375 0 -2.578125 -1.015625q-0.984375 -1.03125 -0.984375 -2.953125zm1.328125 0q0 1.453125 0.625 2.1875q0.640625 0.71875 1.609375 0.71875q0.96875 0 1.59375 -0.71875q0.640625 -0.734375 0.640625 -2.234375q0 -1.40625 -0.640625 -2.125q-0.640625 -0.734375 -1.59375 -0.734375q-0.96875 0 -1.609375 0.71875q-0.625 0.71875 -0.625 2.1875zm7.2917175 3.796875l0 -7.59375l1.15625 0l0 1.140625q0.453125 -0.796875 0.828125 -1.046875q0.375 -0.265625 0.8125 -0.265625q0.65625 0 1.328125 0.40625l-0.4375 1.203125q-0.46875 -0.28125 -0.953125 -0.28125q-0.421875 0 -0.765625 0.25q-0.328125 0.25 -0.46875 0.703125q-0.21875 0.6875 -0.21875 1.5l0 3.984375l-1.28125 0zm9.818146 0l0 -0.953125q-0.71875 1.125 -2.125 1.125q-0.90625 0 -1.671875 -0.5q-0.75 -0.5 -1.171875 -1.390625q-0.421875 -0.90625 -0.421875 -2.078125q0 -1.140625 0.375 -2.0625q0.390625 -0.921875 1.140625 -1.40625q0.765625 -0.5 1.703125 -0.5q0.6875 0 1.21875 0.296875q0.53125 0.28125 0.875 0.734375l0 -3.75l1.28125 0l0 10.484375l-1.203125 0zm-4.0625 -3.796875q0 1.46875 0.609375 2.1875q0.625 0.71875 1.453125 0.71875q0.84375 0 1.4375 -0.6875q0.59375 -0.6875 0.59375 -2.109375q0 -1.5625 -0.609375 -2.28125q-0.59375 -0.734375 -1.484375 -0.734375q-0.84375 0 -1.421875 0.703125q-0.578125 0.703125 -0.578125 2.203125z" fill-rule="nonzero"/><path fill="#fce5cd" d="m447.52548 54.010498l233.6063 0l0 32.692917l-233.6063 0z" fill-rule="evenodd"/><path stroke="#000000" stroke-width="1.0" stroke-linejoin="round" stroke-linecap="butt" d="m447.52548 54.010498l233.6063 0l0 32.692917l-233.6063 0z" fill-rule="evenodd"/><path fill="#000000" d="m504.9195 72.98383l1.328125 0.171875q-0.3125 1.171875 -1.171875 1.8125q-0.84375 0.640625 -2.171875 0.640625q-1.671875 0 -2.65625 -1.015625q-0.96875 -1.03125 -0.96875 -2.890625q0 -1.921875 0.984375 -2.96875q1.0 -1.0625 2.578125 -1.0625q1.515625 0 2.484375 1.03125q0.96875 1.03125 0.96875 2.921875q0 0.109375 -0.015625 0.34375l-5.65625 0q0.0625 1.25 0.703125 1.921875q0.640625 0.65625 1.59375 0.65625q0.703125 0 1.203125 -0.359375q0.5 -0.375 0.796875 -1.203125zm-4.234375 -2.078125l4.25 0q-0.09375 -0.953125 -0.484375 -1.4375q-0.625 -0.75 -1.609375 -0.75q-0.875 0 -1.484375 0.59375q-0.609375 0.59375 -0.671875 1.59375zm7.182373 4.53125l0 -7.59375l1.15625 0l0 1.078125q0.84375 -1.25 2.421875 -1.25q0.6875 0 1.265625 0.25q0.578125 0.234375 0.859375 0.640625q0.28125 0.40625 0.40625 0.953125q0.0625 0.359375 0.0625 1.25l0 4.671875l-1.28125 0l0 -4.625q0 -0.78125 -0.15625 -1.171875q-0.15625 -0.390625 -0.546875 -0.625q-0.375 -0.234375 -0.890625 -0.234375q-0.8125 0 -1.421875 0.53125q-0.59375 0.515625 -0.59375 1.96875l0 4.15625l-1.28125 0zm13.104248 -2.78125l1.265625 0.15625q-0.203125 1.3125 -1.0625 2.0625q-0.84375 0.734375 -2.09375 0.734375q-1.5625 0 -2.515625 -1.015625q-0.9375 -1.03125 -0.9375 -2.921875q0 -1.234375 0.40625 -2.15625q0.40625 -0.921875 1.234375 -1.375q0.84375 -0.46875 1.8125 -0.46875q1.25 0 2.03125 0.625q0.78125 0.625 1.015625 1.765625l-1.265625 0.203125q-0.171875 -0.765625 -0.625 -1.15625q-0.453125 -0.390625 -1.09375 -0.390625q-0.984375 0 -1.59375 0.703125q-0.609375 0.703125 -0.609375 2.203125q0 1.53125 0.578125 2.234375q0.59375 0.6875 1.546875 0.6875q0.75 0 1.265625 -0.453125q0.515625 -0.46875 0.640625 -1.4375zm2.359375 2.78125l0 -7.59375l1.15625 0l0 1.140625q0.453125 -0.796875 0.828125 -1.046875q0.375 -0.265625 0.8125 -0.265625q0.65625 0 1.328125 0.40625l-0.4375 1.203125q-0.46875 -0.28125 -0.953125 -0.28125q-0.421875 0 -0.765625 0.25q-0.328125 0.25 -0.46875 0.703125q-0.21875 0.6875 -0.21875 1.5l0 3.984375l-1.28125 0zm4.83374 2.921875l-0.140625 -1.203125q0.421875 0.109375 0.734375 0.109375q0.4375 0 0.6875 -0.140625q0.265625 -0.140625 0.421875 -0.40625q0.125 -0.1875 0.390625 -0.953125q0.046875 -0.109375 0.125 -0.3125l-2.890625 -7.609375l1.390625 0l1.578125 4.390625q0.3125 0.84375 0.546875 1.765625q0.234375 -0.890625 0.53125 -1.734375l1.625 -4.421875l1.296875 0l-2.890625 7.71875q-0.46875 1.25 -0.734375 1.734375q-0.34375 0.625 -0.78125 0.921875q-0.4375 0.296875 -1.0625 0.296875q-0.375 0 -0.828125 -0.15625zm7.390625 -0.015625l0 -10.5l1.171875 0l0 0.984375q0.421875 -0.578125 0.9375 -0.859375q0.515625 -0.296875 1.265625 -0.296875q0.96875 0 1.71875 0.5q0.75 0.5 1.125 1.421875q0.375 0.90625 0.375 1.984375q0 1.171875 -0.421875 2.109375q-0.40625 0.921875 -1.21875 1.421875q-0.796875 0.5 -1.671875 0.5q-0.640625 0 -1.15625 -0.265625q-0.515625 -0.28125 -0.84375 -0.6875l0 3.6875l-1.28125 0zm1.15625 -6.65625q0 1.453125 0.59375 2.15625q0.609375 0.703125 1.453125 0.703125q0.859375 0 1.46875 -0.71875q0.609375 -0.734375 0.609375 -2.25q0 -1.453125 -0.609375 -2.171875q-0.59375 -0.734375 -1.421875 -0.734375q-0.8125 0 -1.453125 0.78125q-0.640625 0.765625 -0.640625 2.234375zm9.807373 2.59375l0.1875 1.140625q-0.546875 0.109375 -0.984375 0.109375q-0.6875 0 -1.078125 -0.21875q-0.390625 -0.21875 -0.546875 -0.578125q-0.15625 -0.359375 -0.15625 -1.515625l0 -4.375l-0.953125 0l0 -1.0l0.953125 0l0 -1.890625l1.28125 -0.765625l0 2.65625l1.296875 0l0 1.0l-1.296875 0l0 4.4375q0 0.546875 0.0625 0.71875q0.078125 0.15625 0.21875 0.25q0.15625 0.078125 0.453125 0.078125q0.203125 0 0.5625 -0.046875zm6.4625854 -1.296875l1.328125 0.171875q-0.3125 1.171875 -1.171875 1.8125q-0.84375 0.640625 -2.171875 0.640625q-1.671875 0 -2.65625 -1.015625q-0.96875 -1.03125 -0.96875 -2.890625q0 -1.921875 0.984375 -2.96875q1.0 -1.0625 2.578125 -1.0625q1.515625 0 2.484375 1.03125q0.96875 1.03125 0.96875 2.921875q0 0.109375 -0.015625 0.34375l-5.65625 0q0.0625 1.25 0.703125 1.921875q0.640625 0.65625 1.59375 0.65625q0.703125 0 1.203125 -0.359375q0.5 -0.375 0.796875 -1.203125zm-4.234375 -2.078125l4.25 0q-0.09375 -0.953125 -0.484375 -1.4375q-0.625 -0.75 -1.609375 -0.75q-0.875 0 -1.484375 0.59375q-0.609375 0.59375 -0.671875 1.59375zm12.104248 4.53125l0 -0.953125q-0.71875 1.125 -2.125 1.125q-0.90625 0 -1.671875 -0.5q-0.75 -0.5 -1.171875 -1.390625q-0.421875 -0.90625 -0.421875 -2.078125q0 -1.140625 0.375 -2.0625q0.390625 -0.921875 1.140625 -1.40625q0.765625 -0.5 1.703125 -0.5q0.6875 0 1.21875 0.296875q0.53125 0.28125 0.875 0.734375l0 -3.75l1.28125 0l0 10.484375l-1.203125 0zm-4.0625 -3.796875q0 1.46875 0.609375 2.1875q0.625 0.71875 1.453125 0.71875q0.84375 0 1.4375 -0.6875q0.59375 -0.6875 0.59375 -2.109375q0 -1.5625 -0.609375 -2.28125q-0.59375 -0.734375 -1.484375 -0.734375q-0.84375 0 -1.421875 0.703125q-0.578125 0.703125 -0.578125 2.203125zm11.3637085 6.703125l0 -10.5l1.171875 0l0 0.984375q0.421875 -0.578125 0.9375 -0.859375q0.515625 -0.296875 1.265625 -0.296875q0.96875 0 1.71875 0.5q0.75 0.5 1.125 1.421875q0.375 0.90625 0.375 1.984375q0 1.171875 -0.421875 2.109375q-0.40625 0.921875 -1.21875 1.421875q-0.796875 0.5 -1.671875 0.5q-0.640625 0 -1.15625 -0.265625q-0.515625 -0.28125 -0.84375 -0.6875l0 3.6875l-1.28125 0zm1.15625 -6.65625q0 1.453125 0.59375 2.15625q0.609375 0.703125 1.453125 0.703125q0.859375 0 1.46875 -0.71875q0.609375 -0.734375 0.609375 -2.25q0 -1.453125 -0.609375 -2.171875q-0.59375 -0.734375 -1.421875 -0.734375q-0.8125 0 -1.453125 0.78125q-0.640625 0.765625 -0.640625 2.234375zm11.947998 2.8125q-0.71875 0.609375 -1.375 0.859375q-0.65625 0.25 -1.421875 0.25q-1.25 0 -1.921875 -0.609375q-0.671875 -0.609375 -0.671875 -1.5625q0 -0.5625 0.25 -1.015625q0.25 -0.46875 0.65625 -0.75q0.421875 -0.28125 0.9375 -0.421875q0.375 -0.09375 1.140625 -0.1875q1.5625 -0.1875 2.296875 -0.453125q0.015625 -0.265625 0.015625 -0.328125q0 -0.796875 -0.375 -1.109375q-0.484375 -0.4375 -1.453125 -0.4375q-0.921875 0 -1.359375 0.328125q-0.421875 0.3125 -0.625 1.109375l-1.265625 -0.171875q0.171875 -0.796875 0.5625 -1.296875q0.390625 -0.5 1.140625 -0.765625q0.75 -0.265625 1.71875 -0.265625q0.984375 0 1.59375 0.234375q0.609375 0.21875 0.890625 0.5625q0.28125 0.34375 0.40625 0.875q0.0625 0.328125 0.0625 1.1875l0 1.71875q0 1.796875 0.078125 2.28125q0.078125 0.46875 0.328125 0.90625l-1.34375 0q-0.203125 -0.40625 -0.265625 -0.9375zm-0.109375 -2.875q-0.703125 0.28125 -2.09375 0.484375q-0.796875 0.109375 -1.125 0.265625q-0.328125 0.140625 -0.515625 0.421875q-0.171875 0.265625 -0.171875 0.59375q0 0.515625 0.390625 0.859375q0.390625 0.34375 1.140625 0.34375q0.734375 0 1.3125 -0.3125q0.59375 -0.328125 0.859375 -0.890625q0.203125 -0.4375 0.203125 -1.296875l0 -0.46875zm2.791687 1.546875l1.265625 -0.203125q0.109375 0.765625 0.59375 1.171875q0.5 0.40625 1.375 0.40625q0.890625 0 1.3125 -0.359375q0.4375 -0.359375 0.4375 -0.84375q0 -0.4375 -0.375 -0.6875q-0.265625 -0.171875 -1.3125 -0.4375q-1.421875 -0.359375 -1.96875 -0.609375q-0.546875 -0.265625 -0.828125 -0.734375q-0.28125 -0.46875 -0.28125 -1.015625q0 -0.515625 0.21875 -0.9375q0.234375 -0.4375 0.640625 -0.734375q0.296875 -0.21875 0.8125 -0.359375q0.53125 -0.15625 1.125 -0.15625q0.890625 0 1.5625 0.265625q0.671875 0.25 1.0 0.6875q0.328125 0.4375 0.4375 1.171875l-1.25 0.171875q-0.09375 -0.578125 -0.5 -0.90625q-0.40625 -0.34375 -1.15625 -0.34375q-0.890625 0 -1.28125 0.296875q-0.375 0.296875 -0.375 0.6875q0 0.25 0.15625 0.453125q0.15625 0.203125 0.5 0.34375q0.1875 0.078125 1.140625 0.328125q1.359375 0.359375 1.890625 0.59375q0.546875 0.234375 0.859375 0.6875q0.3125 0.4375 0.3125 1.09375q0 0.640625 -0.375 1.21875q-0.375 0.5625 -1.09375 0.875q-0.703125 0.3125 -1.59375 0.3125q-1.484375 0 -2.265625 -0.609375q-0.765625 -0.625 -0.984375 -1.828125zm7.328125 0l1.265625 -0.203125q0.109375 0.765625 0.59375 1.171875q0.5 0.40625 1.375 0.40625q0.890625 0 1.3125 -0.359375q0.4375 -0.359375 0.4375 -0.84375q0 -0.4375 -0.375 -0.6875q-0.265625 -0.171875 -1.3125 -0.4375q-1.421875 -0.359375 -1.96875 -0.609375q-0.546875 -0.265625 -0.828125 -0.734375q-0.28125 -0.46875 -0.28125 -1.015625q0 -0.515625 0.21875 -0.9375q0.234375 -0.4375 0.640625 -0.734375q0.296875 -0.21875 0.8125 -0.359375q0.53125 -0.15625 1.125 -0.15625q0.890625 0 1.5625 0.265625q0.671875 0.25 1.0 0.6875q0.328125 0.4375 0.4375 1.171875l-1.25 0.171875q-0.09375 -0.578125 -0.5 -0.90625q-0.40625 -0.34375 -1.15625 -0.34375q-0.890625 0 -1.28125 0.296875q-0.375 0.296875 -0.375 0.6875q0 0.25 0.15625 0.453125q0.15625 0.203125 0.5 0.34375q0.1875 0.078125 1.140625 0.328125q1.359375 0.359375 1.890625 0.59375q0.546875 0.234375 0.859375 0.6875q0.3125 0.4375 0.3125 1.09375q0 0.640625 -0.375 1.21875q-0.375 0.5625 -1.09375 0.875q-0.703125 0.3125 -1.59375 0.3125q-1.484375 0 -2.265625 -0.609375q-0.765625 -0.625 -0.984375 -1.828125zm9.25 2.265625l-2.328125 -7.59375l1.328125 0l1.203125 4.375l0.453125 1.640625q0.03125 -0.125 0.390625 -1.578125l1.21875 -4.4375l1.328125 0l1.125 4.40625l0.390625 1.453125l0.4375 -1.46875l1.296875 -4.390625l1.25 0l-2.375 7.59375l-1.34375 0l-1.203125 -4.546875l-0.296875 -1.296875l-1.53125 5.84375l-1.34375 0zm8.693665 -3.796875q0 -2.109375 1.171875 -3.125q0.984375 -0.84375 2.390625 -0.84375q1.578125 0 2.5625 1.03125q1.0 1.015625 1.0 2.828125q0 1.46875 -0.4375 2.3125q-0.4375 0.828125 -1.28125 1.296875q-0.84375 0.46875 -1.84375 0.46875q-1.59375 0 -2.578125 -1.015625q-0.984375 -1.03125 -0.984375 -2.953125zm1.328125 0q0 1.453125 0.625 2.1875q0.640625 0.71875 1.609375 0.71875q0.96875 0 1.59375 -0.71875q0.640625 -0.734375 0.640625 -2.234375q0 -1.40625 -0.640625 -2.125q-0.640625 -0.734375 -1.59375 -0.734375q-0.96875 0 -1.609375 0.71875q-0.625 0.71875 -0.625 2.1875zm7.291748 3.796875l0 -7.59375l1.15625 0l0 1.140625q0.453125 -0.796875 0.828125 -1.046875q0.375 -0.265625 0.8125 -0.265625q0.65625 0 1.328125 0.40625l-0.4375 1.203125q-0.46875 -0.28125 -0.953125 -0.28125q-0.421875 0 -0.765625 0.25q-0.328125 0.25 -0.46875 0.703125q-0.21875 0.6875 -0.21875 1.5l0 3.984375l-1.28125 0zm9.818115 0l0 -0.953125q-0.71875 1.125 -2.125 1.125q-0.90625 0 -1.671875 -0.5q-0.75 -0.5 -1.171875 -1.390625q-0.421875 -0.90625 -0.421875 -2.078125q0 -1.140625 0.375 -2.0625q0.390625 -0.921875 1.140625 -1.40625q0.765625 -0.5 1.703125 -0.5q0.6875 0 1.21875 0.296875q0.53125 0.28125 0.875 0.734375l0 -3.75l1.28125 0l0 10.484375l-1.203125 0zm-4.0625 -3.796875q0 1.46875 0.609375 2.1875q0.625 0.71875 1.453125 0.71875q0.84375 0 1.4375 -0.6875q0.59375 -0.6875 0.59375 -2.109375q0 -1.5625 -0.609375 -2.28125q-0.59375 -0.734375 -1.484375 -0.734375q-0.84375 0 -1.421875 0.703125q-0.578125 0.703125 -0.578125 2.203125z" fill-rule="nonzero"/><path fill="#efefef" d="m69.43099 152.95801l233.6063 0l0 32.692917l-233.6063 0z" fill-rule="evenodd"/><path stroke="#000000" stroke-width="1.0" stroke-linejoin="round" stroke-linecap="butt" d="m69.43099 152.95801l233.6063 0l0 32.692917l-233.6063 0z" fill-rule="evenodd"/><path fill="#000000" d="m155.84009 177.29071l0 -10.5l1.171875 0l0 0.984375q0.421875 -0.578125 0.9375 -0.859375q0.515625 -0.296875 1.265625 -0.296875q0.96875 0 1.71875 0.5q0.75 0.5 1.125 1.421875q0.375 0.90625 0.375 1.984375q0 1.171875 -0.421875 2.109375q-0.40625 0.921875 -1.21875 1.421875q-0.796875 0.5 -1.671875 0.5q-0.640625 0 -1.15625 -0.265625q-0.515625 -0.28125 -0.84375 -0.6875l0 3.6875l-1.28125 0zm1.15625 -6.65625q0 1.453125 0.59375 2.15625q0.609375 0.703125 1.453125 0.703125q0.859375 0 1.46875 -0.71875q0.609375 -0.734375 0.609375 -2.25q0 -1.453125 -0.609375 -2.171875q-0.59375 -0.734375 -1.421875 -0.734375q-0.8125 0 -1.453125 0.78125q-0.640625 0.765625 -0.640625 2.234375zm11.947983 2.8125q-0.71875 0.609375 -1.375 0.859375q-0.65625 0.25 -1.421875 0.25q-1.25 0 -1.921875 -0.609375q-0.671875 -0.609375 -0.671875 -1.5625q0 -0.5625 0.25 -1.015625q0.25 -0.46875 0.65625 -0.75q0.421875 -0.28125 0.9375 -0.421875q0.375 -0.09375 1.140625 -0.1875q1.5625 -0.1875 2.296875 -0.453125q0.015625 -0.265625 0.015625 -0.328125q0 -0.796875 -0.375 -1.109375q-0.484375 -0.4375 -1.453125 -0.4375q-0.921875 0 -1.359375 0.328125q-0.421875 0.3125 -0.625 1.109375l-1.265625 -0.171875q0.171875 -0.796875 0.5625 -1.296875q0.390625 -0.5 1.140625 -0.765625q0.75 -0.265625 1.71875 -0.265625q0.984375 0 1.59375 0.234375q0.609375 0.21875 0.890625 0.5625q0.28125 0.34375 0.40625 0.875q0.0625 0.328125 0.0625 1.1875l0 1.71875q0 1.796875 0.078125 2.28125q0.078125 0.46875 0.328125 0.90625l-1.34375 0q-0.203125 -0.40625 -0.265625 -0.9375zm-0.109375 -2.875q-0.703125 0.28125 -2.09375 0.484375q-0.796875 0.109375 -1.125 0.265625q-0.328125 0.140625 -0.515625 0.421875q-0.171875 0.265625 -0.171875 0.59375q0 0.515625 0.390625 0.859375q0.390625 0.34375 1.140625 0.34375q0.734375 0 1.3125 -0.3125q0.59375 -0.328125 0.859375 -0.890625q0.203125 -0.4375 0.203125 -1.296875l0 -0.46875zm2.7917328 1.546875l1.265625 -0.203125q0.109375 0.765625 0.59375 1.171875q0.5 0.40625 1.375 0.40625q0.890625 0 1.3125 -0.359375q0.4375 -0.359375 0.4375 -0.84375q0 -0.4375 -0.375 -0.6875q-0.265625 -0.171875 -1.3125 -0.4375q-1.421875 -0.359375 -1.96875 -0.609375q-0.546875 -0.265625 -0.828125 -0.734375q-0.28125 -0.46875 -0.28125 -1.015625q0 -0.515625 0.21875 -0.9375q0.234375 -0.4375 0.640625 -0.734375q0.296875 -0.21875 0.8125 -0.359375q0.53125 -0.15625 1.125 -0.15625q0.890625 0 1.5625 0.265625q0.671875 0.25 1.0 0.6875q0.328125 0.4375 0.4375 1.171875l-1.25 0.171875q-0.09375 -0.578125 -0.5 -0.90625q-0.40625 -0.34375 -1.15625 -0.34375q-0.890625 0 -1.28125 0.296875q-0.375 0.296875 -0.375 0.6875q0 0.25 0.15625 0.453125q0.15625 0.203125 0.5 0.34375q0.1875 0.078125 1.140625 0.328125q1.359375 0.359375 1.890625 0.59375q0.546875 0.234375 0.859375 0.6875q0.3125 0.4375 0.3125 1.09375q0 0.640625 -0.375 1.21875q-0.375 0.5625 -1.09375 0.875q-0.703125 0.3125 -1.59375 0.3125q-1.484375 0 -2.265625 -0.609375q-0.765625 -0.625 -0.984375 -1.828125zm7.328125 0l1.265625 -0.203125q0.109375 0.765625 0.59375 1.171875q0.5 0.40625 1.375 0.40625q0.890625 0 1.3125 -0.359375q0.4375 -0.359375 0.4375 -0.84375q0 -0.4375 -0.375 -0.6875q-0.265625 -0.171875 -1.3125 -0.4375q-1.421875 -0.359375 -1.96875 -0.609375q-0.546875 -0.265625 -0.828125 -0.734375q-0.28125 -0.46875 -0.28125 -1.015625q0 -0.515625 0.21875 -0.9375q0.234375 -0.4375 0.640625 -0.734375q0.296875 -0.21875 0.8125 -0.359375q0.53125 -0.15625 1.125 -0.15625q0.890625 0 1.5625 0.265625q0.671875 0.25 1.0 0.6875q0.328125 0.4375 0.4375 1.171875l-1.25 0.171875q-0.09375 -0.578125 -0.5 -0.90625q-0.40625 -0.34375 -1.15625 -0.34375q-0.890625 0 -1.28125 0.296875q-0.375 0.296875 -0.375 0.6875q0 0.25 0.15625 0.453125q0.15625 0.203125 0.5 0.34375q0.1875 0.078125 1.140625 0.328125q1.359375 0.359375 1.890625 0.59375q0.546875 0.234375 0.859375 0.6875q0.3125 0.4375 0.3125 1.09375q0 0.640625 -0.375 1.21875q-0.375 0.5625 -1.09375 0.875q-0.703125 0.3125 -1.59375 0.3125q-1.484375 0 -2.265625 -0.609375q-0.765625 -0.625 -0.984375 -1.828125zm9.25 2.265625l-2.328125 -7.59375l1.328125 0l1.203125 4.375l0.453125 1.640625q0.03125 -0.125 0.390625 -1.578125l1.21875 -4.4375l1.328125 0l1.125 4.40625l0.390625 1.453125l0.4375 -1.46875l1.296875 -4.390625l1.25 0l-2.375 7.59375l-1.34375 0l-1.203125 -4.546875l-0.296875 -1.296875l-1.53125 5.84375l-1.34375 0zm8.693649 -3.796875q0 -2.109375 1.171875 -3.125q0.984375 -0.84375 2.390625 -0.84375q1.578125 0 2.5625 1.03125q1.0 1.015625 1.0 2.828125q0 1.46875 -0.4375 2.3125q-0.4375 0.828125 -1.28125 1.296875q-0.84375 0.46875 -1.84375 0.46875q-1.59375 0 -2.578125 -1.015625q-0.984375 -1.03125 -0.984375 -2.953125zm1.328125 0q0 1.453125 0.625 2.1875q0.640625 0.71875 1.609375 0.71875q0.96875 0 1.59375 -0.71875q0.640625 -0.734375 0.640625 -2.234375q0 -1.40625 -0.640625 -2.125q-0.640625 -0.734375 -1.59375 -0.734375q-0.96875 0 -1.609375 0.71875q-0.625 0.71875 -0.625 2.1875zm7.2917175 3.796875l0 -7.59375l1.15625 0l0 1.140625q0.453125 -0.796875 0.828125 -1.046875q0.375 -0.265625 0.8125 -0.265625q0.65625 0 1.328125 0.40625l-0.4375 1.203125q-0.46875 -0.28125 -0.953125 -0.28125q-0.421875 0 -0.765625 0.25q-0.328125 0.25 -0.46875 0.703125q-0.21875 0.6875 -0.21875 1.5l0 3.984375l-1.28125 0zm9.818146 0l0 -0.953125q-0.71875 1.125 -2.125 1.125q-0.90625 0 -1.671875 -0.5q-0.75 -0.5 -1.171875 -1.390625q-0.421875 -0.90625 -0.421875 -2.078125q0 -1.140625 0.375 -2.0625q0.390625 -0.921875 1.140625 -1.40625q0.765625 -0.5 1.703125 -0.5q0.6875 0 1.21875 0.296875q0.53125 0.28125 0.875 0.734375l0 -3.75l1.28125 0l0 10.484375l-1.203125 0zm-4.0625 -3.796875q0 1.46875 0.609375 2.1875q0.625 0.71875 1.453125 0.71875q0.84375 0 1.4375 -0.6875q0.59375 -0.6875 0.59375 -2.109375q0 -1.5625 -0.609375 -2.28125q-0.59375 -0.734375 -1.484375 -0.734375q-0.84375 0 -1.421875 0.703125q-0.578125 0.703125 -0.578125 2.203125z" fill-rule="nonzero"/><path fill="#fce5cd" d="m447.52548 152.95801l233.6063 0l0 32.692917l-233.6063 0z" fill-rule="evenodd"/><path stroke="#000000" stroke-width="1.0" stroke-linejoin="round" stroke-linecap="butt" d="m447.52548 152.95801l233.6063 0l0 32.692917l-233.6063 0z" fill-rule="evenodd"/><path fill="#000000" d="m504.9195 171.93134l1.328125 0.171875q-0.3125 1.171875 -1.171875 1.8125q-0.84375 0.640625 -2.171875 0.640625q-1.671875 0 -2.65625 -1.015625q-0.96875 -1.03125 -0.96875 -2.890625q0 -1.921875 0.984375 -2.96875q1.0 -1.0625 2.578125 -1.0625q1.515625 0 2.484375 1.03125q0.96875 1.03125 0.96875 2.921875q0 0.109375 -0.015625 0.34375l-5.65625 0q0.0625 1.25 0.703125 1.921875q0.640625 0.65625 1.59375 0.65625q0.703125 0 1.203125 -0.359375q0.5 -0.375 0.796875 -1.203125zm-4.234375 -2.078125l4.25 0q-0.09375 -0.953125 -0.484375 -1.4375q-0.625 -0.75 -1.609375 -0.75q-0.875 0 -1.484375 0.59375q-0.609375 0.59375 -0.671875 1.59375zm7.182373 4.53125l0 -7.59375l1.15625 0l0 1.078125q0.84375 -1.25 2.421875 -1.25q0.6875 0 1.265625 0.25q0.578125 0.234375 0.859375 0.640625q0.28125 0.40625 0.40625 0.953125q0.0625 0.359375 0.0625 1.25l0 4.671875l-1.28125 0l0 -4.625q0 -0.78125 -0.15625 -1.171875q-0.15625 -0.390625 -0.546875 -0.625q-0.375 -0.234375 -0.890625 -0.234375q-0.8125 0 -1.421875 0.53125q-0.59375 0.515625 -0.59375 1.96875l0 4.15625l-1.28125 0zm13.104248 -2.78125l1.265625 0.15625q-0.203125 1.3125 -1.0625 2.0625q-0.84375 0.734375 -2.09375 0.734375q-1.5625 0 -2.515625 -1.015625q-0.9375 -1.03125 -0.9375 -2.921875q0 -1.234375 0.40625 -2.15625q0.40625 -0.921875 1.234375 -1.375q0.84375 -0.46875 1.8125 -0.46875q1.25 0 2.03125 0.625q0.78125 0.625 1.015625 1.765625l-1.265625 0.203125q-0.171875 -0.765625 -0.625 -1.15625q-0.453125 -0.390625 -1.09375 -0.390625q-0.984375 0 -1.59375 0.703125q-0.609375 0.703125 -0.609375 2.203125q0 1.53125 0.578125 2.234375q0.59375 0.6875 1.546875 0.6875q0.75 0 1.265625 -0.453125q0.515625 -0.46875 0.640625 -1.4375zm2.359375 2.78125l0 -7.59375l1.15625 0l0 1.140625q0.453125 -0.796875 0.828125 -1.046875q0.375 -0.265625 0.8125 -0.265625q0.65625 0 1.328125 0.40625l-0.4375 1.203125q-0.46875 -0.28125 -0.953125 -0.28125q-0.421875 0 -0.765625 0.25q-0.328125 0.25 -0.46875 0.703125q-0.21875 0.6875 -0.21875 1.5l0 3.984375l-1.28125 0zm4.83374 2.921875l-0.140625 -1.203125q0.421875 0.109375 0.734375 0.109375q0.4375 0 0.6875 -0.140625q0.265625 -0.140625 0.421875 -0.40625q0.125 -0.1875 0.390625 -0.953125q0.046875 -0.109375 0.125 -0.3125l-2.890625 -7.609375l1.390625 0l1.578125 4.390625q0.3125 0.84375 0.546875 1.765625q0.234375 -0.890625 0.53125 -1.734375l1.625 -4.421875l1.296875 0l-2.890625 7.71875q-0.46875 1.25 -0.734375 1.734375q-0.34375 0.625 -0.78125 0.921875q-0.4375 0.296875 -1.0625 0.296875q-0.375 0 -0.828125 -0.15625zm7.390625 -0.015625l0 -10.5l1.171875 0l0 0.984375q0.421875 -0.578125 0.9375 -0.859375q0.515625 -0.296875 1.265625 -0.296875q0.96875 0 1.71875 0.5q0.75 0.5 1.125 1.421875q0.375 0.90625 0.375 1.984375q0 1.171875 -0.421875 2.109375q-0.40625 0.921875 -1.21875 1.421875q-0.796875 0.5 -1.671875 0.5q-0.640625 0 -1.15625 -0.265625q-0.515625 -0.28125 -0.84375 -0.6875l0 3.6875l-1.28125 0zm1.15625 -6.65625q0 1.453125 0.59375 2.15625q0.609375 0.703125 1.453125 0.703125q0.859375 0 1.46875 -0.71875q0.609375 -0.734375 0.609375 -2.25q0 -1.453125 -0.609375 -2.171875q-0.59375 -0.734375 -1.421875 -0.734375q-0.8125 0 -1.453125 0.78125q-0.640625 0.765625 -0.640625 2.234375zm9.807373 2.59375l0.1875 1.140625q-0.546875 0.109375 -0.984375 0.109375q-0.6875 0 -1.078125 -0.21875q-0.390625 -0.21875 -0.546875 -0.578125q-0.15625 -0.359375 -0.15625 -1.515625l0 -4.375l-0.953125 0l0 -1.0l0.953125 0l0 -1.890625l1.28125 -0.765625l0 2.65625l1.296875 0l0 1.0l-1.296875 0l0 4.4375q0 0.546875 0.0625 0.71875q0.078125 0.15625 0.21875 0.25q0.15625 0.078125 0.453125 0.078125q0.203125 0 0.5625 -0.046875zm6.4625854 -1.296875l1.328125 0.171875q-0.3125 1.171875 -1.171875 1.8125q-0.84375 0.640625 -2.171875 0.640625q-1.671875 0 -2.65625 -1.015625q-0.96875 -1.03125 -0.96875 -2.890625q0 -1.921875 0.984375 -2.96875q1.0 -1.0625 2.578125 -1.0625q1.515625 0 2.484375 1.03125q0.96875 1.03125 0.96875 2.921875q0 0.109375 -0.015625 0.34375l-5.65625 0q0.0625 1.25 0.703125 1.921875q0.640625 0.65625 1.59375 0.65625q0.703125 0 1.203125 -0.359375q0.5 -0.375 0.796875 -1.203125zm-4.234375 -2.078125l4.25 0q-0.09375 -0.953125 -0.484375 -1.4375q-0.625 -0.75 -1.609375 -0.75q-0.875 0 -1.484375 0.59375q-0.609375 0.59375 -0.671875 1.59375zm12.104248 4.53125l0 -0.953125q-0.71875 1.125 -2.125 1.125q-0.90625 0 -1.671875 -0.5q-0.75 -0.5 -1.171875 -1.390625q-0.421875 -0.90625 -0.421875 -2.078125q0 -1.140625 0.375 -2.0625q0.390625 -0.921875 1.140625 -1.40625q0.765625 -0.5 1.703125 -0.5q0.6875 0 1.21875 0.296875q0.53125 0.28125 0.875 0.734375l0 -3.75l1.28125 0l0 10.484375l-1.203125 0zm-4.0625 -3.796875q0 1.46875 0.609375 2.1875q0.625 0.71875 1.453125 0.71875q0.84375 0 1.4375 -0.6875q0.59375 -0.6875 0.59375 -2.109375q0 -1.5625 -0.609375 -2.28125q-0.59375 -0.734375 -1.484375 -0.734375q-0.84375 0 -1.421875 0.703125q-0.578125 0.703125 -0.578125 2.203125zm11.3637085 6.703125l0 -10.5l1.171875 0l0 0.984375q0.421875 -0.578125 0.9375 -0.859375q0.515625 -0.296875 1.265625 -0.296875q0.96875 0 1.71875 0.5q0.75 0.5 1.125 1.421875q0.375 0.90625 0.375 1.984375q0 1.171875 -0.421875 2.109375q-0.40625 0.921875 -1.21875 1.421875q-0.796875 0.5 -1.671875 0.5q-0.640625 0 -1.15625 -0.265625q-0.515625 -0.28125 -0.84375 -0.6875l0 3.6875l-1.28125 0zm1.15625 -6.65625q0 1.453125 0.59375 2.15625q0.609375 0.703125 1.453125 0.703125q0.859375 0 1.46875 -0.71875q0.609375 -0.734375 0.609375 -2.25q0 -1.453125 -0.609375 -2.171875q-0.59375 -0.734375 -1.421875 -0.734375q-0.8125 0 -1.453125 0.78125q-0.640625 0.765625 -0.640625 2.234375zm11.947998 2.8125q-0.71875 0.609375 -1.375 0.859375q-0.65625 0.25 -1.421875 0.25q-1.25 0 -1.921875 -0.609375q-0.671875 -0.609375 -0.671875 -1.5625q0 -0.5625 0.25 -1.015625q0.25 -0.46875 0.65625 -0.75q0.421875 -0.28125 0.9375 -0.421875q0.375 -0.09375 1.140625 -0.1875q1.5625 -0.1875 2.296875 -0.453125q0.015625 -0.265625 0.015625 -0.328125q0 -0.796875 -0.375 -1.109375q-0.484375 -0.4375 -1.453125 -0.4375q-0.921875 0 -1.359375 0.328125q-0.421875 0.3125 -0.625 1.109375l-1.265625 -0.171875q0.171875 -0.796875 0.5625 -1.296875q0.390625 -0.5 1.140625 -0.765625q0.75 -0.265625 1.71875 -0.265625q0.984375 0 1.59375 0.234375q0.609375 0.21875 0.890625 0.5625q0.28125 0.34375 0.40625 0.875q0.0625 0.328125 0.0625 1.1875l0 1.71875q0 1.796875 0.078125 2.28125q0.078125 0.46875 0.328125 0.90625l-1.34375 0q-0.203125 -0.40625 -0.265625 -0.9375zm-0.109375 -2.875q-0.703125 0.28125 -2.09375 0.484375q-0.796875 0.109375 -1.125 0.265625q-0.328125 0.140625 -0.515625 0.421875q-0.171875 0.265625 -0.171875 0.59375q0 0.515625 0.390625 0.859375q0.390625 0.34375 1.140625 0.34375q0.734375 0 1.3125 -0.3125q0.59375 -0.328125 0.859375 -0.890625q0.203125 -0.4375 0.203125 -1.296875l0 -0.46875zm2.791687 1.546875l1.265625 -0.203125q0.109375 0.765625 0.59375 1.171875q0.5 0.40625 1.375 0.40625q0.890625 0 1.3125 -0.359375q0.4375 -0.359375 0.4375 -0.84375q0 -0.4375 -0.375 -0.6875q-0.265625 -0.171875 -1.3125 -0.4375q-1.421875 -0.359375 -1.96875 -0.609375q-0.546875 -0.265625 -0.828125 -0.734375q-0.28125 -0.46875 -0.28125 -1.015625q0 -0.515625 0.21875 -0.9375q0.234375 -0.4375 0.640625 -0.734375q0.296875 -0.21875 0.8125 -0.359375q0.53125 -0.15625 1.125 -0.15625q0.890625 0 1.5625 0.265625q0.671875 0.25 1.0 0.6875q0.328125 0.4375 0.4375 1.171875l-1.25 0.171875q-0.09375 -0.578125 -0.5 -0.90625q-0.40625 -0.34375 -1.15625 -0.34375q-0.890625 0 -1.28125 0.296875q-0.375 0.296875 -0.375 0.6875q0 0.25 0.15625 0.453125q0.15625 0.203125 0.5 0.34375q0.1875 0.078125 1.140625 0.328125q1.359375 0.359375 1.890625 0.59375q0.546875 0.234375 0.859375 0.6875q0.3125 0.4375 0.3125 1.09375q0 0.640625 -0.375 1.21875q-0.375 0.5625 -1.09375 0.875q-0.703125 0.3125 -1.59375 0.3125q-1.484375 0 -2.265625 -0.609375q-0.765625 -0.625 -0.984375 -1.828125zm7.328125 0l1.265625 -0.203125q0.109375 0.765625 0.59375 1.171875q0.5 0.40625 1.375 0.40625q0.890625 0 1.3125 -0.359375q0.4375 -0.359375 0.4375 -0.84375q0 -0.4375 -0.375 -0.6875q-0.265625 -0.171875 -1.3125 -0.4375q-1.421875 -0.359375 -1.96875 -0.609375q-0.546875 -0.265625 -0.828125 -0.734375q-0.28125 -0.46875 -0.28125 -1.015625q0 -0.515625 0.21875 -0.9375q0.234375 -0.4375 0.640625 -0.734375q0.296875 -0.21875 0.8125 -0.359375q0.53125 -0.15625 1.125 -0.15625q0.890625 0 1.5625 0.265625q0.671875 0.25 1.0 0.6875q0.328125 0.4375 0.4375 1.171875l-1.25 0.171875q-0.09375 -0.578125 -0.5 -0.90625q-0.40625 -0.34375 -1.15625 -0.34375q-0.890625 0 -1.28125 0.296875q-0.375 0.296875 -0.375 0.6875q0 0.25 0.15625 0.453125q0.15625 0.203125 0.5 0.34375q0.1875 0.078125 1.140625 0.328125q1.359375 0.359375 1.890625 0.59375q0.546875 0.234375 0.859375 0.6875q0.3125 0.4375 0.3125 1.09375q0 0.640625 -0.375 1.21875q-0.375 0.5625 -1.09375 0.875q-0.703125 0.3125 -1.59375 0.3125q-1.484375 0 -2.265625 -0.609375q-0.765625 -0.625 -0.984375 -1.828125zm9.25 2.265625l-2.328125 -7.59375l1.328125 0l1.203125 4.375l0.453125 1.640625q0.03125 -0.125 0.390625 -1.578125l1.21875 -4.4375l1.328125 0l1.125 4.40625l0.390625 1.453125l0.4375 -1.46875l1.296875 -4.390625l1.25 0l-2.375 7.59375l-1.34375 0l-1.203125 -4.546875l-0.296875 -1.296875l-1.53125 5.84375l-1.34375 0zm8.693665 -3.796875q0 -2.109375 1.171875 -3.125q0.984375 -0.84375 2.390625 -0.84375q1.578125 0 2.5625 1.03125q1.0 1.015625 1.0 2.828125q0 1.46875 -0.4375 2.3125q-0.4375 0.828125 -1.28125 1.296875q-0.84375 0.46875 -1.84375 0.46875q-1.59375 0 -2.578125 -1.015625q-0.984375 -1.03125 -0.984375 -2.953125zm1.328125 0q0 1.453125 0.625 2.1875q0.640625 0.71875 1.609375 0.71875q0.96875 0 1.59375 -0.71875q0.640625 -0.734375 0.640625 -2.234375q0 -1.40625 -0.640625 -2.125q-0.640625 -0.734375 -1.59375 -0.734375q-0.96875 0 -1.609375 0.71875q-0.625 0.71875 -0.625 2.1875zm7.291748 3.796875l0 -7.59375l1.15625 0l0 1.140625q0.453125 -0.796875 0.828125 -1.046875q0.375 -0.265625 0.8125 -0.265625q0.65625 0 1.328125 0.40625l-0.4375 1.203125q-0.46875 -0.28125 -0.953125 -0.28125q-0.421875 0 -0.765625 0.25q-0.328125 0.25 -0.46875 0.703125q-0.21875 0.6875 -0.21875 1.5l0 3.984375l-1.28125 0zm9.818115 0l0 -0.953125q-0.71875 1.125 -2.125 1.125q-0.90625 0 -1.671875 -0.5q-0.75 -0.5 -1.171875 -1.390625q-0.421875 -0.90625 -0.421875 -2.078125q0 -1.140625 0.375 -2.0625q0.390625 -0.921875 1.140625 -1.40625q0.765625 -0.5 1.703125 -0.5q0.6875 0 1.21875 0.296875q0.53125 0.28125 0.875 0.734375l0 -3.75l1.28125 0l0 10.484375l-1.203125 0zm-4.0625 -3.796875q0 1.46875 0.609375 2.1875q0.625 0.71875 1.453125 0.71875q0.84375 0 1.4375 -0.6875q0.59375 -0.6875 0.59375 -2.109375q0 -1.5625 -0.609375 -2.28125q-0.59375 -0.734375 -1.484375 -0.734375q-0.84375 0 -1.421875 0.703125q-0.578125 0.703125 -0.578125 2.203125z" fill-rule="nonzero"/><path fill="#000000" fill-opacity="0.0" d="m303.0373 70.35696l144.50394 0" fill-rule="evenodd"/><path stroke="#000000" stroke-width="2.0" stroke-linejoin="round" stroke-linecap="butt" d="m303.0373 70.35696l132.50394 0" fill-rule="evenodd"/><path fill="#000000" stroke="#000000" stroke-width="2.0" stroke-linecap="butt" d="m435.54123 73.66042l9.076172 -3.3034668l-9.076172 -3.3034668z" fill-rule="evenodd"/><path fill="#000000" fill-opacity="0.0" d="m447.52548 169.30446l-144.50394 0" fill-rule="evenodd"/><path stroke="#000000" stroke-width="2.0" stroke-linejoin="round" stroke-linecap="butt" d="m447.52548 169.30446l-132.50394 0" fill-rule="evenodd"/><path fill="#000000" stroke="#000000" stroke-width="2.0" stroke-linecap="butt" d="m315.02155 166.00099l-9.076202 3.3034668l9.076202 3.3034668z" fill-rule="evenodd"/><path fill="#000000" fill-opacity="0.0" d="m393.6659 173.66273l12.0 12.0" fill-rule="evenodd"/><path stroke="#00ff00" stroke-width="8.0" stroke-linejoin="round" stroke-linecap="butt" d="m393.6659 173.66273l12.0 12.0" fill-rule="evenodd"/><path fill="#000000" fill-opacity="0.0" d="m435.73267 152.95079l-32.6929 32.692917" fill-rule="evenodd"/><path stroke="#00ff00" stroke-width="8.0" stroke-linejoin="round" stroke-linecap="butt" d="m435.73267 152.95079l-32.6929 32.692917" fill-rule="evenodd"/><path fill="#000000" fill-opacity="0.0" d="m382.6987 71.07874l0 34.267715" fill-rule="evenodd"/><path stroke="#000000" stroke-width="1.0" stroke-linejoin="round" stroke-linecap="butt" d="m382.6987 77.07874l0 28.267715" fill-rule="evenodd"/><path fill="#000000" stroke="#000000" stroke-width="1.0" stroke-linecap="butt" d="m384.35043 77.07874l-1.6517334 -4.538101l-1.6517334 4.538101z" fill-rule="evenodd"/><path fill="#000000" fill-opacity="0.0" d="m408.6226 108.20473l272.50394 0l0 16.472435l-272.50394 0z" fill-rule="evenodd"/><path fill="#000000" d="m420.8882 110.82594l3.71875 9.28125l3.71875 -9.28125l1.9375 0l0 11.375l-1.5 0l0 -4.4375l0.140625 -4.78125l-3.734375 9.21875l-1.140625 0l-3.734375 -9.1875l0.15625 4.75l0 4.4375l-1.5 0l0 -11.375l1.9375 0zm17.015625 10.53125q-0.84375 1.0 -2.46875 1.0q-1.359375 0 -2.0625 -0.78125q-0.703125 -0.796875 -0.71875 -2.328125l0 -5.5l1.453125 0l0 5.453125q0 1.921875 1.5625 1.921875q1.65625 0 2.203125 -1.234375l0 -6.140625l1.4375 0l0 8.453125l-1.375 0l-0.03125 -0.84375zm8.5234375 -1.40625q0 -0.578125 -0.4375 -0.90625q-0.4375 -0.328125 -1.546875 -0.5625q-1.09375 -0.234375 -1.734375 -0.5625q-0.640625 -0.328125 -0.953125 -0.78125q-0.3125 -0.453125 -0.3125 -1.078125q0 -1.03125 0.875 -1.75q0.890625 -0.71875 2.25 -0.71875q1.4375 0 2.328125 0.75q0.90625 0.734375 0.90625 1.890625l-1.453125 0q0 -0.59375 -0.515625 -1.015625q-0.5 -0.4375 -1.265625 -0.4375q-0.78125 0 -1.234375 0.34375q-0.4375 0.34375 -0.4375 0.890625q0 0.53125 0.40625 0.796875q0.421875 0.265625 1.5 0.515625q1.078125 0.234375 1.75 0.578125q0.671875 0.328125 1.0 0.796875q0.328125 0.46875 0.328125 1.15625q0 1.125 -0.90625 1.8125q-0.90625 0.6875 -2.359375 0.6875q-1.015625 0 -1.796875 -0.359375q-0.78125 -0.359375 -1.21875 -1.0q-0.4375 -0.65625 -0.4375 -1.40625l1.4375 0q0.046875 0.734375 0.578125 1.15625q0.546875 0.421875 1.4375 0.421875q0.828125 0 1.3125 -0.328125q0.5 -0.328125 0.5 -0.890625zm5.296875 -8.25l0 2.046875l1.578125 0l0 1.109375l-1.578125 0l0 5.25q0 0.5 0.203125 0.765625q0.21875 0.25 0.71875 0.25q0.25 0 0.6875 -0.09375l0 1.171875q-0.5625 0.15625 -1.109375 0.15625q-0.96875 0 -1.46875 -0.578125q-0.484375 -0.59375 -0.484375 -1.671875l0 -5.25l-1.53125 0l0 -1.109375l1.53125 0l0 -2.046875l1.453125 0zm12.4375 9.65625q-0.84375 1.0 -2.46875 1.0q-1.359375 0 -2.0625 -0.78125q-0.703125 -0.796875 -0.71875 -2.328125l0 -5.5l1.453125 0l0 5.453125q0 1.921875 1.5625 1.921875q1.65625 0 2.203125 -1.234375l0 -6.140625l1.4375 0l0 8.453125l-1.375 0l-0.03125 -0.84375zm8.5234375 -1.40625q0 -0.578125 -0.4375 -0.90625q-0.4375 -0.328125 -1.546875 -0.5625q-1.09375 -0.234375 -1.734375 -0.5625q-0.640625 -0.328125 -0.953125 -0.78125q-0.3125 -0.453125 -0.3125 -1.078125q0 -1.03125 0.875 -1.75q0.890625 -0.71875 2.25 -0.71875q1.4375 0 2.328125 0.75q0.90625 0.734375 0.90625 1.890625l-1.453125 0q0 -0.59375 -0.515625 -1.015625q-0.5 -0.4375 -1.265625 -0.4375q-0.78125 0 -1.234375 0.34375q-0.4375 0.34375 -0.4375 0.890625q0 0.53125 0.40625 0.796875q0.421875 0.265625 1.5 0.515625q1.078125 0.234375 1.75 0.578125q0.671875 0.328125 1.0 0.796875q0.328125 0.46875 0.328125 1.15625q0 1.125 -0.90625 1.8125q-0.90625 0.6875 -2.359375 0.6875q-1.015625 0 -1.796875 -0.359375q-0.78125 -0.359375 -1.21875 -1.0q-0.4375 -0.65625 -0.4375 -1.40625l1.4375 0q0.046875 0.734375 0.578125 1.15625q0.546875 0.421875 1.4375 0.421875q0.828125 0 1.3125 -0.328125q0.5 -0.328125 0.5 -0.890625zm6.84375 2.40625q-1.71875 0 -2.796875 -1.125q-1.078125 -1.140625 -1.078125 -3.03125l0 -0.265625q0 -1.25 0.46875 -2.234375q0.484375 -1.0 1.34375 -1.546875q0.875 -0.5625 1.875 -0.5625q1.65625 0 2.5625 1.09375q0.921875 1.078125 0.921875 3.09375l0 0.609375l-5.734375 0q0.03125 1.25 0.734375 2.015625q0.703125 0.765625 1.78125 0.765625q0.765625 0 1.296875 -0.3125q0.53125 -0.3125 0.921875 -0.828125l0.890625 0.6875q-1.0625 1.640625 -3.1875 1.640625zm-0.1875 -7.578125q-0.875 0 -1.46875 0.640625q-0.59375 0.625 -0.734375 1.78125l4.234375 0l0 -0.109375q-0.0625 -1.109375 -0.59375 -1.703125q-0.53125 -0.609375 -1.4375 -0.609375zm11.078125 -3.078125l0 2.046875l1.578125 0l0 1.109375l-1.578125 0l0 5.25q0 0.5 0.203125 0.765625q0.21875 0.25 0.71875 0.25q0.25 0 0.6875 -0.09375l0 1.171875q-0.5625 0.15625 -1.109375 0.15625q-0.96875 0 -1.46875 -0.578125q-0.484375 -0.59375 -0.484375 -1.671875l0 -5.25l-1.53125 0l0 -1.109375l1.53125 0l0 -2.046875l1.453125 0zm4.7109375 3.0625q0.953125 -1.171875 2.5 -1.171875q2.671875 0 2.703125 3.015625l0 5.59375l-1.453125 0l0 -5.59375q0 -0.921875 -0.421875 -1.359375q-0.40625 -0.4375 -1.265625 -0.4375q-0.703125 0 -1.234375 0.375q-0.53125 0.375 -0.828125 0.984375l0 6.03125l-1.453125 0l0 -12.0l1.453125 0l0 4.5625zm10.875 7.59375q-1.71875 0 -2.796875 -1.125q-1.078125 -1.140625 -1.078125 -3.03125l0 -0.265625q0 -1.25 0.46875 -2.234375q0.484375 -1.0 1.34375 -1.546875q0.875 -0.5625 1.875 -0.5625q1.65625 0 2.5625 1.09375q0.921875 1.078125 0.921875 3.09375l0 0.609375l-5.734375 0q0.03125 1.25 0.734375 2.015625q0.703125 0.765625 1.78125 0.765625q0.765625 0 1.296875 -0.3125q0.53125 -0.3125 0.921875 -0.828125l0.890625 0.6875q-1.0625 1.640625 -3.1875 1.640625zm-0.1875 -7.578125q-0.875 0 -1.46875 0.640625q-0.59375 0.625 -0.734375 1.78125l4.234375 0l0 -0.109375q-0.0625 -1.109375 -0.59375 -1.703125q-0.53125 -0.609375 -1.4375 -0.609375zm14.0312805 5.171875q0 -0.578125 -0.4375 -0.90625q-0.4375 -0.328125 -1.546875 -0.5625q-1.09375 -0.234375 -1.734375 -0.5625q-0.640625 -0.328125 -0.953125 -0.78125q-0.3125 -0.453125 -0.3125 -1.078125q0 -1.03125 0.875 -1.75q0.890625 -0.71875 2.25 -0.71875q1.4375 0 2.328125 0.75q0.90625 0.734375 0.90625 1.890625l-1.453125 0q0 -0.59375 -0.515625 -1.015625q-0.5 -0.4375 -1.265625 -0.4375q-0.78125 0 -1.234375 0.34375q-0.4375 0.34375 -0.4375 0.890625q0 0.53125 0.40625 0.796875q0.421875 0.265625 1.5 0.515625q1.078125 0.234375 1.75 0.578125q0.671875 0.328125 1.0 0.796875q0.328125 0.46875 0.328125 1.15625q0 1.125 -0.90625 1.8125q-0.90625 0.6875 -2.359375 0.6875q-1.015625 0 -1.796875 -0.359375q-0.78125 -0.359375 -1.21875 -1.0q-0.4375 -0.65625 -0.4375 -1.40625l1.4375 0q0.046875 0.734375 0.578125 1.15625q0.546875 0.421875 1.4375 0.421875q0.828125 0 1.3125 -0.328125q0.5 -0.328125 0.5 -0.890625zm8.546875 2.25q-0.125 -0.25 -0.203125 -0.890625q-1.0 1.046875 -2.40625 1.046875q-1.25 0 -2.046875 -0.703125q-0.796875 -0.71875 -0.796875 -1.796875q0 -1.328125 1.0 -2.046875q1.0 -0.734375 2.828125 -0.734375l1.40625 0l0 -0.671875q0 -0.75 -0.453125 -1.203125q-0.453125 -0.453125 -1.34375 -0.453125q-0.765625 0 -1.296875 0.390625q-0.515625 0.390625 -0.515625 0.953125l-1.453125 0q0 -0.640625 0.4375 -1.21875q0.453125 -0.59375 1.21875 -0.9375q0.78125 -0.34375 1.703125 -0.34375q1.453125 0 2.28125 0.734375q0.828125 0.71875 0.859375 2.0l0 3.890625q0 1.171875 0.296875 1.859375l0 0.125l-1.515625 0zm-2.390625 -1.109375q0.671875 0 1.28125 -0.34375q0.609375 -0.359375 0.890625 -0.921875l0 -1.734375l-1.140625 0q-2.65625 0 -2.65625 1.5625q0 0.671875 0.453125 1.0625q0.453125 0.375 1.171875 0.375zm7.234375 -7.34375l0.046875 0.9375q0.921875 -1.09375 2.5 -1.09375q1.78125 0 2.421875 1.359375q0.421875 -0.609375 1.09375 -0.984375q0.671875 -0.375 1.59375 -0.375q2.78125 0 2.828125 2.9375l0 5.671875l-1.4375 0l0 -5.578125q0 -0.90625 -0.421875 -1.359375q-0.40625 -0.453125 -1.390625 -0.453125q-0.796875 0 -1.328125 0.484375q-0.53125 0.484375 -0.625 1.296875l0 5.609375l-1.453125 0l0 -5.546875q0 -1.84375 -1.796875 -1.84375q-1.421875 0 -1.953125 1.21875l0 6.171875l-1.4375 0l0 -8.453125l1.359375 0zm16.179688 8.609375q-1.71875 0 -2.796875 -1.125q-1.078125 -1.140625 -1.078125 -3.03125l0 -0.265625q0 -1.25 0.46875 -2.234375q0.484375 -1.0 1.34375 -1.546875q0.875 -0.5625 1.875 -0.5625q1.65625 0 2.5625 1.09375q0.921875 1.078125 0.921875 3.09375l0 0.609375l-5.734375 0q0.03125 1.25 0.734375 2.015625q0.703125 0.765625 1.78125 0.765625q0.765625 0 1.296875 -0.3125q0.53125 -0.3125 0.921875 -0.828125l0.890625 0.6875q-1.0625 1.640625 -3.1875 1.640625zm-0.1875 -7.578125q-0.875 0 -1.46875 0.640625q-0.59375 0.625 -0.734375 1.78125l4.234375 0l0 -0.109375q-0.0625 -1.109375 -0.59375 -1.703125q-0.53125 -0.609375 -1.4375 -0.609375zm16.25 3.28125q0 1.9375 -0.890625 3.125q-0.875 1.171875 -2.375 1.171875q-1.546875 0 -2.421875 -0.984375l0 4.078125l-1.453125 0l0 -11.703125l1.328125 0l0.0625 0.9375q0.890625 -1.09375 2.453125 -1.09375q1.53125 0 2.40625 1.15625q0.890625 1.140625 0.890625 3.1875l0 0.125zm-1.4375 -0.15625q0 -1.4375 -0.609375 -2.265625q-0.609375 -0.828125 -1.671875 -0.828125q-1.3125 0 -1.96875 1.171875l0 4.03125q0.640625 1.15625 1.984375 1.15625q1.03125 0 1.640625 -0.8125q0.625 -0.828125 0.625 -2.453125zm7.3671875 -2.859375q-0.328125 -0.0625 -0.71875 -0.0625q-1.421875 0 -1.921875 1.21875l0 6.0l-1.453125 0l0 -8.453125l1.40625 0l0.03125 0.96875q0.703125 -1.125 2.015625 -1.125q0.421875 0 0.640625 0.109375l0 1.34375zm2.8984375 7.15625l-1.453125 0l0 -8.453125l1.453125 0l0 8.453125zm-1.5625 -10.703125q0 -0.34375 0.203125 -0.578125q0.21875 -0.25 0.640625 -0.25q0.421875 0 0.640625 0.25q0.21875 0.234375 0.21875 0.59375q0 0.34375 -0.21875 0.578125q-0.21875 0.234375 -0.640625 0.234375q-0.421875 0 -0.640625 -0.234375q-0.203125 -0.234375 -0.203125 -0.59375zm6.6640625 8.734375l2.09375 -6.484375l1.46875 0l-3.03125 8.453125l-1.09375 0l-3.0625 -8.453125l1.46875 0l2.15625 6.484375zm10.0546875 1.96875q-0.125 -0.25 -0.203125 -0.890625q-1.0 1.046875 -2.40625 1.046875q-1.25 0 -2.046875 -0.703125q-0.796875 -0.71875 -0.796875 -1.796875q0 -1.328125 1.0 -2.046875q1.0 -0.734375 2.828125 -0.734375l1.40625 0l0 -0.671875q0 -0.75 -0.453125 -1.203125q-0.453125 -0.453125 -1.34375 -0.453125q-0.765625 0 -1.296875 0.390625q-0.515625 0.390625 -0.515625 0.953125l-1.453125 0q0 -0.640625 0.4375 -1.21875q0.453125 -0.59375 1.21875 -0.9375q0.78125 -0.34375 1.703125 -0.34375q1.453125 0 2.28125 0.734375q0.828125 0.71875 0.859375 2.0l0 3.890625q0 1.171875 0.296875 1.859375l0 0.125l-1.515625 0zm-2.390625 -1.109375q0.671875 0 1.28125 -0.34375q0.609375 -0.359375 0.890625 -0.921875l0 -1.734375l-1.140625 0q-2.65625 0 -2.65625 1.5625q0 0.671875 0.453125 1.0625q0.453125 0.375 1.171875 0.375zm7.84375 -9.390625l0 2.046875l1.578125 0l0 1.109375l-1.578125 0l0 5.25q0 0.5 0.203125 0.765625q0.21875 0.25 0.71875 0.25q0.25 0 0.6875 -0.09375l0 1.171875q-0.5625 0.15625 -1.109375 0.15625q-0.96875 0 -1.46875 -0.578125q-0.484375 -0.59375 -0.484375 -1.671875l0 -5.25l-1.53125 0l0 -1.109375l1.53125 0l0 -2.046875l1.453125 0zm6.7734375 10.65625q-1.71875 0 -2.796875 -1.125q-1.078125 -1.140625 -1.078125 -3.03125l0 -0.265625q0 -1.25 0.46875 -2.234375q0.484375 -1.0 1.34375 -1.546875q0.875 -0.5625 1.875 -0.5625q1.65625 0 2.5625 1.09375q0.921875 1.078125 0.921875 3.09375l0 0.609375l-5.734375 0q0.03125 1.25 0.734375 2.015625q0.703125 0.765625 1.78125 0.765625q0.765625 0 1.296875 -0.3125q0.53125 -0.3125 0.921875 -0.828125l0.890625 0.6875q-1.0625 1.640625 -3.1875 1.640625zm-0.1875 -7.578125q-0.875 0 -1.46875 0.640625q-0.59375 0.625 -0.734375 1.78125l4.234375 0l0 -0.109375q-0.0625 -1.109375 -0.59375 -1.703125q-0.53125 -0.609375 -1.4375 -0.609375zm11.46875 3.5l-0.90625 0.953125l0 2.96875l-1.4375 0l0 -12.0l1.4375 0l0 7.25l0.78125 -0.921875l2.625 -2.78125l1.765625 0l-3.296875 3.53125l3.671875 4.921875l-1.6875 0l-2.953125 -3.921875zm9.109375 4.078125q-1.71875 0 -2.796875 -1.125q-1.078125 -1.140625 -1.078125 -3.03125l0 -0.265625q0 -1.25 0.46875 -2.234375q0.484375 -1.0 1.34375 -1.546875q0.875 -0.5625 1.875 -0.5625q1.65625 0 2.5625 1.09375q0.921875 1.078125 0.921875 3.09375l0 0.609375l-5.734375 0q0.03125 1.25 0.734375 2.015625q0.703125 0.765625 1.78125 0.765625q0.765625 0 1.296875 -0.3125q0.53125 -0.3125 0.921875 -0.828125l0.890625 0.6875q-1.0625 1.640625 -3.1875 1.640625zm-0.1875 -7.578125q-0.875 0 -1.46875 0.640625q-0.59375 0.625 -0.734375 1.78125l4.234375 0l0 -0.109375q-0.0625 -1.109375 -0.59375 -1.703125q-0.53125 -0.609375 -1.4375 -0.609375zm7.8125 5.296875l1.96875 -6.328125l1.546875 0l-3.390625 9.765625q-0.796875 2.109375 -2.515625 2.109375l-0.265625 -0.03125l-0.546875 -0.09375l0 -1.171875l0.390625 0.03125q0.734375 0 1.140625 -0.296875q0.421875 -0.296875 0.6875 -1.09375l0.3125 -0.859375l-3.015625 -8.359375l1.578125 0l2.109375 6.328125z" fill-rule="nonzero"/><path fill="#cfe2f3" d="m354.63046 102.11811l58.771667 0l0 32.69291l-58.771667 0z" fill-rule="evenodd"/><path stroke="#000000" stroke-width="1.0" stroke-linejoin="round" stroke-linecap="butt" d="m354.63046 102.11811l58.771667 0l0 32.69291l-58.771667 0z" fill-rule="evenodd"/><path fill="#000000" fill-opacity="0.0" d="m69.43099 1.2388451l611.68506 0l0 38.771652l-611.68506 0z" fill-rule="evenodd"/><path fill="#000000" d="m188.04305 25.598846l0 -11.375001l3.5 0q1.5 0 2.6875 0.671875q1.1875 0.671875 1.84375 1.921876q0.671875 1.25 0.671875 2.828125l0 0.53125q0 1.578125 -0.65625 2.8125q-0.65625 1.234375 -1.84375 1.921875q-1.1875 0.671875 -2.671875 0.6875l-3.53125 0zm2.34375 -9.484375l0 7.59375l1.140625 0q1.375 0 2.09375 -0.890625q0.734375 -0.90625 0.75 -2.578125l0 -0.59375q0 -1.734375 -0.71875 -2.625q-0.71875 -0.90625 -2.109375 -0.90625l-1.15625 0zm11.8046875 9.640625q-1.859375 0 -3.03125 -1.140625q-1.171875 -1.140625 -1.171875 -3.046875l0 -0.21875q0 -1.265625 0.484375 -2.265625q0.5 -1.015625 1.40625 -1.546875q0.90625 -0.546875 2.0625 -0.546875q1.734375 0 2.71875 1.09375q1.0 1.09375 1.0 3.09375l0 0.921875l-5.375 0q0.109375 0.828125 0.65625 1.328125q0.546875 0.5 1.390625 0.5q1.3125 0 2.046875 -0.9375l1.109375 1.234375q-0.515625 0.71875 -1.390625 1.125q-0.859375 0.40625 -1.90625 0.40625zm-0.265625 -6.9375q-0.671875 0 -1.09375 0.453125q-0.40625 0.453125 -0.53125 1.296875l3.140625 0l0 -0.1875q-0.015625 -0.75 -0.40625 -1.15625q-0.390625 -0.40625 -1.109375 -0.40625zm8.5390625 5.109375q0.625 0 1.015625 -0.34375q0.390625 -0.34375 0.40625 -0.90625l2.109375 0q0 0.859375 -0.46875 1.578125q-0.453125 0.703125 -1.265625 1.109375q-0.796875 0.390625 -1.765625 0.390625q-1.8125 0 -2.859375 -1.15625q-1.046875 -1.15625 -1.046875 -3.1875l0 -0.140625q0 -1.953125 1.03125 -3.109375q1.046875 -1.171875 2.859375 -1.171875q1.59375 0 2.546875 0.90625q0.953125 0.890625 0.96875 2.390625l-2.109375 0q-0.015625 -0.65625 -0.40625 -1.0625q-0.390625 -0.40625 -1.03125 -0.40625q-0.796875 0 -1.203125 0.578125q-0.390625 0.5625 -0.390625 1.859375l0 0.234375q0 1.296875 0.390625 1.875q0.40625 0.5625 1.21875 0.5625zm9.578125 -4.671875q-0.46875 -0.0625 -0.8125 -0.0625q-1.28125 0 -1.6875 0.875l0 5.53125l-2.25 0l0 -8.453125l2.125 0l0.0625 1.0q0.6875 -1.15625 1.890625 -1.15625q0.375 0 0.703125 0.09375l-0.03125 2.171875zm4.3828125 3.140625l1.5625 -5.25l2.421875 0l-3.40625 9.765625l-0.1875 0.453125q-0.75 1.65625 -2.5 1.65625q-0.484375 0 -1.0 -0.15625l0 -1.703125l0.34375 0q0.640625 0 0.953125 -0.203125q0.328125 -0.1875 0.5 -0.640625l0.265625 -0.6875l-2.953125 -8.484375l2.421875 0l1.578125 5.25zm12.484375 -0.953125q0 1.953125 -0.890625 3.140625q-0.890625 1.171875 -2.390625 1.171875q-1.28125 0 -2.078125 -0.890625l0 3.984375l-2.25 0l0 -11.703125l2.09375 0l0.078125 0.828125q0.8125 -0.984375 2.140625 -0.984375q1.5625 0 2.421875 1.15625q0.875 1.15625 0.875 3.1875l0 0.109375zm-2.265625 -0.15625q0 -1.1875 -0.421875 -1.828125q-0.40625 -0.640625 -1.203125 -0.640625q-1.0625 0 -1.46875 0.8125l0 3.46875q0.421875 0.828125 1.484375 0.828125q1.609375 0 1.609375 -2.640625zm6.3671875 -6.218751l0 2.078126l1.4375 0l0 1.65625l-1.4375 0l0 4.21875q0 0.46875 0.171875 0.671875q0.1875 0.203125 0.6875 0.203125q0.375 0 0.671875 -0.0625l0 1.71875q-0.671875 0.203125 -1.375 0.203125q-2.375 0 -2.421875 -2.40625l0 -4.546875l-1.234375 0l0 -1.65625l1.234375 0l0 -2.078126l2.265625 0zm5.078125 10.531251l-2.265625 0l0 -8.453125l2.265625 0l0 8.453125zm-2.390625 -10.640626q0 -0.515625 0.328125 -0.84375q0.34375 -0.328125 0.9375 -0.328125q0.578125 0 0.921875 0.328125q0.34375 0.328125 0.34375 0.84375q0 0.515625 -0.359375 0.84375q-0.34375 0.32812595 -0.921875 0.32812595q-0.5625 0 -0.90625 -0.32812595q-0.34375 -0.328125 -0.34375 -0.84375zm3.8984375 6.328126q0 -1.25 0.484375 -2.234375q0.484375 -0.984375 1.390625 -1.515625q0.921875 -0.546875 2.125 -0.546875q1.703125 0 2.78125 1.046875q1.09375 1.046875 1.21875 2.84375l0.015625 0.578125q0 1.9375 -1.09375 3.125q-1.078125 1.171875 -2.90625 1.171875q-1.828125 0 -2.921875 -1.171875q-1.09375 -1.171875 -1.09375 -3.1875l0 -0.109375zm2.265625 0.171875q0 1.203125 0.453125 1.84375q0.453125 0.625 1.296875 0.625q0.8125 0 1.265625 -0.625q0.46875 -0.625 0.46875 -2.015625q0 -1.171875 -0.46875 -1.8125q-0.453125 -0.65625 -1.28125 -0.65625q-0.828125 0 -1.28125 0.640625q-0.453125 0.640625 -0.453125 2.0zm9.218765 -4.3125l0.0625 0.96875q0.90625 -1.125 2.4375 -1.125q1.34375 0 2.0 0.796875q0.65625 0.78125 0.671875 2.34375l0 5.46875l-2.265625 0l0 -5.40625q0 -0.71875 -0.3125 -1.046875q-0.3125 -0.328125 -1.03125 -0.328125q-0.953125 0 -1.4375 0.8125l0 5.96875l-2.25 0l0 -8.453125l2.125 0zm13.2421875 8.453125l-2.265625 0l0 -8.453125l2.265625 0l0 8.453125zm-2.390625 -10.640626q0 -0.515625 0.328125 -0.84375q0.34375 -0.328125 0.9375 -0.328125q0.578125 0 0.921875 0.328125q0.34375 0.328125 0.34375 0.84375q0 0.515625 -0.359375 0.84375q-0.34375 0.32812595 -0.921875 0.32812595q-0.5625 0 -0.90625 -0.32812595q-0.34375 -0.328125 -0.34375 -0.84375zm8.8359375 8.296876q0 -0.40625 -0.421875 -0.640625q-0.40625 -0.25 -1.3125 -0.4375q-3.015625 -0.625 -3.015625 -2.5625q0 -1.125 0.9375 -1.875q0.9375 -0.75 2.4375 -0.75q1.609375 0 2.578125 0.765625q0.96875 0.75 0.96875 1.953125l-2.265625 0q0 -0.484375 -0.3125 -0.796875q-0.3125 -0.3125 -0.96875 -0.3125q-0.578125 0 -0.890625 0.265625q-0.3125 0.25 -0.3125 0.640625q0 0.375 0.359375 0.609375q0.359375 0.234375 1.203125 0.40625q0.84375 0.15625 1.421875 0.375q1.78125 0.65625 1.78125 2.265625q0 1.15625 -1.0 1.875q-0.984375 0.71875 -2.546875 0.71875q-1.0625 0 -1.890625 -0.375q-0.828125 -0.390625 -1.296875 -1.046875q-0.46875 -0.65625 -0.46875 -1.421875l2.140625 0q0.03125 0.59375 0.4375 0.921875q0.421875 0.3125 1.125 0.3125q0.640625 0 0.96875 -0.234375q0.34375 -0.25 0.34375 -0.65625zm15.2421875 -1.8125q0 1.953125 -0.890625 3.140625q-0.890625 1.171875 -2.390625 1.171875q-1.28125 0 -2.078125 -0.890625l0 3.984375l-2.25 0l0 -11.703125l2.09375 0l0.078125 0.828125q0.8125 -0.984375 2.140625 -0.984375q1.5625 0 2.421875 1.15625q0.875 1.15625 0.875 3.1875l0 0.109375zm-2.265625 -0.15625q0 -1.1875 -0.421875 -1.828125q-0.40625 -0.640625 -1.203125 -0.640625q-1.0625 0 -1.46875 0.8125l0 3.46875q0.421875 0.828125 1.484375 0.828125q1.609375 0 1.609375 -2.640625zm3.3046875 0q0 -1.25 0.484375 -2.234375q0.484375 -0.984375 1.390625 -1.515625q0.921875 -0.546875 2.125 -0.546875q1.703125 0 2.78125 1.046875q1.09375 1.046875 1.21875 2.84375l0.015625 0.578125q0 1.9375 -1.09375 3.125q-1.078125 1.171875 -2.90625 1.171875q-1.828125 0 -2.921875 -1.171875q-1.09375 -1.171875 -1.09375 -3.1875l0 -0.109375zm2.265625 0.171875q0 1.203125 0.453125 1.84375q0.453125 0.625 1.296875 0.625q0.8125 0 1.265625 -0.625q0.46875 -0.625 0.46875 -2.015625q0 -1.171875 -0.46875 -1.8125q-0.453125 -0.65625 -1.28125 -0.65625q-0.828125 0 -1.28125 0.640625q-0.453125 0.640625 -0.453125 2.0zm11.71875 1.796875q0 -0.40625 -0.421875 -0.640625q-0.40625 -0.25 -1.3125 -0.4375q-3.015625 -0.625 -3.015625 -2.5625q0 -1.125 0.9375 -1.875q0.9375 -0.75 2.4375 -0.75q1.609375 0 2.578125 0.765625q0.96875 0.75 0.96875 1.953125l-2.265625 0q0 -0.484375 -0.3125 -0.796875q-0.3125 -0.3125 -0.96875 -0.3125q-0.578125 0 -0.890625 0.265625q-0.3125 0.25 -0.3125 0.640625q0 0.375 0.359375 0.609375q0.359375 0.234375 1.203125 0.40625q0.84375 0.15625 1.421875 0.375q1.78125 0.65625 1.78125 2.265625q0 1.15625 -1.0 1.875q-0.984375 0.71875 -2.546875 0.71875q-1.0625 0 -1.890625 -0.375q-0.828125 -0.390625 -1.296875 -1.046875q-0.46875 -0.65625 -0.46875 -1.421875l2.140625 0q0.03125 0.59375 0.4375 0.921875q0.421875 0.3125 1.125 0.3125q0.640625 0 0.96875 -0.234375q0.34375 -0.25 0.34375 -0.65625zm8.2265625 0q0 -0.40625 -0.421875 -0.640625q-0.40625 -0.25 -1.3125 -0.4375q-3.015625 -0.625 -3.015625 -2.5625q0 -1.125 0.9375 -1.875q0.9375 -0.75 2.4375 -0.75q1.609375 0 2.578125 0.765625q0.96875 0.75 0.96875 1.953125l-2.265625 0q0 -0.484375 -0.3125 -0.796875q-0.3125 -0.3125 -0.96875 -0.3125q-0.578125 0 -0.890625 0.265625q-0.3125 0.25 -0.3125 0.640625q0 0.375 0.359375 0.609375q0.359375 0.234375 1.203125 0.40625q0.84375 0.15625 1.421875 0.375q1.78125 0.65625 1.78125 2.265625q0 1.15625 -1.0 1.875q-0.984375 0.71875 -2.546875 0.71875q-1.0625 0 -1.890625 -0.375q-0.828125 -0.390625 -1.296875 -1.046875q-0.46875 -0.65625 -0.46875 -1.421875l2.140625 0q0.03125 0.59375 0.4375 0.921875q0.421875 0.3125 1.125 0.3125q0.640625 0 0.96875 -0.234375q0.34375 -0.25 0.34375 -0.65625zm6.0234375 2.34375l-2.265625 0l0 -8.453125l2.265625 0l0 8.453125zm-2.390625 -10.640626q0 -0.515625 0.328125 -0.84375q0.34375 -0.328125 0.9375 -0.328125q0.578125 0 0.921875 0.328125q0.34375 0.328125 0.34375 0.84375q0 0.515625 -0.359375 0.84375q-0.34375 0.32812595 -0.921875 0.32812595q-0.5625 0 -0.90625 -0.32812595q-0.34375 -0.328125 -0.34375 -0.84375zm11.8671875 6.484376q0 2.03125 -0.875 3.171875q-0.859375 1.140625 -2.40625 1.140625q-1.375 0 -2.203125 -1.0625l-0.09375 0.90625l-2.03125 0l0 -12.000001l2.25 0l0 4.296876q0.78125 -0.90625 2.0625 -0.90625q1.546875 0 2.421875 1.140625q0.875 1.125 0.875 3.1875l0 0.125zm-2.25 -0.15625q0 -1.28125 -0.40625 -1.875q-0.40625 -0.59375 -1.21875 -0.59375q-1.078125 0 -1.484375 0.890625l0 3.328125q0.421875 0.890625 1.5 0.890625q1.09375 0 1.4375 -1.078125q0.171875 -0.515625 0.171875 -1.5625zm6.0234375 4.3125l-2.265625 0l0 -12.000001l2.265625 0l0 12.000001zm5.7578125 0.15625q-1.859375 0 -3.03125 -1.140625q-1.171875 -1.140625 -1.171875 -3.046875l0 -0.21875q0 -1.265625 0.484375 -2.265625q0.5 -1.015625 1.40625 -1.546875q0.90625 -0.546875 2.0625 -0.546875q1.734375 0 2.71875 1.09375q1.0 1.09375 1.0 3.09375l0 0.921875l-5.375 0q0.109375 0.828125 0.65625 1.328125q0.546875 0.5 1.390625 0.5q1.3125 0 2.046875 -0.9375l1.109375 1.234375q-0.515625 0.71875 -1.390625 1.125q-0.859375 0.40625 -1.90625 0.40625zm-0.265625 -6.9375q-0.671875 0 -1.09375 0.453125q-0.40625 0.453125 -0.53125 1.296875l3.140625 0l0 -0.1875q-0.015625 -0.75 -0.40625 -1.15625q-0.390625 -0.40625 -1.109375 -0.40625zm16.617188 2.625q0 2.03125 -0.875 3.171875q-0.859375 1.140625 -2.40625 1.140625q-1.375 0 -2.203125 -1.0625l-0.09375 0.90625l-2.03125 0l0 -12.000001l2.25 0l0 4.296876q0.78125 -0.90625 2.0625 -0.90625q1.546875 0 2.421875 1.140625q0.875 1.125 0.875 3.1875l0 0.125zm-2.25 -0.15625q0 -1.28125 -0.40625 -1.875q-0.40625 -0.59375 -1.21875 -0.59375q-1.078125 0 -1.484375 0.890625l0 3.328125q0.421875 0.890625 1.5 0.890625q1.09375 0 1.4375 -1.078125q0.171875 -0.515625 0.171875 -1.5625zm6.71875 1.109375l1.5625 -5.25l2.421875 0l-3.40625 9.765625l-0.1875 0.453125q-0.75 1.65625 -2.5 1.65625q-0.484375 0 -1.0 -0.15625l0 -1.703125l0.34375 0q0.640625 0 0.953125 -0.203125q0.328125 -0.1875 0.5 -0.640625l0.265625 -0.6875l-2.953125 -8.484375l2.421875 0l1.578125 5.25zm13.921875 2.34375q-0.84375 1.015625 -2.3125 1.015625q-1.359375 0 -2.078125 -0.78125q-0.71875 -0.78125 -0.734375 -2.296875l0 -5.53125l2.265625 0l0 5.453125q0 1.328125 1.203125 1.328125q1.140625 0 1.578125 -0.796875l0 -5.984375l2.265625 0l0 8.453125l-2.125 0l-0.0625 -0.859375zm8.46875 -1.484375q0 -0.40625 -0.421875 -0.640625q-0.40625 -0.25 -1.3125 -0.4375q-3.015625 -0.625 -3.015625 -2.5625q0 -1.125 0.9375 -1.875q0.9375 -0.75 2.4375 -0.75q1.609375 0 2.578125 0.765625q0.96875 0.75 0.96875 1.953125l-2.265625 0q0 -0.484375 -0.3125 -0.796875q-0.3125 -0.3125 -0.96875 -0.3125q-0.578125 0 -0.890625 0.265625q-0.3125 0.25 -0.3125 0.640625q0 0.375 0.359375 0.609375q0.359375 0.234375 1.203125 0.40625q0.84375 0.15625 1.421875 0.375q1.78125 0.65625 1.78125 2.265625q0 1.15625 -1.0 1.875q-0.984375 0.71875 -2.546875 0.71875q-1.0625 0 -1.890625 -0.375q-0.828125 -0.390625 -1.296875 -1.046875q-0.46875 -0.65625 -0.46875 -1.421875l2.140625 0q0.03125 0.59375 0.4375 0.921875q0.421875 0.3125 1.125 0.3125q0.640625 0 0.96875 -0.234375q0.34375 -0.25 0.34375 -0.65625zm6.0234375 2.34375l-2.265625 0l0 -8.453125l2.265625 0l0 8.453125zm-2.390625 -10.640626q0 -0.515625 0.328125 -0.84375q0.34375 -0.328125 0.9375 -0.328125q0.578125 0 0.921875 0.328125q0.34375 0.328125 0.34375 0.84375q0 0.515625 -0.359375 0.84375q-0.34375 0.32812595 -0.921875 0.32812595q-0.5625 0 -0.90625 -0.32812595q-0.34375 -0.328125 -0.34375 -0.84375zm6.3359375 2.187501l0.0625 0.96875q0.90625 -1.125 2.4375 -1.125q1.34375 0 2.0 0.796875q0.65625 0.78125 0.671875 2.34375l0 5.46875l-2.265625 0l0 -5.40625q0 -0.71875 -0.3125 -1.046875q-0.3125 -0.328125 -1.03125 -0.328125q-0.953125 0 -1.4375 0.8125l0 5.96875l-2.25 0l0 -8.453125l2.125 0zm6.5546875 4.15625q0 -1.9375 0.921875 -3.125q0.921875 -1.1875 2.5 -1.1875q1.390625 0 2.15625 0.953125l0.09375 -0.796875l2.046875 0l0 8.171875q0 1.109375 -0.5 1.921875q-0.5 0.828125 -1.421875 1.25q-0.90625 0.4375 -2.140625 0.4375q-0.921875 0 -1.8125 -0.375q-0.875 -0.359375 -1.328125 -0.953125l1.0 -1.375q0.84375 0.953125 2.046875 0.953125q0.890625 0 1.390625 -0.484375q0.5 -0.484375 0.5 -1.375l0 -0.453125q-0.78125 0.890625 -2.046875 0.890625q-1.53125 0 -2.46875 -1.1875q-0.9375 -1.203125 -0.9375 -3.171875l0 -0.09375zm2.25 0.171875q0 1.140625 0.453125 1.796875q0.46875 0.65625 1.28125 0.65625q1.03125 0 1.46875 -0.78125l0 -3.546875q-0.453125 -0.78125 -1.453125 -0.78125q-0.8125 0 -1.28125 0.671875q-0.46875 0.65625 -0.46875 1.984375zm13.8984375 -6.406251l0 2.078126l1.4375 0l0 1.65625l-1.4375 0l0 4.21875q0 0.46875 0.171875 0.671875q0.1875 0.203125 0.6875 0.203125q0.375 0 0.671875 -0.0625l0 1.71875q-0.671875 0.203125 -1.375 0.203125q-2.375 0 -2.421875 -2.40625l0 -4.546875l-1.234375 0l0 -1.65625l1.234375 0l0 -2.078126l2.265625 0zm4.90625 3.000001q0.890625 -1.078125 2.25 -1.078125q2.75 0 2.796875 3.1875l0 5.421875l-2.265625 0l0 -5.359375q0 -0.71875 -0.3125 -1.0625q-0.3125 -0.359375 -1.03125 -0.359375q-1.0 0 -1.4375 0.765625l0 6.015625l-2.265625 0l0 -12.000001l2.265625 0l0 4.468751zm10.640625 7.6875q-1.859375 0 -3.03125 -1.140625q-1.171875 -1.140625 -1.171875 -3.046875l0 -0.21875q0 -1.265625 0.484375 -2.265625q0.5 -1.015625 1.40625 -1.546875q0.90625 -0.546875 2.0625 -0.546875q1.734375 0 2.71875 1.09375q1.0 1.09375 1.0 3.09375l0 0.921875l-5.375 0q0.109375 0.828125 0.65625 1.328125q0.546875 0.5 1.390625 0.5q1.3125 0 2.046875 -0.9375l1.109375 1.234375q-0.515625 0.71875 -1.390625 1.125q-0.859375 0.40625 -1.90625 0.40625zm-0.265625 -6.9375q-0.671875 0 -1.09375 0.453125q-0.40625 0.453125 -0.53125 1.296875l3.140625 0l0 -0.1875q-0.015625 -0.75 -0.40625 -1.15625q-0.390625 -0.40625 -1.109375 -0.40625zm13.5859375 4.4375q0 -0.40625 -0.421875 -0.640625q-0.40625 -0.25 -1.3125 -0.4375q-3.015625 -0.625 -3.015625 -2.5625q0 -1.125 0.9375 -1.875q0.9375 -0.75 2.4375 -0.75q1.609375 0 2.578125 0.765625q0.96875 0.75 0.96875 1.953125l-2.265625 0q0 -0.484375 -0.3125 -0.796875q-0.3125 -0.3125 -0.96875 -0.3125q-0.578125 0 -0.890625 0.265625q-0.3125 0.25 -0.3125 0.640625q0 0.375 0.359375 0.609375q0.359375 0.234375 1.203125 0.40625q0.84375 0.15625 1.421875 0.375q1.78125 0.65625 1.78125 2.265625q0 1.15625 -1.0 1.875q-0.984375 0.71875 -2.546875 0.71875q-1.0625 0 -1.890625 -0.375q-0.828125 -0.390625 -1.296875 -1.046875q-0.46875 -0.65625 -0.46875 -1.421875l2.140625 0q0.03125 0.59375 0.4375 0.921875q0.421875 0.3125 1.125 0.3125q0.640625 0 0.96875 -0.234375q0.34375 -0.25 0.34375 -0.65625zm8.5390625 2.34375q-0.15625 -0.3125 -0.21875 -0.765625q-0.828125 0.921875 -2.140625 0.921875q-1.234375 0 -2.0625 -0.71875q-0.8125 -0.71875 -0.8125 -1.8125q0 -1.34375 1.0 -2.0625q1.0 -0.71875 2.875 -0.734375l1.046875 0l0 -0.484375q0 -0.578125 -0.3125 -0.921875q-0.296875 -0.359375 -0.9375 -0.359375q-0.578125 0 -0.90625 0.28125q-0.3125 0.265625 -0.3125 0.734375l-2.265625 0q0 -0.734375 0.453125 -1.359375q0.453125 -0.625 1.28125 -0.96875q0.828125 -0.359375 1.859375 -0.359375q1.5625 0 2.484375 0.78125q0.921875 0.78125 0.921875 2.203125l0 3.671875q0 1.203125 0.328125 1.8125l0 0.140625l-2.28125 0zm-1.859375 -1.578125q0.5 0 0.921875 -0.21875q0.421875 -0.21875 0.625 -0.59375l0 -1.453125l-0.84375 0q-1.703125 0 -1.8125 1.171875l0 0.125q0 0.421875 0.296875 0.703125q0.296875 0.265625 0.8125 0.265625zm7.65625 -6.875l0.078125 0.9375q0.890625 -1.09375 2.421875 -1.09375q1.640625 0 2.25 1.28125q0.890625 -1.28125 2.53125 -1.28125q1.375 0 2.046875 0.796875q0.671875 0.796875 0.671875 2.40625l0 5.40625l-2.265625 0l0 -5.390625q0 -0.71875 -0.28125 -1.046875q-0.28125 -0.34375 -0.984375 -0.34375q-1.015625 0 -1.40625 0.96875l0 5.8125l-2.25 0l0 -5.390625q0 -0.734375 -0.296875 -1.0625q-0.28125 -0.328125 -0.984375 -0.328125q-0.953125 0 -1.390625 0.796875l0 5.984375l-2.25 0l0 -8.453125l2.109375 0zm15.6328125 8.609375q-1.859375 0 -3.03125 -1.140625q-1.171875 -1.140625 -1.171875 -3.046875l0 -0.21875q0 -1.265625 0.484375 -2.265625q0.5 -1.015625 1.40625 -1.546875q0.90625 -0.546875 2.0625 -0.546875q1.734375 0 2.71875 1.09375q1.0 1.09375 1.0 3.09375l0 0.921875l-5.375 0q0.109375 0.828125 0.65625 1.328125q0.546875 0.5 1.390625 0.5q1.3125 0 2.046875 -0.9375l1.109375 1.234375q-0.515625 0.71875 -1.390625 1.125q-0.859375 0.40625 -1.90625 0.40625zm-0.265625 -6.9375q-0.671875 0 -1.09375 0.453125q-0.40625 0.453125 -0.53125 1.296875l3.140625 0l0 -0.1875q-0.015625 -0.75 -0.40625 -1.15625q-0.390625 -0.40625 -1.109375 -0.40625zm16.617188 2.625q0 1.953125 -0.890625 3.140625q-0.890625 1.171875 -2.390625 1.171875q-1.28125 0 -2.078125 -0.890625l0 3.984375l-2.25 0l0 -11.703125l2.09375 0l0.078125 0.828125q0.8125 -0.984375 2.140625 -0.984375q1.5625 0 2.421875 1.15625q0.875 1.15625 0.875 3.1875l0 0.109375zm-2.265625 -0.15625q0 -1.1875 -0.421875 -1.828125q-0.40625 -0.640625 -1.203125 -0.640625q-1.0625 0 -1.46875 0.8125l0 3.46875q0.421875 0.828125 1.484375 0.828125q1.609375 0 1.609375 -2.640625zm8.4140625 -2.03125q-0.46875 -0.0625 -0.8125 -0.0625q-1.28125 0 -1.6875 0.875l0 5.53125l-2.25 0l0 -8.453125l2.125 0l0.0625 1.0q0.6875 -1.15625 1.890625 -1.15625q0.375 0 0.703125 0.09375l-0.03125 2.171875zm3.4609375 6.34375l-2.265625 0l0 -8.453125l2.265625 0l0 8.453125zm-2.390625 -10.640626q0 -0.515625 0.328125 -0.84375q0.34375 -0.328125 0.9375 -0.328125q0.578125 0 0.921875 0.328125q0.34375 0.328125 0.34375 0.84375q0 0.515625 -0.359375 0.84375q-0.34375 0.32812595 -0.921875 0.32812595q-0.5625 0 -0.90625 -0.32812595q-0.34375 -0.328125 -0.34375 -0.84375zm7.4140625 7.875001l1.578125 -5.6875l2.359375 0l-2.859375 8.453125l-2.15625 0l-2.84375 -8.453125l2.359375 0l1.5625 5.6875zm9.7030945 2.765625q-0.15625 -0.3125 -0.21875 -0.765625q-0.828125 0.921875 -2.140625 0.921875q-1.234375 0 -2.0625 -0.71875q-0.8125 -0.71875 -0.8125 -1.8125q0 -1.34375 1.0 -2.0625q1.0 -0.71875 2.875 -0.734375l1.046875 0l0 -0.484375q0 -0.578125 -0.3125 -0.921875q-0.296875 -0.359375 -0.9375 -0.359375q-0.578125 0 -0.90625 0.28125q-0.3125 0.265625 -0.3125 0.734375l-2.265625 0q0 -0.734375 0.453125 -1.359375q0.453125 -0.625 1.28125 -0.96875q0.828125 -0.359375 1.859375 -0.359375q1.5625 0 2.484375 0.78125q0.921875 0.78125 0.921875 2.203125l0 3.671875q0 1.203125 0.328125 1.8125l0 0.140625l-2.28125 0zm-1.859375 -1.578125q0.5 0 0.921875 -0.21875q0.421875 -0.21875 0.625 -0.59375l0 -1.453125l-0.84375 0q-1.703125 0 -1.8125 1.171875l0 0.125q0 0.421875 0.296875 0.703125q0.296875 0.265625 0.8125 0.265625zm8.25 -8.953126l0 2.078126l1.4375 0l0 1.65625l-1.4375 0l0 4.21875q0 0.46875 0.171875 0.671875q0.1875 0.203125 0.6875 0.203125q0.375 0 0.671875 -0.0625l0 1.71875q-0.671875 0.203125 -1.375 0.203125q-2.375 0 -2.421875 -2.40625l0 -4.546875l-1.234375 0l0 -1.65625l1.234375 0l0 -2.078126l2.265625 0zm6.59375 10.687501q-1.859375 0 -3.03125 -1.140625q-1.171875 -1.140625 -1.171875 -3.046875l0 -0.21875q0 -1.265625 0.484375 -2.265625q0.5 -1.015625 1.40625 -1.546875q0.90625 -0.546875 2.0625 -0.546875q1.734375 0 2.71875 1.09375q1.0 1.09375 1.0 3.09375l0 0.921875l-5.375 0q0.109375 0.828125 0.65625 1.328125q0.546875 0.5 1.390625 0.5q1.3125 0 2.046875 -0.9375l1.109375 1.234375q-0.515625 0.71875 -1.390625 1.125q-0.859375 0.40625 -1.90625 0.40625zm-0.265625 -6.9375q-0.671875 0 -1.09375 0.453125q-0.40625 0.453125 -0.53125 1.296875l3.140625 0l0 -0.1875q-0.015625 -0.75 -0.40625 -1.15625q-0.390625 -0.40625 -1.109375 -0.40625zm12.0703125 3.390625l-0.8125 0.8125l0 2.578125l-2.25 0l0 -12.000001l2.25 0l0 6.640626l0.4375 -0.5625l2.171875 -2.53125l2.703125 0l-3.046875 3.515625l3.3125 4.9375l-2.59375 0l-2.171875 -3.390625zm9.21875 3.546875q-1.859375 0 -3.03125 -1.140625q-1.171875 -1.140625 -1.171875 -3.046875l0 -0.21875q0 -1.265625 0.484375 -2.265625q0.5 -1.015625 1.40625 -1.546875q0.90625 -0.546875 2.0625 -0.546875q1.734375 0 2.71875 1.09375q1.0 1.09375 1.0 3.09375l0 0.921875l-5.375 0q0.109375 0.828125 0.65625 1.328125q0.546875 0.5 1.390625 0.5q1.3125 0 2.046875 -0.9375l1.109375 1.234375q-0.515625 0.71875 -1.390625 1.125q-0.859375 0.40625 -1.90625 0.40625zm-0.265625 -6.9375q-0.671875 0 -1.09375 0.453125q-0.40625 0.453125 -0.53125 1.296875l3.140625 0l0 -0.1875q-0.015625 -0.75 -0.40625 -1.15625q-0.390625 -0.40625 -1.109375 -0.40625zm8.078125 3.578125l1.5625 -5.25l2.421875 0l-3.40625 9.765625l-0.1875 0.453125q-0.75 1.65625 -2.5 1.65625q-0.484375 0 -1.0 -0.15625l0 -1.703125l0.34375 0q0.640625 0 0.953125 -0.203125q0.328125 -0.1875 0.5 -0.640625l0.265625 -0.6875l-2.953125 -8.484375l2.421875 0l1.578125 5.25z" fill-rule="nonzero"/><path fill="#000000" fill-opacity="0.0" d="m389.1882 117.05346l0 0c0 -4.2187805 3.4200134 -7.638771 7.638794 -7.638771l0 0c2.0259094 0 3.968872 0.8047943 5.401428 2.2373428c1.4325256 1.4325485 2.2373352 3.375496 2.2373352 5.401428l0 0c0 4.218773 -3.4200134 7.638771 -7.6387634 7.638771l0 0c-4.2187805 0 -7.638794 -3.4199982 -7.638794 -7.638771z" fill-rule="evenodd"/><path stroke="#000000" stroke-width="3.0" stroke-linejoin="round" stroke-linecap="butt" d="m389.1882 117.05346l0 0c0 -4.2187805 3.4200134 -7.638771 7.638794 -7.638771l0 0c2.0259094 0 3.968872 0.8047943 5.401428 2.2373428c1.4325256 1.4325485 2.2373352 3.375496 2.2373352 5.401428l0 0c0 4.218773 -3.4200134 7.638771 -7.6387634 7.638771l0 0c-4.2187805 0 -7.638794 -3.4199982 -7.638794 -7.638771z" fill-rule="evenodd"/><path fill="#000000" fill-opacity="0.0" d="m389.1882 117.05346l-24.725708 0" fill-rule="evenodd"/><path stroke="#000000" stroke-width="3.0" stroke-linejoin="round" stroke-linecap="butt" d="m389.1882 117.05346l-24.725708 0" fill-rule="evenodd"/><path fill="#000000" fill-opacity="0.0" d="m365.27914 116.451485l0 7.7368164" fill-rule="evenodd"/><path stroke="#000000" stroke-width="3.0" stroke-linejoin="round" stroke-linecap="butt" d="m365.27914 116.451485l0 7.7368164" fill-rule="evenodd"/><path fill="#000000" fill-opacity="0.0" d="m374.72195 116.451485l0 7.7368164" fill-rule="evenodd"/><path stroke="#000000" stroke-width="3.0" stroke-linejoin="round" stroke-linecap="butt" d="m374.72195 116.451485l0 7.7368164" fill-rule="evenodd"/><path fill="#999999" d="m354.6295 90.03976l0 0c0 -0.8723221 0.70718384 -1.579483 1.5794983 -1.579483l7.8369446 0c0.41888428 0 0.8206482 0.16640472 1.1168518 0.46261597c0.2962036 0.29621124 0.46261597 0.6979599 0.46261597 1.1168671l0 6.3177643c0 0.8723221 -0.7071533 1.579483 -1.5794678 1.579483l-7.8369446 0c-0.87231445 0 -1.5794983 -0.70716095 -1.5794983 -1.579483z" fill-rule="evenodd"/><path stroke="#000000" stroke-width="1.0" stroke-linejoin="round" stroke-linecap="butt" d="m354.6295 90.03976l0 0c0 -0.8723221 0.70718384 -1.579483 1.5794983 -1.579483l7.8369446 0c0.41888428 0 0.8206482 0.16640472 1.1168518 0.46261597c0.2962036 0.29621124 0.46261597 0.6979599 0.46261597 1.1168671l0 6.3177643c0 0.8723221 -0.7071533 1.579483 -1.5794678 1.579483l-7.8369446 0c-0.87231445 0 -1.5794983 -0.70716095 -1.5794983 -1.579483z" fill-rule="evenodd"/><path fill="#000000" fill-opacity="0.0" d="m360.17615 84.30817l0 0c0.86395264 0 1.6925049 0.42531586 2.3034058 1.1823807c0.6109009 0.7570648 0.9541321 1.7838669 0.9541321 2.854515l-3.2575378 0z" fill-rule="evenodd"/><path fill="#000000" fill-opacity="0.0" d="m360.17615 84.30817l0 0c0.86395264 0 1.6925049 0.42531586 2.3034058 1.1823807c0.6109009 0.7570648 0.9541321 1.7838669 0.9541321 2.854515" fill-rule="evenodd"/><path stroke="#000000" stroke-width="3.0" stroke-linejoin="round" stroke-linecap="butt" d="m360.17615 84.30817l0 0c0.86395264 0 1.6925049 0.42531586 2.3034058 1.1823807c0.6109009 0.7570648 0.9541321 1.7838669 0.9541321 2.854515" fill-rule="evenodd"/><path fill="#000000" fill-opacity="0.0" d="m360.17154 84.30817l0 0c-0.86395264 0 -1.6925049 0.42531586 -2.3034058 1.1823807c-0.6109009 0.7570648 -0.9541321 1.7838669 -0.9541321 2.854515l3.2575378 0z" fill-rule="evenodd"/><path fill="#000000" fill-opacity="0.0" d="m360.17154 84.30817l0 0c-0.86395264 0 -1.6925049 0.42531586 -2.3034058 1.1823807c-0.6109009 0.7570648 -0.9541321 1.7838669 -0.9541321 2.854515" fill-rule="evenodd"/><path stroke="#000000" stroke-width="3.0" stroke-linejoin="round" stroke-linecap="butt" d="m360.17154 84.30817l0 0c-0.86395264 0 -1.6925049 0.42531586 -2.3034058 1.1823807c-0.6109009 0.7570648 -0.9541321 1.7838669 -0.9541321 2.854515" fill-rule="evenodd"/><path fill="#000000" fill-opacity="0.0" d="m382.6987 134.81102l0 34.267715" fill-rule="evenodd"/><path stroke="#000000" stroke-width="1.0" stroke-linejoin="round" stroke-linecap="butt" d="m382.6987 134.81102l0 28.267715" fill-rule="evenodd"/><path fill="#000000" stroke="#000000" stroke-width="1.0" stroke-linecap="butt" d="m381.04697 163.07874l1.6517334 4.538101l1.6517334 -4.538101z" fill-rule="evenodd"/></g></svg>