<svg version="1.1" viewBox="0.0 0.0 546.3674540682415 442.98425196850394" fill="none" stroke="none" stroke-linecap="square" stroke-miterlimit="10" xmlns:xlink="http://www.w3.org/1999/xlink" xmlns="http://www.w3.org/2000/svg"><clipPath id="p.0"><path d="m0 0l546.36743 0l0 442.98425l-546.36743 0l0 -442.98425z" clip-rule="nonzero"/></clipPath><g clip-path="url(#p.0)"><path fill="#000000" fill-opacity="0.0" d="m0 0l546.36743 0l0 442.98425l-546.36743 0z" fill-rule="evenodd"/><path fill="#f3f3f3" d="m38.1916 97.29369l479.81104 0l0 205.76376l-479.81104 0z" fill-rule="evenodd"/><path stroke="#434343" stroke-width="1.0" stroke-linejoin="round" stroke-linecap="butt" d="m38.1916 97.29369l479.81104 0l0 205.76376l-479.81104 0z" fill-rule="evenodd"/><path fill="#d9d9d9" d="m181.54855 137.21135l106.26773 0l0 146.17323l-106.26773 0z" fill-rule="evenodd"/><path stroke="#434343" stroke-width="1.0" stroke-linejoin="round" stroke-linecap="butt" d="m181.54855 137.21135l106.26773 0l0 146.17323l-106.26773 0z" fill-rule="evenodd"/><path fill="#434343" d="m204.87457 203.65921l-4.375 0l-0.96875 2.71875l-1.421875 0l3.96875 -10.421875l1.203125 0l4.0 10.421875l-1.421875 0l-0.984375 -2.71875zm-3.953125 -1.125l3.546875 0l-1.78125 -4.875l-1.765625 4.875zm14.092163 0.0625q0 1.765625 -0.8125 2.84375q-0.8125 1.078125 -2.1875 1.078125q-1.40625 0 -2.21875 -0.890625l0 3.734375l-1.328125 0l0 -10.734375l1.21875 0l0.0625 0.859375q0.796875 -1.0 2.234375 -1.0q1.40625 0 2.21875 1.0625q0.8125 1.046875 0.8125 2.921875l0 0.125zm-1.328125 -0.15625q0 -1.3125 -0.5625 -2.0625q-0.546875 -0.765625 -1.53125 -0.765625q-1.203125 0 -1.796875 1.0625l0 3.703125q0.59375 1.0625 1.8125 1.0625q0.953125 0 1.515625 -0.75q0.5625 -0.765625 0.5625 -2.25zm9.5507965 0.15625q0 1.765625 -0.8125 2.84375q-0.8125 1.078125 -2.1875 1.078125q-1.40625 0 -2.21875 -0.890625l0 3.734375l-1.328125 0l0 -10.734375l1.21875 0l0.0625 0.859375q0.796875 -1.0 2.234375 -1.0q1.40625 0 2.21875 1.0625q0.8125 1.046875 0.8125 2.921875l0 0.125zm-1.328125 -0.15625q0 -1.3125 -0.5625 -2.0625q-0.546875 -0.765625 -1.53125 -0.765625q-1.203125 0 -1.796875 1.0625l0 3.703125q0.59375 1.0625 1.8125 1.0625q0.953125 0 1.515625 -0.75q0.5625 -0.765625 0.5625 -2.25zm4.4414215 3.9375l-1.328125 0l0 -11.0l1.328125 0l0 11.0zm3.556717 0l-1.328125 0l0 -7.75l1.328125 0l0 7.75zm-1.421875 -9.796875q0 -0.328125 0.1875 -0.546875q0.203125 -0.21875 0.578125 -0.21875q0.390625 0 0.59375 0.21875q0.203125 0.21875 0.203125 0.546875q0 0.328125 -0.203125 0.546875q-0.203125 0.203125 -0.59375 0.203125q-0.375 0 -0.578125 -0.203125q-0.1875 -0.21875 -0.1875 -0.546875zm6.650467 8.859375q0.703125 0 1.234375 -0.421875q0.53125 -0.4375 0.59375 -1.078125l1.25 0q-0.03125 0.65625 -0.453125 1.265625q-0.421875 0.59375 -1.140625 0.953125q-0.703125 0.359375 -1.484375 0.359375q-1.578125 0 -2.515625 -1.046875q-0.9375 -1.0625 -0.9375 -2.890625l0 -0.21875q0 -1.140625 0.40625 -2.015625q0.421875 -0.875 1.203125 -1.359375q0.78125 -0.5 1.828125 -0.5q1.3125 0 2.171875 0.78125q0.859375 0.78125 0.921875 2.03125l-1.25 0q-0.0625 -0.75 -0.578125 -1.234375q-0.5 -0.484375 -1.265625 -0.484375q-1.0 0 -1.5625 0.734375q-0.546875 0.71875 -0.546875 2.09375l0 0.25q0 1.328125 0.546875 2.0625q0.546875 0.71875 1.578125 0.71875zm9.343506 0.9375q-0.109375 -0.234375 -0.1875 -0.8125q-0.921875 0.953125 -2.203125 0.953125q-1.140625 0 -1.875 -0.640625q-0.734375 -0.65625 -0.734375 -1.640625q0 -1.21875 0.921875 -1.875q0.921875 -0.671875 2.578125 -0.671875l1.296875 0l0 -0.609375q0 -0.703125 -0.421875 -1.109375q-0.40625 -0.40625 -1.21875 -0.40625q-0.703125 0 -1.1875 0.359375q-0.484375 0.34375 -0.484375 0.859375l-1.328125 0q0 -0.578125 0.40625 -1.109375q0.421875 -0.546875 1.125 -0.859375q0.703125 -0.328125 1.546875 -0.328125q1.34375 0 2.09375 0.671875q0.765625 0.671875 0.796875 1.84375l0 3.5625q0 1.0625 0.265625 1.703125l0 0.109375l-1.390625 0zm-2.203125 -1.015625q0.625 0 1.1875 -0.3125q0.5625 -0.328125 0.8125 -0.84375l0 -1.578125l-1.046875 0q-2.421875 0 -2.421875 1.421875q0 0.625 0.40625 0.96875q0.421875 0.34375 1.0625 0.34375zm7.1909485 -8.609375l0 1.875l1.453125 0l0 1.03125l-1.453125 0l0 4.796875q0 0.46875 0.1875 0.703125q0.203125 0.234375 0.671875 0.234375q0.21875 0 0.625 -0.09375l0 1.078125q-0.53125 0.140625 -1.015625 0.140625q-0.890625 0 -1.34375 -0.53125q-0.453125 -0.546875 -0.453125 -1.53125l0 -4.796875l-1.40625 0l0 -1.03125l1.40625 0l0 -1.875l1.328125 0zm4.428238 9.625l-1.328125 0l0 -7.75l1.328125 0l0 7.75zm-1.421875 -9.796875q0 -0.328125 0.1875 -0.546875q0.203125 -0.21875 0.578125 -0.21875q0.390625 0 0.59375 0.21875q0.203125 0.21875 0.203125 0.546875q0 0.328125 -0.203125 0.546875q-0.203125 0.203125 -0.59375 0.203125q-0.375 0 -0.578125 -0.203125q-0.1875 -0.21875 -0.1875 -0.546875zm3.197342 5.859375q0 -1.140625 0.4375 -2.046875q0.453125 -0.921875 1.25 -1.40625q0.796875 -0.5 1.828125 -0.5q1.578125 0 2.546875 1.09375q0.984375 1.09375 0.984375 2.921875l0 0.09375q0 1.125 -0.4375 2.03125q-0.4375 0.890625 -1.25 1.390625q-0.796875 0.5 -1.84375 0.5q-1.5625 0 -2.546875 -1.09375q-0.96875 -1.09375 -0.96875 -2.890625l0 -0.09375zm1.328125 0.15625q0 1.28125 0.59375 2.0625q0.59375 0.78125 1.59375 0.78125q1.015625 0 1.609375 -0.78125q0.59375 -0.796875 0.59375 -2.21875q0 -1.28125 -0.609375 -2.0625q-0.59375 -0.796875 -1.59375 -0.796875q-0.984375 0 -1.59375 0.78125q-0.59375 0.78125 -0.59375 2.234375zm8.624268 -3.96875l0.046875 0.984375q0.890625 -1.125 2.3125 -1.125q2.46875 0 2.484375 2.78125l0 5.109375l-1.328125 0l0 -5.125q0 -0.84375 -0.375 -1.234375q-0.375 -0.40625 -1.171875 -0.40625q-0.640625 0 -1.140625 0.34375q-0.484375 0.34375 -0.75 0.90625l0 5.515625l-1.328125 0l0 -7.75l1.25 0z" fill-rule="nonzero"/><path fill="#434343" d="m207.80042 224.37796l0 -10.421875l3.40625 0q1.703125 0 2.546875 0.703125q0.859375 0.703125 0.859375 2.078125q0 0.734375 -0.421875 1.296875q-0.40625 0.546875 -1.125 0.859375q0.859375 0.234375 1.34375 0.90625q0.484375 0.65625 0.484375 1.578125q0 1.390625 -0.90625 2.203125q-0.90625 0.796875 -2.5625 0.796875l-3.625 0zm1.375 -4.875l0 3.75l2.28125 0q0.953125 0 1.5 -0.5q0.5625 -0.5 0.5625 -1.359375q0 -1.890625 -2.046875 -1.890625l-2.296875 0zm0 -1.09375l2.078125 0q0.90625 0 1.4375 -0.453125q0.546875 -0.453125 0.546875 -1.234375q0 -0.859375 -0.5 -1.234375q-0.5 -0.390625 -1.53125 -0.390625l-2.03125 0l0 3.3125zm12.327499 5.96875q-0.109375 -0.234375 -0.1875 -0.8125q-0.921875 0.953125 -2.203125 0.953125q-1.140625 0 -1.875 -0.640625q-0.734375 -0.65625 -0.734375 -1.640625q0 -1.21875 0.921875 -1.875q0.921875 -0.671875 2.578125 -0.671875l1.296875 0l0 -0.609375q0 -0.703125 -0.421875 -1.109375q-0.40625 -0.40625 -1.21875 -0.40625q-0.703125 0 -1.1875 0.359375q-0.484375 0.34375 -0.484375 0.859375l-1.328125 0q0 -0.578125 0.40625 -1.109375q0.421875 -0.546875 1.125 -0.859375q0.703125 -0.328125 1.546875 -0.328125q1.34375 0 2.09375 0.671875q0.765625 0.671875 0.796875 1.84375l0 3.5625q0 1.0625 0.265625 1.703125l0 0.109375l-1.390625 0zm-2.203125 -1.015625q0.625 0 1.1875 -0.3125q0.5625 -0.328125 0.8125 -0.84375l0 -1.578125l-1.046875 0q-2.421875 0 -2.421875 1.421875q0 0.625 0.40625 0.96875q0.421875 0.34375 1.0625 0.34375zm8.5034485 0.078125q0.703125 0 1.234375 -0.421875q0.53125 -0.4375 0.59375 -1.078125l1.25 0q-0.03125 0.65625 -0.453125 1.265625q-0.421875 0.59375 -1.140625 0.953125q-0.703125 0.359375 -1.484375 0.359375q-1.578125 0 -2.515625 -1.046875q-0.9375 -1.0625 -0.9375 -2.890625l0 -0.21875q0 -1.140625 0.40625 -2.015625q0.421875 -0.875 1.203125 -1.359375q0.78125 -0.5 1.828125 -0.5q1.3125 0 2.171875 0.78125q0.859375 0.78125 0.921875 2.03125l-1.25 0q-0.0625 -0.75 -0.578125 -1.234375q-0.5 -0.484375 -1.265625 -0.484375q-1.0 0 -1.5625 0.734375q-0.546875 0.71875 -0.546875 2.09375l0 0.25q0 1.328125 0.546875 2.0625q0.546875 0.71875 1.578125 0.71875zm6.718506 -2.640625l-0.828125 0.859375l0 2.71875l-1.3125 0l0 -11.0l1.3125 0l0 6.65625l0.71875 -0.859375l2.40625 -2.546875l1.609375 0l-3.015625 3.234375l3.359375 4.515625l-1.546875 0l-2.703125 -3.578125zm8.34758 3.71875q-1.578125 0 -2.5625 -1.03125q-0.984375 -1.03125 -0.984375 -2.765625l0 -0.25q0 -1.140625 0.4375 -2.046875q0.4375 -0.90625 1.21875 -1.421875q0.796875 -0.515625 1.71875 -0.515625q1.515625 0 2.34375 1.0q0.84375 1.0 0.84375 2.84375l0 0.546875l-5.25 0q0.03125 1.15625 0.671875 1.859375q0.640625 0.703125 1.625 0.703125q0.703125 0 1.1875 -0.28125q0.5 -0.296875 0.859375 -0.765625l0.8125 0.625q-0.984375 1.5 -2.921875 1.5zm-0.171875 -6.9375q-0.796875 0 -1.34375 0.59375q-0.546875 0.578125 -0.671875 1.625l3.875 0l0 -0.109375q-0.046875 -1.0 -0.546875 -1.546875q-0.484375 -0.5625 -1.3125 -0.5625zm5.9677887 -0.953125l0.046875 0.984375q0.890625 -1.125 2.3125 -1.125q2.46875 0 2.484375 2.78125l0 5.109375l-1.328125 0l0 -5.125q0 -0.84375 -0.375 -1.234375q-0.375 -0.40625 -1.171875 -0.40625q-0.640625 0 -1.140625 0.34375q-0.484375 0.34375 -0.75 0.90625l0 5.515625l-1.328125 0l0 -7.75l1.25 0zm6.5242004 3.8125q0 -1.78125 0.84373474 -2.859375q0.84375 -1.09375 2.203125 -1.09375q1.359375 0 2.15625 0.9375l0 -4.046875l1.328125 0l0 11.0l-1.21875 0l-0.0625 -0.828125q-0.796875 0.96875 -2.21875 0.96875q-1.34375 0 -2.1875 -1.09375q-0.84373474 -1.109375 -0.84373474 -2.875l0 -0.109375zm1.3124847 0.15625q0 1.3125 0.546875 2.0625q0.546875 0.734375 1.5 0.734375q1.265625 0 1.84375 -1.125l0 -3.5625q-0.59375 -1.09375 -1.828125 -1.09375q-0.96875 0 -1.515625 0.75q-0.546875 0.75 -0.546875 2.234375z" fill-rule="nonzero"/><path fill="#c9daf8" d="m51.293964 201.4917l98.29921 0l0 18.48819l-98.29921 0z" fill-rule="evenodd"/><path stroke="#1155cc" stroke-width="1.0" stroke-linejoin="round" stroke-linecap="butt" d="m51.293964 201.4917l98.29921 0l0 18.48819l-98.29921 0z" fill-rule="evenodd"/><path fill="#000000" d="m87.99435 212.14641q0 1.46875 -0.671875 2.359375q-0.65625 0.875 -1.796875 0.875q-0.953125 0 -1.546875 -0.671875l0 2.984375l-1.6875 0l0 -8.78125l1.5625 0l0.0625 0.625q0.609375 -0.734375 1.609375 -0.734375q1.171875 0 1.8125 0.875q0.65625 0.859375 0.65625 2.375l0 0.09375zm-1.6875 -0.125q0 -0.890625 -0.328125 -1.359375q-0.3125 -0.484375 -0.90625 -0.484375q-0.796875 0 -1.09375 0.609375l0 2.59375q0.3125 0.625 1.109375 0.625q1.21875 0 1.21875 -1.984375zm5.6464844 3.359375q-1.390625 0 -2.265625 -0.859375q-0.875 -0.859375 -0.875 -2.28125l0 -0.171875q0 -0.953125 0.359375 -1.703125q0.375 -0.75 1.046875 -1.15625q0.6875 -0.40625 1.546875 -0.40625q1.3125 0 2.046875 0.828125q0.75 0.8125 0.75 2.3125l0 0.6875l-4.03125 0q0.078125 0.625 0.484375 1.0q0.421875 0.375 1.0625 0.375q0.96875 0 1.515625 -0.703125l0.84375 0.921875q-0.390625 0.546875 -1.046875 0.859375q-0.640625 0.296875 -1.4375 0.296875zm-0.1875 -5.21875q-0.5 0 -0.8125 0.34375q-0.3125 0.34375 -0.40625 0.96875l2.359375 0l0 -0.125q-0.015625 -0.5625 -0.3125 -0.875q-0.28125 -0.3125 -0.828125 -0.3125zm9.470703 1.984375q0 1.46875 -0.671875 2.359375q-0.65625 0.875 -1.796875 0.875q-0.953125 0 -1.546875 -0.671875l0 2.984375l-1.6875 0l0 -8.78125l1.5625 0l0.0625 0.625q0.609375 -0.734375 1.609375 -0.734375q1.171875 0 1.8125 0.875q0.65625 0.859375 0.65625 2.375l0 0.09375zm-1.6875 -0.125q0 -0.890625 -0.328125 -1.359375q-0.3125 -0.484375 -0.90625 -0.484375q-0.796875 0 -1.09375 0.609375l0 2.59375q0.3125 0.625 1.109375 0.625q1.21875 0 1.21875 -1.984375zm8.443359 0.125q0 1.46875 -0.671875 2.359375q-0.65625 0.875 -1.796875 0.875q-0.953125 0 -1.546875 -0.671875l0 2.984375l-1.6875 0l0 -8.78125l1.5625 0l0.0625 0.625q0.609375 -0.734375 1.609375 -0.734375q1.171875 0 1.8125 0.875q0.65625 0.859375 0.65625 2.375l0 0.09375zm-1.6875 -0.125q0 -0.890625 -0.328125 -1.359375q-0.3125 -0.484375 -0.90625 -0.484375q-0.796875 0 -1.09375 0.609375l0 2.59375q0.3125 0.625 1.109375 0.625q1.21875 0 1.21875 -1.984375zm5.6464844 3.359375q-1.390625 0 -2.265625 -0.859375q-0.875 -0.859375 -0.875 -2.28125l0 -0.171875q0 -0.953125 0.359375 -1.703125q0.375 -0.75 1.046875 -1.15625q0.6875 -0.40625 1.546875 -0.40625q1.3125 0 2.046875 0.828125q0.75 0.8125 0.75 2.3125l0 0.6875l-4.03125 0q0.078125 0.625 0.484375 1.0q0.421875 0.375 1.0625 0.375q0.96875 0 1.515625 -0.703125l0.84375 0.921875q-0.390625 0.546875 -1.046875 0.859375q-0.640625 0.296875 -1.4375 0.296875zm-0.1875 -5.21875q-0.5 0 -0.8125 0.34375q-0.3125 0.34375 -0.40625 0.96875l2.359375 0l0 -0.125q-0.015625 -0.5625 -0.3125 -0.875q-0.28125 -0.3125 -0.828125 -0.3125zm7.330078 0.34375q-0.34375 -0.046875 -0.609375 -0.046875q-0.96875 0 -1.265625 0.640625l0 4.15625l-1.6875 0l0 -6.34375l1.59375 0l0.046875 0.765625q0.515625 -0.875 1.40625 -0.875q0.28125 0 0.53125 0.078125l-0.015625 1.625z" fill-rule="nonzero"/><path fill="#fce5cd" d="m319.77167 155.52335l0 0c0 10.091156 39.398926 18.271652 88.0 18.271652c48.601044 0 88.0 -8.180496 88.0 -18.271652l0 109.62991c0 10.091156 -39.398956 18.271667 -88.0 18.271667c-48.601074 0 -88.0 -8.180511 -88.0 -18.271667z" fill-rule="evenodd"/><path fill="#fdefe1" d="m319.77167 155.52335l0 0c0 -10.091156 39.398926 -18.271652 88.0 -18.271652c48.601044 0 88.0 8.180496 88.0 18.271652l0 0c0 10.091156 -39.398956 18.271652 -88.0 18.271652c-48.601074 0 -88.0 -8.180496 -88.0 -18.271652z" fill-rule="evenodd"/><path fill="#000000" fill-opacity="0.0" d="m495.77167 155.52335l0 0c0 10.091156 -39.398956 18.271652 -88.0 18.271652c-48.601074 0 -88.0 -8.180496 -88.0 -18.271652l0 0c0 -10.091156 39.398926 -18.271652 88.0 -18.271652c48.601044 0 88.0 8.180496 88.0 18.271652l0 109.62991c0 10.091156 -39.398956 18.271667 -88.0 18.271667c-48.601074 0 -88.0 -8.180511 -88.0 -18.271667l0 -109.62991" fill-rule="evenodd"/><path stroke="#b45f06" stroke-width="1.0" stroke-linejoin="round" stroke-linecap="butt" d="m495.77167 155.52335l0 0c0 10.091156 -39.398956 18.271652 -88.0 18.271652c-48.601074 0 -88.0 -8.180496 -88.0 -18.271652l0 0c0 -10.091156 39.398926 -18.271652 88.0 -18.271652c48.601044 0 88.0 8.180496 88.0 18.271652l0 109.62991c0 10.091156 -39.398956 18.271667 -88.0 18.271667c-48.601074 0 -88.0 -8.180511 -88.0 -18.271667l0 -109.62991" fill-rule="evenodd"/><path fill="#b45f06" d="m378.04495 196.875l0 -10.421875l2.953125 0q1.359375 0 2.390625 0.609375q1.046875 0.59375 1.609375 1.703125q0.578125 1.109375 0.59375 2.546875l0 0.671875q0 1.46875 -0.578125 2.578125q-0.5625 1.109375 -1.625 1.703125q-1.046875 0.59375 -2.453125 0.609375l-2.890625 0zm1.375 -9.28125l0 8.15625l1.453125 0q1.59375 0 2.46875 -0.984375q0.890625 -0.984375 0.890625 -2.8125l0 -0.609375q0 -1.78125 -0.84375 -2.765625q-0.828125 -0.984375 -2.359375 -0.984375l-1.609375 0zm12.814117 9.28125q-0.109375 -0.234375 -0.1875 -0.8125q-0.921875 0.953125 -2.203125 0.953125q-1.140625 0 -1.875 -0.640625q-0.734375 -0.65625 -0.734375 -1.640625q0 -1.21875 0.921875 -1.875q0.921875 -0.671875 2.578125 -0.671875l1.296875 0l0 -0.609375q0 -0.703125 -0.421875 -1.109375q-0.40625 -0.40625 -1.21875 -0.40625q-0.703125 0 -1.1875 0.359375q-0.484375 0.34375 -0.484375 0.859375l-1.328125 0q0 -0.578125 0.40625 -1.109375q0.421875 -0.546875 1.125 -0.859375q0.703125 -0.328125 1.546875 -0.328125q1.34375 0 2.09375 0.671875q0.765625 0.671875 0.796875 1.84375l0 3.5625q0 1.0625 0.265625 1.703125l0 0.109375l-1.390625 0zm-2.203125 -1.015625q0.625 0 1.1875 -0.3125q0.5625 -0.328125 0.8125 -0.84375l0 -1.578125l-1.046875 0q-2.421875 0 -2.421875 1.421875q0 0.625 0.40625 0.96875q0.421875 0.34375 1.0625 0.34375zm7.1909485 -8.609375l0 1.875l1.453125 0l0 1.03125l-1.453125 0l0 4.796875q0 0.46875 0.1875 0.703125q0.203125 0.234375 0.671875 0.234375q0.21875 0 0.625 -0.09375l0 1.078125q-0.53125 0.140625 -1.015625 0.140625q-0.890625 0 -1.34375 -0.53125q-0.453125 -0.546875 -0.453125 -1.53125l0 -4.796875l-1.40625 0l0 -1.03125l1.40625 0l0 -1.875l1.328125 0zm7.772003 9.625q-0.109375 -0.234375 -0.1875 -0.8125q-0.921875 0.953125 -2.203125 0.953125q-1.140625 0 -1.875 -0.640625q-0.734375 -0.65625 -0.734375 -1.640625q0 -1.21875 0.921875 -1.875q0.921875 -0.671875 2.578125 -0.671875l1.296875 0l0 -0.609375q0 -0.703125 -0.421875 -1.109375q-0.40625 -0.40625 -1.21875 -0.40625q-0.703125 0 -1.1875 0.359375q-0.484375 0.34375 -0.484375 0.859375l-1.328125 0q0 -0.578125 0.40625 -1.109375q0.421875 -0.546875 1.125 -0.859375q0.703125 -0.328125 1.546875 -0.328125q1.34375 0 2.09375 0.671875q0.765625 0.671875 0.796875 1.84375l0 3.5625q0 1.0625 0.265625 1.703125l0 0.109375l-1.390625 0zm-2.203125 -1.015625q0.625 0 1.1875 -0.3125q0.5625 -0.328125 0.8125 -0.84375l0 -1.578125l-1.046875 0q-2.421875 0 -2.421875 1.421875q0 0.625 0.40625 0.96875q0.421875 0.34375 1.0625 0.34375zm11.9565735 -2.765625q0 1.765625 -0.828125 2.84375q-0.8125 1.078125 -2.1875 1.078125q-1.46875 0 -2.265625 -1.03125l-0.0625 0.890625l-1.21875 0l0 -11.0l1.328125 0l0 4.109375q0.796875 -1.0 2.203125 -1.0q1.421875 0 2.21875 1.078125q0.8125 1.0625 0.8125 2.90625l0 0.125zm-1.328125 -0.15625q0 -1.34375 -0.53125 -2.078125q-0.515625 -0.75 -1.5 -0.75q-1.3125 0 -1.875 1.21875l0 3.34375q0.609375 1.21875 1.890625 1.21875q0.953125 0 1.484375 -0.734375q0.53125 -0.734375 0.53125 -2.21875zm7.7695312 3.9375q-0.109375 -0.234375 -0.1875 -0.8125q-0.921875 0.953125 -2.203125 0.953125q-1.140625 0 -1.875 -0.640625q-0.734375 -0.65625 -0.734375 -1.640625q0 -1.21875 0.921875 -1.875q0.921875 -0.671875 2.578125 -0.671875l1.296875 0l0 -0.609375q0 -0.703125 -0.421875 -1.109375q-0.40625 -0.40625 -1.21875 -0.40625q-0.703125 0 -1.1875 0.359375q-0.484375 0.34375 -0.484375 0.859375l-1.328125 0q0 -0.578125 0.40625 -1.109375q0.421875 -0.546875 1.125 -0.859375q0.703125 -0.328125 1.546875 -0.328125q1.34375 0 2.09375 0.671875q0.765625 0.671875 0.796875 1.84375l0 3.5625q0 1.0625 0.265625 1.703125l0 0.109375l-1.390625 0zm-2.203125 -1.015625q0.625 0 1.1875 -0.3125q0.5625 -0.328125 0.8125 -0.84375l0 -1.578125l-1.046875 0q-2.421875 0 -2.421875 1.421875q0 0.625 0.40625 0.96875q0.421875 0.34375 1.0625 0.34375zm9.9096985 -1.03125q0 -0.546875 -0.40625 -0.84375q-0.40625 -0.296875 -1.421875 -0.5q-1.0 -0.21875 -1.59375 -0.515625q-0.578125 -0.3125 -0.875 -0.71875q-0.28125 -0.421875 -0.28125 -1.0q0 -0.9375 0.8125 -1.59375q0.8125 -0.671875 2.0625 -0.671875q1.3125 0 2.125 0.6875q0.828125 0.671875 0.828125 1.734375l-1.328125 0q0 -0.546875 -0.46875 -0.9375q-0.453125 -0.390625 -1.15625 -0.390625q-0.734375 0 -1.140625 0.3125q-0.40625 0.3125 -0.40625 0.828125q0 0.46875 0.375 0.71875q0.390625 0.25 1.375 0.46875q1.0 0.21875 1.609375 0.53125q0.609375 0.296875 0.90625 0.734375q0.296875 0.4375 0.296875 1.0625q0 1.03125 -0.828125 1.65625q-0.828125 0.625 -2.15625 0.625q-0.921875 0 -1.640625 -0.328125q-0.71875 -0.328125 -1.125 -0.921875q-0.390625 -0.59375 -0.390625 -1.28125l1.3125 0q0.046875 0.671875 0.53125 1.0625q0.5 0.390625 1.3125 0.390625q0.75 0 1.203125 -0.296875q0.46875 -0.3125 0.46875 -0.8125zm6.260254 2.1875q-1.578125 0 -2.5625 -1.03125q-0.984375 -1.03125 -0.984375 -2.765625l0 -0.25q0 -1.140625 0.4375 -2.046875q0.4375 -0.90625 1.21875 -1.421875q0.796875 -0.515625 1.71875 -0.515625q1.515625 0 2.34375 1.0q0.84375 1.0 0.84375 2.84375l0 0.546875l-5.25 0q0.03125 1.15625 0.671875 1.859375q0.640625 0.703125 1.625 0.703125q0.703125 0 1.1875 -0.28125q0.5 -0.296875 0.859375 -0.765625l0.8125 0.625q-0.984375 1.5 -2.921875 1.5zm-0.171875 -6.9375q-0.796875 0 -1.34375 0.59375q-0.546875 0.578125 -0.671875 1.625l3.875 0l0 -0.109375q-0.046875 -1.0 -0.546875 -1.546875q-0.484375 -0.5625 -1.3125 -0.5625z" fill-rule="nonzero"/><path fill="#000000" fill-opacity="0.0" d="m287.81628 210.29796l31.968506 0.03149414" fill-rule="evenodd"/><path stroke="#000000" stroke-width="1.0" stroke-linejoin="round" stroke-linecap="butt" d="m291.24335 210.30135l25.11435 0.024734497" fill-rule="evenodd"/><path fill="#000000" stroke="#000000" stroke-width="1.0" stroke-linecap="butt" d="m291.24335 210.30135l1.1257019 -1.1234894l-3.0908813 1.1215515l3.0886536 1.1276245z" fill-rule="evenodd"/><path fill="#000000" stroke="#000000" stroke-width="1.0" stroke-linecap="butt" d="m316.3577 210.32608l-1.1257019 1.1234741l3.0908813 -1.1215363l-3.0886536 -1.1276245z" fill-rule="evenodd"/><path fill="#000000" fill-opacity="0.0" d="m149.59317 210.7358l31.968506 -0.4409485" fill-rule="evenodd"/><path stroke="#000000" stroke-width="1.0" stroke-linejoin="round" stroke-linecap="butt" d="m149.59317 210.7358l28.541748 -0.39369202" fill-rule="evenodd"/><path fill="#000000" stroke="#000000" stroke-width="1.0" stroke-linecap="butt" d="m178.13492 210.34212l-1.108963 1.1399841l3.0739594 -1.167099l-3.1049805 -1.0818634z" fill-rule="evenodd"/><path fill="#000000" fill-opacity="0.0" d="m280.2034 321.9642l-45.511795 -38.582672" fill-rule="evenodd"/><path stroke="#000000" stroke-width="1.0" stroke-linejoin="round" stroke-linecap="butt" d="m277.5893 319.7481l-40.283554 -34.15045" fill-rule="evenodd"/><path fill="#000000" stroke="#000000" stroke-width="1.0" stroke-linecap="butt" d="m277.5893 319.74808l-1.5850525 0.13061523l3.0840454 1.1401978l-1.6296082 -2.855835z" fill-rule="evenodd"/><path fill="#000000" stroke="#000000" stroke-width="1.0" stroke-linecap="butt" d="m237.30573 285.5977l1.5850372 -0.13061523l-3.0840454 -1.1401978l1.6296234 2.855835z" fill-rule="evenodd"/><path fill="#cccccc" d="m248.40158 321.9642l63.60367 0l0 35.566925l-63.60367 0z" fill-rule="evenodd"/><path stroke="#434343" stroke-width="1.0" stroke-linejoin="round" stroke-linecap="butt" d="m248.40158 321.9642l63.60367 0l0 35.566925l-63.60367 0z" fill-rule="evenodd"/><path fill="#000000" d="m263.92606 335.9433l-2.375 0l-0.53125 1.484375l-0.78125 0l2.171875 -5.6875l0.65625 0l2.171875 5.6875l-0.765625 0l-0.546875 -1.484375zm-2.15625 -0.625l1.9375 0l-0.96875 -2.65625l-0.96875 2.65625zm7.703125 0.046875q0 0.953125 -0.453125 1.546875q-0.4375 0.59375 -1.1875 0.59375q-0.765625 0 -1.21875 -0.484375l0 2.03125l-0.71875 0l0 -5.859375l0.65625 0l0.046875 0.46875q0.4375 -0.546875 1.21875 -0.546875q0.765625 0 1.203125 0.578125q0.453125 0.578125 0.453125 1.59375l0 0.078125zm-0.734375 -0.09375q0 -0.703125 -0.3125 -1.109375q-0.296875 -0.421875 -0.828125 -0.421875q-0.65625 0 -0.984375 0.578125l0 2.015625q0.328125 0.578125 1.0 0.578125q0.515625 0 0.8125 -0.40625q0.3125 -0.421875 0.3125 -1.234375zm5.2226562 0.09375q0 0.953125 -0.453125 1.546875q-0.4375 0.59375 -1.1875 0.59375q-0.765625 0 -1.21875 -0.484375l0 2.03125l-0.71875 0l0 -5.859375l0.65625 0l0.046875 0.46875q0.4375 -0.546875 1.21875 -0.546875q0.765625 0 1.203125 0.578125q0.453125 0.578125 0.453125 1.59375l0 0.078125zm-0.734375 -0.09375q0 -0.703125 -0.3125 -1.109375q-0.296875 -0.421875 -0.828125 -0.421875q-0.65625 0 -0.984375 0.578125l0 2.015625q0.328125 0.578125 1.0 0.578125q0.515625 0 0.8125 -0.40625q0.3125 -0.421875 0.3125 -1.234375zm2.4257812 2.15625l-0.71875 0l0 -6.0l0.71875 0l0 6.0zm1.9414062 0l-0.71875 0l0 -4.234375l0.71875 0l0 4.234375zm-0.78125 -5.34375q0 -0.1875 0.109375 -0.296875q0.109375 -0.125 0.3125 -0.125q0.21875 0 0.328125 0.125q0.109375 0.109375 0.109375 0.296875q0 0.171875 -0.109375 0.296875q-0.109375 0.109375 -0.328125 0.109375q-0.203125 0 -0.3125 -0.109375q-0.109375 -0.125 -0.109375 -0.296875zm3.6445312 4.828125q0.375 0 0.65625 -0.234375q0.296875 -0.234375 0.328125 -0.578125l0.6875 0q-0.015625 0.359375 -0.25 0.6875q-0.234375 0.328125 -0.625 0.53125q-0.375 0.1875 -0.796875 0.1875q-0.875 0 -1.390625 -0.578125q-0.5 -0.578125 -0.5 -1.578125l0 -0.125q0 -0.609375 0.21875 -1.09375q0.234375 -0.484375 0.65625 -0.75q0.421875 -0.265625 1.0 -0.265625q0.71875 0 1.1875 0.4375q0.46875 0.421875 0.5 1.09375l-0.6875 0q-0.03125 -0.40625 -0.3125 -0.671875q-0.265625 -0.265625 -0.6875 -0.265625q-0.546875 0 -0.859375 0.40625q-0.296875 0.390625 -0.296875 1.140625l0 0.140625q0 0.734375 0.296875 1.125q0.3125 0.390625 0.875 0.390625zm5.09375 0.515625q-0.0625 -0.125 -0.09375 -0.453125q-0.515625 0.53125 -1.203125 0.53125q-0.625 0 -1.03125 -0.34375q-0.40625 -0.359375 -0.40625 -0.90625q0 -0.65625 0.5 -1.015625q0.515625 -0.375 1.421875 -0.375l0.703125 0l0 -0.328125q0 -0.390625 -0.234375 -0.609375q-0.21875 -0.21875 -0.65625 -0.21875q-0.390625 0 -0.65625 0.203125q-0.265625 0.1875 -0.265625 0.453125l-0.71875 0q0 -0.3125 0.21875 -0.609375q0.234375 -0.296875 0.609375 -0.46875q0.390625 -0.171875 0.84375 -0.171875q0.734375 0 1.140625 0.375q0.421875 0.359375 0.4375 1.0l0 1.953125q0 0.578125 0.15625 0.921875l0 0.0625l-0.765625 0zm-1.203125 -0.546875q0.34375 0 0.640625 -0.171875q0.3125 -0.1875 0.453125 -0.46875l0 -0.859375l-0.5625 0q-1.328125 0 -1.328125 0.765625q0 0.34375 0.21875 0.546875q0.234375 0.1875 0.578125 0.1875zm3.9296875 -4.703125l0 1.015625l0.78125 0l0 0.5625l-0.78125 0l0 2.625q0 0.25 0.09375 0.375q0.109375 0.125 0.375 0.125q0.125 0 0.34375 -0.046875l0 0.59375q-0.296875 0.078125 -0.5625 0.078125q-0.484375 0 -0.734375 -0.296875q-0.234375 -0.296875 -0.234375 -0.828125l0 -2.625l-0.78125 0l0 -0.5625l0.78125 0l0 -1.015625l0.71875 0zm2.4101562 5.25l-0.71875 0l0 -4.234375l0.71875 0l0 4.234375zm-0.78125 -5.34375q0 -0.1875 0.109375 -0.296875q0.109375 -0.125 0.3125 -0.125q0.21875 0 0.328125 0.125q0.109375 0.109375 0.109375 0.296875q0 0.171875 -0.109375 0.296875q-0.109375 0.109375 -0.328125 0.109375q-0.203125 0 -0.3125 -0.109375q-0.109375 -0.125 -0.109375 -0.296875zm1.7539062 3.1875q0 -0.625 0.234375 -1.109375q0.25 -0.5 0.6875 -0.765625q0.4375 -0.28125 1.0 -0.28125q0.859375 0 1.390625 0.609375q0.53125 0.59375 0.53125 1.578125l0 0.0625q0 0.609375 -0.234375 1.109375q-0.234375 0.484375 -0.671875 0.765625q-0.4375 0.265625 -1.015625 0.265625q-0.859375 0 -1.390625 -0.59375q-0.53125 -0.609375 -0.53125 -1.59375l0 -0.046875zm0.71875 0.09375q0 0.703125 0.328125 1.125q0.328125 0.421875 0.875 0.421875q0.546875 0 0.875 -0.421875q0.328125 -0.4375 0.328125 -1.21875q0 -0.6875 -0.328125 -1.125q-0.328125 -0.4375 -0.875 -0.4375q-0.546875 0 -0.875 0.4375q-0.328125 0.421875 -0.328125 1.21875zm4.71875 -2.171875l0.015625 0.53125q0.484375 -0.609375 1.265625 -0.609375q1.34375 0 1.359375 1.515625l0 2.796875l-0.71875 0l0 -2.796875q-0.015625 -0.453125 -0.21875 -0.671875q-0.203125 -0.21875 -0.640625 -0.21875q-0.34375 0 -0.609375 0.1875q-0.265625 0.1875 -0.421875 0.484375l0 3.015625l-0.71875 0l0 -4.234375l0.6875 0z" fill-rule="nonzero"/><path fill="#000000" d="m268.1487 344.91205l-2.390625 0l0 2.515625l-0.75 0l0 -5.6875l3.53125 0l0 0.609375l-2.78125 0l0 1.953125l2.390625 0l0 0.609375zm3.1171875 -1.0625q-0.171875 -0.03125 -0.359375 -0.03125q-0.703125 0 -0.96875 0.609375l0 3.0l-0.71875 0l0 -4.234375l0.703125 0l0.015625 0.5q0.359375 -0.578125 1.0 -0.578125q0.21875 0 0.328125 0.0625l0 0.671875zm0.39453125 1.421875q0 -0.625 0.234375 -1.109375q0.25 -0.5 0.6875 -0.765625q0.4375 -0.28125 1.0 -0.28125q0.859375 0 1.390625 0.609375q0.53125 0.59375 0.53125 1.578125l0 0.0625q0 0.609375 -0.234375 1.109375q-0.234375 0.484375 -0.671875 0.765625q-0.4375 0.265625 -1.015625 0.265625q-0.859375 0 -1.390625 -0.59375q-0.53125 -0.609375 -0.53125 -1.59375l0 -0.046875zm0.71875 0.09375q0 0.703125 0.328125 1.125q0.328125 0.421875 0.875 0.421875q0.546875 0 0.875 -0.421875q0.328125 -0.4375 0.328125 -1.21875q0 -0.6875 -0.328125 -1.125q-0.328125 -0.4375 -0.875 -0.4375q-0.546875 0 -0.875 0.4375q-0.328125 0.421875 -0.328125 1.21875zm4.71875 -2.171875l0.015625 0.53125q0.484375 -0.609375 1.265625 -0.609375q1.34375 0 1.359375 1.515625l0 2.796875l-0.71875 0l0 -2.796875q-0.015625 -0.453125 -0.21875 -0.671875q-0.203125 -0.21875 -0.640625 -0.21875q-0.34375 0 -0.609375 0.1875q-0.265625 0.1875 -0.421875 0.484375l0 3.015625l-0.71875 0l0 -4.234375l0.6875 0zm4.7109375 -1.015625l0 1.015625l0.78125 0l0 0.5625l-0.78125 0l0 2.625q0 0.25 0.09375 0.375q0.109375 0.125 0.375 0.125q0.125 0 0.34375 -0.046875l0 0.59375q-0.296875 0.078125 -0.5625 0.078125q-0.484375 0 -0.734375 -0.296875q-0.234375 -0.296875 -0.234375 -0.828125l0 -2.625l-0.78125 0l0 -0.5625l0.78125 0l0 -1.015625l0.71875 0zm3.3789062 5.328125q-0.859375 0 -1.40625 -0.5625q-0.53125 -0.5625 -0.53125 -1.515625l0 -0.125q0 -0.640625 0.234375 -1.125q0.25 -0.5 0.671875 -0.78125q0.4375 -0.28125 0.953125 -0.28125q0.8125 0 1.265625 0.546875q0.46875 0.546875 0.46875 1.5625l0 0.296875l-2.859375 0q0.015625 0.625 0.359375 1.015625q0.34375 0.375 0.890625 0.375q0.375 0 0.640625 -0.15625q0.265625 -0.15625 0.46875 -0.40625l0.4375 0.34375q-0.53125 0.8125 -1.59375 0.8125zm-0.078125 -3.796875q-0.4375 0 -0.734375 0.328125q-0.296875 0.3125 -0.375 0.890625l2.125 0l0 -0.0625q-0.03125 -0.546875 -0.296875 -0.84375q-0.265625 -0.3125 -0.71875 -0.3125zm3.2539062 -0.515625l0.015625 0.53125q0.484375 -0.609375 1.265625 -0.609375q1.34375 0 1.359375 1.515625l0 2.796875l-0.71875 0l0 -2.796875q-0.015625 -0.453125 -0.21875 -0.671875q-0.203125 -0.21875 -0.640625 -0.21875q-0.34375 0 -0.609375 0.1875q-0.265625 0.1875 -0.421875 0.484375l0 3.015625l-0.71875 0l0 -4.234375l0.6875 0zm3.5546875 2.078125q0 -0.96875 0.453125 -1.5625q0.46875 -0.59375 1.21875 -0.59375q0.734375 0 1.171875 0.515625l0 -2.203125l0.71875 0l0 6.0l-0.65625 0l-0.046875 -0.453125q-0.421875 0.53125 -1.203125 0.53125q-0.734375 0 -1.203125 -0.59375q-0.453125 -0.609375 -0.453125 -1.578125l0 -0.0625zm0.71875 0.09375q0 0.71875 0.296875 1.125q0.296875 0.40625 0.828125 0.40625q0.6875 0 1.0 -0.625l0 -1.9375q-0.328125 -0.59375 -1.0 -0.59375q-0.53125 0 -0.828125 0.40625q-0.296875 0.40625 -0.296875 1.21875z" fill-rule="nonzero"/><path fill="#f3f3f3" d="m271.4641 369.47784l0 0c0 -3.5249634 2.857544 -6.3825073 6.3825073 -6.3825073l0 0c1.692749 0 3.316162 0.6724243 4.5131226 1.8693848c1.1969299 1.1969604 1.8693848 2.8203735 1.8693848 4.5131226l0 0c0 3.5249634 -2.857544 6.3825073 -6.3825073 6.3825073l0 0c-3.5249634 0 -6.3825073 -2.857544 -6.3825073 -6.3825073z" fill-rule="evenodd"/><path stroke="#434343" stroke-width="2.0" stroke-linejoin="round" stroke-linecap="butt" d="m271.4641 369.47784l0 0c0 -3.5249634 2.857544 -6.3825073 6.3825073 -6.3825073l0 0c1.692749 0 3.316162 0.6724243 4.5131226 1.8693848c1.1969299 1.1969604 1.8693848 2.8203735 1.8693848 4.5131226l0 0c0 3.5249634 -2.857544 6.3825073 -6.3825073 6.3825073l0 0c-3.5249634 0 -6.3825073 -2.857544 -6.3825073 -6.3825073z" fill-rule="evenodd"/><path fill="#000000" fill-opacity="0.0" d="m277.84662 375.86035l0 14.450256" fill-rule="evenodd"/><path stroke="#434343" stroke-width="2.0" stroke-linejoin="round" stroke-linecap="butt" d="m277.84662 375.86035l0 14.450256" fill-rule="evenodd"/><path fill="#000000" fill-opacity="0.0" d="m277.84662 389.26675l7.70932 9.394562" fill-rule="evenodd"/><path stroke="#434343" stroke-width="2.0" stroke-linejoin="round" stroke-linecap="butt" d="m277.84662 389.26675l7.70932 9.394562" fill-rule="evenodd"/><path fill="#000000" fill-opacity="0.0" d="m277.83823 388.92722l-6.3762207 9.7341" fill-rule="evenodd"/><path stroke="#434343" stroke-width="2.0" stroke-linejoin="round" stroke-linecap="butt" d="m277.83823 388.92722l-6.3762207 9.7341" fill-rule="evenodd"/><path fill="#000000" fill-opacity="0.0" d="m284.72278 380.53497l-14.085541 0" fill-rule="evenodd"/><path stroke="#434343" stroke-width="2.0" stroke-linejoin="round" stroke-linecap="butt" d="m284.72278 380.53497l-14.085541 0" fill-rule="evenodd"/><path fill="#000000" fill-opacity="0.0" d="m243.86613 390.9039l67.086624 0l0 42.015747l-67.086624 0z" fill-rule="evenodd"/><path fill="#434343" d="m271.0639 403.562l0 7.09375q-0.015625 1.46875 -0.9375 2.40625q-0.90625 0.9375 -2.484375 1.046875l-0.359375 0.015625q-1.71875 0 -2.734375 -0.921875q-1.015625 -0.921875 -1.03125 -2.546875l0 -7.09375l1.359375 0l0 7.0625q0 1.125 0.625 1.75q0.625 0.625 1.78125 0.625q1.15625 0 1.765625 -0.609375q0.625 -0.625 0.625 -1.765625l0 -7.0625l1.390625 0zm6.472412 8.375q0 -0.546875 -0.40625 -0.84375q-0.40625 -0.296875 -1.421875 -0.5q-1.0 -0.21875 -1.59375 -0.515625q-0.578125 -0.3125 -0.875 -0.71875q-0.28125 -0.421875 -0.28125 -1.0q0 -0.9375 0.8125 -1.59375q0.8125 -0.671875 2.0625 -0.671875q1.3125 0 2.125 0.6875q0.828125 0.671875 0.828125 1.734375l-1.328125 0q0 -0.546875 -0.46875 -0.9375q-0.453125 -0.390625 -1.15625 -0.390625q-0.734375 0 -1.140625 0.3125q-0.40625 0.3125 -0.40625 0.828125q0 0.46875 0.375 0.71875q0.390625 0.25 1.375 0.46875q1.0 0.21875 1.609375 0.53125q0.609375 0.296875 0.90625 0.734375q0.296875 0.4375 0.296875 1.0625q0 1.03125 -0.828125 1.65625q-0.828125 0.625 -2.15625 0.625q-0.921875 0 -1.640625 -0.328125q-0.71875 -0.328125 -1.125 -0.921875q-0.390625 -0.59375 -0.390625 -1.28125l1.3125 0q0.046875 0.671875 0.53125 1.0625q0.5 0.390625 1.3125 0.390625q0.75 0 1.203125 -0.296875q0.46875 -0.3125 0.46875 -0.8125zm6.260254 2.1875q-1.578125 0 -2.5625 -1.03125q-0.984375 -1.03125 -0.984375 -2.765625l0 -0.25q0 -1.140625 0.4375 -2.046875q0.4375 -0.90625 1.21875 -1.421875q0.796875 -0.515625 1.71875 -0.515625q1.515625 0 2.34375 1.0q0.84375 1.0 0.84375 2.84375l0 0.546875l-5.25 0q0.03125 1.15625 0.671875 1.859375q0.640625 0.703125 1.625 0.703125q0.703125 0 1.1875 -0.28125q0.5 -0.296875 0.859375 -0.765625l0.8125 0.625q-0.984375 1.5 -2.921875 1.5zm-0.171875 -6.9375q-0.796875 0 -1.34375 0.59375q-0.546875 0.578125 -0.671875 1.625l3.875 0l0 -0.109375q-0.046875 -1.0 -0.546875 -1.546875q-0.484375 -0.5625 -1.3125 -0.5625zm8.467804 0.234375q-0.3125 -0.046875 -0.65625 -0.046875q-1.296875 0 -1.765625 1.109375l0 5.5l-1.328125 0l0 -7.75l1.296875 0l0.015625 0.90625q0.65625 -1.046875 1.84375 -1.046875q0.390625 0 0.59375 0.109375l0 1.21875z" fill-rule="nonzero"/><path fill="#c9daf8" d="m94.457886 44.554264l0 0c0 -3.5249634 2.857544 -6.382511 6.3825073 -6.382511l0 0c1.692749 0 3.3161697 0.6724434 4.5131226 1.8693962c1.1969528 1.1969528 1.8693924 2.8203697 1.8693924 4.513115l0 0c0 3.5249634 -2.8575516 6.382511 -6.382515 6.382511l0 0c-3.5249634 0 -6.3825073 -2.8575478 -6.3825073 -6.382511z" fill-rule="evenodd"/><path stroke="#1155cc" stroke-width="2.0" stroke-linejoin="round" stroke-linecap="butt" d="m94.457886 44.554264l0 0c0 -3.5249634 2.857544 -6.382511 6.3825073 -6.382511l0 0c1.692749 0 3.3161697 0.6724434 4.5131226 1.8693962c1.1969528 1.1969528 1.8693924 2.8203697 1.8693924 4.513115l0 0c0 3.5249634 -2.8575516 6.382511 -6.382515 6.382511l0 0c-3.5249634 0 -6.3825073 -2.8575478 -6.3825073 -6.382511z" fill-rule="evenodd"/><path fill="#000000" fill-opacity="0.0" d="m100.84039 50.936775l0 14.450256" fill-rule="evenodd"/><path stroke="#1155cc" stroke-width="2.0" stroke-linejoin="round" stroke-linecap="butt" d="m100.84039 50.936775l0 14.450256" fill-rule="evenodd"/><path fill="#000000" fill-opacity="0.0" d="m100.84039 64.34319l7.70932 9.394554" fill-rule="evenodd"/><path stroke="#1155cc" stroke-width="2.0" stroke-linejoin="round" stroke-linecap="butt" d="m100.84039 64.34319l7.70932 9.394554" fill-rule="evenodd"/><path fill="#000000" fill-opacity="0.0" d="m100.83201 64.00363l-6.3762207 9.734116" fill-rule="evenodd"/><path stroke="#1155cc" stroke-width="2.0" stroke-linejoin="round" stroke-linecap="butt" d="m100.83201 64.00363l-6.3762207 9.734116" fill-rule="evenodd"/><path fill="#000000" fill-opacity="0.0" d="m107.71656 55.61139l-14.085548 0" fill-rule="evenodd"/><path stroke="#1155cc" stroke-width="2.0" stroke-linejoin="round" stroke-linecap="butt" d="m107.71656 55.61139l-14.085548 0" fill-rule="evenodd"/><path fill="#000000" fill-opacity="0.0" d="m34.725384 8.218377l132.7559 0l0 42.015747l-132.7559 0z" fill-rule="evenodd"/><path fill="#0b5394" d="m75.37349 31.298376l0 -10.421875l2.953125 0q1.359375 0 2.390625 0.609375q1.046875 0.59375 1.609375 1.703125q0.578125 1.109375 0.59375 2.546875l0 0.671875q0 1.46875 -0.578125 2.578125q-0.5625 1.109375 -1.625 1.703125q-1.046875 0.59375 -2.453125 0.609375l-2.890625 0zm1.375 -9.28125l0 8.15625l1.453125 0q1.59375 0 2.46875 -0.984375q0.890625 -0.984375 0.890625 -2.8125l0 -0.609375q0 -1.78125 -0.84375 -2.765625q-0.828125 -0.984375 -2.359375 -0.984375l-1.609375 0zm11.251633 9.421875q-1.578125 0 -2.5625 -1.03125q-0.984375 -1.03125 -0.984375 -2.765625l0 -0.25q0 -1.140625 0.4375 -2.046875q0.4375 -0.90625 1.21875 -1.421875q0.796875 -0.515625 1.71875 -0.515625q1.515625 0 2.34375 1.0q0.84375 1.0 0.84375 2.84375l0 0.546875l-5.25 0q0.03125 1.15625 0.671875 1.859375q0.640625 0.703125 1.625 0.703125q0.703125 0 1.1875 -0.28125q0.5 -0.296875 0.859375 -0.765625l0.8125 0.625q-0.984375 1.5 -2.921875 1.5zm-0.171875 -6.9375q-0.796875 0 -1.34375 0.59375q-0.546875 0.578125 -0.671875 1.625l3.875 0l0 -0.109375q-0.046875 -1.0 -0.546875 -1.546875q-0.484375 -0.5625 -1.3125 -0.5625zm7.1871796 5.0l1.90625 -5.953125l1.359375 0l-2.78125 7.75l-1.0 0l-2.8125 -7.75l1.359375 0l1.96875 5.953125zm16.383652 -3.078125q0 1.53125 -0.515625 2.671875q-0.515625 1.140625 -1.453125 1.75q-0.9375 0.59375 -2.203125 0.59375q-1.234375 0 -2.1875 -0.59375q-0.953125 -0.609375 -1.484375 -1.734375q-0.515625 -1.125 -0.53125 -2.59375l0 -0.75q0 -1.5 0.515625 -2.65625q0.53125 -1.15625 1.484375 -1.765625q0.953125 -0.609375 2.1875 -0.609375q1.25 0 2.203125 0.609375q0.953125 0.59375 1.46875 1.75q0.515625 1.140625 0.515625 2.671875l0 0.65625zm-1.359375 -0.671875q0 -1.859375 -0.75 -2.84375q-0.734375 -0.984375 -2.078125 -0.984375q-1.296875 0 -2.046875 0.984375q-0.75 0.984375 -0.765625 2.75l0 0.765625q0 1.796875 0.75 2.828125q0.75 1.03125 2.078125 1.03125q1.328125 0 2.0625 -0.96875q0.734375 -0.984375 0.75 -2.78125l0 -0.78125zm9.763672 1.765625q0 1.765625 -0.8125 2.84375q-0.8125 1.078125 -2.1875 1.078125q-1.40625 0 -2.21875 -0.890625l0 3.734377l-1.328125 0l0 -10.734377l1.21875 0l0.0625 0.859375q0.796875 -1.0 2.234375 -1.0q1.40625 0 2.21875 1.0625q0.8125 1.046875 0.8125 2.921875l0 0.125zm-1.328125 -0.15625q0 -1.3125 -0.5625 -2.0625q-0.546875 -0.765625 -1.53125 -0.765625q-1.203125 0 -1.796875 1.0625l0 3.703125q0.59375 1.0625 1.8125 1.0625q0.953125 0 1.515625 -0.75q0.5625 -0.765625 0.5625 -2.25zm7.5195465 1.890625q0 -0.546875 -0.40625 -0.84375q-0.40625 -0.296875 -1.421875 -0.5q-1.0 -0.21875 -1.59375 -0.515625q-0.578125 -0.3125 -0.875 -0.71875q-0.28125 -0.421875 -0.28125 -1.0q0 -0.9375 0.8125 -1.59375q0.8125 -0.671875 2.0625 -0.671875q1.3125 0 2.125 0.6875q0.828125 0.671875 0.828125 1.734375l-1.328125 0q0 -0.546875 -0.46875 -0.9375q-0.453125 -0.390625 -1.15625 -0.390625q-0.734375 0 -1.140625 0.3125q-0.40625 0.3125 -0.40625 0.828125q0 0.46875 0.375 0.71875q0.390625 0.25 1.375 0.46875q1.0 0.21875 1.609375 0.53125q0.609375 0.296875 0.90625 0.734375q0.296875 0.4375 0.296875 1.0625q0 1.03125 -0.828125 1.65625q-0.828125 0.625 -2.15625 0.625q-0.921875 0 -1.640625 -0.328125q-0.71875 -0.328125 -1.125 -0.921875q-0.390625 -0.59375 -0.390625 -1.28125l1.3125 0q0.046875 0.671875 0.53125 1.0625q0.5 0.390625 1.3125 0.390625q0.75 0 1.203125 -0.296875q0.46875 -0.3125 0.46875 -0.8125z" fill-rule="nonzero"/><path fill="#000000" fill-opacity="0.0" d="m100.69554 79.72792l-0.25196838 121.76378" fill-rule="evenodd"/><path stroke="#0b5394" stroke-width="1.0" stroke-linejoin="round" stroke-linecap="butt" d="m100.688446 83.15499l-0.23778534 114.909615" fill-rule="evenodd"/><path fill="#0b5394" stroke="#0b5394" stroke-width="1.0" stroke-linecap="butt" d="m100.688446 83.155l1.1222534 1.1269073l-1.118187 -3.0920944l-1.1309738 3.0874405z" fill-rule="evenodd"/><path fill="#0b5394" stroke="#0b5394" stroke-width="1.0" stroke-linecap="butt" d="m100.45066 198.06462l-1.1222534 -1.1269073l1.118187 3.0920868l1.1309738 -3.0874329z" fill-rule="evenodd"/><path fill="#fce5cd" d="m400.03644 40.269936l0 0c0 -4.0431595 3.2783508 -7.3207893 7.3223877 -7.3207893l0 0c1.9420166 0 3.8045044 0.77129364 5.177704 2.1442108c1.37323 1.3729134 2.1446838 3.2349815 2.1446838 5.1765785l0 0c0 4.0431557 -3.2783508 7.3207855 -7.3223877 7.3207855l0 0c-4.044037 0 -7.3223877 -3.2776299 -7.3223877 -7.3207855z" fill-rule="evenodd"/><path stroke="#b45f06" stroke-width="2.0" stroke-linejoin="round" stroke-linecap="butt" d="m400.03644 40.269936l0 0c0 -4.0431595 3.2783508 -7.3207893 7.3223877 -7.3207893l0 0c1.9420166 0 3.8045044 0.77129364 5.177704 2.1442108c1.37323 1.3729134 2.1446838 3.2349815 2.1446838 5.1765785l0 0c0 4.0431557 -3.2783508 7.3207855 -7.3223877 7.3207855l0 0c-4.044037 0 -7.3223877 -3.2776299 -7.3223877 -7.3207855z" fill-rule="evenodd"/><path fill="#000000" fill-opacity="0.0" d="m407.35883 47.59072l0 16.574554" fill-rule="evenodd"/><path stroke="#b45f06" stroke-width="2.0" stroke-linejoin="round" stroke-linecap="butt" d="m407.35883 47.59072l0 16.574554" fill-rule="evenodd"/><path fill="#000000" fill-opacity="0.0" d="m407.35883 62.96798l8.844574 10.775627" fill-rule="evenodd"/><path stroke="#b45f06" stroke-width="2.0" stroke-linejoin="round" stroke-linecap="butt" d="m407.35883 62.96798l8.844574 10.775627" fill-rule="evenodd"/><path fill="#000000" fill-opacity="0.0" d="m407.3492 62.578503l-7.3151855 11.165104" fill-rule="evenodd"/><path stroke="#b45f06" stroke-width="2.0" stroke-linejoin="round" stroke-linecap="butt" d="m407.3492 62.578503l-7.3151855 11.165104" fill-rule="evenodd"/><path fill="#000000" fill-opacity="0.0" d="m415.24756 52.952534l-16.15976 0" fill-rule="evenodd"/><path stroke="#b45f06" stroke-width="2.0" stroke-linejoin="round" stroke-linecap="butt" d="m415.24756 52.952534l-16.15976 0" fill-rule="evenodd"/><path fill="#000000" fill-opacity="0.0" d="m356.9183 3.445092l101.41733 0l0 42.015747l-101.41733 0z" fill-rule="evenodd"/><path fill="#b45f06" d="m376.49045 26.525091l0 -10.421875l2.953125 0q1.359375 0 2.390625 0.609375q1.046875 0.59375 1.609375 1.703125q0.578125 1.109375 0.59375 2.546875l0 0.671875q0 1.46875 -0.578125 2.578125q-0.5625 1.109375 -1.625 1.703125q-1.046875 0.59375 -2.453125 0.609375l-2.890625 0zm1.375 -9.28125l0 8.15625l1.453125 0q1.59375 0 2.46875 -0.984375q0.890625 -0.984375 0.890625 -2.8125l0 -0.609375q0 -1.78125 -0.84375 -2.765625q-0.828125 -0.984375 -2.359375 -0.984375l-1.609375 0zm8.235992 9.28125l0 -10.421875l3.40625 0q1.703125 0 2.546875 0.703125q0.859375 0.703125 0.859375 2.078125q0 0.734375 -0.421875 1.296875q-0.40625 0.546875 -1.125 0.859375q0.859375 0.234375 1.34375 0.90625q0.484375 0.65625 0.484375 1.578125q0 1.390625 -0.90625 2.203125q-0.90625 0.796875 -2.5625 0.796875l-3.625 0zm1.375 -4.875l0 3.75l2.28125 0q0.953125 0 1.5 -0.5q0.5625 -0.5 0.5625 -1.359375q0 -1.890625 -2.046875 -1.890625l-2.296875 0zm0 -1.09375l2.078125 0q0.90625 0 1.4375 -0.453125q0.546875 -0.453125 0.546875 -1.234375q0 -0.859375 -0.5 -1.234375q-0.5 -0.390625 -1.53125 -0.390625l-2.03125 0l0 3.3125zm17.14328 3.25l-4.375 0l-0.96875 2.71875l-1.421875 0l3.96875 -10.421875l1.203125 0l4.0 10.421875l-1.421875 0l-0.984375 -2.71875zm-3.953125 -1.125l3.546875 0l-1.78125 -4.875l-1.765625 4.875zm7.232788 -0.09375q0 -1.78125 0.84375 -2.859375q0.84375 -1.09375 2.203125 -1.09375q1.359375 0 2.15625 0.9375l0 -4.046874l1.328125 0l0 10.999999l-1.21875 0l-0.0625 -0.828125q-0.796875 0.96875 -2.21875 0.96875q-1.34375 0 -2.1875 -1.09375q-0.84375 -1.109375 -0.84375 -2.875l0 -0.109375zm1.3125 0.15625q0 1.3125 0.546875 2.0625q0.546875 0.734375 1.5 0.734375q1.265625 0 1.84375 -1.125l0 -3.5625q-0.59375 -1.09375 -1.828125 -1.09375q-0.96875 0 -1.515625 0.75q-0.546875 0.75 -0.546875 2.234375zm8.515625 -3.96875l0.03125 0.859375q0.859375 -1.0 2.296875 -1.0q1.625 0 2.21875 1.25q0.375 -0.5625 1.0 -0.90625q0.625 -0.34375 1.46875 -0.34375q2.546875 0 2.578125 2.703125l0 5.1875l-1.3125 0l0 -5.109375q0 -0.828125 -0.390625 -1.234375q-0.375 -0.421875 -1.265625 -0.421875q-0.734375 0 -1.234375 0.453125q-0.484375 0.4375 -0.5625 1.171875l0 5.140625l-1.328125 0l0 -5.078125q0 -1.6875 -1.65625 -1.6875q-1.296875 0 -1.78125 1.109375l0 5.65625l-1.3125 0l0 -7.75l1.25 0zm13.033173 7.75l-1.328125 0l0 -7.75l1.328125 0l0 7.75zm-1.421875 -9.796875q0 -0.328125 0.1875 -0.546875q0.203125 -0.21874905 0.578125 -0.21874905q0.390625 0 0.59375 0.21874905q0.203125 0.21875 0.203125 0.546875q0 0.328125 -0.203125 0.546875q-0.203125 0.203125 -0.59375 0.203125q-0.375 0 -0.578125 -0.203125q-0.1875 -0.21875 -0.1875 -0.546875zm4.791107 2.046875l0.046875 0.984375q0.890625 -1.125 2.3125 -1.125q2.46875 0 2.484375 2.78125l0 5.109375l-1.328125 0l0 -5.125q0 -0.84375 -0.375 -1.234375q-0.375 -0.40625 -1.171875 -0.40625q-0.640625 0 -1.140625 0.34375q-0.484375 0.34375 -0.75 0.90625l0 5.515625l-1.328125 0l0 -7.75l1.25 0z" fill-rule="nonzero"/><path fill="#000000" fill-opacity="0.0" d="m407.77167 76.62177l0 60.62992" fill-rule="evenodd"/><path stroke="#b45f06" stroke-width="1.0" stroke-linejoin="round" stroke-linecap="butt" d="m407.77167 80.04887l0 53.77575" fill-rule="evenodd"/><path fill="#b45f06" stroke="#b45f06" stroke-width="1.0" stroke-linecap="butt" d="m407.77167 80.04886l1.1245728 1.124588l-1.1245728 -3.0897675l-1.1246033 3.0897675z" fill-rule="evenodd"/><path fill="#b45f06" stroke="#b45f06" stroke-width="1.0" stroke-linecap="butt" d="m407.77167 133.8246l-1.1246033 -1.1245728l1.1246033 3.0897675l1.1245728 -3.0897675z" fill-rule="evenodd"/><path fill="#000000" fill-opacity="0.0" d="m190.01778 62.238846l129.4488 0l0 42.015747l-129.4488 0z" fill-rule="evenodd"/><path fill="#434343" d="m238.38446 80.67822q-1.765625 -0.515625 -2.578125 -1.25q-0.796875 -0.75 -0.796875 -1.828125q0 -1.234375 0.984375 -2.03125q0.984375 -0.8125 2.546875 -0.8125q1.078125 0 1.921875 0.421875q0.84375 0.40625 1.296875 1.140625q0.46875 0.734375 0.46875 1.59375l-1.390625 0q0 -0.9375 -0.609375 -1.484375q-0.59375 -0.546875 -1.6875 -0.546875q-1.015625 0 -1.578125 0.453125q-0.5625 0.453125 -0.5625 1.234375q0 0.640625 0.53125 1.09375q0.546875 0.4375 1.84375 0.796875q1.296875 0.359375 2.03125 0.8125q0.734375 0.4375 1.078125 1.03125q0.359375 0.578125 0.359375 1.375q0 1.265625 -0.984375 2.03125q-0.984375 0.75 -2.640625 0.75q-1.078125 0 -2.015625 -0.40625q-0.921875 -0.421875 -1.421875 -1.125q-0.5 -0.71875 -0.5 -1.625l1.375 0q0 0.9375 0.6875 1.484375q0.703125 0.546875 1.875 0.546875q1.09375 0 1.671875 -0.4375q0.578125 -0.453125 0.578125 -1.21875q0 -0.765625 -0.546875 -1.171875q-0.53125 -0.421875 -1.9375 -0.828125zm8.632492 4.78125q-1.578125 0 -2.5625 -1.03125q-0.984375 -1.03125 -0.984375 -2.765625l0 -0.25q0 -1.140625 0.4375 -2.046875q0.4375 -0.90625 1.21875 -1.421875q0.796875 -0.515625 1.71875 -0.515625q1.515625 0 2.34375 1.0q0.84375 1.0 0.84375 2.84375l0 0.546875l-5.25 0q0.03125 1.15625 0.671875 1.859375q0.640625 0.703125 1.625 0.703125q0.703125 0 1.1875 -0.28125q0.5 -0.296875 0.859375 -0.765625l0.8125 0.625q-0.984375 1.5 -2.921875 1.5zm-0.171875 -6.9375q-0.796875 0 -1.34375 0.59375q-0.546875 0.578125 -0.671875 1.625l3.875 0l0 -0.109375q-0.046875 -1.0 -0.546875 -1.546875q-0.484375 -0.5625 -1.3125 -0.5625zm8.467789 0.234375q-0.3125 -0.046875 -0.65625 -0.046875q-1.296875 0 -1.765625 1.109375l0 5.5l-1.328125 0l0 -7.75l1.296875 0l0.015625 0.90625q0.65625 -1.046875 1.84375 -1.046875q0.390625 0 0.59375 0.109375l0 1.21875zm3.9007568 4.765625l1.90625 -5.953125l1.359375 0l-2.78125 7.75l-1.0 0l-2.8125 -7.75l1.359375 0l1.96875 5.953125zm7.662262 1.9375q-1.578125 0 -2.5625 -1.03125q-0.984375 -1.03125 -0.984375 -2.765625l0 -0.25q0 -1.140625 0.4375 -2.046875q0.4375 -0.90625 1.21875 -1.421875q0.796875 -0.515625 1.71875 -0.515625q1.515625 0 2.34375 1.0q0.84375 1.0 0.84375 2.84375l0 0.546875l-5.25 0q0.03125 1.15625 0.671875 1.859375q0.640625 0.703125 1.625 0.703125q0.703125 0 1.1875 -0.28125q0.5 -0.296875 0.859375 -0.765625l0.8125 0.625q-0.984375 1.5 -2.921875 1.5zm-0.171875 -6.9375q-0.796875 0 -1.34375 0.59375q-0.546875 0.578125 -0.671875 1.625l3.875 0l0 -0.109375q-0.046875 -1.0 -0.546875 -1.546875q-0.484375 -0.5625 -1.3125 -0.5625zm8.467773 0.234375q-0.3125 -0.046875 -0.65625 -0.046875q-1.296875 0 -1.765625 1.109375l0 5.5l-1.328125 0l0 -7.75l1.296875 0l0.015625 0.90625q0.65625 -1.046875 1.84375 -1.046875q0.390625 0 0.59375 0.109375l0 1.21875z" fill-rule="nonzero"/><path fill="#999999" d="m51.29365 186.2571l0 0c0 -1.183136 0.95912933 -2.1422577 2.142273 -2.1422577l10.63451 0c0.56816864 0 1.11306 0.22569275 1.5148163 0.62745667c0.4017563 0.40174866 0.62745667 0.94664 0.62745667 1.514801l0 8.568832c0 1.1831512 -0.95912933 2.142273 -2.142273 2.142273l-10.63451 0c-1.1831436 0 -2.142273 -0.9591217 -2.142273 -2.142273z" fill-rule="evenodd"/><path stroke="#000000" stroke-width="1.0" stroke-linejoin="round" stroke-linecap="butt" d="m51.29365 186.2571l0 0c0 -1.183136 0.95912933 -2.1422577 2.142273 -2.1422577l10.63451 0c0.56816864 0 1.11306 0.22569275 1.5148163 0.62745667c0.4017563 0.40174866 0.62745667 0.94664 0.62745667 1.514801l0 8.568832c0 1.1831512 -0.95912933 2.142273 -2.142273 2.142273l-10.63451 0c-1.1831436 0 -2.142273 -0.9591217 -2.142273 -2.142273z" fill-rule="evenodd"/><path fill="#000000" fill-opacity="0.0" d="m58.819225 178.48329l0 0c1.1721992 0 2.296383 0.5768585 3.1252518 1.6036835c0.82886887 1.0268097 1.2945213 2.419464 1.2945213 3.8715973l-4.419773 0z" fill-rule="evenodd"/><path fill="#000000" fill-opacity="0.0" d="m58.819225 178.48329l0 0c1.1721992 0 2.296383 0.5768585 3.1252518 1.6036835c0.82886887 1.0268097 1.2945213 2.419464 1.2945213 3.8715973" fill-rule="evenodd"/><path stroke="#000000" stroke-width="3.0" stroke-linejoin="round" stroke-linecap="butt" d="m58.819225 178.48329l0 0c1.1721992 0 2.296383 0.5768585 3.1252518 1.6036835c0.82886887 1.0268097 1.2945213 2.419464 1.2945213 3.8715973" fill-rule="evenodd"/><path fill="#000000" fill-opacity="0.0" d="m58.81301 178.48329l0 0c-1.1721954 0 -2.296383 0.5768585 -3.125248 1.6036835c-0.82886887 1.0268097 -1.2945213 2.419464 -1.2945213 3.8715973l4.4197693 0z" fill-rule="evenodd"/><path fill="#000000" fill-opacity="0.0" d="m58.81301 178.48329l0 0c-1.1721954 0 -2.296383 0.5768585 -3.125248 1.6036835c-0.82886887 1.0268097 -1.2945213 2.419464 -1.2945213 3.8715973" fill-rule="evenodd"/><path stroke="#000000" stroke-width="3.0" stroke-linejoin="round" stroke-linecap="butt" d="m58.81301 178.48329l0 0c-1.1721954 0 -2.296383 0.5768585 -3.125248 1.6036835c-0.82886887 1.0268097 -1.2945213 2.419464 -1.2945213 3.8715973" fill-rule="evenodd"/><path fill="#999999" d="m181.54825 122.2571l0 0c0 -1.1831436 0.9591217 -2.142273 2.142273 -2.142273l10.634506 0c0.568161 0 1.1130676 0.22570038 1.5148163 0.62745667c0.40174866 0.4017563 0.62745667 0.94664764 0.62745667 1.5148163l0 8.568825c0 1.1831512 -0.9591217 2.142273 -2.142273 2.142273l-10.634506 0c-1.1831512 0 -2.142273 -0.9591217 -2.142273 -2.142273z" fill-rule="evenodd"/><path stroke="#000000" stroke-width="1.0" stroke-linejoin="round" stroke-linecap="butt" d="m181.54825 122.2571l0 0c0 -1.1831436 0.9591217 -2.142273 2.142273 -2.142273l10.634506 0c0.568161 0 1.1130676 0.22570038 1.5148163 0.62745667c0.40174866 0.4017563 0.62745667 0.94664764 0.62745667 1.5148163l0 8.568825c0 1.1831512 -0.9591217 2.142273 -2.142273 2.142273l-10.634506 0c-1.1831512 0 -2.142273 -0.9591217 -2.142273 -2.142273z" fill-rule="evenodd"/><path fill="#000000" fill-opacity="0.0" d="m189.07382 114.4833l0 0c1.1721954 0 2.2963867 0.5768585 3.1252441 1.6036682c0.8288727 1.0268173 1.2945251 2.4194717 1.2945251 3.871605l-4.4197693 0z" fill-rule="evenodd"/><path fill="#000000" fill-opacity="0.0" d="m189.07382 114.4833l0 0c1.1721954 0 2.2963867 0.5768585 3.1252441 1.6036682c0.8288727 1.0268173 1.2945251 2.4194717 1.2945251 3.871605" fill-rule="evenodd"/><path stroke="#000000" stroke-width="3.0" stroke-linejoin="round" stroke-linecap="butt" d="m189.07382 114.4833l0 0c1.1721954 0 2.2963867 0.5768585 3.1252441 1.6036682c0.8288727 1.0268173 1.2945251 2.4194717 1.2945251 3.871605" fill-rule="evenodd"/><path fill="#000000" fill-opacity="0.0" d="m189.06761 114.4833l0 0c-1.1722107 0 -2.2963867 0.5768585 -3.1252594 1.6036682c-0.8288727 1.0268173 -1.2945251 2.4194717 -1.2945251 3.871605l4.4197845 0z" fill-rule="evenodd"/><path fill="#000000" fill-opacity="0.0" d="m189.06761 114.4833l0 0c-1.1722107 0 -2.2963867 0.5768585 -3.1252594 1.6036682c-0.8288727 1.0268173 -1.2945251 2.4194717 -1.2945251 3.871605" fill-rule="evenodd"/><path stroke="#000000" stroke-width="3.0" stroke-linejoin="round" stroke-linecap="butt" d="m189.06761 114.4833l0 0c-1.1722107 0 -2.2963867 0.5768585 -3.1252594 1.6036682c-0.8288727 1.0268173 -1.2945251 2.4194717 -1.2945251 3.871605" fill-rule="evenodd"/><path fill="#999999" d="m319.78445 131.75578l0 0c0 -1.183136 0.95913696 -2.1422577 2.142273 -2.1422577l10.6345215 0c0.56817627 0 1.1130676 0.22569275 1.514801 0.62745667c0.40176392 0.40174866 0.6274719 0.94664 0.6274719 1.514801l0 8.568832c0 1.1831512 -0.95913696 2.142273 -2.142273 2.142273l-10.6345215 0c-1.183136 0 -2.142273 -0.9591217 -2.142273 -2.142273z" fill-rule="evenodd"/><path stroke="#000000" stroke-width="1.0" stroke-linejoin="round" stroke-linecap="butt" d="m319.78445 131.75578l0 0c0 -1.183136 0.95913696 -2.1422577 2.142273 -2.1422577l10.6345215 0c0.56817627 0 1.1130676 0.22569275 1.514801 0.62745667c0.40176392 0.40174866 0.6274719 0.94664 0.6274719 1.514801l0 8.568832c0 1.1831512 -0.95913696 2.142273 -2.142273 2.142273l-10.6345215 0c-1.183136 0 -2.142273 -0.9591217 -2.142273 -2.142273z" fill-rule="evenodd"/><path fill="#000000" fill-opacity="0.0" d="m327.31003 123.98199l0 0c1.1722107 0 2.2963867 0.5768585 3.1252747 1.6036682c0.8288574 1.0268173 1.2944946 2.4194717 1.2944946 3.871605l-4.4197693 0z" fill-rule="evenodd"/><path fill="#000000" fill-opacity="0.0" d="m327.31003 123.98199l0 0c1.1722107 0 2.2963867 0.5768585 3.1252747 1.6036682c0.8288574 1.0268173 1.2944946 2.4194717 1.2944946 3.871605" fill-rule="evenodd"/><path stroke="#000000" stroke-width="3.0" stroke-linejoin="round" stroke-linecap="butt" d="m327.31003 123.98199l0 0c1.1722107 0 2.2963867 0.5768585 3.1252747 1.6036682c0.8288574 1.0268173 1.2944946 2.4194717 1.2944946 3.871605" fill-rule="evenodd"/><path fill="#000000" fill-opacity="0.0" d="m327.30383 123.98199l0 0c-1.1722107 0 -2.2963867 0.5768585 -3.1252441 1.6036682c-0.82888794 1.0268173 -1.2945251 2.4194717 -1.2945251 3.871605l4.4197693 0z" fill-rule="evenodd"/><path fill="#000000" fill-opacity="0.0" d="m327.30383 123.98199l0 0c-1.1722107 0 -2.2963867 0.5768585 -3.1252441 1.6036682c-0.82888794 1.0268173 -1.2945251 2.4194717 -1.2945251 3.871605" fill-rule="evenodd"/><path stroke="#000000" stroke-width="3.0" stroke-linejoin="round" stroke-linecap="butt" d="m327.30383 123.98199l0 0c-1.1722107 0 -2.2963867 0.5768585 -3.1252441 1.6036682c-0.82888794 1.0268173 -1.2945251 2.4194717 -1.2945251 3.871605" fill-rule="evenodd"/><path fill="#000000" fill-opacity="0.0" d="m316.54092 196.9685l182.39368 0l0 28.97638l-182.39368 0z" fill-rule="evenodd"/><path fill="#b45f06" d="m330.2128 208.64919l0 3.859375q-0.015625 0.8125 -0.515625 1.328125q-0.5 0.515625 -1.359375 0.578125l-0.203125 0q-0.921875 0 -1.484375 -0.5q-0.546875 -0.515625 -0.5625 -1.390625l0 -3.875l0.75 0l0 3.84375q0 0.625 0.328125 0.96875q0.34375 0.34375 0.96875 0.34375q0.640625 0 0.96875 -0.34375q0.34375 -0.34375 0.34375 -0.953125l0 -3.859375l0.765625 0zm3.53125 4.5625q0 -0.296875 -0.234375 -0.453125q-0.21875 -0.15625 -0.765625 -0.265625q-0.546875 -0.125 -0.875 -0.28125q-0.3125 -0.171875 -0.46875 -0.390625q-0.15625 -0.234375 -0.15625 -0.546875q0 -0.53125 0.4375 -0.890625q0.4375 -0.359375 1.125 -0.359375q0.71875 0 1.15625 0.375q0.453125 0.375 0.453125 0.953125l-0.71875 0q0 -0.296875 -0.25 -0.515625q-0.25 -0.21875 -0.640625 -0.21875q-0.390625 0 -0.625 0.171875q-0.21875 0.171875 -0.21875 0.453125q0 0.265625 0.203125 0.40625q0.21875 0.125 0.75 0.25q0.546875 0.109375 0.875 0.28125q0.34375 0.171875 0.5 0.40625q0.171875 0.234375 0.171875 0.578125q0 0.5625 -0.453125 0.90625q-0.453125 0.34375 -1.171875 0.34375q-0.515625 0 -0.90625 -0.171875q-0.390625 -0.1875 -0.609375 -0.5q-0.21875 -0.328125 -0.21875 -0.703125l0.71875 0q0.015625 0.359375 0.28125 0.578125q0.28125 0.203125 0.734375 0.203125q0.40625 0 0.65625 -0.15625q0.25 -0.171875 0.25 -0.453125zm3.40625 1.203125q-0.859375 0 -1.40625 -0.5625q-0.53125 -0.5625 -0.53125 -1.515625l0 -0.125q0 -0.640625 0.234375 -1.125q0.25 -0.5 0.671875 -0.78125q0.4375 -0.28125 0.953125 -0.28125q0.8125 0 1.265625 0.546875q0.46875 0.546875 0.46875 1.5625l0 0.296875l-2.859375 0q0.015625 0.625 0.359375 1.015625q0.34375 0.375 0.890625 0.375q0.375 0 0.640625 -0.15625q0.265625 -0.15625 0.46875 -0.40625l0.4375 0.34375q-0.53125 0.8125 -1.59375 0.8125zm-0.078125 -3.796875q-0.4375 0 -0.734375 0.328125q-0.296875 0.3125 -0.375 0.890625l2.125 0l0 -0.0625q-0.03125 -0.546875 -0.296875 -0.84375q-0.265625 -0.3125 -0.71875 -0.3125zm4.6132812 0.140625q-0.171875 -0.03125 -0.359375 -0.03125q-0.703125 0 -0.96875 0.609375l0 3.0l-0.71875 0l0 -4.234375l0.703125 0l0.015625 0.5q0.359375 -0.578125 1.0 -0.578125q0.21875 0 0.328125 0.0625l0 0.671875zm6.53125 -1.5l-1.828125 0l0 5.078125l-0.75 0l0 -5.078125l-1.828125 0l0 -0.609375l4.40625 0l0 0.609375zm2.8945312 5.078125q-0.0625 -0.125 -0.09375 -0.453125q-0.515625 0.53125 -1.203125 0.53125q-0.625 0 -1.03125 -0.34375q-0.40625 -0.359375 -0.40625 -0.90625q0 -0.65625 0.5 -1.015625q0.515625 -0.375 1.421875 -0.375l0.703125 0l0 -0.328125q0 -0.390625 -0.234375 -0.609375q-0.21875 -0.21875 -0.65625 -0.21875q-0.390625 0 -0.65625 0.203125q-0.265625 0.1875 -0.265625 0.453125l-0.71875 0q0 -0.3125 0.21875 -0.609375q0.234375 -0.296875 0.609375 -0.46875q0.390625 -0.171875 0.84375 -0.171875q0.734375 0 1.140625 0.375q0.421875 0.359375 0.4375 1.0l0 1.953125q0 0.578125 0.15625 0.921875l0 0.0625l-0.765625 0zm-1.203125 -0.546875q0.34375 0 0.640625 -0.171875q0.3125 -0.1875 0.453125 -0.46875l0 -0.859375l-0.5625 0q-1.328125 0 -1.328125 0.765625q0 0.34375 0.21875 0.546875q0.234375 0.1875 0.578125 0.1875zm6.5234375 -1.515625q0 0.96875 -0.453125 1.5625q-0.4375 0.578125 -1.1875 0.578125q-0.796875 0 -1.234375 -0.5625l-0.03125 0.484375l-0.671875 0l0 -6.0l0.71875 0l0 2.234375q0.4375 -0.546875 1.203125 -0.546875q0.78125 0 1.21875 0.59375q0.4375 0.578125 0.4375 1.59375l0 0.0625zm-0.71875 -0.09375q0 -0.734375 -0.296875 -1.125q-0.28125 -0.40625 -0.8125 -0.40625q-0.71875 0 -1.03125 0.65625l0 1.828125q0.34375 0.671875 1.046875 0.671875q0.515625 0 0.796875 -0.40625q0.296875 -0.40625 0.296875 -1.21875zm2.4101562 2.15625l-0.71875 0l0 -6.0l0.71875 0l0 6.0zm2.9101562 0.078125q-0.859375 0 -1.40625 -0.5625q-0.53125 -0.5625 -0.53125 -1.515625l0 -0.125q0 -0.640625 0.234375 -1.125q0.25 -0.5 0.671875 -0.78125q0.4375 -0.28125 0.953125 -0.28125q0.8125 0 1.265625 0.546875q0.46875 0.546875 0.46875 1.5625l0 0.296875l-2.859375 0q0.015625 0.625 0.359375 1.015625q0.34375 0.375 0.890625 0.375q0.375 0 0.640625 -0.15625q0.265625 -0.15625 0.46875 -0.40625l0.4375 0.34375q-0.53125 0.8125 -1.59375 0.8125zm-0.078125 -3.796875q-0.4375 0 -0.734375 0.328125q-0.296875 0.3125 -0.375 0.890625l2.125 0l0 -0.0625q-0.03125 -0.546875 -0.296875 -0.84375q-0.265625 -0.3125 -0.71875 -0.3125z" fill-rule="nonzero"/><path fill="#ffffff" d="m326.38046 219.08661l46.410522 0l0 13.599274l-46.410522 0z" fill-rule="evenodd"/><path stroke="#b45f06" stroke-width="1.0" stroke-linejoin="round" stroke-linecap="butt" d="m326.38046 219.08661l46.410522 0l0 13.599274l-46.410522 0z" fill-rule="evenodd"/><path fill="#b45f06" d="m345.04404 227.72499q-0.28125 0.328125 -0.828125 0.328125q-0.453125 0 -0.6875 -0.25q-0.234375 -0.265625 -0.234375 -0.78125l0 -1.828125l0.46875 0l0 1.8125q0 0.640625 0.53125 0.640625q0.546875 0 0.734375 -0.40625l0 -2.046875l0.484375 0l0 2.8125l-0.46875 0l0 -0.28125zm2.8278809 -0.46875q0 -0.1875 -0.15625 -0.296875q-0.140625 -0.109375 -0.5 -0.1875q-0.359375 -0.078125 -0.578125 -0.1875q-0.21875 -0.109375 -0.328125 -0.25q-0.09375 -0.15625 -0.09375 -0.375q0 -0.34375 0.28125 -0.578125q0.296875 -0.234375 0.765625 -0.234375q0.46875 0 0.765625 0.25q0.296875 0.234375 0.296875 0.625l-0.484375 0q0 -0.203125 -0.171875 -0.34375q-0.15625 -0.140625 -0.40625 -0.140625q-0.265625 0 -0.421875 0.109375q-0.140625 0.109375 -0.140625 0.296875q0 0.171875 0.125 0.265625q0.140625 0.09375 0.5 0.171875q0.375 0.078125 0.59375 0.1875q0.21875 0.109375 0.328125 0.28125q0.109375 0.15625 0.109375 0.375q0 0.375 -0.3125 0.609375q-0.296875 0.21875 -0.765625 0.21875q-0.34375 0 -0.609375 -0.109375q-0.25 -0.125 -0.40625 -0.328125q-0.140625 -0.21875 -0.140625 -0.46875l0.484375 0q0 0.234375 0.1875 0.375q0.1875 0.140625 0.484375 0.140625q0.265625 0 0.421875 -0.109375q0.171875 -0.109375 0.171875 -0.296875zm2.2785645 0.796875q-0.578125 0 -0.9375 -0.375q-0.359375 -0.375 -0.359375 -1.0l0 -0.09375q0 -0.421875 0.15625 -0.75q0.171875 -0.328125 0.453125 -0.5q0.296875 -0.1875 0.625 -0.1875q0.546875 0 0.84375 0.359375q0.3125 0.359375 0.3125 1.03125l0 0.203125l-1.90625 0q0.015625 0.40625 0.25 0.671875q0.234375 0.25 0.59375 0.25q0.25 0 0.421875 -0.09375q0.1875 -0.109375 0.3125 -0.28125l0.296875 0.234375q-0.359375 0.53125 -1.0625 0.53125zm-0.0625 -2.515625q-0.28125 0 -0.484375 0.21875q-0.203125 0.203125 -0.25 0.578125l1.421875 0l0 -0.03125q-0.03125 -0.359375 -0.203125 -0.5625q-0.171875 -0.203125 -0.484375 -0.203125zm3.072754 0.078125q-0.109375 -0.015625 -0.234375 -0.015625q-0.46875 0 -0.640625 0.40625l0 2.0l-0.484375 0l0 -2.8125l0.46875 0l0.015625 0.328125q0.234375 -0.375 0.671875 -0.375q0.140625 0 0.203125 0.03125l0 0.4375zm1.974823 2.390625l-0.484375 0l0 -3.203125l-0.96875 0.359375l0 -0.4375l1.390625 -0.53125l0.0625 0l0 3.8125z" fill-rule="nonzero"/><path fill="#ffffff" d="m372.7951 219.08661l43.40506 0l0 13.599274l-43.40506 0z" fill-rule="evenodd"/><path stroke="#b45f06" stroke-width="1.0" stroke-linejoin="round" stroke-linecap="butt" d="m372.7951 219.08661l43.40506 0l0 13.599274l-43.40506 0z" fill-rule="evenodd"/><path fill="#000000" d="m390.3771 227.22499q0 -0.140625 -0.140625 -0.21875q-0.125 -0.078125 -0.4375 -0.140625q-1.0 -0.203125 -1.0 -0.84375q0 -0.375 0.3125 -0.625q0.3125 -0.25 0.8125 -0.25q0.53125 0 0.84375 0.25q0.328125 0.25 0.328125 0.65625l-0.75 0q0 -0.171875 -0.109375 -0.265625q-0.09375 -0.109375 -0.3125 -0.109375q-0.1875 0 -0.296875 0.09375q-0.109375 0.078125 -0.109375 0.203125q0 0.125 0.109375 0.203125q0.125 0.078125 0.40625 0.140625q0.28125 0.046875 0.484375 0.125q0.59375 0.21875 0.59375 0.75q0 0.390625 -0.328125 0.625q-0.328125 0.234375 -0.859375 0.234375q-0.359375 0 -0.640625 -0.125q-0.265625 -0.125 -0.421875 -0.34375q-0.15625 -0.21875 -0.15625 -0.46875l0.71875 0q0.015625 0.203125 0.140625 0.3125q0.140625 0.09375 0.375 0.09375q0.21875 0 0.328125 -0.078125q0.109375 -0.078125 0.109375 -0.21875zm2.8489075 0.78125q-0.046875 -0.09375 -0.078125 -0.25q-0.265625 0.296875 -0.703125 0.296875q-0.421875 0 -0.703125 -0.234375q-0.265625 -0.234375 -0.265625 -0.609375q0 -0.4375 0.328125 -0.671875q0.34375 -0.25 0.96875 -0.25l0.34375 0l0 -0.15625q0 -0.203125 -0.109375 -0.3125q-0.09375 -0.125 -0.3125 -0.125q-0.1875 0 -0.296875 0.09375q-0.109375 0.09375 -0.109375 0.25l-0.75 0q0 -0.25 0.15625 -0.453125q0.15625 -0.203125 0.421875 -0.3125q0.28125 -0.125 0.625 -0.125q0.515625 0 0.8125 0.265625q0.3125 0.25 0.3125 0.71875l0 1.21875q0.015625 0.40625 0.109375 0.609375l0 0.046875l-0.75 0zm-0.625 -0.515625q0.171875 0 0.3125 -0.078125q0.140625 -0.078125 0.203125 -0.203125l0 -0.484375l-0.28125 0q-0.5625 0 -0.59375 0.390625l-0.015625 0.046875q0 0.140625 0.09375 0.234375q0.109375 0.09375 0.28125 0.09375zm2.6378174 0.515625l-0.75 0l0 -4.0l0.75 0l0 4.0zm1.5220642 -3.5l0 0.6875l0.484375 0l0 0.546875l-0.484375 0l0 1.40625q0 0.15625 0.0625 0.234375q0.0625 0.0625 0.234375 0.0625q0.125 0 0.21875 -0.015625l0 0.5625q-0.21875 0.0625 -0.453125 0.0625q-0.796875 0 -0.8125 -0.796875l0 -1.515625l-0.40625 0l0 -0.546875l0.40625 0l0 -0.6875l0.75 0zm2.6909485 3.5l-0.75 0l0 -2.890625l-0.890625 0.265625l0 -0.609375l1.5625 -0.5625l0.078125 0l0 3.796875z" fill-rule="nonzero"/><path fill="#ffffff" d="m416.20206 219.08661l73.36594 0l0 13.599274l-73.36594 0z" fill-rule="evenodd"/><path stroke="#b45f06" stroke-width="1.0" stroke-linejoin="round" stroke-linecap="butt" d="m416.20206 219.08661l73.36594 0l0 13.599274l-73.36594 0z" fill-rule="evenodd"/><path fill="#b45f06" d="m431.7984 225.53749q0.328125 -0.390625 0.828125 -0.390625q0.90625 0 0.90625 1.0l0 1.859375l-0.484375 0l0 -1.859375q0 -0.3125 -0.140625 -0.453125q-0.125 -0.140625 -0.421875 -0.140625q-0.234375 0 -0.421875 0.125q-0.171875 0.125 -0.265625 0.328125l0 2.0l-0.484375 0l0 -4.0l0.484375 0l0 1.53125zm4.2002563 2.46875q-0.046875 -0.078125 -0.078125 -0.296875q-0.328125 0.34375 -0.796875 0.34375q-0.421875 0 -0.6875 -0.234375q-0.265625 -0.234375 -0.265625 -0.59375q0 -0.4375 0.328125 -0.671875q0.34375 -0.25 0.953125 -0.25l0.46875 0l0 -0.21875q0 -0.265625 -0.15625 -0.40625q-0.15625 -0.15625 -0.4375 -0.15625q-0.265625 0 -0.4375 0.140625q-0.171875 0.125 -0.171875 0.3125l-0.484375 0q0 -0.21875 0.140625 -0.40625q0.15625 -0.203125 0.40625 -0.3125q0.265625 -0.109375 0.5625 -0.109375q0.5 0 0.765625 0.25q0.28125 0.234375 0.296875 0.65625l0 1.296875q0 0.390625 0.09375 0.609375l0 0.046875l-0.5 0zm-0.8125 -0.359375q0.234375 0 0.4375 -0.109375q0.203125 -0.125 0.296875 -0.3125l0 -0.578125l-0.375 0q-0.890625 0 -0.890625 0.515625q0 0.21875 0.140625 0.359375q0.15625 0.125 0.390625 0.125zm3.6013489 -0.390625q0 -0.1875 -0.15625 -0.296875q-0.140625 -0.109375 -0.5 -0.1875q-0.359375 -0.078125 -0.578125 -0.1875q-0.21875 -0.109375 -0.328125 -0.25q-0.09375 -0.15625 -0.09375 -0.375q0 -0.34375 0.28125 -0.578125q0.296875 -0.234375 0.765625 -0.234375q0.46875 0 0.765625 0.25q0.296875 0.234375 0.296875 0.625l-0.484375 0q0 -0.203125 -0.171875 -0.34375q-0.15625 -0.140625 -0.40625 -0.140625q-0.265625 0 -0.421875 0.109375q-0.140625 0.109375 -0.140625 0.296875q0 0.171875 0.125 0.265625q0.140625 0.09375 0.5 0.171875q0.375 0.078125 0.59375 0.1875q0.21875 0.109375 0.328125 0.28125q0.109375 0.15625 0.109375 0.375q0 0.375 -0.3125 0.609375q-0.296875 0.21875 -0.765625 0.21875q-0.34375 0 -0.609375 -0.109375q-0.25 -0.125 -0.40625 -0.328125q-0.140625 -0.21875 -0.140625 -0.46875l0.484375 0q0 0.234375 0.1875 0.375q0.1875 0.140625 0.484375 0.140625q0.265625 0 0.421875 -0.109375q0.171875 -0.109375 0.171875 -0.296875zm1.5910645 -1.71875q0.328125 -0.390625 0.828125 -0.390625q0.90625 0 0.90625 1.0l0 1.859375l-0.484375 0l0 -1.859375q0 -0.3125 -0.140625 -0.453125q-0.125 -0.140625 -0.421875 -0.140625q-0.234375 0 -0.421875 0.125q-0.171875 0.125 -0.265625 0.328125l0 2.0l-0.484375 0l0 -4.0l0.484375 0l0 1.53125zm3.6221313 2.515625q-0.578125 0 -0.9375 -0.375q-0.359375 -0.375 -0.359375 -1.0l0 -0.09375q0 -0.421875 0.15625 -0.75q0.171875 -0.328125 0.453125 -0.5q0.296875 -0.1875 0.625 -0.1875q0.546875 0 0.84375 0.359375q0.3125 0.359375 0.3125 1.03125l0 0.203125l-1.90625 0q0.015625 0.40625 0.25 0.671875q0.234375 0.25 0.59375 0.25q0.25 0 0.421875 -0.09375q0.1875 -0.109375 0.3125 -0.28125l0.296875 0.234375q-0.359375 0.53125 -1.0625 0.53125zm-0.0625 -2.515625q-0.28125 0 -0.484375 0.21875q-0.203125 0.203125 -0.25 0.578125l1.421875 0l0 -0.03125q-0.03125 -0.359375 -0.203125 -0.5625q-0.171875 -0.203125 -0.484375 -0.203125zm1.6040039 1.03125q0 -0.640625 0.296875 -1.03125q0.3125 -0.390625 0.8125 -0.390625q0.5 0 0.78125 0.328125l0 -1.46875l0.484375 0l0 4.0l-0.4375 0l-0.03125 -0.296875q-0.28125 0.34375 -0.796875 0.34375q-0.5 0 -0.8125 -0.390625q-0.296875 -0.40625 -0.296875 -1.046875l0 -0.046875zm0.484375 0.0625q0 0.484375 0.1875 0.75q0.203125 0.265625 0.546875 0.265625q0.46875 0 0.671875 -0.40625l0 -1.296875q-0.21875 -0.390625 -0.65625 -0.390625q-0.359375 0 -0.5625 0.28125q-0.1875 0.265625 -0.1875 0.796875zm3.2080078 -0.109375l0 1.484375l-0.5 0l0 -3.78125l1.40625 0q0.609375 0 0.953125 0.3125q0.359375 0.3125 0.359375 0.84375q0 0.546875 -0.34375 0.84375q-0.34375 0.296875 -0.984375 0.296875l-0.890625 0zm0 -0.40625l0.90625 0q0.390625 0 0.609375 -0.1875q0.21875 -0.1875 0.21875 -0.546875q0 -0.34375 -0.21875 -0.546875q-0.21875 -0.203125 -0.59375 -0.203125l-0.921875 0l0 1.484375zm4.5045166 1.890625q-0.046875 -0.078125 -0.078125 -0.296875q-0.328125 0.34375 -0.796875 0.34375q-0.421875 0 -0.6875 -0.234375q-0.265625 -0.234375 -0.265625 -0.59375q0 -0.4375 0.328125 -0.671875q0.34375 -0.25 0.953125 -0.25l0.46875 0l0 -0.21875q0 -0.265625 -0.15625 -0.40625q-0.15625 -0.15625 -0.4375 -0.15625q-0.265625 0 -0.4375 0.140625q-0.171875 0.125 -0.171875 0.3125l-0.484375 0q0 -0.21875 0.140625 -0.40625q0.15625 -0.203125 0.40625 -0.3125q0.265625 -0.109375 0.5625 -0.109375q0.5 0 0.765625 0.25q0.28125 0.234375 0.296875 0.65625l0 1.296875q0 0.390625 0.09375 0.609375l0 0.046875l-0.5 0zm-0.8125 -0.359375q0.234375 0 0.4375 -0.109375q0.203125 -0.125 0.296875 -0.3125l0 -0.578125l-0.375 0q-0.890625 0 -0.890625 0.515625q0 0.21875 0.140625 0.359375q0.15625 0.125 0.390625 0.125zm3.6013489 -0.390625q0 -0.1875 -0.15625 -0.296875q-0.140625 -0.109375 -0.5 -0.1875q-0.359375 -0.078125 -0.578125 -0.1875q-0.21875 -0.109375 -0.328125 -0.25q-0.09375 -0.15625 -0.09375 -0.375q0 -0.34375 0.28125 -0.578125q0.296875 -0.234375 0.765625 -0.234375q0.46875 0 0.765625 0.25q0.296875 0.234375 0.296875 0.625l-0.484375 0q0 -0.203125 -0.171875 -0.34375q-0.15625 -0.140625 -0.40625 -0.140625q-0.265625 0 -0.421875 0.109375q-0.140625 0.109375 -0.140625 0.296875q0 0.171875 0.125 0.265625q0.140625 0.09375 0.5 0.171875q0.375 0.078125 0.59375 0.1875q0.21875 0.109375 0.328125 0.28125q0.109375 0.15625 0.109375 0.375q0 0.375 -0.3125 0.609375q-0.296875 0.21875 -0.765625 0.21875q-0.34375 0 -0.609375 -0.109375q-0.25 -0.125 -0.40625 -0.328125q-0.140625 -0.21875 -0.140625 -0.46875l0.484375 0q0 0.234375 0.1875 0.375q0.1875 0.140625 0.484375 0.140625q0.265625 0 0.421875 -0.109375q0.171875 -0.109375 0.171875 -0.296875zm2.7473145 0q0 -0.1875 -0.15625 -0.296875q-0.140625 -0.109375 -0.5 -0.1875q-0.359375 -0.078125 -0.578125 -0.1875q-0.21875 -0.109375 -0.328125 -0.25q-0.09375 -0.15625 -0.09375 -0.375q0 -0.34375 0.28125 -0.578125q0.296875 -0.234375 0.765625 -0.234375q0.46875 0 0.765625 0.25q0.296875 0.234375 0.296875 0.625l-0.484375 0q0 -0.203125 -0.171875 -0.34375q-0.15625 -0.140625 -0.40625 -0.140625q-0.265625 0 -0.421875 0.109375q-0.140625 0.109375 -0.140625 0.296875q0 0.171875 0.125 0.265625q0.140625 0.09375 0.5 0.171875q0.375 0.078125 0.59375 0.1875q0.21875 0.109375 0.328125 0.28125q0.109375 0.15625 0.109375 0.375q0 0.375 -0.3125 0.609375q-0.296875 0.21875 -0.765625 0.21875q-0.34375 0 -0.609375 -0.109375q-0.25 -0.125 -0.40625 -0.328125q-0.140625 -0.21875 -0.140625 -0.46875l0.484375 0q0 0.234375 0.1875 0.375q0.1875 0.140625 0.484375 0.140625q0.265625 0 0.421875 -0.109375q0.171875 -0.109375 0.171875 -0.296875zm3.6066895 0.09375l0.53125 -2.15625l0.484375 0l-0.8125 2.8125l-0.390625 0l-0.6875 -2.140625l-0.671875 2.140625l-0.390625 0l-0.8125 -2.8125l0.484375 0l0.546875 2.109375l0.65625 -2.109375l0.390625 0l0.671875 2.15625zm1.3789062 -0.78125q0 -0.40625 0.15625 -0.734375q0.171875 -0.34375 0.453125 -0.515625q0.296875 -0.171875 0.671875 -0.171875q0.578125 0 0.921875 0.390625q0.359375 0.390625 0.359375 1.0625l0 0.03125q0 0.40625 -0.15625 0.734375q-0.15625 0.328125 -0.453125 0.515625q-0.28125 0.171875 -0.671875 0.171875q-0.5625 0 -0.921875 -0.390625q-0.359375 -0.40625 -0.359375 -1.0625l0 -0.03125zm0.484375 0.0625q0 0.46875 0.21875 0.75q0.21875 0.28125 0.578125 0.28125q0.375 0 0.578125 -0.28125q0.21875 -0.296875 0.21875 -0.8125q0 -0.453125 -0.21875 -0.734375q-0.21875 -0.296875 -0.578125 -0.296875q-0.359375 0 -0.578125 0.28125q-0.21875 0.28125 -0.21875 0.8125zm4.0386963 -1.015625q-0.109375 -0.015625 -0.234375 -0.015625q-0.46875 0 -0.640625 0.40625l0 2.0l-0.484375 0l0 -2.8125l0.46875 0l0.015625 0.328125q0.234375 -0.375 0.671875 -0.375q0.140625 0 0.203125 0.03125l0 0.4375zm0.2846985 0.953125q0 -0.640625 0.296875 -1.03125q0.3125 -0.390625 0.8125 -0.390625q0.5 0 0.78125 0.328125l0 -1.46875l0.484375 0l0 4.0l-0.4375 0l-0.03125 -0.296875q-0.28125 0.34375 -0.796875 0.34375q-0.5 0 -0.8125 -0.390625q-0.296875 -0.40625 -0.296875 -1.046875l0 -0.046875zm0.484375 0.0625q0 0.484375 0.1875 0.75q0.203125 0.265625 0.546875 0.265625q0.46875 0 0.671875 -0.40625l0 -1.296875q-0.21875 -0.390625 -0.65625 -0.390625q-0.359375 0 -0.5625 0.28125q-0.1875 0.265625 -0.1875 0.796875zm4.161133 1.375l-0.484375 0l0 -3.203125l-0.96875 0.359375l0 -0.4375l1.390625 -0.53125l0.0625 0l0 3.8125z" fill-rule="nonzero"/><path fill="#ffffff" d="m326.38046 232.68593l46.410522 0l0 13.599258l-46.410522 0z" fill-rule="evenodd"/><path stroke="#b45f06" stroke-width="1.0" stroke-linejoin="round" stroke-linecap="butt" d="m326.38046 232.68593l46.410522 0l0 13.599258l-46.410522 0z" fill-rule="evenodd"/><path fill="#b45f06" d="m345.04404 241.32431q-0.28125 0.328125 -0.828125 0.328125q-0.453125 0 -0.6875 -0.25q-0.234375 -0.265625 -0.234375 -0.78125l0 -1.828125l0.46875 0l0 1.8125q0 0.640625 0.53125 0.640625q0.546875 0 0.734375 -0.40625l0 -2.046875l0.484375 0l0 2.8125l-0.46875 0l0 -0.28125zm2.8278809 -0.46875q0 -0.1875 -0.15625 -0.296875q-0.140625 -0.109375 -0.5 -0.1875q-0.359375 -0.078125 -0.578125 -0.1875q-0.21875 -0.109375 -0.328125 -0.25q-0.09375 -0.15625 -0.09375 -0.375q0 -0.34375 0.28125 -0.578125q0.296875 -0.234375 0.765625 -0.234375q0.46875 0 0.765625 0.25q0.296875 0.234375 0.296875 0.625l-0.484375 0q0 -0.203125 -0.171875 -0.34375q-0.15625 -0.140625 -0.40625 -0.140625q-0.265625 0 -0.421875 0.109375q-0.140625 0.109375 -0.140625 0.296875q0 0.171875 0.125 0.265625q0.140625 0.09375 0.5 0.171875q0.375 0.078125 0.59375 0.1875q0.21875 0.109375 0.328125 0.28125q0.109375 0.15625 0.109375 0.375q0 0.375 -0.3125 0.609375q-0.296875 0.21875 -0.765625 0.21875q-0.34375 0 -0.609375 -0.109375q-0.25 -0.125 -0.40625 -0.328125q-0.140625 -0.21875 -0.140625 -0.46875l0.484375 0q0 0.234375 0.1875 0.375q0.1875 0.140625 0.484375 0.140625q0.265625 0 0.421875 -0.109375q0.171875 -0.109375 0.171875 -0.296875zm2.2785645 0.796875q-0.578125 0 -0.9375 -0.375q-0.359375 -0.375 -0.359375 -1.0l0 -0.09375q0 -0.421875 0.15625 -0.75q0.171875 -0.328125 0.453125 -0.5q0.296875 -0.1875 0.625 -0.1875q0.546875 0 0.84375 0.359375q0.3125 0.359375 0.3125 1.03125l0 0.203125l-1.90625 0q0.015625 0.40625 0.25 0.671875q0.234375 0.25 0.59375 0.25q0.25 0 0.421875 -0.09375q0.1875 -0.109375 0.3125 -0.28125l0.296875 0.234375q-0.359375 0.53125 -1.0625 0.53125zm-0.0625 -2.515625q-0.28125 0 -0.484375 0.21875q-0.203125 0.203125 -0.25 0.578125l1.421875 0l0 -0.03125q-0.03125 -0.359375 -0.203125 -0.5625q-0.171875 -0.203125 -0.484375 -0.203125zm3.072754 0.078125q-0.109375 -0.015625 -0.234375 -0.015625q-0.46875 0 -0.640625 0.40625l0 2.0l-0.484375 0l0 -2.8125l0.46875 0l0.015625 0.328125q0.234375 -0.375 0.671875 -0.375q0.140625 0 0.203125 0.03125l0 0.4375zm2.881073 2.390625l-2.484375 0l0 -0.34375l1.3125 -1.453125q0.296875 -0.34375 0.40625 -0.546875q0.109375 -0.203125 0.109375 -0.421875q0 -0.296875 -0.1875 -0.484375q-0.171875 -0.1875 -0.46875 -0.1875q-0.359375 0 -0.5625 0.203125q-0.203125 0.203125 -0.203125 0.5625l-0.484375 0q0 -0.515625 0.34375 -0.84375q0.34375 -0.328125 0.90625 -0.328125q0.53125 0 0.828125 0.28125q0.3125 0.28125 0.3125 0.734375q0 0.5625 -0.71875 1.328125l-1.015625 1.109375l1.90625 0l0 0.390625z" fill-rule="nonzero"/><path fill="#ffffff" d="m372.7951 232.68593l43.40506 0l0 13.599274l-43.40506 0z" fill-rule="evenodd"/><path stroke="#b45f06" stroke-width="1.0" stroke-linejoin="round" stroke-linecap="butt" d="m372.7951 232.68593l43.40506 0l0 13.599274l-43.40506 0z" fill-rule="evenodd"/><path fill="#000000" d="m390.3771 240.82431q0 -0.140625 -0.140625 -0.21875q-0.125 -0.078125 -0.4375 -0.140625q-1.0 -0.203125 -1.0 -0.84375q0 -0.375 0.3125 -0.625q0.3125 -0.25 0.8125 -0.25q0.53125 0 0.84375 0.25q0.328125 0.25 0.328125 0.65625l-0.75 0q0 -0.171875 -0.109375 -0.265625q-0.09375 -0.109375 -0.3125 -0.109375q-0.1875 0 -0.296875 0.09375q-0.109375 0.078125 -0.109375 0.203125q0 0.125 0.109375 0.203125q0.125 0.078125 0.40625 0.140625q0.28125 0.046875 0.484375 0.125q0.59375 0.21875 0.59375 0.75q0 0.390625 -0.328125 0.625q-0.328125 0.234375 -0.859375 0.234375q-0.359375 0 -0.640625 -0.125q-0.265625 -0.125 -0.421875 -0.34375q-0.15625 -0.21875 -0.15625 -0.46875l0.71875 0q0.015625 0.203125 0.140625 0.3125q0.140625 0.09375 0.375 0.09375q0.21875 0 0.328125 -0.078125q0.109375 -0.078125 0.109375 -0.21875zm2.8489075 0.78125q-0.046875 -0.09375 -0.078125 -0.25q-0.265625 0.296875 -0.703125 0.296875q-0.421875 0 -0.703125 -0.234375q-0.265625 -0.234375 -0.265625 -0.609375q0 -0.4375 0.328125 -0.671875q0.34375 -0.25 0.96875 -0.25l0.34375 0l0 -0.15625q0 -0.203125 -0.109375 -0.3125q-0.09375 -0.125 -0.3125 -0.125q-0.1875 0 -0.296875 0.09375q-0.109375 0.09375 -0.109375 0.25l-0.75 0q0 -0.25 0.15625 -0.453125q0.15625 -0.203125 0.421875 -0.3125q0.28125 -0.125 0.625 -0.125q0.515625 0 0.8125 0.265625q0.3125 0.25 0.3125 0.71875l0 1.21875q0.015625 0.40625 0.109375 0.609375l0 0.046875l-0.75 0zm-0.625 -0.515625q0.171875 0 0.3125 -0.078125q0.140625 -0.078125 0.203125 -0.203125l0 -0.484375l-0.28125 0q-0.5625 0 -0.59375 0.390625l-0.015625 0.046875q0 0.140625 0.09375 0.234375q0.109375 0.09375 0.28125 0.09375zm2.6378174 0.515625l-0.75 0l0 -4.0l0.75 0l0 4.0zm1.5220642 -3.5l0 0.6875l0.484375 0l0 0.546875l-0.484375 0l0 1.40625q0 0.15625 0.0625 0.234375q0.0625 0.0625 0.234375 0.0625q0.125 0 0.21875 -0.015625l0 0.5625q-0.21875 0.0625 -0.453125 0.0625q-0.796875 0 -0.8125 -0.796875l0 -1.515625l-0.40625 0l0 -0.546875l0.40625 0l0 -0.6875l0.75 0zm3.4721985 3.5l-2.609375 0l0 -0.515625l1.234375 -1.3125q0.25 -0.265625 0.375 -0.46875q0.125 -0.21875 0.125 -0.390625q0 -0.25 -0.140625 -0.390625q-0.125 -0.15625 -0.359375 -0.15625q-0.25 0 -0.40625 0.1875q-0.140625 0.171875 -0.140625 0.453125l-0.75 0q0 -0.34375 0.15625 -0.625q0.171875 -0.296875 0.46875 -0.453125q0.296875 -0.171875 0.6875 -0.171875q0.578125 0 0.90625 0.28125q0.328125 0.28125 0.328125 0.796875q0 0.28125 -0.15625 0.578125q-0.140625 0.28125 -0.484375 0.671875l-0.875 0.90625l1.640625 0l0 0.609375z" fill-rule="nonzero"/><path fill="#ffffff" d="m416.20206 232.68593l73.36594 0l0 13.599274l-73.36594 0z" fill-rule="evenodd"/><path stroke="#b45f06" stroke-width="1.0" stroke-linejoin="round" stroke-linecap="butt" d="m416.20206 232.68593l73.36594 0l0 13.599274l-73.36594 0z" fill-rule="evenodd"/><path fill="#b45f06" d="m431.7984 239.13681q0.328125 -0.390625 0.828125 -0.390625q0.90625 0 0.90625 1.0l0 1.859375l-0.484375 0l0 -1.859375q0 -0.3125 -0.140625 -0.453125q-0.125 -0.140625 -0.421875 -0.140625q-0.234375 0 -0.421875 0.125q-0.171875 0.125 -0.265625 0.328125l0 2.0l-0.484375 0l0 -4.0l0.484375 0l0 1.53125zm4.2002563 2.46875q-0.046875 -0.078125 -0.078125 -0.296875q-0.328125 0.34375 -0.796875 0.34375q-0.421875 0 -0.6875 -0.234375q-0.265625 -0.234375 -0.265625 -0.59375q0 -0.4375 0.328125 -0.671875q0.34375 -0.25 0.953125 -0.25l0.46875 0l0 -0.21875q0 -0.265625 -0.15625 -0.40625q-0.15625 -0.15625 -0.4375 -0.15625q-0.265625 0 -0.4375 0.140625q-0.171875 0.125 -0.171875 0.3125l-0.484375 0q0 -0.21875 0.140625 -0.40625q0.15625 -0.203125 0.40625 -0.3125q0.265625 -0.109375 0.5625 -0.109375q0.5 0 0.765625 0.25q0.28125 0.234375 0.296875 0.65625l0 1.296875q0 0.390625 0.09375 0.609375l0 0.046875l-0.5 0zm-0.8125 -0.359375q0.234375 0 0.4375 -0.109375q0.203125 -0.125 0.296875 -0.3125l0 -0.578125l-0.375 0q-0.890625 0 -0.890625 0.515625q0 0.21875 0.140625 0.359375q0.15625 0.125 0.390625 0.125zm3.6013489 -0.390625q0 -0.1875 -0.15625 -0.296875q-0.140625 -0.109375 -0.5 -0.1875q-0.359375 -0.078125 -0.578125 -0.1875q-0.21875 -0.109375 -0.328125 -0.25q-0.09375 -0.15625 -0.09375 -0.375q0 -0.34375 0.28125 -0.578125q0.296875 -0.234375 0.765625 -0.234375q0.46875 0 0.765625 0.25q0.296875 0.234375 0.296875 0.625l-0.484375 0q0 -0.203125 -0.171875 -0.34375q-0.15625 -0.140625 -0.40625 -0.140625q-0.265625 0 -0.421875 0.109375q-0.140625 0.109375 -0.140625 0.296875q0 0.171875 0.125 0.265625q0.140625 0.09375 0.5 0.171875q0.375 0.078125 0.59375 0.1875q0.21875 0.109375 0.328125 0.28125q0.109375 0.15625 0.109375 0.375q0 0.375 -0.3125 0.609375q-0.296875 0.21875 -0.765625 0.21875q-0.34375 0 -0.609375 -0.109375q-0.25 -0.125 -0.40625 -0.328125q-0.140625 -0.21875 -0.140625 -0.46875l0.484375 0q0 0.234375 0.1875 0.375q0.1875 0.140625 0.484375 0.140625q0.265625 0 0.421875 -0.109375q0.171875 -0.109375 0.171875 -0.296875zm1.5910645 -1.71875q0.328125 -0.390625 0.828125 -0.390625q0.90625 0 0.90625 1.0l0 1.859375l-0.484375 0l0 -1.859375q0 -0.3125 -0.140625 -0.453125q-0.125 -0.140625 -0.421875 -0.140625q-0.234375 0 -0.421875 0.125q-0.171875 0.125 -0.265625 0.328125l0 2.0l-0.484375 0l0 -4.0l0.484375 0l0 1.53125zm3.6221313 2.515625q-0.578125 0 -0.9375 -0.375q-0.359375 -0.375 -0.359375 -1.0l0 -0.09375q0 -0.421875 0.15625 -0.75q0.171875 -0.328125 0.453125 -0.5q0.296875 -0.1875 0.625 -0.1875q0.546875 0 0.84375 0.359375q0.3125 0.359375 0.3125 1.03125l0 0.203125l-1.90625 0q0.015625 0.40625 0.25 0.671875q0.234375 0.25 0.59375 0.25q0.25 0 0.421875 -0.09375q0.1875 -0.109375 0.3125 -0.28125l0.296875 0.234375q-0.359375 0.53125 -1.0625 0.53125zm-0.0625 -2.515625q-0.28125 0 -0.484375 0.21875q-0.203125 0.203125 -0.25 0.578125l1.421875 0l0 -0.03125q-0.03125 -0.359375 -0.203125 -0.5625q-0.171875 -0.203125 -0.484375 -0.203125zm1.6040039 1.03125q0 -0.640625 0.296875 -1.03125q0.3125 -0.390625 0.8125 -0.390625q0.5 0 0.78125 0.328125l0 -1.46875l0.484375 0l0 4.0l-0.4375 0l-0.03125 -0.296875q-0.28125 0.34375 -0.796875 0.34375q-0.5 0 -0.8125 -0.390625q-0.296875 -0.40625 -0.296875 -1.046875l0 -0.046875zm0.484375 0.0625q0 0.484375 0.1875 0.75q0.203125 0.265625 0.546875 0.265625q0.46875 0 0.671875 -0.40625l0 -1.296875q-0.21875 -0.390625 -0.65625 -0.390625q-0.359375 0 -0.5625 0.28125q-0.1875 0.265625 -0.1875 0.796875zm3.2080078 -0.109375l0 1.484375l-0.5 0l0 -3.78125l1.40625 0q0.609375 0 0.953125 0.3125q0.359375 0.3125 0.359375 0.84375q0 0.546875 -0.34375 0.84375q-0.34375 0.296875 -0.984375 0.296875l-0.890625 0zm0 -0.40625l0.90625 0q0.390625 0 0.609375 -0.1875q0.21875 -0.1875 0.21875 -0.546875q0 -0.34375 -0.21875 -0.546875q-0.21875 -0.203125 -0.59375 -0.203125l-0.921875 0l0 1.484375zm4.5045166 1.890625q-0.046875 -0.078125 -0.078125 -0.296875q-0.328125 0.34375 -0.796875 0.34375q-0.421875 0 -0.6875 -0.234375q-0.265625 -0.234375 -0.265625 -0.59375q0 -0.4375 0.328125 -0.671875q0.34375 -0.25 0.953125 -0.25l0.46875 0l0 -0.21875q0 -0.265625 -0.15625 -0.40625q-0.15625 -0.15625 -0.4375 -0.15625q-0.265625 0 -0.4375 0.140625q-0.171875 0.125 -0.171875 0.3125l-0.484375 0q0 -0.21875 0.140625 -0.40625q0.15625 -0.203125 0.40625 -0.3125q0.265625 -0.109375 0.5625 -0.109375q0.5 0 0.765625 0.25q0.28125 0.234375 0.296875 0.65625l0 1.296875q0 0.390625 0.09375 0.609375l0 0.046875l-0.5 0zm-0.8125 -0.359375q0.234375 0 0.4375 -0.109375q0.203125 -0.125 0.296875 -0.3125l0 -0.578125l-0.375 0q-0.890625 0 -0.890625 0.515625q0 0.21875 0.140625 0.359375q0.15625 0.125 0.390625 0.125zm3.6013489 -0.390625q0 -0.1875 -0.15625 -0.296875q-0.140625 -0.109375 -0.5 -0.1875q-0.359375 -0.078125 -0.578125 -0.1875q-0.21875 -0.109375 -0.328125 -0.25q-0.09375 -0.15625 -0.09375 -0.375q0 -0.34375 0.28125 -0.578125q0.296875 -0.234375 0.765625 -0.234375q0.46875 0 0.765625 0.25q0.296875 0.234375 0.296875 0.625l-0.484375 0q0 -0.203125 -0.171875 -0.34375q-0.15625 -0.140625 -0.40625 -0.140625q-0.265625 0 -0.421875 0.109375q-0.140625 0.109375 -0.140625 0.296875q0 0.171875 0.125 0.265625q0.140625 0.09375 0.5 0.171875q0.375 0.078125 0.59375 0.1875q0.21875 0.109375 0.328125 0.28125q0.109375 0.15625 0.109375 0.375q0 0.375 -0.3125 0.609375q-0.296875 0.21875 -0.765625 0.21875q-0.34375 0 -0.609375 -0.109375q-0.25 -0.125 -0.40625 -0.328125q-0.140625 -0.21875 -0.140625 -0.46875l0.484375 0q0 0.234375 0.1875 0.375q0.1875 0.140625 0.484375 0.140625q0.265625 0 0.421875 -0.109375q0.171875 -0.109375 0.171875 -0.296875zm2.7473145 0q0 -0.1875 -0.15625 -0.296875q-0.140625 -0.109375 -0.5 -0.1875q-0.359375 -0.078125 -0.578125 -0.1875q-0.21875 -0.109375 -0.328125 -0.25q-0.09375 -0.15625 -0.09375 -0.375q0 -0.34375 0.28125 -0.578125q0.296875 -0.234375 0.765625 -0.234375q0.46875 0 0.765625 0.25q0.296875 0.234375 0.296875 0.625l-0.484375 0q0 -0.203125 -0.171875 -0.34375q-0.15625 -0.140625 -0.40625 -0.140625q-0.265625 0 -0.421875 0.109375q-0.140625 0.109375 -0.140625 0.296875q0 0.171875 0.125 0.265625q0.140625 0.09375 0.5 0.171875q0.375 0.078125 0.59375 0.1875q0.21875 0.109375 0.328125 0.28125q0.109375 0.15625 0.109375 0.375q0 0.375 -0.3125 0.609375q-0.296875 0.21875 -0.765625 0.21875q-0.34375 0 -0.609375 -0.109375q-0.25 -0.125 -0.40625 -0.328125q-0.140625 -0.21875 -0.140625 -0.46875l0.484375 0q0 0.234375 0.1875 0.375q0.1875 0.140625 0.484375 0.140625q0.265625 0 0.421875 -0.109375q0.171875 -0.109375 0.171875 -0.296875zm3.6066895 0.09375l0.53125 -2.15625l0.484375 0l-0.8125 2.8125l-0.390625 0l-0.6875 -2.140625l-0.671875 2.140625l-0.390625 0l-0.8125 -2.8125l0.484375 0l0.546875 2.109375l0.65625 -2.109375l0.390625 0l0.671875 2.15625zm1.3789062 -0.78125q0 -0.40625 0.15625 -0.734375q0.171875 -0.34375 0.453125 -0.515625q0.296875 -0.171875 0.671875 -0.171875q0.578125 0 0.921875 0.390625q0.359375 0.390625 0.359375 1.0625l0 0.03125q0 0.40625 -0.15625 0.734375q-0.15625 0.328125 -0.453125 0.515625q-0.28125 0.171875 -0.671875 0.171875q-0.5625 0 -0.921875 -0.390625q-0.359375 -0.40625 -0.359375 -1.0625l0 -0.03125zm0.484375 0.0625q0 0.46875 0.21875 0.75q0.21875 0.28125 0.578125 0.28125q0.375 0 0.578125 -0.28125q0.21875 -0.296875 0.21875 -0.8125q0 -0.453125 -0.21875 -0.734375q-0.21875 -0.296875 -0.578125 -0.296875q-0.359375 0 -0.578125 0.28125q-0.21875 0.28125 -0.21875 0.8125zm4.0386963 -1.015625q-0.109375 -0.015625 -0.234375 -0.015625q-0.46875 0 -0.640625 0.40625l0 2.0l-0.484375 0l0 -2.8125l0.46875 0l0.015625 0.328125q0.234375 -0.375 0.671875 -0.375q0.140625 0 0.203125 0.03125l0 0.4375zm0.2846985 0.953125q0 -0.640625 0.296875 -1.03125q0.3125 -0.390625 0.8125 -0.390625q0.5 0 0.78125 0.328125l0 -1.46875l0.484375 0l0 4.0l-0.4375 0l-0.03125 -0.296875q-0.28125 0.34375 -0.796875 0.34375q-0.5 0 -0.8125 -0.390625q-0.296875 -0.40625 -0.296875 -1.046875l0 -0.046875zm0.484375 0.0625q0 0.484375 0.1875 0.75q0.203125 0.265625 0.546875 0.265625q0.46875 0 0.671875 -0.40625l0 -1.296875q-0.21875 -0.390625 -0.65625 -0.390625q-0.359375 0 -0.5625 0.28125q-0.1875 0.265625 -0.1875 0.796875zm5.067383 1.375l-2.484375 0l0 -0.34375l1.3125 -1.453125q0.296875 -0.34375 0.40625 -0.546875q0.109375 -0.203125 0.109375 -0.421875q0 -0.296875 -0.1875 -0.484375q-0.171875 -0.1875 -0.46875 -0.1875q-0.359375 0 -0.5625 0.203125q-0.203125 0.203125 -0.203125 0.5625l-0.484375 0q0 -0.515625 0.34375 -0.84375q0.34375 -0.328125 0.90625 -0.328125q0.53125 0 0.828125 0.28125q0.3125 0.28125 0.3125 0.734375q0 0.5625 -0.71875 1.328125l-1.015625 1.109375l1.90625 0l0 0.390625z" fill-rule="nonzero"/><path fill="#ffffff" d="m326.38046 246.28523l46.410522 0l0 13.599258l-46.410522 0z" fill-rule="evenodd"/><path stroke="#b45f06" stroke-width="1.0" stroke-linejoin="round" stroke-linecap="butt" d="m326.38046 246.28523l46.410522 0l0 13.599258l-46.410522 0z" fill-rule="evenodd"/><path fill="#b45f06" d="m347.8573 254.95486q0 -0.125 0.0625 -0.203125q0.078125 -0.09375 0.21875 -0.09375q0.15625 0 0.234375 0.09375q0.078125 0.078125 0.078125 0.203125q0 0.125 -0.078125 0.203125q-0.078125 0.078125 -0.234375 0.078125q-0.140625 0 -0.21875 -0.078125q-0.0625 -0.078125 -0.0625 -0.203125zm1.4022827 0q0 -0.125 0.0625 -0.203125q0.078125 -0.09375 0.21875 -0.09375q0.15625 0 0.234375 0.09375q0.078125 0.078125 0.078125 0.203125q0 0.125 -0.078125 0.203125q-0.078125 0.078125 -0.234375 0.078125q-0.140625 0 -0.21875 -0.078125q-0.0625 -0.078125 -0.0625 -0.203125zm1.4022827 0q0 -0.125 0.0625 -0.203125q0.078125 -0.09375 0.21875 -0.09375q0.15625 0 0.234375 0.09375q0.078125 0.078125 0.078125 0.203125q0 0.125 -0.078125 0.203125q-0.078125 0.078125 -0.234375 0.078125q-0.140625 0 -0.21875 -0.078125q-0.0625 -0.078125 -0.0625 -0.203125z" fill-rule="nonzero"/><path fill="#ffffff" d="m372.7951 246.28525l43.40506 0l0 13.599274l-43.40506 0z" fill-rule="evenodd"/><path stroke="#b45f06" stroke-width="1.0" stroke-linejoin="round" stroke-linecap="butt" d="m372.7951 246.28525l43.40506 0l0 13.599274l-43.40506 0z" fill-rule="evenodd"/><path fill="#000000" d="m392.50378 254.82988q0 -0.171875 0.109375 -0.28125q0.125 -0.109375 0.3125 -0.109375q0.1875 0 0.296875 0.109375q0.125 0.109375 0.125 0.28125q0 0.1875 -0.125 0.296875q-0.109375 0.109375 -0.296875 0.109375q-0.1875 0 -0.3125 -0.109375q-0.109375 -0.109375 -0.109375 -0.296875zm1.5479736 0q0 -0.171875 0.109375 -0.28125q0.125 -0.109375 0.3125 -0.109375q0.1875 0 0.296875 0.109375q0.125 0.109375 0.125 0.28125q0 0.1875 -0.125 0.296875q-0.109375 0.109375 -0.296875 0.109375q-0.1875 0 -0.3125 -0.109375q-0.109375 -0.109375 -0.109375 -0.296875zm1.5479736 0q0 -0.171875 0.109375 -0.28125q0.125 -0.109375 0.3125 -0.109375q0.1875 0 0.296875 0.109375q0.125 0.109375 0.125 0.28125q0 0.1875 -0.125 0.296875q-0.109375 0.109375 -0.296875 0.109375q-0.1875 0 -0.3125 -0.109375q-0.109375 -0.109375 -0.109375 -0.296875z" fill-rule="nonzero"/><path fill="#ffffff" d="m416.20206 246.28525l73.36594 0l0 13.599274l-73.36594 0z" fill-rule="evenodd"/><path stroke="#b45f06" stroke-width="1.0" stroke-linejoin="round" stroke-linecap="butt" d="m416.20206 246.28525l73.36594 0l0 13.599274l-73.36594 0z" fill-rule="evenodd"/><path fill="#b45f06" d="m451.1566 254.95488q0 -0.125 0.0625 -0.203125q0.078125 -0.09375 0.21875 -0.09375q0.15625 0 0.234375 0.09375q0.078125 0.078125 0.078125 0.203125q0 0.125 -0.078125 0.203125q-0.078125 0.078125 -0.234375 0.078125q-0.140625 0 -0.21875 -0.078125q-0.0625 -0.078125 -0.0625 -0.203125zm1.4022827 0q0 -0.125 0.0625 -0.203125q0.078125 -0.09375 0.21875 -0.09375q0.15625 0 0.234375 0.09375q0.078125 0.078125 0.078125 0.203125q0 0.125 -0.078125 0.203125q-0.078125 0.078125 -0.234375 0.078125q-0.140625 0 -0.21875 -0.078125q-0.0625 -0.078125 -0.0625 -0.203125zm1.4022827 0q0 -0.125 0.0625 -0.203125q0.078125 -0.09375 0.21875 -0.09375q0.15625 0 0.234375 0.09375q0.078125 0.078125 0.078125 0.203125q0 0.125 -0.078125 0.203125q-0.078125 0.078125 -0.234375 0.078125q-0.140625 0 -0.21875 -0.078125q-0.0625 -0.078125 -0.0625 -0.203125z" fill-rule="nonzero"/></g></svg>