<svg version="1.1" viewBox="0.0 0.0 556.6692913385826 336.5800524934383" fill="none" stroke="none" stroke-linecap="square" stroke-miterlimit="10" xmlns:xlink="http://www.w3.org/1999/xlink" xmlns="http://www.w3.org/2000/svg"><clipPath id="p.0"><path d="m0 0l556.6693 0l0 336.58005l-556.6693 0l0 -336.58005z" clip-rule="nonzero"/></clipPath><g clip-path="url(#p.0)"><path fill="#000000" fill-opacity="0.0" d="m0 0l556.6693 0l0 336.58005l-556.6693 0z" fill-rule="evenodd"/><path fill="#cfe2f3" d="m38.1916 9.293692l479.81104 0l0 205.76378l-479.81104 0z" fill-rule="evenodd"/><path stroke="#0b5394" stroke-width="1.0" stroke-linejoin="round" stroke-linecap="butt" d="m38.1916 9.293692l479.81104 0l0 205.76378l-479.81104 0z" fill-rule="evenodd"/><path fill="#0b5394" d="m263.52673 29.592442q0 0.921875 -0.46875 1.578125q-0.453125 0.65625 -1.28125 1.0q-0.828125 0.34375 -1.953125 0.34375q-0.59375 0 -1.125 -0.0625q-0.53125 -0.046875 -0.96875 -0.15625q-0.4375 -0.109375 -0.78125 -0.265625l0 -1.171875q0.53125 0.234375 1.296875 0.421875q0.78125 0.1875 1.625 0.1875q0.796875 0 1.328125 -0.203125q0.546875 -0.21875 0.828125 -0.609375q0.296875 -0.40625 0.296875 -0.96875q0 -0.53125 -0.25 -0.890625q-0.234375 -0.359375 -0.78125 -0.65625q-0.546875 -0.296875 -1.484375 -0.640625q-0.671875 -0.234375 -1.1875 -0.515625q-0.5 -0.28125 -0.84375 -0.640625q-0.34375 -0.359375 -0.515625 -0.828125q-0.171875 -0.46875 -0.171875 -1.078125q0 -0.84375 0.421875 -1.4375q0.421875 -0.59375 1.171875 -0.90625q0.765625 -0.328125 1.75 -0.328125q0.828125 0 1.53125 0.15625q0.71875 0.15625 1.3125 0.421875l-0.375 1.046875q-0.5625 -0.234375 -1.203125 -0.390625q-0.625 -0.171875 -1.296875 -0.171875q-0.671875 0 -1.140625 0.203125q-0.453125 0.203125 -0.703125 0.5625q-0.234375 0.34375 -0.234375 0.84375q0 0.546875 0.21875 0.921875q0.234375 0.359375 0.75 0.640625q0.515625 0.28125 1.359375 0.59375q0.921875 0.328125 1.5625 0.71875q0.640625 0.375 0.96875 0.921875q0.34375 0.53125 0.34375 1.359375zm4.974121 -5.203125q1.015625 0 1.71875 0.453125q0.71875 0.4375 1.09375 1.234375q0.390625 0.796875 0.390625 1.859375l0 0.734375l-5.421875 0q0.015625 1.390625 0.6875 2.109375q0.671875 0.71875 1.875 0.71875q0.75 0 1.3125 -0.125q0.578125 -0.140625 1.1875 -0.40625l0 1.046875q-0.59375 0.265625 -1.171875 0.375q-0.578125 0.125 -1.375 0.125q-1.140625 0 -1.984375 -0.453125q-0.828125 -0.46875 -1.296875 -1.359375q-0.46875 -0.890625 -0.46875 -2.1875q0 -1.265625 0.421875 -2.1875q0.4375 -0.9375 1.203125 -1.4375q0.78125 -0.5 1.828125 -0.5zm0 0.96875q-0.953125 0 -1.53125 0.625q-0.5625 0.625 -0.671875 1.734375l4.15625 0q0 -0.703125 -0.21875 -1.234375q-0.203125 -0.53125 -0.640625 -0.828125q-0.421875 -0.296875 -1.09375 -0.296875zm8.776703 -0.96875q0.234375 0 0.484375 0.03125q0.265625 0.015625 0.46875 0.0625l-0.140625 1.09375q-0.203125 -0.046875 -0.4375 -0.078125q-0.234375 -0.03125 -0.4375 -0.03125q-0.484375 0 -0.90625 0.203125q-0.40625 0.1875 -0.71875 0.546875q-0.3125 0.34375 -0.5 0.84375q-0.171875 0.5 -0.171875 1.109375l0 4.203125l-1.203125 0l0 -7.84375l0.984375 0l0.140625 1.453125l0.046875 0q0.234375 -0.4375 0.578125 -0.796875q0.34375 -0.375 0.796875 -0.578125q0.46875 -0.21875 1.015625 -0.21875zm4.161743 7.984375l-2.984375 -7.84375l1.28125 0l1.71875 4.75q0.171875 0.484375 0.359375 1.078125q0.1875 0.578125 0.265625 0.9375l0.046875 0q0.078125 -0.359375 0.28125 -0.953125q0.203125 -0.59375 0.375 -1.0625l1.71875 -4.75l1.28125 0l-2.984375 7.84375l-1.359375 0zm8.602234 -7.984375q1.015625 0 1.71875 0.453125q0.71875 0.4375 1.09375 1.234375q0.390625 0.796875 0.390625 1.859375l0 0.734375l-5.421875 0q0.015625 1.390625 0.6875 2.109375q0.671875 0.71875 1.875 0.71875q0.75 0 1.3125 -0.125q0.578125 -0.140625 1.1875 -0.40625l0 1.046875q-0.59375 0.265625 -1.171875 0.375q-0.578125 0.125 -1.375 0.125q-1.140625 0 -1.984375 -0.453125q-0.828125 -0.46875 -1.296875 -1.359375q-0.46875 -0.890625 -0.46875 -2.1875q0 -1.265625 0.421875 -2.1875q0.4375 -0.9375 1.203125 -1.4375q0.78125 -0.5 1.828125 -0.5zm0 0.96875q-0.953125 0 -1.53125 0.625q-0.5625 0.625 -0.671875 1.734375l4.15625 0q0 -0.703125 -0.21875 -1.234375q-0.203125 -0.53125 -0.640625 -0.828125q-0.421875 -0.296875 -1.09375 -0.296875zm8.776703 -0.96875q0.234375 0 0.484375 0.03125q0.265625 0.015625 0.46875 0.0625l-0.140625 1.09375q-0.203125 -0.046875 -0.4375 -0.078125q-0.234375 -0.03125 -0.4375 -0.03125q-0.484375 0 -0.90625 0.203125q-0.40625 0.1875 -0.71875 0.546875q-0.3125 0.34375 -0.5 0.84375q-0.171875 0.5 -0.171875 1.109375l0 4.203125l-1.203125 0l0 -7.84375l0.984375 0l0.140625 1.453125l0.046875 0q0.234375 -0.4375 0.578125 -0.796875q0.34375 -0.375 0.796875 -0.578125q0.46875 -0.21875 1.015625 -0.21875z" fill-rule="nonzero"/><path fill="#d9ead3" d="m181.54855 49.211346l106.26773 0l0 146.17323l-106.26773 0z" fill-rule="evenodd"/><path stroke="#38761d" stroke-width="1.0" stroke-linejoin="round" stroke-linecap="butt" d="m181.54855 49.211346l106.26773 0l0 146.17323l-106.26773 0z" fill-rule="evenodd"/><path fill="#38761d" d="m204.43518 127.37797l-1.296875 -3.328125l-4.1875 0l-1.28125 3.328125l-1.234375 0l4.09375 -10.5l1.09375 0l4.0625 10.5l-1.25 0zm-1.65625 -4.40625l-1.234375 -3.296875q-0.03125 -0.125 -0.140625 -0.421875q-0.09375 -0.296875 -0.1875 -0.609375q-0.09375 -0.3125 -0.171875 -0.5q-0.0625 0.28125 -0.15625 0.578125q-0.078125 0.296875 -0.15625 0.546875q-0.078125 0.234375 -0.125 0.40625l-1.25 3.296875l3.421875 0zm7.861252 -3.578125q1.46875 0 2.34375 1.015625q0.875 1.0 0.875 3.03125q0 1.328125 -0.40625 2.25q-0.40625 0.90625 -1.140625 1.375q-0.71875 0.453125 -1.703125 0.453125q-0.625 0 -1.09375 -0.15625q-0.46875 -0.171875 -0.8125 -0.453125q-0.328125 -0.28125 -0.546875 -0.609375l-0.09375 0q0.03125 0.28125 0.0625 0.6875q0.03125 0.390625 0.03125 0.671875l0 3.2187424l-1.203125 0l0 -11.343742l0.984375 0l0.15625 1.15625l0.0625 0q0.21875 -0.359375 0.546875 -0.65625q0.328125 -0.296875 0.796875 -0.46875q0.484375 -0.171875 1.140625 -0.171875zm-0.203125 1.0q-0.8125 0 -1.3125 0.3125q-0.5 0.3125 -0.734375 0.9375q-0.21875 0.625 -0.234375 1.578125l0 0.234375q0 0.984375 0.21875 1.671875q0.21875 0.6875 0.71875 1.046875q0.5 0.359375 1.359375 0.359375q0.71875 0 1.203125 -0.390625q0.5 -0.390625 0.734375 -1.09375q0.234375 -0.71875 0.234375 -1.625q0 -1.390625 -0.546875 -2.203125q-0.53125 -0.828125 -1.640625 -0.828125zm9.170059 -1.0q1.46875 0 2.34375 1.015625q0.875 1.0 0.875 3.03125q0 1.328125 -0.40625 2.25q-0.40625 0.90625 -1.140625 1.375q-0.71875 0.453125 -1.703125 0.453125q-0.625 0 -1.09375 -0.15625q-0.46875 -0.171875 -0.8125 -0.453125q-0.328125 -0.28125 -0.546875 -0.609375l-0.09375 0q0.03125 0.28125 0.0625 0.6875q0.03125 0.390625 0.03125 0.671875l0 3.2187424l-1.203125 0l0 -11.343742l0.984375 0l0.15625 1.15625l0.0625 0q0.21875 -0.359375 0.546875 -0.65625q0.328125 -0.296875 0.796875 -0.46875q0.484375 -0.171875 1.140625 -0.171875zm-0.203125 1.0q-0.8125 0 -1.3125 0.3125q-0.5 0.3125 -0.734375 0.9375q-0.21875 0.625 -0.234375 1.578125l0 0.234375q0 0.984375 0.21875 1.671875q0.21875 0.6875 0.71875 1.046875q0.5 0.359375 1.359375 0.359375q0.71875 0 1.203125 -0.390625q0.5 -0.390625 0.734375 -1.09375q0.234375 -0.71875 0.234375 -1.625q0 -1.390625 -0.546875 -2.203125q-0.53125 -0.828125 -1.640625 -0.828125zm6.685684 6.984375l-1.203125 0l0 -11.140625l1.203125 0l0 11.140625zm3.6842194 -7.84375l0 7.84375l-1.1875 0l0 -7.84375l1.1875 0zm-0.578125 -2.9375q0.296875 0 0.5 0.203125q0.21875 0.1875 0.21875 0.578125q0 0.390625 -0.21875 0.59375q-0.203125 0.1875 -0.5 0.1875q-0.3125 0 -0.515625 -0.1875q-0.203125 -0.203125 -0.203125 -0.59375q0 -0.390625 0.203125 -0.578125q0.203125 -0.203125 0.515625 -0.203125zm6.2310944 10.921875q-1.0625 0 -1.875 -0.4375q-0.796875 -0.4375 -1.25 -1.328125q-0.453125 -0.890625 -0.453125 -2.25q0 -1.421875 0.46875 -2.328125q0.484375 -0.90625 1.3125 -1.34375q0.84375 -0.4375 1.921875 -0.4375q0.578125 0 1.125 0.125q0.546875 0.109375 0.90625 0.28125l-0.359375 1.0q-0.359375 -0.140625 -0.828125 -0.25q-0.46875 -0.125 -0.875 -0.125q-0.8125 0 -1.359375 0.359375q-0.546875 0.34375 -0.8125 1.03125q-0.265625 0.671875 -0.265625 1.671875q0 0.953125 0.25 1.625q0.265625 0.671875 0.78125 1.03125q0.53125 0.34375 1.3125 0.34375q0.625 0 1.125 -0.125q0.5 -0.140625 0.90625 -0.3125l0 1.0625q-0.390625 0.1875 -0.875 0.296875q-0.484375 0.109375 -1.15625 0.109375zm6.817276 -8.109375q1.40625 0 2.078125 0.625q0.6875 0.625 0.6875 2.015625l0 5.328125l-0.875 0l-0.21875 -1.15625l-0.0625 0q-0.328125 0.421875 -0.6875 0.71875q-0.359375 0.28125 -0.828125 0.4375q-0.46875 0.140625 -1.140625 0.140625q-0.71875 0 -1.28125 -0.25q-0.546875 -0.25 -0.875 -0.75q-0.3125 -0.515625 -0.3125 -1.296875q0 -1.171875 0.921875 -1.796875q0.9375 -0.640625 2.84375 -0.6875l1.359375 -0.0625l0 -0.484375q0 -1.015625 -0.4375 -1.421875q-0.4375 -0.40625 -1.234375 -0.40625q-0.625 0 -1.1875 0.1875q-0.546875 0.171875 -1.046875 0.421875l-0.359375 -0.90625q0.515625 -0.265625 1.203125 -0.453125q0.6875 -0.203125 1.453125 -0.203125zm1.59375 4.109375l-1.203125 0.046875q-1.46875 0.0625 -2.078125 0.484375q-0.59375 0.421875 -0.59375 1.1875q0 0.671875 0.40625 1.0q0.421875 0.3125 1.09375 0.3125q1.03125 0 1.703125 -0.578125q0.671875 -0.578125 0.671875 -1.734375l0 -0.71875zm6.1439514 3.03125q0.296875 0 0.59375 -0.046875q0.3125 -0.0625 0.515625 -0.125l0 0.921875q-0.203125 0.09375 -0.578125 0.15625q-0.375 0.0625 -0.71875 0.0625q-0.625 0 -1.140625 -0.21875q-0.5 -0.21875 -0.8125 -0.734375q-0.296875 -0.53125 -0.296875 -1.453125l0 -4.640625l-1.109375 0l0 -0.59375l1.125 -0.453125l0.46875 -1.703125l0.71875 0l0 1.8125l2.296875 0l0 0.9375l-2.296875 0l0 4.609375q0 0.734375 0.328125 1.109375q0.34375 0.359375 0.90625 0.359375zm3.8804016 -7.015625l0 7.84375l-1.1875 0l0 -7.84375l1.1875 0zm-0.578125 -2.9375q0.296875 0 0.5 0.203125q0.21875 0.1875 0.21875 0.578125q0 0.390625 -0.21875 0.59375q-0.203125 0.1875 -0.5 0.1875q-0.3125 0 -0.515625 -0.1875q-0.203125 -0.203125 -0.203125 -0.59375q0 -0.390625 0.203125 -0.578125q0.203125 -0.203125 0.515625 -0.203125zm9.85611 6.84375q0 0.96875 -0.25 1.734375q-0.25 0.75 -0.734375 1.28125q-0.46875 0.515625 -1.140625 0.796875q-0.65625 0.265625 -1.5 0.265625q-0.796875 0 -1.453125 -0.265625q-0.640625 -0.28125 -1.125 -0.796875q-0.46875 -0.53125 -0.734375 -1.28125q-0.26564026 -0.765625 -0.26564026 -1.734375q0 -1.28125 0.43751526 -2.1875q0.4375 -0.90625 1.25 -1.375q0.8125 -0.484375 1.9375 -0.484375q1.078125 0 1.875 0.484375q0.8125 0.46875 1.25 1.375q0.453125 0.90625 0.453125 2.1875zm-5.96875 0q0 0.953125 0.25 1.640625q0.25 0.6875 0.765625 1.078125q0.53125 0.375 1.359375 0.375q0.8125 0 1.328125 -0.375q0.53125 -0.390625 0.78125 -1.078125q0.25 -0.6875 0.25 -1.640625q0 -0.9375 -0.25 -1.609375q-0.25 -0.6875 -0.78125 -1.0625q-0.515625 -0.375 -1.34375 -0.375q-1.21875 0 -1.796875 0.8125q-0.5625 0.796875 -0.5625 2.234375zm11.738525 -4.046875q1.390625 0 2.109375 0.6875q0.71875 0.671875 0.71875 2.1875l0 5.109375l-1.171875 0l0 -5.03125q0 -0.984375 -0.453125 -1.46875q-0.453125 -0.484375 -1.375 -0.484375q-1.296875 0 -1.828125 0.734375q-0.53125 0.734375 -0.53125 2.140625l0 4.109375l-1.1875 0l0 -7.84375l0.96875 0l0.171875 1.125l0.0625 0q0.25 -0.40625 0.640625 -0.6875q0.390625 -0.28125 0.859375 -0.421875q0.484375 -0.15625 1.015625 -0.15625z" fill-rule="nonzero"/><path fill="#d0e0e3" d="m51.293964 113.4917l98.29921 0l0 18.48819l-98.29921 0z" fill-rule="evenodd"/><path stroke="#134f5c" stroke-width="1.0" stroke-linejoin="round" stroke-linecap="butt" d="m51.293964 113.4917l98.29921 0l0 18.48819l-98.29921 0z" fill-rule="evenodd"/><path fill="#000000" d="m83.81661 120.583916q1.109375 0 1.796875 0.859375q0.6875 0.859375 0.6875 2.53125q0 1.109375 -0.328125 1.875q-0.328125 0.75 -0.890625 1.140625q-0.5625 0.390625 -1.3125 0.390625q-0.46875 0 -0.8125 -0.125q-0.34375 -0.125 -0.578125 -0.3125q-0.234375 -0.1875 -0.421875 -0.40625l-0.09375 0q0.046875 0.234375 0.0625 0.484375q0.03125 0.234375 0.03125 0.46875l0 2.6562424l-1.78125 0l0 -9.437492l1.453125 0l0.25 0.84375l0.078125 0q0.1875 -0.265625 0.4375 -0.484375q0.25 -0.21875 0.59375 -0.34375q0.359375 -0.140625 0.828125 -0.140625zm-0.5625 1.421875q-0.46875 0 -0.75 0.203125q-0.28125 0.1875 -0.40625 0.578125q-0.125 0.390625 -0.140625 0.96875l0 0.203125q0 0.625 0.125 1.078125q0.125 0.4375 0.40625 0.671875q0.28125 0.21875 0.78125 0.21875q0.40625 0 0.671875 -0.21875q0.265625 -0.234375 0.390625 -0.671875q0.140625 -0.453125 0.140625 -1.09375q0 -0.953125 -0.296875 -1.4375q-0.296875 -0.5 -0.921875 -0.5zm7.21875 -1.421875q0.90625 0 1.5625 0.34375q0.65625 0.34375 1.015625 1.015625q0.359375 0.65625 0.359375 1.609375l0 0.875l-4.234375 0q0.03125 0.75 0.453125 1.1875q0.4375 0.421875 1.1875 0.421875q0.625 0 1.140625 -0.125q0.53125 -0.125 1.078125 -0.390625l0 1.390625q-0.484375 0.234375 -1.015625 0.34375q-0.53125 0.125 -1.28125 0.125q-0.984375 0 -1.75 -0.359375q-0.75 -0.375 -1.1875 -1.109375q-0.421875 -0.75 -0.421875 -1.890625q0 -1.140625 0.375 -1.90625q0.390625 -0.765625 1.09375 -1.140625q0.703125 -0.390625 1.625 -0.390625zm0.015625 1.265625q-0.53125 0 -0.875 0.34375q-0.34375 0.328125 -0.390625 1.046875l2.515625 0q-0.015625 -0.40625 -0.15625 -0.71875q-0.125 -0.3125 -0.40625 -0.484375q-0.265625 -0.1875 -0.6875 -0.1875zm8.011719 -1.265625q1.109375 0 1.796875 0.859375q0.6875 0.859375 0.6875 2.53125q0 1.109375 -0.328125 1.875q-0.328125 0.75 -0.890625 1.140625q-0.5625 0.390625 -1.3125 0.390625q-0.46875 0 -0.8125 -0.125q-0.34375 -0.125 -0.578125 -0.3125q-0.234375 -0.1875 -0.421875 -0.40625l-0.09375 0q0.046875 0.234375 0.0625 0.484375q0.03125 0.234375 0.03125 0.46875l0 2.6562424l-1.78125 0l0 -9.437492l1.453125 0l0.25 0.84375l0.078125 0q0.1875 -0.265625 0.4375 -0.484375q0.25 -0.21875 0.59375 -0.34375q0.359375 -0.140625 0.828125 -0.140625zm-0.5625 1.421875q-0.46875 0 -0.75 0.203125q-0.28125 0.1875 -0.40625 0.578125q-0.125 0.390625 -0.140625 0.96875l0 0.203125q0 0.625 0.125 1.078125q0.125 0.4375 0.40625 0.671875q0.28125 0.21875 0.78125 0.21875q0.40625 0 0.671875 -0.21875q0.265625 -0.234375 0.390625 -0.671875q0.140625 -0.453125 0.140625 -1.09375q0 -0.953125 -0.296875 -1.4375q-0.296875 -0.5 -0.921875 -0.5zm8.15625 -1.421875q1.109375 0 1.796875 0.859375q0.6875 0.859375 0.6875 2.53125q0 1.109375 -0.328125 1.875q-0.328125 0.75 -0.890625 1.140625q-0.5625 0.390625 -1.3125 0.390625q-0.46875 0 -0.8125 -0.125q-0.34375 -0.125 -0.578125 -0.3125q-0.234375 -0.1875 -0.421875 -0.40625l-0.09375 0q0.046875 0.234375 0.0625 0.484375q0.03125 0.234375 0.03125 0.46875l0 2.6562424l-1.78125 0l0 -9.437492l1.453125 0l0.25 0.84375l0.078125 0q0.1875 -0.265625 0.4375 -0.484375q0.25 -0.21875 0.59375 -0.34375q0.359375 -0.140625 0.828125 -0.140625zm-0.5625 1.421875q-0.46875 0 -0.75 0.203125q-0.28125 0.1875 -0.40625 0.578125q-0.125 0.390625 -0.140625 0.96875l0 0.203125q0 0.625 0.125 1.078125q0.125 0.4375 0.40625 0.671875q0.28125 0.21875 0.78125 0.21875q0.40625 0 0.671875 -0.21875q0.265625 -0.234375 0.390625 -0.671875q0.140625 -0.453125 0.140625 -1.09375q0 -0.953125 -0.296875 -1.4375q-0.296875 -0.5 -0.921875 -0.5zm7.21875 -1.421875q0.90625 0 1.5625 0.34375q0.65625 0.34375 1.015625 1.015625q0.359375 0.65625 0.359375 1.609375l0 0.875l-4.234375 0q0.03125 0.75 0.453125 1.1875q0.4375 0.421875 1.1875 0.421875q0.625 0 1.140625 -0.125q0.53125 -0.125 1.078125 -0.390625l0 1.390625q-0.484375 0.234375 -1.015625 0.34375q-0.53125 0.125 -1.28125 0.125q-0.984375 0 -1.75 -0.359375q-0.75 -0.375 -1.1875 -1.109375q-0.421875 -0.75 -0.421875 -1.890625q0 -1.140625 0.375 -1.90625q0.390625 -0.765625 1.09375 -1.140625q0.703125 -0.390625 1.625 -0.390625zm0.015625 1.265625q-0.53125 0 -0.875 0.34375q-0.34375 0.328125 -0.390625 1.046875l2.515625 0q-0.015625 -0.40625 -0.15625 -0.71875q-0.125 -0.3125 -0.40625 -0.484375q-0.265625 -0.1875 -0.6875 -0.1875zm8.027344 -1.265625q0.140625 0 0.3125 0.015625q0.1875 0.015625 0.296875 0.03125l-0.140625 1.671875q-0.09375 -0.015625 -0.25 -0.03125q-0.15625 -0.015625 -0.28125 -0.015625q-0.34375 0 -0.671875 0.09375q-0.3125 0.078125 -0.578125 0.28125q-0.25 0.1875 -0.40625 0.515625q-0.15625 0.3125 -0.15625 0.78125l0 3.328125l-1.78125 0l0 -6.546875l1.359375 0l0.265625 1.09375l0.078125 0q0.203125 -0.328125 0.484375 -0.609375q0.296875 -0.28125 0.65625 -0.4375q0.375 -0.171875 0.8125 -0.171875z" fill-rule="nonzero"/><path fill="#fce5cd" d="m319.77167 67.52335l0 0c0 10.091148 39.398926 18.271652 88.0 18.271652c48.601044 0 88.0 -8.180504 88.0 -18.271652l0 109.62992c0 10.091156 -39.398956 18.271652 -88.0 18.271652c-48.601074 0 -88.0 -8.180496 -88.0 -18.271652z" fill-rule="evenodd"/><path fill="#fdefe1" d="m319.77167 67.52335l0 0c0 -10.09116 39.398926 -18.271656 88.0 -18.271656c48.601044 0 88.0 8.180496 88.0 18.271656l0 0c0 10.091148 -39.398956 18.271652 -88.0 18.271652c-48.601074 0 -88.0 -8.180504 -88.0 -18.271652z" fill-rule="evenodd"/><path fill="#000000" fill-opacity="0.0" d="m495.77167 67.52335l0 0c0 10.091148 -39.398956 18.271652 -88.0 18.271652c-48.601074 0 -88.0 -8.180504 -88.0 -18.271652l0 0c0 -10.09116 39.398926 -18.271656 88.0 -18.271656c48.601044 0 88.0 8.180496 88.0 18.271656l0 109.62992c0 10.091156 -39.398956 18.271652 -88.0 18.271652c-48.601074 0 -88.0 -8.180496 -88.0 -18.271652l0 -109.62992" fill-rule="evenodd"/><path stroke="#b45f06" stroke-width="1.0" stroke-linejoin="round" stroke-linecap="butt" d="m495.77167 67.52335l0 0c0 10.091148 -39.398956 18.271652 -88.0 18.271652c-48.601074 0 -88.0 -8.180504 -88.0 -18.271652l0 0c0 -10.09116 39.398926 -18.271656 88.0 -18.271656c48.601044 0 88.0 8.180496 88.0 18.271656l0 109.62992c0 10.091156 -39.398956 18.271652 -88.0 18.271652c-48.601074 0 -88.0 -8.180496 -88.0 -18.271652l0 -109.62992" fill-rule="evenodd"/><path fill="#b45f06" d="m385.27014 103.546875q0 1.765625 -0.640625 2.953125q-0.640625 1.1875 -1.859375 1.78125q-1.21875 0.59375 -2.96875 0.59375l-2.828125 0l0 -10.46875l3.15625 0q1.59375 0 2.734375 0.59375q1.15625 0.578125 1.78125 1.71875q0.625 1.140625 0.625 2.828125zm-1.28125 0.046875q0 -1.421875 -0.46875 -2.328125q-0.46875 -0.921875 -1.375 -1.359375q-0.90625 -0.453125 -2.203125 -0.453125l-1.765625 0l0 8.375l1.484375 0q2.171875 0 3.25 -1.0625q1.078125 -1.0625 1.078125 -3.171875zm6.368744 -2.6875q1.40625 0 2.078125 0.625q0.6875 0.625 0.6875 2.015625l0 5.328125l-0.875 0l-0.21875 -1.15625l-0.0625 0q-0.328125 0.421875 -0.6875 0.71875q-0.359375 0.28125 -0.828125 0.4375q-0.46875 0.140625 -1.140625 0.140625q-0.71875 0 -1.28125 -0.25q-0.546875 -0.25 -0.875 -0.75q-0.3125 -0.515625 -0.3125 -1.296875q0 -1.171875 0.921875 -1.796875q0.9375 -0.640625 2.84375 -0.6875l1.359375 -0.0625l0 -0.484375q0 -1.015625 -0.4375 -1.421875q-0.4375 -0.40625 -1.234375 -0.40625q-0.625 0 -1.1875 0.1875q-0.546875 0.171875 -1.046875 0.421875l-0.359375 -0.90625q0.515625 -0.265625 1.203125 -0.453125q0.6875 -0.203125 1.453125 -0.203125zm1.59375 4.109375l-1.203125 0.046875q-1.46875 0.0625 -2.078125 0.484375q-0.59375 0.421875 -0.59375 1.1875q0 0.671875 0.40625 1.0q0.421875 0.3125 1.09375 0.3125q1.03125 0 1.703125 -0.578125q0.671875 -0.578125 0.671875 -1.734375l0 -0.71875zm6.1439514 3.03125q0.296875 0 0.59375 -0.046875q0.3125 -0.0625 0.515625 -0.125l0 0.921875q-0.203125 0.09375 -0.578125 0.15625q-0.375 0.0625 -0.71875 0.0625q-0.625 0 -1.140625 -0.21875q-0.5 -0.21875 -0.8125 -0.734375q-0.296875 -0.53125 -0.296875 -1.453125l0 -4.640625l-1.109375 0l0 -0.59375l1.125 -0.453125l0.46875 -1.703125l0.71875 0l0 1.8125l2.296875 0l0 0.9375l-2.296875 0l0 4.609375q0 0.734375 0.328125 1.109375q0.34375 0.359375 0.90625 0.359375zm5.6304016 -7.140625q1.40625 0 2.078125 0.625q0.6875 0.625 0.6875 2.015625l0 5.328125l-0.875 0l-0.21875 -1.15625l-0.0625 0q-0.328125 0.421875 -0.6875 0.71875q-0.359375 0.28125 -0.828125 0.4375q-0.46875 0.140625 -1.140625 0.140625q-0.71875 0 -1.28125 -0.25q-0.546875 -0.25 -0.875 -0.75q-0.3125 -0.515625 -0.3125 -1.296875q0 -1.171875 0.921875 -1.796875q0.9375 -0.640625 2.84375 -0.6875l1.359375 -0.0625l0 -0.484375q0 -1.015625 -0.4375 -1.421875q-0.4375 -0.40625 -1.234375 -0.40625q-0.625 0 -1.1875 0.1875q-0.546875 0.171875 -1.046875 0.421875l-0.359375 -0.90625q0.515625 -0.265625 1.203125 -0.453125q0.6875 -0.203125 1.453125 -0.203125zm1.59375 4.109375l-1.203125 0.046875q-1.46875 0.0625 -2.078125 0.484375q-0.59375 0.421875 -0.59375 1.1875q0 0.671875 0.40625 1.0q0.421875 0.3125 1.09375 0.3125q1.03125 0 1.703125 -0.578125q0.671875 -0.578125 0.671875 -1.734375l0 -0.71875zm4.8002014 -7.28125l0 2.796875q0 0.46875 -0.03125 0.921875q-0.015625 0.453125 -0.03125 0.703125l0.0625 0q0.328125 -0.53125 0.9375 -0.890625q0.609375 -0.375 1.546875 -0.375q1.46875 0 2.34375 1.03125q0.890625 1.015625 0.890625 3.03125q0 1.3125 -0.40625 2.234375q-0.40625 0.90625 -1.140625 1.375q-0.71875 0.453125 -1.71875 0.453125q-0.921875 0 -1.53125 -0.34375q-0.59375 -0.34375 -0.90625 -0.84375l-0.09375 0l-0.25 1.046875l-0.859375 0l0 -11.140625l1.1875 0zm2.296875 4.15625q-0.859375 0 -1.359375 0.34375q-0.5 0.328125 -0.71875 1.0q-0.21875 0.65625 -0.21875 1.6875l0 0.0625q0 1.484375 0.484375 2.265625q0.5 0.78125 1.8125 0.78125q1.09375 0 1.640625 -0.796875q0.546875 -0.8125 0.546875 -2.296875q0 -1.515625 -0.546875 -2.28125q-0.53125 -0.765625 -1.640625 -0.765625zm8.420074 -0.984375q1.40625 0 2.078125 0.625q0.6875 0.625 0.6875 2.015625l0 5.328125l-0.875 0l-0.21875 -1.15625l-0.0625 0q-0.328125 0.421875 -0.6875 0.71875q-0.359375 0.28125 -0.828125 0.4375q-0.46875 0.140625 -1.140625 0.140625q-0.71875 0 -1.28125 -0.25q-0.546875 -0.25 -0.875 -0.75q-0.3125 -0.515625 -0.3125 -1.296875q0 -1.171875 0.921875 -1.796875q0.9375 -0.640625 2.84375 -0.6875l1.359375 -0.0625l0 -0.484375q0 -1.015625 -0.4375 -1.421875q-0.4375 -0.40625 -1.234375 -0.40625q-0.625 0 -1.1875 0.1875q-0.546875 0.171875 -1.046875 0.421875l-0.359375 -0.90625q0.515625 -0.265625 1.203125 -0.453125q0.6875 -0.203125 1.453125 -0.203125zm1.59375 4.109375l-1.203125 0.046875q-1.46875 0.0625 -2.078125 0.484375q-0.59375 0.421875 -0.59375 1.1875q0 0.671875 0.40625 1.0q0.421875 0.3125 1.09375 0.3125q1.03125 0 1.703125 -0.578125q0.671875 -0.578125 0.671875 -1.734375l0 -0.71875zm8.690826 1.71875q0 0.75 -0.375 1.265625q-0.375 0.5 -1.078125 0.765625q-0.703125 0.25 -1.65625 0.25q-0.828125 0 -1.4375 -0.125q-0.59375 -0.125 -1.046875 -0.359375l0 -1.109375q0.484375 0.25 1.140625 0.4375q0.671875 0.1875 1.359375 0.1875q1.03125 0 1.484375 -0.328125q0.453125 -0.328125 0.453125 -0.890625q0 -0.328125 -0.1875 -0.5625q-0.171875 -0.25 -0.609375 -0.484375q-0.421875 -0.234375 -1.1875 -0.515625q-0.75 -0.28125 -1.296875 -0.5625q-0.546875 -0.28125 -0.84375 -0.6875q-0.296875 -0.421875 -0.296875 -1.0625q0 -1.0 0.796875 -1.53125q0.8125 -0.53125 2.125 -0.53125q0.703125 0 1.328125 0.140625q0.625 0.140625 1.15625 0.375l-0.40625 0.953125q-0.484375 -0.21875 -1.03125 -0.359375q-0.546875 -0.140625 -1.125 -0.140625q-0.828125 0 -1.265625 0.28125q-0.4375 0.265625 -0.4375 0.734375q0 0.375 0.203125 0.609375q0.203125 0.234375 0.65625 0.4375q0.453125 0.203125 1.1875 0.484375q0.734375 0.28125 1.265625 0.578125q0.546875 0.28125 0.828125 0.6875q0.296875 0.40625 0.296875 1.0625zm4.922119 -5.84375q1.015625 0 1.71875 0.453125q0.71875 0.4375 1.09375 1.234375q0.390625 0.796875 0.390625 1.859375l0 0.734375l-5.421875 0q0.015625 1.390625 0.6875 2.109375q0.671875 0.71875 1.875 0.71875q0.75 0 1.3125 -0.125q0.578125 -0.140625 1.1875 -0.40625l0 1.046875q-0.59375 0.265625 -1.171875 0.375q-0.578125 0.125 -1.375 0.125q-1.140625 0 -1.984375 -0.453125q-0.828125 -0.46875 -1.296875 -1.359375q-0.46875 -0.890625 -0.46875 -2.1875q0 -1.265625 0.421875 -2.1875q0.4375 -0.9375 1.203125 -1.4375q0.78125 -0.5 1.828125 -0.5zm0 0.96875q-0.953125 0 -1.53125 0.625q-0.5625 0.625 -0.671875 1.734375l4.15625 0q0 -0.703125 -0.21875 -1.234375q-0.203125 -0.53125 -0.640625 -0.828125q-0.421875 -0.296875 -1.09375 -0.296875z" fill-rule="nonzero"/><path fill="#ffffff" d="m326.38165 131.08583l54.39383 0l0 13.599258l-54.39383 0z" fill-rule="evenodd"/><path stroke="#b45f06" stroke-width="1.0" stroke-linejoin="round" stroke-linecap="butt" d="m326.38165 131.08583l54.39383 0l0 13.599258l-54.39383 0z" fill-rule="evenodd"/><path fill="#b45f06" d="m338.19415 137.16171l0 2.84375l-0.359375 0l-0.0625 -0.40625l-0.015625 0q-0.09375 0.15625 -0.234375 0.265625q-0.140625 0.09375 -0.3125 0.140625q-0.171875 0.046875 -0.375 0.046875q-0.34375 0 -0.578125 -0.109375q-0.21875 -0.109375 -0.34375 -0.328125q-0.109375 -0.234375 -0.109375 -0.59375l0 -1.859375l0.4375 0l0 1.828125q0 0.359375 0.15625 0.53125q0.171875 0.171875 0.5 0.171875q0.3125 0 0.5 -0.109375q0.1875 -0.125 0.265625 -0.359375q0.09375 -0.234375 0.09375 -0.5625l0 -1.5l0.4375 0zm2.7520142 2.0625q0 0.28125 -0.140625 0.46875q-0.125 0.171875 -0.390625 0.265625q-0.25 0.09375 -0.59375 0.09375q-0.296875 0 -0.515625 -0.046875q-0.21875 -0.046875 -0.390625 -0.125l0 -0.40625q0.171875 0.09375 0.40625 0.171875q0.25 0.0625 0.5 0.0625q0.375 0 0.53125 -0.109375q0.171875 -0.125 0.171875 -0.34375q0 -0.109375 -0.0625 -0.203125q-0.0625 -0.09375 -0.21875 -0.171875q-0.15625 -0.078125 -0.4375 -0.1875q-0.265625 -0.109375 -0.46875 -0.203125q-0.203125 -0.109375 -0.3125 -0.25q-0.109375 -0.15625 -0.109375 -0.390625q0 -0.359375 0.296875 -0.546875q0.296875 -0.203125 0.765625 -0.203125q0.265625 0 0.484375 0.0625q0.234375 0.046875 0.421875 0.125l-0.140625 0.34375q-0.171875 -0.078125 -0.375 -0.125q-0.203125 -0.046875 -0.40625 -0.046875q-0.3125 0 -0.46875 0.09375q-0.15625 0.09375 -0.15625 0.265625q0 0.140625 0.0625 0.234375q0.078125 0.078125 0.234375 0.15625q0.171875 0.078125 0.453125 0.171875q0.265625 0.09375 0.453125 0.203125q0.203125 0.109375 0.296875 0.265625q0.109375 0.140625 0.109375 0.375zm1.7891846 -2.125q0.375 0 0.625 0.171875q0.265625 0.15625 0.40625 0.453125q0.140625 0.28125 0.140625 0.671875l0 0.265625l-1.96875 0q0 0.5 0.234375 0.765625q0.25 0.265625 0.6875 0.265625q0.28125 0 0.484375 -0.046875q0.203125 -0.0625 0.4375 -0.15625l0 0.390625q-0.21875 0.09375 -0.4375 0.125q-0.203125 0.046875 -0.5 0.046875q-0.40625 0 -0.71875 -0.15625q-0.296875 -0.171875 -0.46875 -0.5q-0.171875 -0.328125 -0.171875 -0.796875q0 -0.453125 0.15625 -0.796875q0.15625 -0.34375 0.4375 -0.515625q0.28125 -0.1875 0.65625 -0.1875zm0 0.359375q-0.34375 0 -0.546875 0.234375q-0.203125 0.21875 -0.25 0.625l1.515625 0q0 -0.265625 -0.078125 -0.453125q-0.078125 -0.1875 -0.234375 -0.296875q-0.15625 -0.109375 -0.40625 -0.109375zm3.1950073 -0.359375q0.09375 0 0.1875 0.015625q0.09375 0 0.15625 0.015625l-0.046875 0.40625q-0.078125 -0.015625 -0.171875 -0.03125q-0.078125 -0.015625 -0.15625 -0.015625q-0.171875 0 -0.328125 0.078125q-0.140625 0.0625 -0.265625 0.203125q-0.109375 0.125 -0.171875 0.3125q-0.0625 0.171875 -0.0625 0.390625l0 1.53125l-0.4375 0l0 -2.84375l0.359375 0l0.046875 0.515625l0.015625 0q0.09375 -0.15625 0.21875 -0.28125q0.125 -0.140625 0.28125 -0.21875q0.171875 -0.078125 0.375 -0.078125zm2.3025513 2.90625l-0.421875 0l0 -2.6875q0 -0.15625 0 -0.265625q0 -0.109375 0 -0.203125q0 -0.09375 0.015625 -0.1875q-0.078125 0.078125 -0.15625 0.140625q-0.0625 0.046875 -0.171875 0.140625l-0.4375 0.34375l-0.21875 -0.296875l1.03125 -0.78125l0.359375 0l0 3.796875z" fill-rule="nonzero"/><path fill="#ffffff" d="m380.77548 131.08583l54.39383 0l0 13.599258l-54.39383 0z" fill-rule="evenodd"/><path stroke="#b45f06" stroke-width="1.0" stroke-linejoin="round" stroke-linecap="butt" d="m380.77548 131.08583l54.39383 0l0 13.599258l-54.39383 0z" fill-rule="evenodd"/><path fill="#000000" d="m392.2286 139.14609q0 0.296875 -0.140625 0.5q-0.140625 0.203125 -0.421875 0.3125q-0.28125 0.09375 -0.6875 0.09375q-0.296875 0 -0.515625 -0.046875q-0.21875 -0.03125 -0.4375 -0.109375l0 -0.65625q0.234375 0.09375 0.5 0.171875q0.28125 0.0625 0.484375 0.0625q0.234375 0 0.328125 -0.0625q0.09375 -0.078125 0.09375 -0.1875q0 -0.0625 -0.046875 -0.125q-0.03125 -0.0625 -0.171875 -0.125q-0.125 -0.078125 -0.40625 -0.203125q-0.265625 -0.109375 -0.453125 -0.21875q-0.171875 -0.125 -0.265625 -0.28125q-0.078125 -0.171875 -0.078125 -0.421875q0 -0.40625 0.3125 -0.609375q0.3125 -0.203125 0.84375 -0.203125q0.265625 0 0.515625 0.0625q0.25 0.046875 0.515625 0.171875l-0.25 0.578125q-0.21875 -0.09375 -0.40625 -0.15625q-0.1875 -0.0625 -0.390625 -0.0625q-0.171875 0 -0.265625 0.046875q-0.078125 0.046875 -0.078125 0.140625q0 0.078125 0.046875 0.140625q0.046875 0.046875 0.171875 0.109375q0.125 0.0625 0.390625 0.171875q0.25 0.09375 0.421875 0.203125q0.1875 0.109375 0.28125 0.28125q0.109375 0.15625 0.109375 0.421875zm1.804718 -2.109375q0.578125 0 0.890625 0.265625q0.3125 0.25 0.3125 0.765625l0 1.9375l-0.546875 0l-0.15625 -0.390625l-0.015625 0q-0.125 0.15625 -0.265625 0.25q-0.125 0.09375 -0.296875 0.140625q-0.171875 0.046875 -0.40625 0.046875q-0.265625 0 -0.46875 -0.09375q-0.203125 -0.09375 -0.328125 -0.296875q-0.109375 -0.203125 -0.109375 -0.53125q0 -0.453125 0.328125 -0.671875q0.328125 -0.21875 0.984375 -0.25l0.5 -0.015625l0 -0.125q0 -0.234375 -0.125 -0.328125q-0.109375 -0.109375 -0.328125 -0.109375q-0.21875 0 -0.421875 0.0625q-0.203125 0.046875 -0.40625 0.140625l-0.25 -0.53125q0.21875 -0.125 0.5 -0.1875q0.296875 -0.078125 0.609375 -0.078125zm0.421875 1.625l-0.3125 0q-0.375 0.015625 -0.53125 0.140625q-0.15625 0.125 -0.15625 0.34375q0 0.171875 0.109375 0.25q0.109375 0.078125 0.28125 0.078125q0.25 0 0.421875 -0.140625q0.1875 -0.15625 0.1875 -0.4375l0 -0.234375zm2.3900757 1.34375l-0.78125 0l0 -4.046875l0.78125 0l0 4.046875zm2.0635376 -0.578125q0.125 0 0.25 -0.015625q0.125 -0.03125 0.25 -0.078125l0 0.59375q-0.125 0.0625 -0.3125 0.09375q-0.1875 0.03125 -0.421875 0.03125q-0.25 0 -0.46875 -0.078125q-0.203125 -0.078125 -0.328125 -0.28125q-0.109375 -0.21875 -0.109375 -0.59375l0 -1.40625l-0.375 0l0 -0.34375l0.4375 -0.25l0.21875 -0.625l0.515625 0l0 0.625l0.8125 0l0 0.59375l-0.8125 0l0 1.40625q0 0.15625 0.09375 0.25q0.09375 0.078125 0.25 0.078125zm2.8753357 0.578125l-0.8125 0l0 -2.203125q0 -0.09375 0 -0.21875q0.015625 -0.140625 0.015625 -0.28125q0 -0.140625 0.015625 -0.25q-0.03125 0.03125 -0.125 0.109375q-0.078125 0.078125 -0.15625 0.15625l-0.4375 0.34375l-0.390625 -0.484375l1.234375 -0.96875l0.65625 0l0 3.796875z" fill-rule="nonzero"/><path fill="#ffffff" d="m435.1693 131.08583l54.39383 0l0 13.599258l-54.39383 0z" fill-rule="evenodd"/><path stroke="#b45f06" stroke-width="1.0" stroke-linejoin="round" stroke-linecap="butt" d="m435.1693 131.08583l54.39383 0l0 13.599258l-54.39383 0z" fill-rule="evenodd"/><path fill="#b45f06" d="m445.9662 137.09921q0.53125 0 0.84375 0.375q0.328125 0.359375 0.328125 1.09375q0 0.484375 -0.15625 0.828125q-0.140625 0.328125 -0.40625 0.5q-0.265625 0.15625 -0.625 0.15625q-0.21875 0 -0.390625 -0.046875q-0.171875 -0.0625 -0.296875 -0.15625q-0.125 -0.109375 -0.203125 -0.234375l-0.03125 0q0 0.109375 0.015625 0.25q0.015625 0.140625 0.015625 0.25l0 1.171875l-0.4375 0l0 -4.125l0.359375 0l0.0625 0.40625l0.015625 0q0.078125 -0.125 0.203125 -0.234375q0.125 -0.109375 0.296875 -0.171875q0.171875 -0.0625 0.40625 -0.0625zm-0.078125 0.359375q-0.296875 0 -0.484375 0.125q-0.171875 0.109375 -0.265625 0.34375q-0.078125 0.21875 -0.078125 0.5625l0 0.09375q0 0.359375 0.078125 0.609375q0.078125 0.25 0.265625 0.375q0.1875 0.125 0.484375 0.125q0.265625 0 0.4375 -0.140625q0.1875 -0.140625 0.265625 -0.390625q0.09375 -0.265625 0.09375 -0.59375q0 -0.5 -0.203125 -0.796875q-0.1875 -0.3125 -0.59375 -0.3125zm3.0567322 -0.34375q0.515625 0 0.765625 0.234375q0.25 0.21875 0.25 0.71875l0 1.9375l-0.3125 0l-0.09375 -0.421875l-0.015625 0q-0.125 0.15625 -0.25 0.265625q-0.125 0.109375 -0.296875 0.15625q-0.171875 0.046875 -0.421875 0.046875q-0.265625 0 -0.46875 -0.078125q-0.203125 -0.09375 -0.3125 -0.28125q-0.109375 -0.1875 -0.109375 -0.46875q0 -0.421875 0.328125 -0.65625q0.34375 -0.234375 1.03125 -0.25l0.5 -0.015625l0 -0.1875q0 -0.359375 -0.171875 -0.5q-0.15625 -0.15625 -0.4375 -0.15625q-0.21875 0 -0.421875 0.0625q-0.203125 0.0625 -0.390625 0.15625l-0.140625 -0.328125q0.203125 -0.09375 0.453125 -0.15625q0.25 -0.078125 0.515625 -0.078125zm0.578125 1.484375l-0.421875 0.015625q-0.546875 0.03125 -0.765625 0.1875q-0.21875 0.140625 -0.21875 0.421875q0 0.25 0.140625 0.375q0.15625 0.109375 0.40625 0.109375q0.375 0 0.609375 -0.203125q0.25 -0.21875 0.25 -0.640625l0 -0.265625zm3.1637573 0.625q0 0.28125 -0.140625 0.46875q-0.125 0.171875 -0.390625 0.265625q-0.25 0.09375 -0.59375 0.09375q-0.296875 0 -0.515625 -0.046875q-0.21875 -0.046875 -0.390625 -0.125l0 -0.40625q0.171875 0.09375 0.40625 0.171875q0.25 0.0625 0.5 0.0625q0.375 0 0.53125 -0.109375q0.171875 -0.125 0.171875 -0.34375q0 -0.109375 -0.0625 -0.203125q-0.0625 -0.09375 -0.21875 -0.171875q-0.15625 -0.078125 -0.4375 -0.1875q-0.265625 -0.109375 -0.46875 -0.203125q-0.203125 -0.109375 -0.3125 -0.25q-0.109375 -0.15625 -0.109375 -0.390625q0 -0.359375 0.296875 -0.546875q0.296875 -0.203125 0.765625 -0.203125q0.265625 0 0.484375 0.0625q0.234375 0.046875 0.421875 0.125l-0.140625 0.34375q-0.171875 -0.078125 -0.375 -0.125q-0.203125 -0.046875 -0.40625 -0.046875q-0.3125 0 -0.46875 0.09375q-0.15625 0.09375 -0.15625 0.265625q0 0.140625 0.0625 0.234375q0.078125 0.078125 0.234375 0.15625q0.171875 0.078125 0.453125 0.171875q0.265625 0.09375 0.453125 0.203125q0.203125 0.109375 0.296875 0.265625q0.109375 0.140625 0.109375 0.375zm2.5391846 0q0 0.28125 -0.140625 0.46875q-0.125 0.171875 -0.390625 0.265625q-0.25 0.09375 -0.59375 0.09375q-0.296875 0 -0.515625 -0.046875q-0.21875 -0.046875 -0.390625 -0.125l0 -0.40625q0.171875 0.09375 0.40625 0.171875q0.25 0.0625 0.5 0.0625q0.375 0 0.53125 -0.109375q0.171875 -0.125 0.171875 -0.34375q0 -0.109375 -0.0625 -0.203125q-0.0625 -0.09375 -0.21875 -0.171875q-0.15625 -0.078125 -0.4375 -0.1875q-0.265625 -0.109375 -0.46875 -0.203125q-0.203125 -0.109375 -0.3125 -0.25q-0.109375 -0.15625 -0.109375 -0.390625q0 -0.359375 0.296875 -0.546875q0.296875 -0.203125 0.765625 -0.203125q0.265625 0 0.484375 0.0625q0.234375 0.046875 0.421875 0.125l-0.140625 0.34375q-0.171875 -0.078125 -0.375 -0.125q-0.203125 -0.046875 -0.40625 -0.046875q-0.3125 0 -0.46875 0.09375q-0.15625 0.09375 -0.15625 0.265625q0 0.140625 0.0625 0.234375q0.078125 0.078125 0.234375 0.15625q0.171875 0.078125 0.453125 0.171875q0.265625 0.09375 0.453125 0.203125q0.203125 0.109375 0.296875 0.265625q0.109375 0.140625 0.109375 0.375zm3.0235596 0.78125l-0.515625 -1.671875q-0.03125 -0.09375 -0.0625 -0.203125q-0.03125 -0.109375 -0.0625 -0.203125q-0.015625 -0.09375 -0.03125 -0.171875q-0.015625 -0.078125 -0.03125 -0.140625l-0.015625 0q-0.015625 0.0625 -0.03125 0.140625q-0.015625 0.078125 -0.046875 0.1875q-0.03125 0.09375 -0.0625 0.203125q-0.015625 0.09375 -0.0625 0.203125l-0.53125 1.65625l-0.484375 0l-0.78125 -2.859375l0.453125 0l0.40625 1.578125q0.046875 0.15625 0.078125 0.3125q0.03125 0.140625 0.0625 0.28125q0.03125 0.140625 0.046875 0.234375l0.015625 0q0.015625 -0.0625 0.03125 -0.15625q0.03125 -0.09375 0.046875 -0.1875q0.03125 -0.109375 0.046875 -0.203125q0.03125 -0.109375 0.0625 -0.203125l0.53125 -1.65625l0.46875 0l0.5 1.65625q0.046875 0.125 0.078125 0.265625q0.03125 0.125 0.0625 0.25q0.03125 0.125 0.046875 0.234375l0.03125 0q0 -0.09375 0.03125 -0.21875q0.03125 -0.140625 0.0625 -0.296875q0.046875 -0.15625 0.078125 -0.3125l0.421875 -1.578125l0.4375 0l-0.78125 2.859375l-0.5 0zm4.253784 -1.4375q0 0.359375 -0.09375 0.640625q-0.078125 0.265625 -0.25 0.46875q-0.171875 0.1875 -0.421875 0.28125q-0.234375 0.09375 -0.546875 0.09375q-0.28125 0 -0.53125 -0.09375q-0.234375 -0.09375 -0.40625 -0.28125q-0.171875 -0.203125 -0.265625 -0.46875q-0.09375 -0.28125 -0.09375 -0.640625q0 -0.46875 0.15625 -0.796875q0.15625 -0.328125 0.453125 -0.5q0.296875 -0.171875 0.703125 -0.171875q0.390625 0 0.6875 0.171875q0.296875 0.171875 0.453125 0.515625q0.15625 0.328125 0.15625 0.78125zm-2.15625 0q0 0.34375 0.078125 0.609375q0.09375 0.25 0.28125 0.390625q0.203125 0.125 0.5 0.125q0.296875 0 0.484375 -0.125q0.1875 -0.140625 0.28125 -0.390625q0.09375 -0.265625 0.09375 -0.609375q0 -0.328125 -0.09375 -0.578125q-0.09375 -0.25 -0.28125 -0.390625q-0.1875 -0.140625 -0.484375 -0.140625q-0.453125 0 -0.65625 0.296875q-0.203125 0.296875 -0.203125 0.8125zm4.2052 -1.46875q0.09375 0 0.1875 0.015625q0.09375 0 0.15625 0.015625l-0.046875 0.40625q-0.078125 -0.015625 -0.171875 -0.03125q-0.078125 -0.015625 -0.15625 -0.015625q-0.171875 0 -0.328125 0.078125q-0.140625 0.0625 -0.265625 0.203125q-0.109375 0.125 -0.171875 0.3125q-0.0625 0.171875 -0.0625 0.390625l0 1.53125l-0.4375 0l0 -2.84375l0.359375 0l0.046875 0.515625l0.015625 0q0.09375 -0.15625 0.21875 -0.28125q0.125 -0.140625 0.28125 -0.21875q0.171875 -0.078125 0.375 -0.078125zm1.8963318 2.953125q-0.546875 0 -0.859375 -0.359375q-0.3125 -0.375 -0.3125 -1.109375q0 -0.734375 0.3125 -1.109375q0.328125 -0.375 0.875 -0.375q0.21875 0 0.390625 0.0625q0.171875 0.0625 0.28125 0.171875q0.125 0.09375 0.21875 0.21875l0.03125 0q-0.015625 -0.078125 -0.03125 -0.21875q0 -0.140625 0 -0.234375l0 -1.140625l0.421875 0l0 4.046875l-0.34375 0l-0.0625 -0.40625l-0.015625 0q-0.078125 0.125 -0.203125 0.234375q-0.125 0.109375 -0.296875 0.171875q-0.171875 0.046875 -0.40625 0.046875zm0.0625 -0.359375q0.46875 0 0.65625 -0.25q0.1875 -0.265625 0.1875 -0.78125l0 -0.078125q0 -0.546875 -0.1875 -0.828125q-0.171875 -0.296875 -0.65625 -0.296875q-0.390625 0 -0.59375 0.3125q-0.1875 0.296875 -0.1875 0.828125q0 0.53125 0.1875 0.8125q0.203125 0.28125 0.59375 0.28125zm3.6035767 0.3125l-0.421875 0l0 -2.6875q0 -0.15625 0 -0.265625q0 -0.109375 0 -0.203125q0 -0.09375 0.015625 -0.1875q-0.078125 0.078125 -0.15625 0.140625q-0.0625 0.046875 -0.171875 0.140625l-0.4375 0.34375l-0.21875 -0.296875l1.03125 -0.78125l0.359375 0l0 3.796875z" fill-rule="nonzero"/><path fill="#ffffff" d="m326.38165 144.68509l54.39383 0l0 13.599274l-54.39383 0z" fill-rule="evenodd"/><path stroke="#b45f06" stroke-width="1.0" stroke-linejoin="round" stroke-linecap="butt" d="m326.38165 144.68509l54.39383 0l0 13.599274l-54.39383 0z" fill-rule="evenodd"/><path fill="#b45f06" d="m338.19415 150.76097l0 2.84375l-0.359375 0l-0.0625 -0.40625l-0.015625 0q-0.09375 0.15625 -0.234375 0.265625q-0.140625 0.09375 -0.3125 0.140625q-0.171875 0.046875 -0.375 0.046875q-0.34375 0 -0.578125 -0.109375q-0.21875 -0.109375 -0.34375 -0.328125q-0.109375 -0.234375 -0.109375 -0.59375l0 -1.859375l0.4375 0l0 1.828125q0 0.359375 0.15625 0.53125q0.171875 0.171875 0.5 0.171875q0.3125 0 0.5 -0.109375q0.1875 -0.125 0.265625 -0.359375q0.09375 -0.234375 0.09375 -0.5625l0 -1.5l0.4375 0zm2.7520142 2.0625q0 0.28125 -0.140625 0.46875q-0.125 0.171875 -0.390625 0.265625q-0.25 0.09375 -0.59375 0.09375q-0.296875 0 -0.515625 -0.046875q-0.21875 -0.046875 -0.390625 -0.125l0 -0.40625q0.171875 0.09375 0.40625 0.171875q0.25 0.0625 0.5 0.0625q0.375 0 0.53125 -0.109375q0.171875 -0.125 0.171875 -0.34375q0 -0.109375 -0.0625 -0.203125q-0.0625 -0.09375 -0.21875 -0.171875q-0.15625 -0.078125 -0.4375 -0.1875q-0.265625 -0.109375 -0.46875 -0.203125q-0.203125 -0.109375 -0.3125 -0.25q-0.109375 -0.15625 -0.109375 -0.390625q0 -0.359375 0.296875 -0.546875q0.296875 -0.203125 0.765625 -0.203125q0.265625 0 0.484375 0.0625q0.234375 0.046875 0.421875 0.125l-0.140625 0.34375q-0.171875 -0.078125 -0.375 -0.125q-0.203125 -0.046875 -0.40625 -0.046875q-0.3125 0 -0.46875 0.09375q-0.15625 0.09375 -0.15625 0.265625q0 0.140625 0.0625 0.234375q0.078125 0.078125 0.234375 0.15625q0.171875 0.078125 0.453125 0.171875q0.265625 0.09375 0.453125 0.203125q0.203125 0.109375 0.296875 0.265625q0.109375 0.140625 0.109375 0.375zm1.7891846 -2.125q0.375 0 0.625 0.171875q0.265625 0.15625 0.40625 0.453125q0.140625 0.28125 0.140625 0.671875l0 0.265625l-1.96875 0q0 0.5 0.234375 0.765625q0.25 0.265625 0.6875 0.265625q0.28125 0 0.484375 -0.046875q0.203125 -0.0625 0.4375 -0.15625l0 0.390625q-0.21875 0.09375 -0.4375 0.125q-0.203125 0.046875 -0.5 0.046875q-0.40625 0 -0.71875 -0.15625q-0.296875 -0.171875 -0.46875 -0.5q-0.171875 -0.328125 -0.171875 -0.796875q0 -0.453125 0.15625 -0.796875q0.15625 -0.34375 0.4375 -0.515625q0.28125 -0.1875 0.65625 -0.1875zm0 0.359375q-0.34375 0 -0.546875 0.234375q-0.203125 0.21875 -0.25 0.625l1.515625 0q0 -0.265625 -0.078125 -0.453125q-0.078125 -0.1875 -0.234375 -0.296875q-0.15625 -0.109375 -0.40625 -0.109375zm3.1950073 -0.359375q0.09375 0 0.1875 0.015625q0.09375 0 0.15625 0.015625l-0.046875 0.40625q-0.078125 -0.015625 -0.171875 -0.03125q-0.078125 -0.015625 -0.15625 -0.015625q-0.171875 0 -0.328125 0.078125q-0.140625 0.0625 -0.265625 0.203125q-0.109375 0.125 -0.171875 0.3125q-0.0625 0.171875 -0.0625 0.390625l0 1.53125l-0.4375 0l0 -2.84375l0.359375 0l0.046875 0.515625l0.015625 0q0.09375 -0.15625 0.21875 -0.28125q0.125 -0.140625 0.28125 -0.21875q0.171875 -0.078125 0.375 -0.078125zm3.1775513 2.90625l-2.484375 0l0 -0.359375l1.015625 -1.03125q0.28125 -0.296875 0.46875 -0.515625q0.203125 -0.21875 0.296875 -0.4375q0.109375 -0.21875 0.109375 -0.484375q0 -0.3125 -0.203125 -0.484375q-0.1875 -0.171875 -0.5 -0.171875q-0.265625 0 -0.484375 0.09375q-0.203125 0.09375 -0.421875 0.265625l-0.234375 -0.296875q0.15625 -0.125 0.328125 -0.21875q0.171875 -0.109375 0.375 -0.15625q0.21875 -0.0625 0.4375 -0.0625q0.359375 0 0.609375 0.125q0.265625 0.125 0.390625 0.359375q0.140625 0.21875 0.140625 0.53125q0 0.296875 -0.125 0.5625q-0.109375 0.25 -0.328125 0.515625q-0.21875 0.25 -0.5 0.53125l-0.828125 0.828125l0 0.015625l1.9375 0l0 0.390625z" fill-rule="nonzero"/><path fill="#ffffff" d="m380.77548 144.68509l54.39383 0l0 13.599274l-54.39383 0z" fill-rule="evenodd"/><path stroke="#b45f06" stroke-width="1.0" stroke-linejoin="round" stroke-linecap="butt" d="m380.77548 144.68509l54.39383 0l0 13.599274l-54.39383 0z" fill-rule="evenodd"/><path fill="#000000" d="m392.2286 152.74535q0 0.296875 -0.140625 0.5q-0.140625 0.203125 -0.421875 0.3125q-0.28125 0.09375 -0.6875 0.09375q-0.296875 0 -0.515625 -0.046875q-0.21875 -0.03125 -0.4375 -0.109375l0 -0.65625q0.234375 0.09375 0.5 0.171875q0.28125 0.0625 0.484375 0.0625q0.234375 0 0.328125 -0.0625q0.09375 -0.078125 0.09375 -0.1875q0 -0.0625 -0.046875 -0.125q-0.03125 -0.0625 -0.171875 -0.125q-0.125 -0.078125 -0.40625 -0.203125q-0.265625 -0.109375 -0.453125 -0.21875q-0.171875 -0.125 -0.265625 -0.28125q-0.078125 -0.171875 -0.078125 -0.421875q0 -0.40625 0.3125 -0.609375q0.3125 -0.203125 0.84375 -0.203125q0.265625 0 0.515625 0.0625q0.25 0.046875 0.515625 0.171875l-0.25 0.578125q-0.21875 -0.09375 -0.40625 -0.15625q-0.1875 -0.0625 -0.390625 -0.0625q-0.171875 0 -0.265625 0.046875q-0.078125 0.046875 -0.078125 0.140625q0 0.078125 0.046875 0.140625q0.046875 0.046875 0.171875 0.109375q0.125 0.0625 0.390625 0.171875q0.25 0.09375 0.421875 0.203125q0.1875 0.109375 0.28125 0.28125q0.109375 0.15625 0.109375 0.421875zm1.804718 -2.109375q0.578125 0 0.890625 0.265625q0.3125 0.25 0.3125 0.765625l0 1.9375l-0.546875 0l-0.15625 -0.390625l-0.015625 0q-0.125 0.15625 -0.265625 0.25q-0.125 0.09375 -0.296875 0.140625q-0.171875 0.046875 -0.40625 0.046875q-0.265625 0 -0.46875 -0.09375q-0.203125 -0.09375 -0.328125 -0.296875q-0.109375 -0.203125 -0.109375 -0.53125q0 -0.453125 0.328125 -0.671875q0.328125 -0.21875 0.984375 -0.25l0.5 -0.015625l0 -0.125q0 -0.234375 -0.125 -0.328125q-0.109375 -0.109375 -0.328125 -0.109375q-0.21875 0 -0.421875 0.0625q-0.203125 0.046875 -0.40625 0.140625l-0.25 -0.53125q0.21875 -0.125 0.5 -0.1875q0.296875 -0.078125 0.609375 -0.078125zm0.421875 1.625l-0.3125 0q-0.375 0.015625 -0.53125 0.140625q-0.15625 0.125 -0.15625 0.34375q0 0.171875 0.109375 0.25q0.109375 0.078125 0.28125 0.078125q0.25 0 0.421875 -0.140625q0.1875 -0.15625 0.1875 -0.4375l0 -0.234375zm2.3900757 1.34375l-0.78125 0l0 -4.046875l0.78125 0l0 4.046875zm2.0635376 -0.578125q0.125 0 0.25 -0.015625q0.125 -0.03125 0.25 -0.078125l0 0.59375q-0.125 0.0625 -0.3125 0.09375q-0.1875 0.03125 -0.421875 0.03125q-0.25 0 -0.46875 -0.078125q-0.203125 -0.078125 -0.328125 -0.28125q-0.109375 -0.21875 -0.109375 -0.59375l0 -1.40625l-0.375 0l0 -0.34375l0.4375 -0.25l0.21875 -0.625l0.515625 0l0 0.625l0.8125 0l0 0.59375l-0.8125 0l0 1.40625q0 0.15625 0.09375 0.25q0.09375 0.078125 0.25 0.078125zm3.5472107 0.578125l-2.65625 0l0 -0.5625l0.953125 -0.96875q0.28125 -0.296875 0.453125 -0.484375q0.1875 -0.203125 0.265625 -0.359375q0.078125 -0.171875 0.078125 -0.359375q0 -0.21875 -0.125 -0.328125q-0.125 -0.125 -0.34375 -0.125q-0.21875 0 -0.4375 0.109375q-0.203125 0.09375 -0.421875 0.28125l-0.4375 -0.515625q0.15625 -0.140625 0.34375 -0.265625q0.1875 -0.125 0.421875 -0.203125q0.25 -0.078125 0.59375 -0.078125q0.375 0 0.640625 0.140625q0.265625 0.125 0.40625 0.359375q0.15625 0.234375 0.15625 0.53125q0 0.3125 -0.125 0.578125q-0.125 0.25 -0.359375 0.515625q-0.234375 0.25 -0.578125 0.5625l-0.484375 0.453125l0 0.046875l1.65625 0l0 0.671875z" fill-rule="nonzero"/><path fill="#ffffff" d="m435.1693 144.68509l54.39383 0l0 13.599274l-54.39383 0z" fill-rule="evenodd"/><path stroke="#b45f06" stroke-width="1.0" stroke-linejoin="round" stroke-linecap="butt" d="m435.1693 144.68509l54.39383 0l0 13.599274l-54.39383 0z" fill-rule="evenodd"/><path fill="#b45f06" d="m445.9662 150.69847q0.53125 0 0.84375 0.375q0.328125 0.359375 0.328125 1.09375q0 0.484375 -0.15625 0.828125q-0.140625 0.328125 -0.40625 0.5q-0.265625 0.15625 -0.625 0.15625q-0.21875 0 -0.390625 -0.046875q-0.171875 -0.0625 -0.296875 -0.15625q-0.125 -0.109375 -0.203125 -0.234375l-0.03125 0q0 0.109375 0.015625 0.25q0.015625 0.140625 0.015625 0.25l0 1.171875l-0.4375 0l0 -4.125l0.359375 0l0.0625 0.40625l0.015625 0q0.078125 -0.125 0.203125 -0.234375q0.125 -0.109375 0.296875 -0.171875q0.171875 -0.0625 0.40625 -0.0625zm-0.078125 0.359375q-0.296875 0 -0.484375 0.125q-0.171875 0.109375 -0.265625 0.34375q-0.078125 0.21875 -0.078125 0.5625l0 0.09375q0 0.359375 0.078125 0.609375q0.078125 0.25 0.265625 0.375q0.1875 0.125 0.484375 0.125q0.265625 0 0.4375 -0.140625q0.1875 -0.140625 0.265625 -0.390625q0.09375 -0.265625 0.09375 -0.59375q0 -0.5 -0.203125 -0.796875q-0.1875 -0.3125 -0.59375 -0.3125zm3.0567322 -0.34375q0.515625 0 0.765625 0.234375q0.25 0.21875 0.25 0.71875l0 1.9375l-0.3125 0l-0.09375 -0.421875l-0.015625 0q-0.125 0.15625 -0.25 0.265625q-0.125 0.109375 -0.296875 0.15625q-0.171875 0.046875 -0.421875 0.046875q-0.265625 0 -0.46875 -0.078125q-0.203125 -0.09375 -0.3125 -0.28125q-0.109375 -0.1875 -0.109375 -0.46875q0 -0.421875 0.328125 -0.65625q0.34375 -0.234375 1.03125 -0.25l0.5 -0.015625l0 -0.1875q0 -0.359375 -0.171875 -0.5q-0.15625 -0.15625 -0.4375 -0.15625q-0.21875 0 -0.421875 0.0625q-0.203125 0.0625 -0.390625 0.15625l-0.140625 -0.328125q0.203125 -0.09375 0.453125 -0.15625q0.25 -0.078125 0.515625 -0.078125zm0.578125 1.484375l-0.421875 0.015625q-0.546875 0.03125 -0.765625 0.1875q-0.21875 0.140625 -0.21875 0.421875q0 0.25 0.140625 0.375q0.15625 0.109375 0.40625 0.109375q0.375 0 0.609375 -0.203125q0.25 -0.21875 0.25 -0.640625l0 -0.265625zm3.1637573 0.625q0 0.28125 -0.140625 0.46875q-0.125 0.171875 -0.390625 0.265625q-0.25 0.09375 -0.59375 0.09375q-0.296875 0 -0.515625 -0.046875q-0.21875 -0.046875 -0.390625 -0.125l0 -0.40625q0.171875 0.09375 0.40625 0.171875q0.25 0.0625 0.5 0.0625q0.375 0 0.53125 -0.109375q0.171875 -0.125 0.171875 -0.34375q0 -0.109375 -0.0625 -0.203125q-0.0625 -0.09375 -0.21875 -0.171875q-0.15625 -0.078125 -0.4375 -0.1875q-0.265625 -0.109375 -0.46875 -0.203125q-0.203125 -0.109375 -0.3125 -0.25q-0.109375 -0.15625 -0.109375 -0.390625q0 -0.359375 0.296875 -0.546875q0.296875 -0.203125 0.765625 -0.203125q0.265625 0 0.484375 0.0625q0.234375 0.046875 0.421875 0.125l-0.140625 0.34375q-0.171875 -0.078125 -0.375 -0.125q-0.203125 -0.046875 -0.40625 -0.046875q-0.3125 0 -0.46875 0.09375q-0.15625 0.09375 -0.15625 0.265625q0 0.140625 0.0625 0.234375q0.078125 0.078125 0.234375 0.15625q0.171875 0.078125 0.453125 0.171875q0.265625 0.09375 0.453125 0.203125q0.203125 0.109375 0.296875 0.265625q0.109375 0.140625 0.109375 0.375zm2.5391846 0q0 0.28125 -0.140625 0.46875q-0.125 0.171875 -0.390625 0.265625q-0.25 0.09375 -0.59375 0.09375q-0.296875 0 -0.515625 -0.046875q-0.21875 -0.046875 -0.390625 -0.125l0 -0.40625q0.171875 0.09375 0.40625 0.171875q0.25 0.0625 0.5 0.0625q0.375 0 0.53125 -0.109375q0.171875 -0.125 0.171875 -0.34375q0 -0.109375 -0.0625 -0.203125q-0.0625 -0.09375 -0.21875 -0.171875q-0.15625 -0.078125 -0.4375 -0.1875q-0.265625 -0.109375 -0.46875 -0.203125q-0.203125 -0.109375 -0.3125 -0.25q-0.109375 -0.15625 -0.109375 -0.390625q0 -0.359375 0.296875 -0.546875q0.296875 -0.203125 0.765625 -0.203125q0.265625 0 0.484375 0.0625q0.234375 0.046875 0.421875 0.125l-0.140625 0.34375q-0.171875 -0.078125 -0.375 -0.125q-0.203125 -0.046875 -0.40625 -0.046875q-0.3125 0 -0.46875 0.09375q-0.15625 0.09375 -0.15625 0.265625q0 0.140625 0.0625 0.234375q0.078125 0.078125 0.234375 0.15625q0.171875 0.078125 0.453125 0.171875q0.265625 0.09375 0.453125 0.203125q0.203125 0.109375 0.296875 0.265625q0.109375 0.140625 0.109375 0.375zm3.0235596 0.78125l-0.515625 -1.671875q-0.03125 -0.09375 -0.0625 -0.203125q-0.03125 -0.109375 -0.0625 -0.203125q-0.015625 -0.09375 -0.03125 -0.171875q-0.015625 -0.078125 -0.03125 -0.140625l-0.015625 0q-0.015625 0.0625 -0.03125 0.140625q-0.015625 0.078125 -0.046875 0.1875q-0.03125 0.09375 -0.0625 0.203125q-0.015625 0.09375 -0.0625 0.203125l-0.53125 1.65625l-0.484375 0l-0.78125 -2.859375l0.453125 0l0.40625 1.578125q0.046875 0.15625 0.078125 0.3125q0.03125 0.140625 0.0625 0.28125q0.03125 0.140625 0.046875 0.234375l0.015625 0q0.015625 -0.0625 0.03125 -0.15625q0.03125 -0.09375 0.046875 -0.1875q0.03125 -0.109375 0.046875 -0.203125q0.03125 -0.109375 0.0625 -0.203125l0.53125 -1.65625l0.46875 0l0.5 1.65625q0.046875 0.125 0.078125 0.265625q0.03125 0.125 0.0625 0.25q0.03125 0.125 0.046875 0.234375l0.03125 0q0 -0.09375 0.03125 -0.21875q0.03125 -0.140625 0.0625 -0.296875q0.046875 -0.15625 0.078125 -0.3125l0.421875 -1.578125l0.4375 0l-0.78125 2.859375l-0.5 0zm4.253784 -1.4375q0 0.359375 -0.09375 0.640625q-0.078125 0.265625 -0.25 0.46875q-0.171875 0.1875 -0.421875 0.28125q-0.234375 0.09375 -0.546875 0.09375q-0.28125 0 -0.53125 -0.09375q-0.234375 -0.09375 -0.40625 -0.28125q-0.171875 -0.203125 -0.265625 -0.46875q-0.09375 -0.28125 -0.09375 -0.640625q0 -0.46875 0.15625 -0.796875q0.15625 -0.328125 0.453125 -0.5q0.296875 -0.171875 0.703125 -0.171875q0.390625 0 0.6875 0.171875q0.296875 0.171875 0.453125 0.515625q0.15625 0.328125 0.15625 0.78125zm-2.15625 0q0 0.34375 0.078125 0.609375q0.09375 0.25 0.28125 0.390625q0.203125 0.125 0.5 0.125q0.296875 0 0.484375 -0.125q0.1875 -0.140625 0.28125 -0.390625q0.09375 -0.265625 0.09375 -0.609375q0 -0.328125 -0.09375 -0.578125q-0.09375 -0.25 -0.28125 -0.390625q-0.1875 -0.140625 -0.484375 -0.140625q-0.453125 0 -0.65625 0.296875q-0.203125 0.296875 -0.203125 0.8125zm4.2052 -1.46875q0.09375 0 0.1875 0.015625q0.09375 0 0.15625 0.015625l-0.046875 0.40625q-0.078125 -0.015625 -0.171875 -0.03125q-0.078125 -0.015625 -0.15625 -0.015625q-0.171875 0 -0.328125 0.078125q-0.140625 0.0625 -0.265625 0.203125q-0.109375 0.125 -0.171875 0.3125q-0.0625 0.171875 -0.0625 0.390625l0 1.53125l-0.4375 0l0 -2.84375l0.359375 0l0.046875 0.515625l0.015625 0q0.09375 -0.15625 0.21875 -0.28125q0.125 -0.140625 0.28125 -0.21875q0.171875 -0.078125 0.375 -0.078125zm1.8963318 2.953125q-0.546875 0 -0.859375 -0.359375q-0.3125 -0.375 -0.3125 -1.109375q0 -0.734375 0.3125 -1.109375q0.328125 -0.375 0.875 -0.375q0.21875 0 0.390625 0.0625q0.171875 0.0625 0.28125 0.171875q0.125 0.09375 0.21875 0.21875l0.03125 0q-0.015625 -0.078125 -0.03125 -0.21875q0 -0.140625 0 -0.234375l0 -1.140625l0.421875 0l0 4.046875l-0.34375 0l-0.0625 -0.40625l-0.015625 0q-0.078125 0.125 -0.203125 0.234375q-0.125 0.109375 -0.296875 0.171875q-0.171875 0.046875 -0.40625 0.046875zm0.0625 -0.359375q0.46875 0 0.65625 -0.25q0.1875 -0.265625 0.1875 -0.78125l0 -0.078125q0 -0.546875 -0.1875 -0.828125q-0.171875 -0.296875 -0.65625 -0.296875q-0.390625 0 -0.59375 0.3125q-0.1875 0.296875 -0.1875 0.828125q0 0.53125 0.1875 0.8125q0.203125 0.28125 0.59375 0.28125zm4.4785767 0.3125l-2.484375 0l0 -0.359375l1.015625 -1.03125q0.28125 -0.296875 0.46875 -0.515625q0.203125 -0.21875 0.296875 -0.4375q0.109375 -0.21875 0.109375 -0.484375q0 -0.3125 -0.203125 -0.484375q-0.1875 -0.171875 -0.5 -0.171875q-0.265625 0 -0.484375 0.09375q-0.203125 0.09375 -0.421875 0.265625l-0.234375 -0.296875q0.15625 -0.125 0.328125 -0.21875q0.171875 -0.109375 0.375 -0.15625q0.21875 -0.0625 0.4375 -0.0625q0.359375 0 0.609375 0.125q0.265625 0.125 0.390625 0.359375q0.140625 0.21875 0.140625 0.53125q0 0.296875 -0.125 0.5625q-0.109375 0.25 -0.328125 0.515625q-0.21875 0.25 -0.5 0.53125l-0.828125 0.828125l0 0.015625l1.9375 0l0 0.390625z" fill-rule="nonzero"/><path fill="#ffffff" d="m326.38165 158.28436l54.39383 0l0 13.599258l-54.39383 0z" fill-rule="evenodd"/><path stroke="#b45f06" stroke-width="1.0" stroke-linejoin="round" stroke-linecap="butt" d="m326.38165 158.28436l54.39383 0l0 13.599258l-54.39383 0z" fill-rule="evenodd"/><path fill="#b45f06" d="m335.77228 166.93837q0 -0.1875 0.078125 -0.265625q0.09375 -0.078125 0.21875 -0.078125q0.140625 0 0.234375 0.078125q0.09375 0.078125 0.09375 0.265625q0 0.171875 -0.09375 0.265625q-0.09375 0.078125 -0.234375 0.078125q-0.125 0 -0.21875 -0.078125q-0.078125 -0.09375 -0.078125 -0.265625zm1.3996887 0q0 -0.1875 0.078125 -0.265625q0.09375 -0.078125 0.21875 -0.078125q0.140625 0 0.234375 0.078125q0.09375 0.078125 0.09375 0.265625q0 0.171875 -0.09375 0.265625q-0.09375 0.078125 -0.234375 0.078125q-0.125 0 -0.21875 -0.078125q-0.078125 -0.09375 -0.078125 -0.265625zm1.3996582 0q0 -0.1875 0.078125 -0.265625q0.09375 -0.078125 0.21875 -0.078125q0.140625 0 0.234375 0.078125q0.09375 0.078125 0.09375 0.265625q0 0.171875 -0.09375 0.265625q-0.09375 0.078125 -0.234375 0.078125q-0.125 0 -0.21875 -0.078125q-0.078125 -0.09375 -0.078125 -0.265625z" fill-rule="nonzero"/><path fill="#ffffff" d="m380.77548 158.28436l54.39383 0l0 13.599258l-54.39383 0z" fill-rule="evenodd"/><path stroke="#b45f06" stroke-width="1.0" stroke-linejoin="round" stroke-linecap="butt" d="m380.77548 158.28436l54.39383 0l0 13.599258l-54.39383 0z" fill-rule="evenodd"/><path fill="#000000" d="m390.07236 166.829q0 -0.234375 0.140625 -0.328125q0.140625 -0.109375 0.328125 -0.109375q0.1875 0 0.3125 0.109375q0.140625 0.09375 0.140625 0.328125q0 0.234375 -0.140625 0.34375q-0.125 0.09375 -0.3125 0.09375q-0.1875 0 -0.328125 -0.09375q-0.140625 -0.109375 -0.140625 -0.34375zm1.5193481 0q0 -0.234375 0.140625 -0.328125q0.140625 -0.109375 0.328125 -0.109375q0.1875 0 0.3125 0.109375q0.140625 0.09375 0.140625 0.328125q0 0.234375 -0.140625 0.34375q-0.125 0.09375 -0.3125 0.09375q-0.1875 0 -0.328125 -0.09375q-0.140625 -0.109375 -0.140625 -0.34375zm1.5193481 0q0 -0.234375 0.140625 -0.328125q0.140625 -0.109375 0.328125 -0.109375q0.1875 0 0.3125 0.109375q0.140625 0.09375 0.140625 0.328125q0 0.234375 -0.140625 0.34375q-0.125 0.09375 -0.3125 0.09375q-0.1875 0 -0.328125 -0.09375q-0.140625 -0.109375 -0.140625 -0.34375z" fill-rule="nonzero"/><path fill="#ffffff" d="m435.1693 158.28436l54.39383 0l0 13.599258l-54.39383 0z" fill-rule="evenodd"/><path stroke="#b45f06" stroke-width="1.0" stroke-linejoin="round" stroke-linecap="butt" d="m435.1693 158.28436l54.39383 0l0 13.599258l-54.39383 0z" fill-rule="evenodd"/><path fill="#b45f06" d="m444.55994 166.93837q0 -0.1875 0.078125 -0.265625q0.09375 -0.078125 0.21875 -0.078125q0.140625 0 0.234375 0.078125q0.09375 0.078125 0.09375 0.265625q0 0.171875 -0.09375 0.265625q-0.09375 0.078125 -0.234375 0.078125q-0.125 0 -0.21875 -0.078125q-0.078125 -0.09375 -0.078125 -0.265625zm1.3996887 0q0 -0.1875 0.078125 -0.265625q0.09375 -0.078125 0.21875 -0.078125q0.140625 0 0.234375 0.078125q0.09375 0.078125 0.09375 0.265625q0 0.171875 -0.09375 0.265625q-0.09375 0.078125 -0.234375 0.078125q-0.125 0 -0.21875 -0.078125q-0.078125 -0.09375 -0.078125 -0.265625zm1.3996582 0q0 -0.1875 0.078125 -0.265625q0.09375 -0.078125 0.21875 -0.078125q0.140625 0 0.234375 0.078125q0.09375 0.078125 0.09375 0.265625q0 0.171875 -0.09375 0.265625q-0.09375 0.078125 -0.234375 0.078125q-0.125 0 -0.21875 -0.078125q-0.078125 -0.09375 -0.078125 -0.265625z" fill-rule="nonzero"/><path fill="#000000" fill-opacity="0.0" d="m287.81628 122.29796l31.968506 0.03150177" fill-rule="evenodd"/><path stroke="#000000" stroke-width="1.0" stroke-linejoin="round" stroke-linecap="butt" d="m291.24335 122.30134l25.11435 0.024749756" fill-rule="evenodd"/><path fill="#000000" stroke="#000000" stroke-width="1.0" stroke-linecap="butt" d="m291.24335 122.30134l1.1257019 -1.1234741l-3.0908813 1.1215363l3.0886536 1.1276321z" fill-rule="evenodd"/><path fill="#000000" stroke="#000000" stroke-width="1.0" stroke-linecap="butt" d="m316.3577 122.32608l-1.1257019 1.1234741l3.0908813 -1.1215363l-3.0886536 -1.1276245z" fill-rule="evenodd"/><path fill="#000000" fill-opacity="0.0" d="m149.59317 122.735794l31.968506 -0.4409485" fill-rule="evenodd"/><path stroke="#000000" stroke-width="1.0" stroke-linejoin="round" stroke-linecap="butt" d="m149.59317 122.73579l28.541748 -0.39367676" fill-rule="evenodd"/><path fill="#000000" stroke="#000000" stroke-width="1.0" stroke-linecap="butt" d="m178.13492 122.34211l-1.108963 1.1399841l3.0739594 -1.1670837l-3.1049805 -1.0818634z" fill-rule="evenodd"/><path fill="#000000" fill-opacity="0.0" d="m278.0971 244.04929l-43.401566 -48.661423" fill-rule="evenodd"/><path stroke="#000000" stroke-width="1.0" stroke-linejoin="round" stroke-linecap="butt" d="m275.81598 241.49167l-38.839294 -43.54622" fill-rule="evenodd"/><path fill="#000000" stroke="#000000" stroke-width="1.0" stroke-linecap="butt" d="m275.81598 241.49168l-1.5878296 -0.09072876l2.895874 1.557312l-1.2173462 -3.0543976z" fill-rule="evenodd"/><path fill="#000000" stroke="#000000" stroke-width="1.0" stroke-linecap="butt" d="m236.97668 197.94545l1.5878143 0.0907135l-2.8958893 -1.557312l1.2173615 3.0544128z" fill-rule="evenodd"/><path fill="#d9ead3" d="m265.49606 244.04929l25.202087 0l0 22.84253l-25.202087 0z" fill-rule="evenodd"/><path stroke="#38761d" stroke-width="1.0" stroke-linejoin="round" stroke-linecap="butt" d="m265.49606 244.04929l25.202087 0l0 22.84253l-25.202087 0z" fill-rule="evenodd"/><path fill="#fff2cc" d="m268.3788 281.54315l0 0c0 -5.1643066 4.186493 -9.3508 9.350769 -9.3508l0 0c2.480011 0 4.8583984 0.98516846 6.61203 2.7388c1.7536011 1.7536011 2.7387695 4.132019 2.7387695 6.6119995l0 0c0 5.164276 -4.186493 9.350769 -9.3508 9.350769l0 0c-5.164276 0 -9.350769 -4.186493 -9.350769 -9.350769z" fill-rule="evenodd"/><path stroke="#bf9000" stroke-width="2.0" stroke-linejoin="round" stroke-linecap="butt" d="m268.3788 281.54315l0 0c0 -5.1643066 4.186493 -9.3508 9.350769 -9.3508l0 0c2.480011 0 4.8583984 0.98516846 6.61203 2.7388c1.7536011 1.7536011 2.7387695 4.132019 2.7387695 6.6119995l0 0c0 5.164276 -4.186493 9.350769 -9.3508 9.350769l0 0c-5.164276 0 -9.350769 -4.186493 -9.350769 -9.350769z" fill-rule="evenodd"/><path fill="#000000" fill-opacity="0.0" d="m277.72958 290.89392l0 21.170563" fill-rule="evenodd"/><path stroke="#bf9000" stroke-width="2.0" stroke-linejoin="round" stroke-linecap="butt" d="m277.72958 290.89392l0 21.170563" fill-rule="evenodd"/><path fill="#000000" fill-opacity="0.0" d="m277.72958 310.5352l11.294647 13.763611" fill-rule="evenodd"/><path stroke="#bf9000" stroke-width="2.0" stroke-linejoin="round" stroke-linecap="butt" d="m277.72958 310.5352l11.294647 13.763611" fill-rule="evenodd"/><path fill="#000000" fill-opacity="0.0" d="m277.71732 310.03772l-9.341583 14.261078" fill-rule="evenodd"/><path stroke="#bf9000" stroke-width="2.0" stroke-linejoin="round" stroke-linecap="butt" d="m277.71732 310.03772l-9.341583 14.261078" fill-rule="evenodd"/><path fill="#000000" fill-opacity="0.0" d="m287.80362 297.74252l-20.63623 0" fill-rule="evenodd"/><path stroke="#bf9000" stroke-width="2.0" stroke-linejoin="round" stroke-linecap="butt" d="m287.80362 297.74252l-20.63623 0" fill-rule="evenodd"/><path fill="#000000" fill-opacity="0.0" d="m316.53983 108.96894l143.08664 0l0 28.976372l-143.08664 0z" fill-rule="evenodd"/><path fill="#b45f06" d="m330.6492 120.61838l0 3.703125q0 0.609375 -0.25 1.078125q-0.25 0.46875 -0.75 0.75q-0.484375 0.265625 -1.21875 0.265625q-1.0625 0 -1.625 -0.578125q-0.546875 -0.578125 -0.546875 -1.53125l0 -3.6875l0.671875 0l0 3.703125q0 0.734375 0.375 1.125q0.390625 0.390625 1.15625 0.390625q0.53125 0 0.859375 -0.1875q0.34375 -0.1875 0.5 -0.53125q0.15625 -0.34375 0.15625 -0.796875l0 -3.703125l0.671875 0zm4.1757812 4.546875q0 0.40625 -0.203125 0.6875q-0.203125 0.28125 -0.59375 0.421875q-0.375 0.140625 -0.90625 0.140625q-0.4375 0 -0.765625 -0.078125q-0.328125 -0.0625 -0.578125 -0.1875l0 -0.609375q0.265625 0.140625 0.625 0.25q0.359375 0.09375 0.734375 0.09375q0.5625 0 0.8125 -0.171875q0.25 -0.1875 0.25 -0.5q0 -0.171875 -0.109375 -0.296875q-0.09375 -0.140625 -0.328125 -0.265625q-0.234375 -0.125 -0.640625 -0.28125q-0.421875 -0.15625 -0.71875 -0.3125q-0.296875 -0.15625 -0.46875 -0.375q-0.15625 -0.21875 -0.15625 -0.578125q0 -0.546875 0.4375 -0.828125q0.453125 -0.296875 1.15625 -0.296875q0.390625 0 0.71875 0.078125q0.34375 0.078125 0.640625 0.203125l-0.21875 0.515625q-0.265625 -0.109375 -0.5625 -0.1875q-0.296875 -0.078125 -0.609375 -0.078125q-0.453125 0 -0.703125 0.15625q-0.234375 0.140625 -0.234375 0.390625q0 0.203125 0.109375 0.34375q0.109375 0.125 0.359375 0.234375q0.25 0.109375 0.65625 0.265625q0.390625 0.140625 0.6875 0.3125q0.296875 0.15625 0.453125 0.375q0.15625 0.21875 0.15625 0.578125zm2.6875 -3.1875q0.546875 0 0.9375 0.25q0.390625 0.234375 0.59375 0.671875q0.21875 0.4375 0.21875 1.015625l0 0.40625l-2.953125 0q0 0.75 0.359375 1.140625q0.375 0.390625 1.03125 0.390625q0.40625 0 0.71875 -0.0625q0.3125 -0.078125 0.65625 -0.21875l0 0.5625q-0.328125 0.140625 -0.65625 0.203125q-0.3125 0.078125 -0.75 0.078125q-0.609375 0 -1.078125 -0.25q-0.453125 -0.25 -0.703125 -0.734375q-0.25 -0.5 -0.25 -1.203125q0 -0.6875 0.21875 -1.1875q0.234375 -0.515625 0.65625 -0.78125q0.4375 -0.28125 1.0 -0.28125zm0 0.53125q-0.515625 0 -0.828125 0.34375q-0.3125 0.328125 -0.375 0.9375l2.265625 0q0 -0.375 -0.125 -0.65625q-0.109375 -0.296875 -0.34375 -0.453125q-0.234375 -0.171875 -0.59375 -0.171875zm4.7890625 -0.53125q0.140625 0 0.28125 0.015625q0.140625 0.015625 0.25 0.03125l-0.09375 0.609375q-0.09375 -0.03125 -0.234375 -0.046875q-0.125 -0.015625 -0.234375 -0.015625q-0.265625 0 -0.5 0.109375q-0.21875 0.09375 -0.390625 0.296875q-0.171875 0.1875 -0.265625 0.46875q-0.09375 0.265625 -0.09375 0.59375l0 2.296875l-0.65625 0l0 -4.28125l0.53125 0l0.078125 0.78125l0.03125 0q0.125 -0.234375 0.3125 -0.421875q0.1875 -0.203125 0.4375 -0.3125q0.25 -0.125 0.546875 -0.125zm4.0976562 3.1875q0 0.40625 -0.203125 0.6875q-0.203125 0.28125 -0.59375 0.421875q-0.375 0.140625 -0.90625 0.140625q-0.4375 0 -0.765625 -0.078125q-0.328125 -0.0625 -0.578125 -0.1875l0 -0.609375q0.265625 0.140625 0.625 0.25q0.359375 0.09375 0.734375 0.09375q0.5625 0 0.8125 -0.171875q0.25 -0.1875 0.25 -0.5q0 -0.171875 -0.109375 -0.296875q-0.09375 -0.140625 -0.328125 -0.265625q-0.234375 -0.125 -0.640625 -0.28125q-0.421875 -0.15625 -0.71875 -0.3125q-0.296875 -0.15625 -0.46875 -0.375q-0.15625 -0.21875 -0.15625 -0.578125q0 -0.546875 0.4375 -0.828125q0.453125 -0.296875 1.15625 -0.296875q0.390625 0 0.71875 0.078125q0.34375 0.078125 0.640625 0.203125l-0.21875 0.515625q-0.265625 -0.109375 -0.5625 -0.1875q-0.296875 -0.078125 -0.609375 -0.078125q-0.453125 0 -0.703125 0.15625q-0.234375 0.140625 -0.234375 0.390625q0 0.203125 0.109375 0.34375q0.109375 0.125 0.359375 0.234375q0.25 0.109375 0.65625 0.265625q0.390625 0.140625 0.6875 0.3125q0.296875 0.15625 0.453125 0.375q0.15625 0.21875 0.15625 0.578125zm4.96875 1.171875l-0.65625 0l0 -5.125l-1.796875 0l0 -0.59375l4.25 0l0 0.59375l-1.796875 0l0 5.125zm4.15625 -4.359375q0.765625 0 1.140625 0.34375q0.375 0.34375 0.375 1.109375l0 2.90625l-0.46875 0l-0.125 -0.640625l-0.03125 0q-0.1875 0.234375 -0.390625 0.40625q-0.1875 0.15625 -0.453125 0.234375q-0.25 0.078125 -0.609375 0.078125q-0.390625 0 -0.703125 -0.140625q-0.296875 -0.140625 -0.46875 -0.40625q-0.171875 -0.28125 -0.171875 -0.703125q0 -0.640625 0.5 -0.984375q0.515625 -0.34375 1.546875 -0.375l0.734375 -0.03125l0 -0.265625q0 -0.5625 -0.234375 -0.78125q-0.234375 -0.21875 -0.671875 -0.21875q-0.328125 0 -0.640625 0.09375q-0.296875 0.09375 -0.578125 0.234375l-0.203125 -0.5q0.296875 -0.140625 0.671875 -0.25q0.375 -0.109375 0.78125 -0.109375zm0.875 2.25l-0.65625 0.03125q-0.796875 0.03125 -1.125 0.265625q-0.328125 0.21875 -0.328125 0.640625q0 0.375 0.21875 0.546875q0.21875 0.171875 0.59375 0.171875q0.5625 0 0.921875 -0.3125q0.375 -0.3125 0.375 -0.953125l0 -0.390625zm2.6171875 -3.96875l0 1.515625q0 0.265625 -0.015625 0.515625q0 0.234375 -0.015625 0.375l0.03125 0q0.1875 -0.28125 0.515625 -0.484375q0.328125 -0.203125 0.84375 -0.203125q0.8125 0 1.28125 0.5625q0.484375 0.546875 0.484375 1.65625q0 0.71875 -0.21875 1.21875q-0.21875 0.484375 -0.625 0.75q-0.390625 0.25 -0.9375 0.25q-0.5 0 -0.828125 -0.1875q-0.328125 -0.1875 -0.5 -0.46875l-0.0625 0l-0.125 0.578125l-0.46875 0l0 -6.078125l0.640625 0zm1.25 2.265625q-0.453125 0 -0.734375 0.1875q-0.265625 0.171875 -0.390625 0.546875q-0.125 0.359375 -0.125 0.921875l0 0.03125q0 0.8125 0.265625 1.234375q0.28125 0.421875 0.984375 0.421875q0.609375 0 0.90625 -0.4375q0.296875 -0.4375 0.296875 -1.25q0 -0.828125 -0.296875 -1.234375q-0.296875 -0.421875 -0.90625 -0.421875zm3.6601562 3.8125l-0.65625 0l0 -6.078125l0.65625 0l0 6.078125zm3.0039062 -4.359375q0.546875 0 0.9375 0.25q0.390625 0.234375 0.59375 0.671875q0.21875 0.4375 0.21875 1.015625l0 0.40625l-2.953125 0q0 0.75 0.359375 1.140625q0.375 0.390625 1.03125 0.390625q0.40625 0 0.71875 -0.0625q0.3125 -0.078125 0.65625 -0.21875l0 0.5625q-0.328125 0.140625 -0.65625 0.203125q-0.3125 0.078125 -0.75 0.078125q-0.609375 0 -1.078125 -0.25q-0.453125 -0.25 -0.703125 -0.734375q-0.25 -0.5 -0.25 -1.203125q0 -0.6875 0.21875 -1.1875q0.234375 -0.515625 0.65625 -0.78125q0.4375 -0.28125 1.0 -0.28125zm0 0.53125q-0.515625 0 -0.828125 0.34375q-0.3125 0.328125 -0.375 0.9375l2.265625 0q0 -0.375 -0.125 -0.65625q-0.109375 -0.296875 -0.34375 -0.453125q-0.234375 -0.171875 -0.59375 -0.171875z" fill-rule="nonzero"/></g></svg>