<svg width="63" height="55" viewBox="0 0 63 55" fill="none" xmlns="http://www.w3.org/2000/svg">
<g clip-path="url(#clip0_0_3)">
<circle cx="31.5" cy="27.5" r="21" fill="white"/>
<path d="M40.3652 42.2349L39.9546 41.1162C41.1535 40.7103 42.0314 40.04 42.5884 39.1055C43.1548 38.1803 43.438 37.0428 43.438 35.6929V32.4785C43.438 31.4118 43.6646 30.4914 44.1177 29.7173C44.5802 28.9432 45.293 28.4004 46.2559 28.0889C45.293 27.7773 44.5802 27.2393 44.1177 26.4746C43.6646 25.71 43.438 24.7848 43.438 23.6992V20.4707C43.438 19.1113 43.1595 17.9549 42.6025 17.0015C42.055 16.048 41.1865 15.3778 39.9971 14.9907L40.3652 13.8862C42.0833 14.4054 43.3058 15.2314 44.0327 16.3643C44.769 17.4876 45.1372 18.8564 45.1372 20.4707V23.6992C45.1372 24.8604 45.4015 25.7619 45.9302 26.4038C46.4683 27.0363 47.2943 27.3525 48.4082 27.3525V28.811C47.2943 28.811 46.4683 29.1367 45.9302 29.7881C45.4015 30.43 45.1372 31.3268 45.1372 32.4785V35.6929C45.1372 37.2977 44.769 38.6571 44.0327 39.771C43.3058 40.8944 42.0833 41.7157 40.3652 42.2349Z" fill="#5C5C5C"/>
<path d="M22.5073 42.2349C20.7703 41.7157 19.5384 40.8944 18.8115 39.771C18.0846 38.6571 17.7212 37.2977 17.7212 35.6929V32.4785C17.7212 31.3174 17.4521 30.4159 16.9141 29.7739C16.3854 29.132 15.5641 28.811 14.4502 28.811V27.3525C15.5641 27.3525 16.3854 27.0363 16.9141 26.4038C17.4521 25.7619 17.7212 24.8604 17.7212 23.6992V20.4707C17.7212 18.8564 18.0846 17.4876 18.8115 16.3643C19.5384 15.2314 20.7703 14.4054 22.5073 13.8862L22.8755 14.9907C21.6672 15.3778 20.7892 16.048 20.2417 17.0015C19.6942 17.9549 19.4204 19.1113 19.4204 20.4707V23.6992C19.4204 24.766 19.1938 25.6816 18.7407 26.4463C18.297 27.2109 17.6174 27.7585 16.7017 28.0889C17.6174 28.4193 18.297 28.9715 18.7407 29.7456C19.1938 30.5103 19.4204 31.4212 19.4204 32.4785V35.6929C19.4204 37.0428 19.6989 38.1803 20.2559 39.1055C20.8128 40.04 21.7002 40.7103 22.918 41.1162L22.5073 42.2349Z" fill="#5C5C5C"/>
<path d="M25.3711 36.0103C25.0804 36.0103 24.8175 35.9979 24.5825 35.9732C24.3475 35.9546 24.1032 35.9175 23.8496 35.8619L23.998 33.4034C24.1589 33.4405 24.298 33.4683 24.4155 33.4869C24.5392 33.5116 24.7 33.524 24.8979 33.524C25.2443 33.524 25.5103 33.3941 25.6958 33.1343C25.8875 32.8807 25.9834 32.5189 25.9834 32.0489V24.126L24.5732 23.8291V21.918H29.2212V32.0489C29.2212 33.3168 28.8841 34.294 28.21 34.9805C27.5358 35.667 26.5895 36.0103 25.3711 36.0103ZM25.835 20.0162V17.4834H29.1841V20.0162H25.835ZM30.7056 35.8155V33.9043L31.9487 33.6075V24.126L30.5386 23.8291V21.918H35.001L35.1123 23.0498C35.3844 22.6293 35.7122 22.3046 36.0957 22.0757C36.4792 21.8469 36.9492 21.7325 37.5059 21.7325C38.2975 21.7325 38.9779 21.952 39.5469 22.3912C40.1159 22.8241 40.5519 23.4333 40.855 24.2188C41.1642 25.0043 41.3188 25.9165 41.3188 26.9556V27.1504C41.3188 28.1524 41.1642 29.0306 40.855 29.7852C40.5519 30.5336 40.1128 31.115 39.5376 31.5293C38.9624 31.9437 38.2697 32.1509 37.4595 32.1509C36.9647 32.1509 36.5286 32.0581 36.1514 31.8726C35.7803 31.6871 35.4587 31.4149 35.1865 31.0562V33.6075L36.3184 33.9043V35.8155H30.7056ZM36.4946 29.6739C37.0822 29.6739 37.4904 29.4543 37.7192 29.0152C37.9481 28.5699 38.0625 27.9483 38.0625 27.1504V26.9556C38.0625 26.4052 38.0099 25.9258 37.9048 25.5176C37.7996 25.1094 37.6296 24.794 37.3945 24.5713C37.1657 24.3425 36.8595 24.2281 36.4761 24.2281C36.1978 24.2281 35.9442 24.2899 35.7153 24.4136C35.4927 24.5373 35.3164 24.7229 35.1865 24.9703V29.0616C35.3164 29.2657 35.4958 29.4203 35.7246 29.5254C35.9535 29.6244 36.2101 29.6739 36.4946 29.6739Z" fill="#BBBBBB"/>
</g>
<defs>
<clipPath id="clip0_0_3">
<rect width="63" height="55" fill="white"/>
</clipPath>
</defs>
</svg>
