<svg width="35" height="29" viewBox="0 0 35 29" fill="none" xmlns="http://www.w3.org/2000/svg">
<g clip-path="url(#clip0_0_3)">
<path d="M26.3652 28.7349L25.9546 27.6162C27.1535 27.2103 28.0314 26.54 28.5884 25.6055C29.1548 24.6803 29.438 23.5428 29.438 22.1929V18.9785C29.438 17.9118 29.6646 16.9914 30.1177 16.2173C30.5802 15.4432 31.293 14.9004 32.2559 14.5889C31.293 14.2773 30.5802 13.7393 30.1177 12.9746C29.6646 12.21 29.438 11.2848 29.438 10.1992V6.9707C29.438 5.61133 29.1595 4.45492 28.6025 3.50146C28.055 2.54801 27.1865 1.87777 25.9971 1.49072L26.3652 0.38623C28.0833 0.905436 29.3058 1.73145 30.0327 2.86426C30.769 3.98763 31.1372 5.35645 31.1372 6.9707V10.1992C31.1372 11.3604 31.4015 12.2619 31.9302 12.9038C32.4683 13.5363 33.2943 13.8525 34.4082 13.8525V15.311C33.2943 15.311 32.4683 15.6367 31.9302 16.2881C31.4015 16.93 31.1372 17.8268 31.1372 18.9785V22.1929C31.1372 23.7977 30.769 25.1571 30.0327 26.271C29.3058 27.3944 28.0833 28.2157 26.3652 28.7349Z" fill="#5C5C5C"/>
<path d="M8.50732 28.7349C6.77035 28.2157 5.53841 27.3944 4.81152 26.271C4.08464 25.1571 3.72119 23.7977 3.72119 22.1929V18.9785C3.72119 17.8174 3.45215 16.9159 2.91406 16.2739C2.38542 15.632 1.56413 15.311 0.450195 15.311V13.8525C1.56413 13.8525 2.38542 13.5363 2.91406 12.9038C3.45215 12.2619 3.72119 11.3604 3.72119 10.1992V6.9707C3.72119 5.35645 4.08464 3.98763 4.81152 2.86426C5.53841 1.73145 6.77035 0.905436 8.50732 0.38623L8.87549 1.49072C7.66715 1.87777 6.78923 2.54801 6.2417 3.50146C5.69417 4.45492 5.42041 5.61133 5.42041 6.9707V10.1992C5.42041 11.266 5.19385 12.1816 4.74072 12.9463C4.29704 13.7109 3.61735 14.2585 2.70166 14.5889C3.61735 14.9193 4.29704 15.4715 4.74072 16.2456C5.19385 17.0103 5.42041 17.9212 5.42041 18.9785V22.1929C5.42041 23.5428 5.69889 24.6803 6.25586 25.6055C6.81283 26.54 7.7002 27.2103 8.91797 27.6162L8.50732 28.7349Z" fill="#5C5C5C"/>
<path d="M11.3711 22.5103C11.0804 22.5103 10.8175 22.4979 10.5825 22.4732C10.3475 22.4546 10.1032 22.4175 9.84961 22.3619L9.99805 19.9034C10.1589 19.9405 10.298 19.9683 10.4155 19.9869C10.5392 20.0116 10.7 20.024 10.8979 20.024C11.2443 20.024 11.5103 19.8941 11.6958 19.6343C11.8875 19.3807 11.9834 19.0189 11.9834 18.5489V10.626L10.5732 10.3291V8.41801H15.2212V18.5489C15.2212 19.8168 14.8841 20.794 14.21 21.4805C13.5358 22.167 12.5895 22.5103 11.3711 22.5103ZM11.835 6.51616V3.98344H15.1841V6.51616H11.835ZM16.7056 22.3155V20.4043L17.9487 20.1075V10.626L16.5386 10.3291V8.41801H21.001L21.1123 9.54985C21.3844 9.12927 21.7122 8.80457 22.0957 8.57573C22.4792 8.34688 22.9492 8.23246 23.5059 8.23246C24.2975 8.23246 24.9779 8.45203 25.5469 8.89116C26.1159 9.3241 26.5519 9.93331 26.855 10.7188C27.1642 11.5043 27.3188 12.4165 27.3188 13.4556V13.6504C27.3188 14.6524 27.1642 15.5306 26.855 16.2852C26.5519 17.0336 26.1128 17.615 25.5376 18.0293C24.9624 18.4437 24.2697 18.6509 23.4595 18.6509C22.9647 18.6509 22.5286 18.5581 22.1514 18.3726C21.7803 18.1871 21.4587 17.9149 21.1865 17.5562V20.1075L22.3184 20.4043V22.3155H16.7056ZM22.4946 16.1739C23.0822 16.1739 23.4904 15.9543 23.7192 15.5152C23.9481 15.0699 24.0625 14.4483 24.0625 13.6504V13.4556C24.0625 12.9052 24.0099 12.4258 23.9048 12.0176C23.7996 11.6094 23.6296 11.294 23.3945 11.0713C23.1657 10.8425 22.8595 10.7281 22.4761 10.7281C22.1978 10.7281 21.9442 10.7899 21.7153 10.9136C21.4927 11.0373 21.3164 11.2229 21.1865 11.4703V15.5616C21.3164 15.7657 21.4958 15.9203 21.7246 16.0254C21.9535 16.1244 22.2101 16.1739 22.4946 16.1739Z" fill="#BBBBBB"/>
</g>
<defs>
<clipPath id="clip0_0_3">
<rect width="35" height="29" fill="white"/>
</clipPath>
</defs>
</svg>
