<svg width="32" height="32" viewBox="0 0 32 32" fill="none" xmlns="http://www.w3.org/2000/svg">
<g clip-path="url(#clip0_0_3)">
<path d="M22.7771 30.1972L22.3664 29.0785C23.5653 28.6726 24.4432 28.0024 25.0002 27.0678C25.5666 26.1427 25.8498 25.0051 25.8498 23.6552V20.4409C25.8498 19.3741 26.0764 18.4537 26.5295 17.6796C26.9921 16.9055 27.7048 16.3627 28.6677 16.0512C27.7048 15.7397 26.9921 15.2016 26.5295 14.4369C26.0764 13.6723 25.8498 12.7472 25.8498 11.6616V8.43304C25.8498 7.07367 25.5713 5.91725 25.0144 4.9638C24.4668 4.01035 23.5984 3.3401 22.4089 2.95306L22.7771 1.84857C24.4952 2.36777 25.7177 3.19378 26.4445 4.3266C27.1809 5.44997 27.549 6.81878 27.549 8.43304V11.6616C27.549 12.8227 27.8134 13.7242 28.342 14.3661C28.8801 14.9986 29.7061 15.3149 30.82 15.3149V16.7734C29.7061 16.7734 28.8801 17.0991 28.342 17.7504C27.8134 18.3924 27.549 19.2892 27.549 20.4409V23.6552C27.549 25.26 27.1809 26.6194 26.4445 27.7333C25.7177 28.8567 24.4952 29.678 22.7771 30.1972Z" fill="white"/>
<path d="M22.7771 30.1972L21.3689 30.7141C21.6427 31.4599 22.4505 31.8629 23.211 31.6331L22.7771 30.1972ZM22.3664 29.0785L21.8854 27.6578C21.5023 27.7875 21.1879 28.0663 21.0133 28.4312C20.8388 28.796 20.8189 29.2158 20.9583 29.5955L22.3664 29.0785ZM25.0002 27.0678L23.7209 26.2846C23.7178 26.2897 23.7147 26.2948 23.7117 26.2999L25.0002 27.0678ZM26.5295 17.6796L25.2418 16.9102L25.235 16.9219L26.5295 17.6796ZM28.6677 16.0512L29.1294 17.4784C29.7484 17.2781 30.1677 16.7017 30.1677 16.0512C30.1677 15.4007 29.7484 14.8243 29.1294 14.624L28.6677 16.0512ZM26.5295 14.4369L25.239 15.2017L25.2461 15.2133L26.5295 14.4369ZM25.0144 4.9638L23.7136 5.7108L23.7192 5.72041L25.0144 4.9638ZM22.4089 2.95306L20.9859 2.47872C20.8595 2.85789 20.8896 3.27183 21.0697 3.62868C21.2497 3.98553 21.5647 4.25577 21.9448 4.37944L22.4089 2.95306ZM22.7771 1.84857L23.211 0.4127C22.4338 0.177833 21.6108 0.603981 21.354 1.37423L22.7771 1.84857ZM26.4445 4.3266L25.1821 5.13667C25.1847 5.14075 25.1874 5.14483 25.19 5.14889L26.4445 4.3266ZM28.342 14.3661L27.1841 15.3197C27.1892 15.3259 27.1943 15.332 27.1995 15.3381L28.342 14.3661ZM30.82 15.3149H32.32C32.32 14.4864 31.6485 13.8149 30.82 13.8149V15.3149ZM30.82 16.7734V18.2734C31.6485 18.2734 32.32 17.6018 32.32 16.7734H30.82ZM28.342 17.7504L27.1856 16.7951L27.1841 16.7969L28.342 17.7504ZM26.4445 27.7333L25.1932 26.9062C25.1905 26.9103 25.1878 26.9144 25.1852 26.9185L26.4445 27.7333ZM24.1852 29.6803L23.7745 28.5616L20.9583 29.5955L21.3689 30.7141L24.1852 29.6803ZM22.8475 30.4993C24.3263 29.9986 25.5197 29.1262 26.2887 27.8357L23.7117 26.2999C23.3668 26.8786 22.8043 27.3466 21.8854 27.6578L22.8475 30.4993ZM26.2795 27.851C27.0217 26.6387 27.3498 25.2143 27.3498 23.6552H24.3498C24.3498 24.7959 24.1115 25.6466 23.7209 26.2846L26.2795 27.851ZM27.3498 23.6552V20.4409H24.3498V23.6552H27.3498ZM27.3498 20.4409C27.3498 19.5898 27.5289 18.9415 27.824 18.4374L25.235 16.9219C24.6238 17.9659 24.3498 19.1584 24.3498 20.4409H27.3498ZM27.8171 18.4491C28.0701 18.0256 28.4671 17.6926 29.1294 17.4784L28.206 14.624C26.9425 15.0328 25.914 15.7854 25.2419 16.9102L27.8171 18.4491ZM29.1294 14.624C28.4613 14.4079 28.064 14.0755 27.8129 13.6605L25.2461 15.2133C25.9202 16.3276 26.9483 17.0715 28.206 17.4784L29.1294 14.624ZM27.8199 13.6722C27.5314 13.1854 27.3498 12.5375 27.3498 11.6616H24.3498C24.3498 12.9568 24.6213 14.1592 25.2391 15.2017L27.8199 13.6722ZM27.3498 11.6616V8.43304H24.3498V11.6616H27.3498ZM27.3498 8.43304C27.3498 6.86884 27.0284 5.43778 26.3096 4.2072L23.7192 5.72041C24.1142 6.39672 24.3498 7.27849 24.3498 8.43304H27.3498ZM26.3151 4.21682C25.5569 2.8965 24.3638 2.01176 22.873 1.52668L21.9448 4.37944C22.8329 4.66845 23.3767 5.1242 23.7136 5.71078L26.3151 4.21682ZM23.8319 3.4274L24.2001 2.32291L21.354 1.37423L20.9859 2.47872L23.8319 3.4274ZM22.3431 3.28444C23.8345 3.73511 24.7044 4.39215 25.1821 5.13667L27.707 3.51652C26.731 1.99541 25.1558 1.00043 23.211 0.4127L22.3431 3.28444ZM25.19 5.14889C25.7363 5.98236 26.049 7.05123 26.049 8.43304H29.049C29.049 6.58633 28.6254 4.91758 27.6991 3.5043L25.19 5.14889ZM26.049 8.43304V11.6616H29.049V8.43304H26.049ZM26.049 11.6616C26.049 13.0344 26.3609 14.3201 27.1841 15.3197L29.4999 13.4126C29.2658 13.1283 29.049 12.611 29.049 11.6616H26.049ZM27.1995 15.3381C28.1116 16.4102 29.4252 16.8149 30.82 16.8149V13.8149C29.987 13.8149 29.6486 13.587 29.4845 13.3942L27.1995 15.3381ZM29.32 15.3149V16.7734H32.32V15.3149H29.32ZM30.82 15.2734C29.4112 15.2734 28.0933 15.6963 27.1856 16.7951L29.4984 18.7057C29.6669 18.5018 30.001 18.2734 30.82 18.2734V15.2734ZM27.1841 16.7969C26.3625 17.7945 26.049 19.074 26.049 20.4409H29.049C29.049 19.5043 29.2642 18.9902 29.4999 18.704L27.1841 16.7969ZM26.049 20.4409V23.6552H29.049V20.4409H26.049ZM26.049 23.6552C26.049 25.0261 25.7371 26.0834 25.1932 26.9062L27.6959 28.5605C28.6247 27.1554 29.049 25.494 29.049 23.6552H26.049ZM25.1852 26.9185C24.7085 27.6551 23.8381 28.3096 22.3431 28.7613L23.211 31.6331C25.1522 31.0464 26.7268 30.0583 27.7039 28.5482L25.1852 26.9185Z" fill="black"/>
<path d="M9.0955 30.1972C7.35852 29.678 6.12658 28.8567 5.39969 27.7333C4.67281 26.6194 4.30936 25.26 4.30936 23.6552V20.4409C4.30936 19.2797 4.04032 18.3782 3.50223 17.7363C2.97359 17.0943 2.1523 16.7734 1.03837 16.7734V15.3149C2.1523 15.3149 2.97359 14.9986 3.50223 14.3661C4.04032 13.7242 4.30936 12.8227 4.30936 11.6616V8.43304C4.30936 6.81878 4.67281 5.44997 5.39969 4.3266C6.12658 3.19378 7.35852 2.36777 9.0955 1.84857L9.46366 2.95306C8.25533 3.3401 7.3774 4.01035 6.82987 4.9638C6.28234 5.91725 6.00858 7.07367 6.00858 8.43304V11.6616C6.00858 12.7283 5.78202 13.644 5.32889 14.4086C4.88521 15.1733 4.20552 15.7208 3.28983 16.0512C4.20552 16.3816 4.88521 16.9339 5.32889 17.7079C5.78202 18.4726 6.00858 19.3836 6.00858 20.4409V23.6552C6.00858 25.0051 6.28706 26.1427 6.84403 27.0678C7.401 28.0024 8.28837 28.6726 9.50614 29.0785L9.0955 30.1972Z" fill="white"/>
<path d="M9.0955 30.1972L8.66591 31.6344C9.42541 31.8614 10.2304 31.4583 10.5036 30.7141L9.0955 30.1972ZM5.39969 27.7333L6.65906 26.9185L6.6559 26.9136L5.39969 27.7333ZM3.50223 17.7363L2.34429 18.6899L2.35268 18.6999L3.50223 17.7363ZM1.03837 16.7734H-0.461634C-0.461634 17.6018 0.209939 18.2734 1.03837 18.2734V16.7734ZM1.03837 15.3149V13.8149C0.209939 13.8149 -0.461634 14.4864 -0.461634 15.3149H1.03837ZM3.50223 14.3661L2.35268 13.4025L2.35131 13.4042L3.50223 14.3661ZM5.39969 4.3266L6.65906 5.14148L6.66215 5.13667L5.39969 4.3266ZM9.0955 1.84857L10.5185 1.37423C10.2623 0.605645 9.44213 0.179377 8.66591 0.411399L9.0955 1.84857ZM9.46366 2.95306L9.92123 4.38157C10.303 4.25928 10.6199 3.98926 10.8013 3.63176C10.9827 3.27426 11.0135 2.85903 10.8867 2.47872L9.46366 2.95306ZM5.32889 14.4086L4.0384 13.6439L4.03149 13.6558L5.32889 14.4086ZM3.28983 16.0512L2.78072 14.6402C2.18612 14.8548 1.78983 15.4191 1.78983 16.0512C1.78983 16.6833 2.18612 17.2476 2.78072 17.4622L3.28983 16.0512ZM5.32889 17.7079L4.02751 18.4539C4.03111 18.4601 4.03476 18.4664 4.03846 18.4726L5.32889 17.7079ZM6.84403 27.0678L8.13257 26.2999L8.12911 26.2941L6.84403 27.0678ZM9.50614 29.0785L10.9143 29.5955C11.054 29.2147 11.0336 28.7935 10.8577 28.428C10.6818 28.0625 10.3653 27.7838 9.98048 27.6555L9.50614 29.0785ZM9.52508 28.76C8.00814 28.3066 7.13278 27.6506 6.65905 26.9185L4.14034 28.5482C5.12039 30.0628 6.70889 31.0494 8.66591 31.6344L9.52508 28.76ZM6.6559 26.9136C6.11834 26.0898 5.80936 25.0297 5.80936 23.6552H2.80936C2.80936 25.4904 3.22727 27.149 4.14349 28.5531L6.6559 26.9136ZM5.80936 23.6552V20.4409H2.80936V23.6552H5.80936ZM5.80936 20.4409C5.80936 19.0625 5.49009 17.7727 4.65179 16.7727L2.35268 18.6999C2.59055 18.9836 2.80936 19.4969 2.80936 20.4409H5.80936ZM4.66013 16.7827C3.75745 15.6866 2.43846 15.2734 1.03837 15.2734V18.2734C1.86614 18.2734 2.18973 18.5021 2.34434 18.6898L4.66013 16.7827ZM2.53837 16.7734V15.3149H-0.461634V16.7734H2.53837ZM1.03837 16.8149C2.43138 16.8149 3.74822 16.4108 4.65316 15.3281L2.35131 13.4042C2.19896 13.5865 1.87321 13.8149 1.03837 13.8149V16.8149ZM4.65179 15.3297C5.49009 14.3297 5.80936 13.0399 5.80936 11.6616H2.80936C2.80936 12.6055 2.59055 13.1188 2.35268 13.4025L4.65179 15.3297ZM5.80936 11.6616V8.43304H2.80936V11.6616H5.80936ZM5.80936 8.43304C5.80936 7.04763 6.11907 5.97599 6.65905 5.14147L4.14034 3.51172C3.22655 4.92394 2.80936 6.58993 2.80936 8.43304H5.80936ZM6.66215 5.13667C7.13696 4.39669 8.01173 3.7381 9.52508 3.28574L8.66591 0.411399C6.7053 0.997449 5.1162 1.99087 4.13724 3.51652L6.66215 5.13667ZM7.67247 2.32291L8.04063 3.4274L10.8867 2.47872L10.5185 1.37423L7.67247 2.32291ZM9.00609 1.52455C7.50016 2.00692 6.29142 2.88932 5.52909 4.21682L8.13065 5.71078C8.46337 5.13138 9.0105 4.67329 9.92123 4.38157L9.00609 1.52455ZM5.52909 4.21682C4.82352 5.44549 4.50858 6.87295 4.50858 8.43304H7.50858C7.50858 7.27438 7.74117 6.38902 8.13065 5.71078L5.52909 4.21682ZM4.50858 8.43304V11.6616H7.50858V8.43304H4.50858ZM4.50858 11.6616C4.50858 12.5132 4.32925 13.1532 4.03846 13.6439L6.61933 15.1733C7.23479 14.1347 7.50858 12.9433 7.50858 11.6616H4.50858ZM4.03149 13.6558C3.78323 14.0837 3.40035 14.4167 2.78072 14.6402L3.79894 17.4622C5.01069 17.0249 5.98719 16.2629 6.6263 15.1614L4.03149 13.6558ZM2.78072 17.4622C3.39457 17.6837 3.77728 18.0173 4.02751 18.4539L6.63028 16.962C5.99313 15.8504 5.01647 15.0796 3.79894 14.6402L2.78072 17.4622ZM4.03846 18.4726C4.33041 18.9653 4.50858 19.6013 4.50858 20.4409H7.50858C7.50858 19.1658 7.23362 17.9799 6.61933 16.9432L4.03846 18.4726ZM4.50858 20.4409V23.6552H7.50858V20.4409H4.50858ZM4.50858 23.6552C4.50858 25.2101 4.83016 26.6309 5.55895 27.8415L8.12911 26.2941C7.74397 25.6544 7.50858 24.8001 7.50858 23.6552H4.50858ZM5.5555 27.8357C6.32866 29.1331 7.53748 30.0035 9.0318 30.5016L9.98048 27.6555C9.03926 27.3418 8.47333 26.8717 8.13256 26.2999L5.5555 27.8357ZM8.09802 28.5616L7.68737 29.6803L10.5036 30.7141L10.9143 29.5955L8.09802 28.5616Z" fill="black"/>
<path d="M10.7302 22.8474C10.53 22.8474 10.3469 22.8376 10.1809 22.8181C10.0198 22.7985 9.85132 22.7668 9.67554 22.7228L9.7854 21.1042C9.89282 21.1335 10.0051 21.1555 10.1223 21.1701C10.2444 21.1896 10.3713 21.1994 10.5032 21.1994C10.7815 21.1994 10.9988 21.0895 11.155 20.8698C11.3113 20.6501 11.3894 20.34 11.3894 19.9396V13.2307L10.2468 13.0109V11.7219H13.5208V19.9396C13.5208 20.8723 13.2742 21.59 12.781 22.093C12.2927 22.5959 11.6091 22.8474 10.7302 22.8474ZM11.2869 10.0446V8.2209H13.4988V10.0446H11.2869ZM14.7659 22.6936V21.4045L15.7986 21.1848V13.2307L14.656 13.0109V11.7219H17.7615L17.864 12.6447C18.0984 12.3029 18.3816 12.0393 18.7136 11.8537C19.0457 11.6682 19.4412 11.5754 19.9001 11.5754C20.5398 11.5754 21.0867 11.7512 21.5408 12.1027C21.9949 12.4494 22.3416 12.9353 22.5808 13.5603C22.825 14.1853 22.947 14.9152 22.947 15.7502V15.904C22.947 16.6853 22.825 17.3688 22.5808 17.9548C22.3416 18.5358 21.9924 18.9899 21.5334 19.3171C21.0793 19.6394 20.53 19.8005 19.8855 19.8005C19.4607 19.8005 19.0847 19.7248 18.7576 19.5734C18.4353 19.4172 18.1594 19.1901 17.9299 18.8923V21.1848L18.9626 21.4045V22.6936H14.7659ZM19.2483 18.1599C19.7952 18.1599 20.1907 17.9572 20.4348 17.552C20.6838 17.1467 20.8083 16.5974 20.8083 15.904V15.7502C20.8083 15.2473 20.7522 14.8103 20.6399 14.4392C20.5276 14.0632 20.3542 13.7702 20.1199 13.5603C19.8904 13.3454 19.595 13.238 19.2336 13.238C18.9407 13.238 18.6819 13.3039 18.4573 13.4357C18.2375 13.5676 18.0618 13.7556 17.9299 13.9997V17.4714C18.0618 17.696 18.2375 17.8669 18.4573 17.9841C18.6819 18.1013 18.9456 18.1599 19.2483 18.1599Z" fill="white"/>
<path d="M10.1809 22.8181L10.0004 24.3072L10.0056 24.3078L10.1809 22.8181ZM9.67554 22.7228L8.17898 22.6213C8.12979 23.346 8.607 24.0019 9.31173 24.1781L9.67554 22.7228ZM9.7854 21.1042L10.1801 19.6571C9.74625 19.5387 9.28222 19.6213 8.91582 19.882C8.54942 20.1427 8.31929 20.554 8.28884 21.0026L9.7854 21.1042ZM10.1223 21.1701L10.3593 19.689C10.3424 19.6862 10.3254 19.6838 10.3084 19.6817L10.1223 21.1701ZM11.3894 13.2307H12.8894C12.8894 12.5115 12.3789 11.8935 11.6727 11.7577L11.3894 13.2307ZM10.2468 13.0109H8.74683C8.74683 13.7301 9.25729 14.3481 9.96356 14.4839L10.2468 13.0109ZM10.2468 11.7219V10.2219C9.4184 10.2219 8.74683 10.8934 8.74683 11.7219H10.2468ZM13.5208 11.7219H15.0208C15.0208 10.8934 14.3492 10.2219 13.5208 10.2219V11.7219ZM12.781 22.093L11.71 21.0427L11.7048 21.0481L12.781 22.093ZM11.2869 10.0446H9.78687C9.78687 10.8731 10.4584 11.5446 11.2869 11.5446V10.0446ZM11.2869 8.2209V6.7209C10.4584 6.7209 9.78687 7.39247 9.78687 8.2209H11.2869ZM13.4988 8.2209H14.9988C14.9988 7.39247 14.3272 6.7209 13.4988 6.7209V8.2209ZM13.4988 10.0446V11.5446C14.3272 11.5446 14.9988 10.8731 14.9988 10.0446H13.4988ZM10.7302 21.3474C10.5776 21.3474 10.454 21.3398 10.3562 21.3283L10.0056 24.3078C10.2398 24.3353 10.4825 24.3474 10.7302 24.3474V21.3474ZM10.3614 21.329C10.2686 21.3177 10.1616 21.2982 10.0393 21.2676L9.31173 24.1781C9.54102 24.2354 9.77091 24.2793 10.0004 24.3072L10.3614 21.329ZM11.1721 22.8244L11.282 21.2058L8.28884 21.0026L8.17898 22.6213L11.1721 22.8244ZM9.39072 22.5513C9.57061 22.6004 9.75287 22.6356 9.93626 22.6585L10.3084 19.6817C10.2574 19.6753 10.215 19.6666 10.1801 19.6571L9.39072 22.5513ZM9.88533 22.6513C10.0908 22.6841 10.2972 22.6994 10.5032 22.6994V19.6994C10.4455 19.6994 10.398 19.6951 10.3593 19.689L9.88533 22.6513ZM10.5032 22.6994C11.2484 22.6994 11.9292 22.3694 12.3775 21.7391L9.9326 20.0005C9.98015 19.9337 10.0669 19.8447 10.198 19.7784C10.3275 19.713 10.441 19.6994 10.5032 19.6994V22.6994ZM12.3775 21.7391C12.7826 21.1694 12.8894 20.5083 12.8894 19.9396H9.8894C9.8894 19.9914 9.88686 20.0307 9.88374 20.059C9.88062 20.0874 9.8772 20.1023 9.87627 20.106C9.87442 20.1133 9.88478 20.0678 9.9326 20.0005L12.3775 21.7391ZM12.8894 19.9396V13.2307H9.8894V19.9396H12.8894ZM11.6727 11.7577L10.5301 11.5379L9.96356 14.4839L11.1061 14.7037L11.6727 11.7577ZM11.7468 13.0109V11.7219H8.74683V13.0109H11.7468ZM10.2468 13.2219H13.5208V10.2219H10.2468V13.2219ZM12.0208 11.7219V19.9396H15.0208V11.7219H12.0208ZM12.0208 19.9396C12.0208 20.6109 11.8482 20.9018 11.71 21.0428L13.852 23.1432C14.7002 22.2782 15.0208 21.1336 15.0208 19.9396H12.0208ZM11.7048 21.0481C11.5669 21.1901 11.3127 21.3474 10.7302 21.3474V24.3474C11.9055 24.3474 13.0186 24.0017 13.8572 23.1378L11.7048 21.0481ZM12.7869 10.0446V8.2209H9.78687V10.0446H12.7869ZM11.2869 9.7209H13.4988V6.7209H11.2869V9.7209ZM11.9988 8.2209V10.0446H14.9988V8.2209H11.9988ZM13.4988 8.54463H11.2869V11.5446H13.4988V8.54463ZM14.7659 22.6936H13.2659C13.2659 23.522 13.9374 24.1936 14.7659 24.1936V22.6936ZM14.7659 21.4045L14.4537 19.9373C13.7611 20.0847 13.2659 20.6964 13.2659 21.4045H14.7659ZM15.7986 21.1848L16.1107 22.6519C16.8034 22.5046 17.2986 21.8929 17.2986 21.1848H15.7986ZM15.7986 13.2307H17.2986C17.2986 12.5115 16.7881 11.8935 16.0819 11.7577L15.7986 13.2307ZM14.656 13.0109H13.156C13.156 13.7301 13.6665 14.3481 14.3727 14.4839L14.656 13.0109ZM14.656 11.7219V10.2219C13.8276 10.2219 13.156 10.8934 13.156 11.7219H14.656ZM17.7615 11.7219L19.2523 11.5562C19.1679 10.7966 18.5258 10.2219 17.7615 10.2219V11.7219ZM17.864 12.6447L16.3732 12.8104C16.4424 13.4334 16.8918 13.9477 17.4999 14.0999C18.108 14.252 18.7466 14.01 19.1011 13.493L17.864 12.6447ZM21.5408 12.1027L20.6225 13.2888L20.6305 13.295L21.5408 12.1027ZM22.5808 13.5603L21.1799 14.0965L21.1836 14.106L22.5808 13.5603ZM22.5808 17.9548L21.1962 17.3779L21.1938 17.3837L22.5808 17.9548ZM21.5334 19.3171L22.4016 20.5404L22.4041 20.5386L21.5334 19.3171ZM18.7576 19.5734L18.1032 20.9232C18.1113 20.9271 18.1195 20.931 18.1277 20.9348L18.7576 19.5734ZM17.9299 18.8923L19.1181 17.9768C18.7263 17.4682 18.0541 17.2654 17.4464 17.4724C16.8386 17.6794 16.4299 18.2502 16.4299 18.8923H17.9299ZM17.9299 21.1848H16.4299C16.4299 21.8929 16.9251 22.5046 17.6178 22.6519L17.9299 21.1848ZM18.9626 21.4045H20.4626C20.4626 20.6964 19.9674 20.0847 19.2748 19.9373L18.9626 21.4045ZM18.9626 22.6936V24.1936C19.7911 24.1936 20.4626 23.522 20.4626 22.6936H18.9626ZM20.4348 17.552L19.1567 16.7666L19.1499 16.7779L20.4348 17.552ZM20.6399 14.4392L19.2026 14.8685L19.2042 14.8736L20.6399 14.4392ZM20.1199 13.5603L19.0947 14.6553C19.1027 14.6628 19.1108 14.6702 19.119 14.6775L20.1199 13.5603ZM18.4573 13.4357L17.698 12.1421C17.6938 12.1446 17.6897 12.147 17.6855 12.1495L18.4573 13.4357ZM17.9299 13.9997L16.6101 13.287C16.4918 13.5059 16.4299 13.7509 16.4299 13.9997H17.9299ZM17.9299 17.4714H16.4299C16.4299 17.7383 16.5012 18.0005 16.6363 18.2307L17.9299 17.4714ZM18.4573 17.9841L17.7514 19.3077L17.7634 19.314L18.4573 17.9841ZM16.2659 22.6936V21.4045H13.2659V22.6936H16.2659ZM15.078 22.8716L16.1107 22.6519L15.4864 19.7176L14.4537 19.9373L15.078 22.8716ZM17.2986 21.1848V13.2307H14.2986V21.1848H17.2986ZM16.0819 11.7577L14.9393 11.5379L14.3727 14.4839L15.5153 14.7037L16.0819 11.7577ZM16.156 13.0109V11.7219H13.156V13.0109H16.156ZM14.656 13.2219H17.7615V10.2219H14.656V13.2219ZM16.2706 11.8875L16.3732 12.8104L19.3548 12.4791L19.2523 11.5562L16.2706 11.8875ZM19.1011 13.493C19.2167 13.3244 19.3327 13.2261 19.4454 13.1631L17.9819 10.5443C17.4305 10.8524 16.9801 11.2814 16.6269 11.7964L19.1011 13.493ZM19.4454 13.1631C19.5118 13.126 19.6446 13.0754 19.9001 13.0754V10.0754C19.2377 10.0754 18.5795 10.2103 17.9819 10.5443L19.4454 13.1631ZM19.9001 13.0754C20.2473 13.0754 20.4612 13.1639 20.6225 13.2888L22.459 10.9166C21.7122 10.3384 20.8323 10.0754 19.9001 10.0754V13.0754ZM20.6305 13.295C20.8279 13.4456 21.0229 13.6863 21.1799 14.0965L23.9817 13.024C23.6602 12.1842 23.1619 11.4532 22.451 10.9105L20.6305 13.295ZM21.1836 14.106C21.3455 14.5203 21.447 15.058 21.447 15.7502H24.447C24.447 14.7725 24.3044 13.8502 23.978 13.0145L21.1836 14.106ZM21.447 15.7502V15.904H24.447V15.7502H21.447ZM21.447 15.904C21.447 16.5316 21.3488 17.0117 21.1962 17.3779L23.9654 18.5317C24.3011 17.726 24.447 16.8389 24.447 15.904H21.447ZM21.1938 17.3837C21.0493 17.7346 20.8661 17.9507 20.6628 18.0956L22.4041 20.5386C23.1188 20.0292 23.6338 19.3371 23.9678 18.5259L21.1938 17.3837ZM20.6653 18.0938C20.5033 18.2088 20.2696 18.3005 19.8855 18.3005V21.3005C20.7905 21.3005 21.6554 21.0699 22.4016 20.5403L20.6653 18.0938ZM19.8855 18.3005C19.6398 18.3005 19.485 18.2572 19.3874 18.2121L18.1277 20.9348C18.6844 21.1924 19.2816 21.3005 19.8855 21.3005V18.3005ZM19.412 18.2237C19.3094 18.174 19.213 18.0999 19.1181 17.9768L16.7417 19.8078C17.1058 20.2803 17.5612 20.6604 18.1032 20.9232L19.412 18.2237ZM16.4299 18.8923V21.1848H19.4299V18.8923H16.4299ZM17.6178 22.6519L18.6505 22.8716L19.2748 19.9373L18.2421 19.7176L17.6178 22.6519ZM17.4626 21.4045V22.6936H20.4626V21.4045H17.4626ZM18.9626 21.1936H14.7659V24.1936H18.9626V21.1936ZM19.2483 19.6599C20.224 19.6599 21.1575 19.2592 21.7197 18.326L19.1499 16.7779C19.1533 16.7723 19.1657 16.7537 19.19 16.7306C19.2148 16.707 19.2432 16.6872 19.2711 16.6729C19.3283 16.6436 19.3378 16.6599 19.2483 16.6599V19.6599ZM21.7128 18.3372C22.1589 17.6113 22.3083 16.7552 22.3083 15.904H19.3083C19.3083 16.4395 19.2088 16.682 19.1568 16.7667L21.7128 18.3372ZM22.3083 15.904V15.7502H19.3083V15.904H22.3083ZM22.3083 15.7502C22.3083 15.1413 22.241 14.5513 22.0756 14.0047L19.2042 14.8736C19.2634 15.0692 19.3083 15.3533 19.3083 15.7502H22.3083ZM22.0771 14.0098C21.9051 13.4338 21.6066 12.8783 21.1207 12.443L19.119 14.6775C19.1019 14.6622 19.1501 14.6925 19.2026 14.8685L22.0771 14.0098ZM21.145 12.4652C20.596 11.9512 19.9146 11.738 19.2336 11.738V14.738C19.2652 14.738 19.2528 14.7425 19.2136 14.7282C19.1709 14.7127 19.1278 14.6863 19.0947 14.6553L21.145 12.4652ZM19.2336 11.738C18.7078 11.738 18.1805 11.8589 17.698 12.1421L19.2166 14.7294C19.2111 14.7326 19.2054 14.7354 19.2001 14.7375C19.1948 14.7397 19.1912 14.7407 19.1901 14.741C19.1874 14.7417 19.2001 14.738 19.2336 14.738V11.738ZM17.6855 12.1495C17.2159 12.4313 16.8589 12.8262 16.6101 13.287L19.2498 14.7124C19.2547 14.7033 19.258 14.6985 19.259 14.697C19.26 14.6956 19.2592 14.697 19.2563 14.7001C19.2533 14.7033 19.2491 14.7073 19.2439 14.7115C19.2386 14.7158 19.2335 14.7193 19.229 14.722L17.6855 12.1495ZM16.4299 13.9997V17.4714H19.4299V13.9997H16.4299ZM16.6363 18.2307C16.9015 18.6825 17.276 19.0541 17.7514 19.3076L19.1632 16.6605C19.1756 16.6672 19.1915 16.6782 19.2063 16.6925C19.2207 16.7065 19.2256 16.7156 19.2236 16.7121L16.6363 18.2307ZM17.7634 19.314C18.2402 19.5627 18.7508 19.6599 19.2483 19.6599V16.6599C19.1934 16.6599 19.1619 16.6545 19.1489 16.6516C19.1368 16.6489 19.1396 16.6482 19.1511 16.6542L17.7634 19.314Z" fill="black"/>
</g>
<defs>
<clipPath id="clip0_0_3">
<rect width="32" height="32" fill="white"/>
</clipPath>
</defs>
</svg>
