<svg width="42" height="42" viewBox="0 0 42 42" fill="none" xmlns="http://www.w3.org/2000/svg">
<g clip-path="url(#clip0_0_3)">
<circle cx="21" cy="21" r="20.5" fill="white"/>
<path d="M29.5557 36.2349L29.1451 35.1162C30.344 34.7103 31.2219 34.04 31.7789 33.1055C32.3453 32.1803 32.6285 31.0428 32.6285 29.6929V26.4785C32.6285 25.4118 32.855 24.4914 33.3082 23.7173C33.7707 22.9432 34.4834 22.4004 35.4463 22.0889C34.4834 21.7773 33.7707 21.2393 33.3082 20.4746C32.855 19.71 32.6285 18.7848 32.6285 17.6992V14.4707C32.6285 13.1113 32.35 11.9549 31.793 11.0015C31.2455 10.048 30.377 9.37777 29.1875 8.99072L29.5557 7.88623C31.2738 8.40544 32.4963 9.23145 33.2232 10.3643C33.9595 11.4876 34.3277 12.8564 34.3277 14.4707V17.6992C34.3277 18.8604 34.592 19.7619 35.1207 20.4038C35.6587 21.0363 36.4848 21.3525 37.5987 21.3525V22.811C36.4848 22.811 35.6587 23.1367 35.1207 23.7881C34.592 24.43 34.3277 25.3268 34.3277 26.4785V29.6929C34.3277 31.2977 33.9595 32.6571 33.2232 33.771C32.4963 34.8944 31.2738 35.7157 29.5557 36.2349Z" fill="#5C5C5C"/>
<path d="M12.3169 36.2349C10.5799 35.7157 9.34794 34.8944 8.62105 33.771C7.89416 32.6571 7.53072 31.2977 7.53072 29.6929V26.4785C7.53072 25.3174 7.26167 24.4159 6.72359 23.7739C6.19494 23.132 5.37365 22.811 4.25972 22.811V21.3525C5.37365 21.3525 6.19494 21.0363 6.72359 20.4038C7.26167 19.7619 7.53072 18.8604 7.53072 17.6992V14.4707C7.53072 12.8564 7.89416 11.4876 8.62105 10.3643C9.34794 9.23145 10.5799 8.40544 12.3169 7.88623L12.685 8.99072C11.4767 9.37777 10.5988 10.048 10.0512 11.0015C9.5037 11.9549 9.22994 13.1113 9.22994 14.4707V17.6992C9.22994 18.766 9.00337 19.6816 8.55025 20.4463C8.10656 21.2109 7.42688 21.7585 6.51119 22.0889C7.42688 22.4193 8.10656 22.9715 8.55025 23.7456C9.00337 24.5103 9.22994 25.4212 9.22994 26.4785V29.6929C9.22994 31.0428 9.50842 32.1803 10.0654 33.1055C10.6224 34.04 11.5097 34.7103 12.7275 35.1162L12.3169 36.2349Z" fill="#5C5C5C"/>
<path d="M14.8355 28.6185C14.5448 28.6185 14.2819 28.6061 14.0469 28.5814C13.8119 28.5628 13.5675 28.5257 13.314 28.47L13.4624 26.0116C13.6232 26.0487 13.7624 26.0765 13.8799 26.095C14.0036 26.1198 14.1644 26.1322 14.3623 26.1322C14.7087 26.1322 14.9746 26.0023 15.1602 25.7425C15.3519 25.4889 15.4478 25.1271 15.4478 24.6571V16.7342L14.0376 16.4373V14.5262H18.6855V24.6571C18.6855 25.925 18.3485 26.9022 17.6743 27.5887C17.0002 28.2752 16.0539 28.6185 14.8355 28.6185ZM15.2993 12.6243V10.0916H18.6484V12.6243H15.2993ZM20.1699 28.4237V26.5125L21.4131 26.2157V16.7342L20.0029 16.4373V14.5262H24.4653L24.5767 15.658C24.8488 15.2375 25.1766 14.9128 25.5601 14.6839C25.9435 14.4551 26.4136 14.3407 26.9702 14.3407C27.7619 14.3407 28.4422 14.5602 29.0112 14.9993C29.5802 15.4323 30.0163 16.0415 30.3193 16.827C30.6286 17.6125 30.7832 18.5247 30.7832 19.5638V19.7586C30.7832 20.7606 30.6286 21.6388 30.3193 22.3934C30.0163 23.1418 29.5772 23.7231 29.002 24.1375C28.4268 24.5519 27.7341 24.7591 26.9238 24.7591C26.429 24.7591 25.993 24.6663 25.6157 24.4808C25.2446 24.2952 24.923 24.0231 24.6509 23.6644V26.2157L25.7827 26.5125V28.4237H20.1699ZM25.959 22.2821C26.5466 22.2821 26.9548 22.0625 27.1836 21.6234C27.4124 21.1781 27.5269 20.5565 27.5269 19.7586V19.5638C27.5269 19.0133 27.4743 18.534 27.3691 18.1258C27.264 17.7176 27.0939 17.4022 26.8589 17.1795C26.63 16.9507 26.3239 16.8363 25.9404 16.8363C25.6621 16.8363 25.4085 16.8981 25.1797 17.0218C24.957 17.1455 24.7808 17.331 24.6509 17.5784V21.6698C24.7808 21.8739 24.9601 22.0285 25.189 22.1336C25.4178 22.2326 25.6745 22.2821 25.959 22.2821Z" fill="#BBBBBB"/>
</g>
<defs>
<clipPath id="clip0_0_3">
<rect width="42" height="42" fill="white"/>
</clipPath>
</defs>
</svg>
