<svg width="42" height="42" viewBox="0 0 42 42" fill="none" xmlns="http://www.w3.org/2000/svg">
<g clip-path="url(#clip0_0_3)">
<circle cx="21" cy="21" r="20.5" fill="white"/>
<path d="M29.669 35.6543L29.1026 33.9834C30.1221 33.6436 30.8537 33.0488 31.2974 32.1992C31.7411 31.359 31.9629 30.3159 31.9629 29.0698V26.167C31.9629 25.1569 32.1753 24.2743 32.6001 23.519C33.025 22.7638 33.681 22.1833 34.5684 21.7773C33.681 21.3903 33.025 20.8192 32.6001 20.064C32.1753 19.3088 31.9629 18.4167 31.9629 17.3877V14.4707C31.9629 13.2246 31.7411 12.1768 31.2974 11.3271C30.8537 10.4681 30.1221 9.87337 29.1026 9.54297L29.669 7.88623C31.5004 8.40544 32.8031 9.23145 33.5772 10.3643C34.3607 11.4876 34.7525 12.8564 34.7525 14.4707V17.3877C34.7525 18.4544 34.9932 19.2804 35.4747 19.8657C35.9561 20.4416 36.7019 20.7295 37.712 20.7295V22.811C36.7019 22.811 35.9561 23.1084 35.4747 23.7031C34.9932 24.2884 34.7525 25.1097 34.7525 26.167V29.0698C34.7525 30.6746 34.3607 32.0435 33.5772 33.1763C32.8031 34.3091 31.5004 35.1351 29.669 35.6543Z" fill="#828282"/>
<path d="M12.2744 35.6543C10.4335 35.1351 9.12138 34.3091 8.33785 33.1763C7.56376 32.0435 7.17671 30.6746 7.17671 29.0698V26.167C7.17671 25.1097 6.93599 24.2884 6.45455 23.7031C5.9731 23.1084 5.23205 22.811 4.2314 22.811V20.7295C5.23205 20.7295 5.9731 20.4416 6.45455 19.8657C6.93599 19.2804 7.17671 18.4544 7.17671 17.3877V14.4707C7.17671 12.8564 7.56376 11.4876 8.33785 10.3643C9.12138 9.23145 10.4335 8.40544 12.2744 7.88623L12.8408 9.54297C11.8024 9.87337 11.0613 10.4681 10.6176 11.3271C10.1834 12.1768 9.96626 13.2246 9.96626 14.4707V17.3877C9.96626 18.3789 9.76802 19.2521 9.37154 20.0073C8.97505 20.7625 8.37561 21.3525 7.5732 21.7773C8.37561 22.2116 8.97505 22.811 9.37154 23.5757C9.76802 24.3309 9.96626 25.1947 9.96626 26.167V29.0698C9.96626 30.3159 10.1834 31.359 10.6176 32.1992C11.0613 33.0488 11.8024 33.6436 12.8408 33.9834L12.2744 35.6543Z" fill="#828282"/>
<path d="M14.8355 28.6185C14.5448 28.6185 14.2819 28.6061 14.0469 28.5814C13.8119 28.5628 13.5675 28.5257 13.314 28.47L13.4624 26.0116C13.6232 26.0487 13.7624 26.0765 13.8799 26.095C14.0036 26.1198 14.1644 26.1322 14.3623 26.1322C14.7087 26.1322 14.9746 26.0023 15.1602 25.7425C15.3519 25.4889 15.4478 25.1271 15.4478 24.6571V16.7342L14.0376 16.4373V14.5262H18.6855V24.6571C18.6855 25.925 18.3485 26.9022 17.6743 27.5887C17.0002 28.2752 16.0539 28.6185 14.8355 28.6185ZM15.2993 12.6243V10.0916H18.6484V12.6243H15.2993ZM20.1699 28.4237V26.5125L21.4131 26.2157V16.7342L20.0029 16.4373V14.5262H24.4653L24.5767 15.658C24.8488 15.2375 25.1766 14.9128 25.5601 14.6839C25.9435 14.4551 26.4136 14.3407 26.9702 14.3407C27.7619 14.3407 28.4422 14.5602 29.0112 14.9993C29.5802 15.4323 30.0163 16.0415 30.3193 16.827C30.6286 17.6125 30.7832 18.5247 30.7832 19.5638V19.7586C30.7832 20.7606 30.6286 21.6388 30.3193 22.3934C30.0163 23.1418 29.5772 23.7231 29.002 24.1375C28.4268 24.5519 27.7341 24.7591 26.9238 24.7591C26.429 24.7591 25.993 24.6663 25.6157 24.4808C25.2446 24.2952 24.923 24.0231 24.6509 23.6644V26.2157L25.7827 26.5125V28.4237H20.1699ZM25.959 22.2821C26.5466 22.2821 26.9548 22.0625 27.1836 21.6234C27.4124 21.1781 27.5269 20.5565 27.5269 19.7586V19.5638C27.5269 19.0133 27.4743 18.534 27.3691 18.1258C27.264 17.7176 27.0939 17.4022 26.8589 17.1795C26.63 16.9507 26.3239 16.8363 25.9404 16.8363C25.6621 16.8363 25.4085 16.8981 25.1797 17.0218C24.957 17.1455 24.7808 17.331 24.6509 17.5784V21.6698C24.7808 21.8739 24.9601 22.0285 25.189 22.1336C25.4178 22.2326 25.6745 22.2821 25.959 22.2821Z" fill="black"/>
</g>
<defs>
<clipPath id="clip0_0_3">
<rect width="42" height="42" fill="white"/>
</clipPath>
</defs>
</svg>
